<?xml version="1.0" encoding="utf-8" standalone="no"?>
<!DOCTYPE svg PUBLIC "-//W3C//DTD SVG 1.1//EN"
  "http://www.w3.org/Graphics/SVG/1.1/DTD/svg11.dtd">
<svg height="162.119669pt" version="1.1" viewBox="0 0 260.06001 162.119669" width="260.06001pt" xmlns="http://www.w3.org/2000/svg" xmlns:xlink="http://www.w3.org/1999/xlink">
 <metadata>
  <rdf:RDF xmlns:cc="http://creativecommons.org/ns#" xmlns:dc="http://purl.org/dc/elements/1.1/" xmlns:rdf="http://www.w3.org/1999/02/22-rdf-syntax-ns#">
   <cc:Work>
    <dc:type rdf:resource="http://purl.org/dc/dcmitype/StillImage"/>
    <dc:date>2022-06-28T11:49:02.401328</dc:date>
    <dc:format>image/svg+xml</dc:format>
    <dc:creator>
     <cc:Agent>
      <dc:title>Matplotlib v3.4.3, https://matplotlib.org/</dc:title>
     </cc:Agent>
    </dc:creator>
   </cc:Work>
  </rdf:RDF>
 </metadata>
 <defs>
  <style type="text/css">*{stroke-linecap:butt;stroke-linejoin:round;}</style>
 </defs>
 <g id="figure_1">
  <g id="patch_1">
   <path d="M 0 162.119669 
L 260.06001 162.119669 
L 260.06001 0 
L 0 0 
z
" style="fill:#ffffff;"/>
  </g>
  <g id="axes_1">
   <g id="patch_2">
    <path d="M 35.96625 132.887169 
L 246.86001 132.887169 
L 246.86001 7.2 
L 35.96625 7.2 
z
" style="fill:#ffffff;"/>
   </g>
   <g id="matplotlib.axis_1">
    <g id="xtick_1">
     <g id="line2d_1">
      <defs>
       <path d="M 0 0 
L 0 -4 
" id="m43eee12079" style="stroke:#000000;stroke-width:0.8;"/>
      </defs>
      <g>
       <use style="stroke:#000000;stroke-width:0.8;" x="38.054307" xlink:href="#m43eee12079" y="132.887169"/>
      </g>
     </g>
     <g id="line2d_2">
      <defs>
       <path d="M 0 0 
L 0 4 
" id="m3a5a757bc0" style="stroke:#000000;stroke-width:0.8;"/>
      </defs>
      <g>
       <use style="stroke:#000000;stroke-width:0.8;" x="38.054307" xlink:href="#m3a5a757bc0" y="7.2"/>
      </g>
     </g>
     <g id="text_1">
      <!-- 0 -->
      <g transform="translate(36.054307 141.942169)scale(0.08 -0.08)">
       <defs>
        <path d="M 231 2094 
Q 231 2819 450 3342 
Q 669 3866 1031 4122 
Q 1313 4325 1613 4325 
Q 2100 4325 2488 3828 
Q 2972 3213 2972 2159 
Q 2972 1422 2759 906 
Q 2547 391 2217 158 
Q 1888 -75 1581 -75 
Q 975 -75 572 641 
Q 231 1244 231 2094 
z
M 844 2016 
Q 844 1141 1059 588 
Q 1238 122 1591 122 
Q 1759 122 1940 273 
Q 2122 425 2216 781 
Q 2359 1319 2359 2297 
Q 2359 3022 2209 3506 
Q 2097 3866 1919 4016 
Q 1791 4119 1609 4119 
Q 1397 4119 1231 3928 
Q 1006 3669 925 3112 
Q 844 2556 844 2016 
z
" id="TimesNewRomanPSMT-30" transform="scale(0.015625)"/>
       </defs>
       <use xlink:href="#TimesNewRomanPSMT-30"/>
      </g>
     </g>
    </g>
    <g id="xtick_2">
     <g id="line2d_3">
      <g>
       <use style="stroke:#000000;stroke-width:0.8;" x="90.255733" xlink:href="#m43eee12079" y="132.887169"/>
      </g>
     </g>
     <g id="line2d_4">
      <g>
       <use style="stroke:#000000;stroke-width:0.8;" x="90.255733" xlink:href="#m3a5a757bc0" y="7.2"/>
      </g>
     </g>
     <g id="text_2">
      <!-- 25 -->
      <g transform="translate(86.255733 141.942169)scale(0.08 -0.08)">
       <defs>
        <path d="M 2934 816 
L 2638 0 
L 138 0 
L 138 116 
Q 1241 1122 1691 1759 
Q 2141 2397 2141 2925 
Q 2141 3328 1894 3587 
Q 1647 3847 1303 3847 
Q 991 3847 742 3664 
Q 494 3481 375 3128 
L 259 3128 
Q 338 3706 661 4015 
Q 984 4325 1469 4325 
Q 1984 4325 2329 3994 
Q 2675 3663 2675 3213 
Q 2675 2891 2525 2569 
Q 2294 2063 1775 1497 
Q 997 647 803 472 
L 1909 472 
Q 2247 472 2383 497 
Q 2519 522 2628 598 
Q 2738 675 2819 816 
L 2934 816 
z
" id="TimesNewRomanPSMT-32" transform="scale(0.015625)"/>
        <path d="M 2778 4238 
L 2534 3706 
L 1259 3706 
L 981 3138 
Q 1809 3016 2294 2522 
Q 2709 2097 2709 1522 
Q 2709 1188 2573 903 
Q 2438 619 2231 419 
Q 2025 219 1772 97 
Q 1413 -75 1034 -75 
Q 653 -75 479 54 
Q 306 184 306 341 
Q 306 428 378 495 
Q 450 563 559 563 
Q 641 563 702 538 
Q 763 513 909 409 
Q 1144 247 1384 247 
Q 1750 247 2026 523 
Q 2303 800 2303 1197 
Q 2303 1581 2056 1914 
Q 1809 2247 1375 2428 
Q 1034 2569 447 2591 
L 1259 4238 
L 2778 4238 
z
" id="TimesNewRomanPSMT-35" transform="scale(0.015625)"/>
       </defs>
       <use xlink:href="#TimesNewRomanPSMT-32"/>
       <use x="50" xlink:href="#TimesNewRomanPSMT-35"/>
      </g>
     </g>
    </g>
    <g id="xtick_3">
     <g id="line2d_5">
      <g>
       <use style="stroke:#000000;stroke-width:0.8;" x="142.457159" xlink:href="#m43eee12079" y="132.887169"/>
      </g>
     </g>
     <g id="line2d_6">
      <g>
       <use style="stroke:#000000;stroke-width:0.8;" x="142.457159" xlink:href="#m3a5a757bc0" y="7.2"/>
      </g>
     </g>
     <g id="text_3">
      <!-- 50 -->
      <g transform="translate(138.457159 141.942169)scale(0.08 -0.08)">
       <use xlink:href="#TimesNewRomanPSMT-35"/>
       <use x="50" xlink:href="#TimesNewRomanPSMT-30"/>
      </g>
     </g>
    </g>
    <g id="xtick_4">
     <g id="line2d_7">
      <g>
       <use style="stroke:#000000;stroke-width:0.8;" x="194.658584" xlink:href="#m43eee12079" y="132.887169"/>
      </g>
     </g>
     <g id="line2d_8">
      <g>
       <use style="stroke:#000000;stroke-width:0.8;" x="194.658584" xlink:href="#m3a5a757bc0" y="7.2"/>
      </g>
     </g>
     <g id="text_4">
      <!-- 75 -->
      <g transform="translate(190.658584 141.942169)scale(0.08 -0.08)">
       <defs>
        <path d="M 644 4238 
L 2916 4238 
L 2916 4119 
L 1503 -88 
L 1153 -88 
L 2419 3728 
L 1253 3728 
Q 900 3728 750 3644 
Q 488 3500 328 3200 
L 238 3234 
L 644 4238 
z
" id="TimesNewRomanPSMT-37" transform="scale(0.015625)"/>
       </defs>
       <use xlink:href="#TimesNewRomanPSMT-37"/>
       <use x="50" xlink:href="#TimesNewRomanPSMT-35"/>
      </g>
     </g>
    </g>
    <g id="xtick_5">
     <g id="line2d_9">
      <g>
       <use style="stroke:#000000;stroke-width:0.8;" x="246.86001" xlink:href="#m43eee12079" y="132.887169"/>
      </g>
     </g>
     <g id="line2d_10">
      <g>
       <use style="stroke:#000000;stroke-width:0.8;" x="246.86001" xlink:href="#m3a5a757bc0" y="7.2"/>
      </g>
     </g>
     <g id="text_5">
      <!-- 100 -->
      <g transform="translate(240.86001 141.942169)scale(0.08 -0.08)">
       <defs>
        <path d="M 750 3822 
L 1781 4325 
L 1884 4325 
L 1884 747 
Q 1884 391 1914 303 
Q 1944 216 2037 169 
Q 2131 122 2419 116 
L 2419 0 
L 825 0 
L 825 116 
Q 1125 122 1212 167 
Q 1300 213 1334 289 
Q 1369 366 1369 747 
L 1369 3034 
Q 1369 3497 1338 3628 
Q 1316 3728 1258 3775 
Q 1200 3822 1119 3822 
Q 1003 3822 797 3725 
L 750 3822 
z
" id="TimesNewRomanPSMT-31" transform="scale(0.015625)"/>
       </defs>
       <use xlink:href="#TimesNewRomanPSMT-31"/>
       <use x="50" xlink:href="#TimesNewRomanPSMT-30"/>
       <use x="100" xlink:href="#TimesNewRomanPSMT-30"/>
      </g>
     </g>
    </g>
    <g id="xtick_6">
     <g id="line2d_11">
      <defs>
       <path d="M 0 0 
L 0 -2 
" id="m12329a3f14" style="stroke:#000000;stroke-width:0.6;"/>
      </defs>
      <g>
       <use style="stroke:#000000;stroke-width:0.6;" x="48.494592" xlink:href="#m12329a3f14" y="132.887169"/>
      </g>
     </g>
     <g id="line2d_12">
      <defs>
       <path d="M 0 0 
L 0 2 
" id="mf32d9c08ec" style="stroke:#000000;stroke-width:0.6;"/>
      </defs>
      <g>
       <use style="stroke:#000000;stroke-width:0.6;" x="48.494592" xlink:href="#mf32d9c08ec" y="7.2"/>
      </g>
     </g>
    </g>
    <g id="xtick_7">
     <g id="line2d_13">
      <g>
       <use style="stroke:#000000;stroke-width:0.6;" x="58.934877" xlink:href="#m12329a3f14" y="132.887169"/>
      </g>
     </g>
     <g id="line2d_14">
      <g>
       <use style="stroke:#000000;stroke-width:0.6;" x="58.934877" xlink:href="#mf32d9c08ec" y="7.2"/>
      </g>
     </g>
    </g>
    <g id="xtick_8">
     <g id="line2d_15">
      <g>
       <use style="stroke:#000000;stroke-width:0.6;" x="69.375162" xlink:href="#m12329a3f14" y="132.887169"/>
      </g>
     </g>
     <g id="line2d_16">
      <g>
       <use style="stroke:#000000;stroke-width:0.6;" x="69.375162" xlink:href="#mf32d9c08ec" y="7.2"/>
      </g>
     </g>
    </g>
    <g id="xtick_9">
     <g id="line2d_17">
      <g>
       <use style="stroke:#000000;stroke-width:0.6;" x="79.815448" xlink:href="#m12329a3f14" y="132.887169"/>
      </g>
     </g>
     <g id="line2d_18">
      <g>
       <use style="stroke:#000000;stroke-width:0.6;" x="79.815448" xlink:href="#mf32d9c08ec" y="7.2"/>
      </g>
     </g>
    </g>
    <g id="xtick_10">
     <g id="line2d_19">
      <g>
       <use style="stroke:#000000;stroke-width:0.6;" x="100.696018" xlink:href="#m12329a3f14" y="132.887169"/>
      </g>
     </g>
     <g id="line2d_20">
      <g>
       <use style="stroke:#000000;stroke-width:0.6;" x="100.696018" xlink:href="#mf32d9c08ec" y="7.2"/>
      </g>
     </g>
    </g>
    <g id="xtick_11">
     <g id="line2d_21">
      <g>
       <use style="stroke:#000000;stroke-width:0.6;" x="111.136303" xlink:href="#m12329a3f14" y="132.887169"/>
      </g>
     </g>
     <g id="line2d_22">
      <g>
       <use style="stroke:#000000;stroke-width:0.6;" x="111.136303" xlink:href="#mf32d9c08ec" y="7.2"/>
      </g>
     </g>
    </g>
    <g id="xtick_12">
     <g id="line2d_23">
      <g>
       <use style="stroke:#000000;stroke-width:0.6;" x="121.576588" xlink:href="#m12329a3f14" y="132.887169"/>
      </g>
     </g>
     <g id="line2d_24">
      <g>
       <use style="stroke:#000000;stroke-width:0.6;" x="121.576588" xlink:href="#mf32d9c08ec" y="7.2"/>
      </g>
     </g>
    </g>
    <g id="xtick_13">
     <g id="line2d_25">
      <g>
       <use style="stroke:#000000;stroke-width:0.6;" x="132.016873" xlink:href="#m12329a3f14" y="132.887169"/>
      </g>
     </g>
     <g id="line2d_26">
      <g>
       <use style="stroke:#000000;stroke-width:0.6;" x="132.016873" xlink:href="#mf32d9c08ec" y="7.2"/>
      </g>
     </g>
    </g>
    <g id="xtick_14">
     <g id="line2d_27">
      <g>
       <use style="stroke:#000000;stroke-width:0.6;" x="152.897444" xlink:href="#m12329a3f14" y="132.887169"/>
      </g>
     </g>
     <g id="line2d_28">
      <g>
       <use style="stroke:#000000;stroke-width:0.6;" x="152.897444" xlink:href="#mf32d9c08ec" y="7.2"/>
      </g>
     </g>
    </g>
    <g id="xtick_15">
     <g id="line2d_29">
      <g>
       <use style="stroke:#000000;stroke-width:0.6;" x="163.337729" xlink:href="#m12329a3f14" y="132.887169"/>
      </g>
     </g>
     <g id="line2d_30">
      <g>
       <use style="stroke:#000000;stroke-width:0.6;" x="163.337729" xlink:href="#mf32d9c08ec" y="7.2"/>
      </g>
     </g>
    </g>
    <g id="xtick_16">
     <g id="line2d_31">
      <g>
       <use style="stroke:#000000;stroke-width:0.6;" x="173.778014" xlink:href="#m12329a3f14" y="132.887169"/>
      </g>
     </g>
     <g id="line2d_32">
      <g>
       <use style="stroke:#000000;stroke-width:0.6;" x="173.778014" xlink:href="#mf32d9c08ec" y="7.2"/>
      </g>
     </g>
    </g>
    <g id="xtick_17">
     <g id="line2d_33">
      <g>
       <use style="stroke:#000000;stroke-width:0.6;" x="184.218299" xlink:href="#m12329a3f14" y="132.887169"/>
      </g>
     </g>
     <g id="line2d_34">
      <g>
       <use style="stroke:#000000;stroke-width:0.6;" x="184.218299" xlink:href="#mf32d9c08ec" y="7.2"/>
      </g>
     </g>
    </g>
    <g id="xtick_18">
     <g id="line2d_35">
      <g>
       <use style="stroke:#000000;stroke-width:0.6;" x="205.098869" xlink:href="#m12329a3f14" y="132.887169"/>
      </g>
     </g>
     <g id="line2d_36">
      <g>
       <use style="stroke:#000000;stroke-width:0.6;" x="205.098869" xlink:href="#mf32d9c08ec" y="7.2"/>
      </g>
     </g>
    </g>
    <g id="xtick_19">
     <g id="line2d_37">
      <g>
       <use style="stroke:#000000;stroke-width:0.6;" x="215.539155" xlink:href="#m12329a3f14" y="132.887169"/>
      </g>
     </g>
     <g id="line2d_38">
      <g>
       <use style="stroke:#000000;stroke-width:0.6;" x="215.539155" xlink:href="#mf32d9c08ec" y="7.2"/>
      </g>
     </g>
    </g>
    <g id="xtick_20">
     <g id="line2d_39">
      <g>
       <use style="stroke:#000000;stroke-width:0.6;" x="225.97944" xlink:href="#m12329a3f14" y="132.887169"/>
      </g>
     </g>
     <g id="line2d_40">
      <g>
       <use style="stroke:#000000;stroke-width:0.6;" x="225.97944" xlink:href="#mf32d9c08ec" y="7.2"/>
      </g>
     </g>
    </g>
    <g id="xtick_21">
     <g id="line2d_41">
      <g>
       <use style="stroke:#000000;stroke-width:0.6;" x="236.419725" xlink:href="#m12329a3f14" y="132.887169"/>
      </g>
     </g>
     <g id="line2d_42">
      <g>
       <use style="stroke:#000000;stroke-width:0.6;" x="236.419725" xlink:href="#mf32d9c08ec" y="7.2"/>
      </g>
     </g>
    </g>
    <g id="text_6">
     <!-- Epochs -->
     <g transform="translate(129.637505 153.208419)scale(0.08 -0.08)">
      <defs>
       <path d="M 1338 4006 
L 1338 2331 
L 2269 2331 
Q 2631 2331 2753 2441 
Q 2916 2584 2934 2947 
L 3050 2947 
L 3050 1472 
L 2934 1472 
Q 2891 1781 2847 1869 
Q 2791 1978 2662 2040 
Q 2534 2103 2269 2103 
L 1338 2103 
L 1338 706 
Q 1338 425 1363 364 
Q 1388 303 1450 267 
Q 1513 231 1688 231 
L 2406 231 
Q 2766 231 2928 281 
Q 3091 331 3241 478 
Q 3434 672 3638 1063 
L 3763 1063 
L 3397 0 
L 131 0 
L 131 116 
L 281 116 
Q 431 116 566 188 
Q 666 238 702 338 
Q 738 438 738 747 
L 738 3500 
Q 738 3903 656 3997 
Q 544 4122 281 4122 
L 131 4122 
L 131 4238 
L 3397 4238 
L 3444 3309 
L 3322 3309 
Q 3256 3644 3176 3769 
Q 3097 3894 2941 3959 
Q 2816 4006 2500 4006 
L 1338 4006 
z
" id="TimesNewRomanPSMT-45" transform="scale(0.015625)"/>
       <path d="M -6 2578 
L 875 2934 
L 994 2934 
L 994 2266 
Q 1216 2644 1439 2795 
Q 1663 2947 1909 2947 
Q 2341 2947 2628 2609 
Q 2981 2197 2981 1534 
Q 2981 794 2556 309 
Q 2206 -88 1675 -88 
Q 1444 -88 1275 -22 
Q 1150 25 994 166 
L 994 -706 
Q 994 -1000 1030 -1079 
Q 1066 -1159 1155 -1206 
Q 1244 -1253 1478 -1253 
L 1478 -1369 
L -22 -1369 
L -22 -1253 
L 56 -1253 
Q 228 -1256 350 -1188 
Q 409 -1153 442 -1076 
Q 475 -1000 475 -688 
L 475 2019 
Q 475 2297 450 2372 
Q 425 2447 370 2484 
Q 316 2522 222 2522 
Q 147 2522 31 2478 
L -6 2578 
z
M 994 2081 
L 994 1013 
Q 994 666 1022 556 
Q 1066 375 1236 237 
Q 1406 100 1666 100 
Q 1978 100 2172 344 
Q 2425 663 2425 1241 
Q 2425 1897 2138 2250 
Q 1938 2494 1663 2494 
Q 1513 2494 1366 2419 
Q 1253 2363 994 2081 
z
" id="TimesNewRomanPSMT-70" transform="scale(0.015625)"/>
       <path d="M 1600 2947 
Q 2250 2947 2644 2453 
Q 2978 2031 2978 1484 
Q 2978 1100 2793 706 
Q 2609 313 2286 112 
Q 1963 -88 1566 -88 
Q 919 -88 538 428 
Q 216 863 216 1403 
Q 216 1797 411 2186 
Q 606 2575 925 2761 
Q 1244 2947 1600 2947 
z
M 1503 2744 
Q 1338 2744 1170 2645 
Q 1003 2547 900 2300 
Q 797 2053 797 1666 
Q 797 1041 1045 587 
Q 1294 134 1700 134 
Q 2003 134 2200 384 
Q 2397 634 2397 1244 
Q 2397 2006 2069 2444 
Q 1847 2744 1503 2744 
z
" id="TimesNewRomanPSMT-6f" transform="scale(0.015625)"/>
       <path d="M 2631 1088 
Q 2516 522 2178 217 
Q 1841 -88 1431 -88 
Q 944 -88 581 321 
Q 219 731 219 1428 
Q 219 2103 620 2525 
Q 1022 2947 1584 2947 
Q 2006 2947 2278 2723 
Q 2550 2500 2550 2259 
Q 2550 2141 2473 2067 
Q 2397 1994 2259 1994 
Q 2075 1994 1981 2113 
Q 1928 2178 1911 2362 
Q 1894 2547 1784 2644 
Q 1675 2738 1481 2738 
Q 1169 2738 978 2506 
Q 725 2200 725 1697 
Q 725 1184 976 792 
Q 1228 400 1656 400 
Q 1963 400 2206 609 
Q 2378 753 2541 1131 
L 2631 1088 
z
" id="TimesNewRomanPSMT-63" transform="scale(0.015625)"/>
       <path d="M 1041 4444 
L 1041 2350 
Q 1388 2731 1591 2839 
Q 1794 2947 1997 2947 
Q 2241 2947 2416 2812 
Q 2591 2678 2675 2391 
Q 2734 2191 2734 1659 
L 2734 647 
Q 2734 375 2778 275 
Q 2809 200 2884 156 
Q 2959 113 3159 113 
L 3159 0 
L 1753 0 
L 1753 113 
L 1819 113 
Q 2019 113 2097 173 
Q 2175 234 2206 353 
Q 2216 403 2216 647 
L 2216 1659 
Q 2216 2128 2167 2275 
Q 2119 2422 2012 2495 
Q 1906 2569 1756 2569 
Q 1603 2569 1437 2487 
Q 1272 2406 1041 2159 
L 1041 647 
Q 1041 353 1073 281 
Q 1106 209 1195 161 
Q 1284 113 1503 113 
L 1503 0 
L 84 0 
L 84 113 
Q 275 113 384 172 
Q 447 203 484 290 
Q 522 378 522 647 
L 522 3238 
Q 522 3728 498 3840 
Q 475 3953 426 3993 
Q 378 4034 297 4034 
Q 231 4034 84 3984 
L 41 4094 
L 897 4444 
L 1041 4444 
z
" id="TimesNewRomanPSMT-68" transform="scale(0.015625)"/>
       <path d="M 2050 2947 
L 2050 1972 
L 1947 1972 
Q 1828 2431 1642 2597 
Q 1456 2763 1169 2763 
Q 950 2763 815 2647 
Q 681 2531 681 2391 
Q 681 2216 781 2091 
Q 878 1963 1175 1819 
L 1631 1597 
Q 2266 1288 2266 781 
Q 2266 391 1970 151 
Q 1675 -88 1309 -88 
Q 1047 -88 709 6 
Q 606 38 541 38 
Q 469 38 428 -44 
L 325 -44 
L 325 978 
L 428 978 
Q 516 541 762 319 
Q 1009 97 1316 97 
Q 1531 97 1667 223 
Q 1803 350 1803 528 
Q 1803 744 1651 891 
Q 1500 1038 1047 1263 
Q 594 1488 453 1669 
Q 313 1847 313 2119 
Q 313 2472 555 2709 
Q 797 2947 1181 2947 
Q 1350 2947 1591 2875 
Q 1750 2828 1803 2828 
Q 1853 2828 1881 2850 
Q 1909 2872 1947 2947 
L 2050 2947 
z
" id="TimesNewRomanPSMT-73" transform="scale(0.015625)"/>
      </defs>
      <use xlink:href="#TimesNewRomanPSMT-45"/>
      <use x="61.083984" xlink:href="#TimesNewRomanPSMT-70"/>
      <use x="111.083984" xlink:href="#TimesNewRomanPSMT-6f"/>
      <use x="161.083984" xlink:href="#TimesNewRomanPSMT-63"/>
      <use x="205.46875" xlink:href="#TimesNewRomanPSMT-68"/>
      <use x="255.46875" xlink:href="#TimesNewRomanPSMT-73"/>
     </g>
    </g>
   </g>
   <g id="matplotlib.axis_2">
    <g id="ytick_1">
     <g id="line2d_43">
      <defs>
       <path d="M 0 0 
L 4 0 
" id="md49230d91e" style="stroke:#000000;stroke-width:0.8;"/>
      </defs>
      <g>
       <use style="stroke:#000000;stroke-width:0.8;" x="35.96625" xlink:href="#md49230d91e" y="128.553129"/>
      </g>
     </g>
     <g id="line2d_44">
      <defs>
       <path d="M 0 0 
L -4 0 
" id="mcc1fe96214" style="stroke:#000000;stroke-width:0.8;"/>
      </defs>
      <g>
       <use style="stroke:#000000;stroke-width:0.8;" x="246.86001" xlink:href="#mcc1fe96214" y="128.553129"/>
      </g>
     </g>
     <g id="text_7">
      <!-- 5.75 -->
      <g transform="translate(18.46625 131.330629)scale(0.08 -0.08)">
       <defs>
        <path d="M 800 606 
Q 947 606 1047 504 
Q 1147 403 1147 259 
Q 1147 116 1045 14 
Q 944 -88 800 -88 
Q 656 -88 554 14 
Q 453 116 453 259 
Q 453 406 554 506 
Q 656 606 800 606 
z
" id="TimesNewRomanPSMT-2e" transform="scale(0.015625)"/>
       </defs>
       <use xlink:href="#TimesNewRomanPSMT-35"/>
       <use x="50" xlink:href="#TimesNewRomanPSMT-2e"/>
       <use x="75" xlink:href="#TimesNewRomanPSMT-37"/>
       <use x="125" xlink:href="#TimesNewRomanPSMT-35"/>
      </g>
     </g>
    </g>
    <g id="ytick_2">
     <g id="line2d_45">
      <g>
       <use style="stroke:#000000;stroke-width:0.8;" x="35.96625" xlink:href="#md49230d91e" y="106.882927"/>
      </g>
     </g>
     <g id="line2d_46">
      <g>
       <use style="stroke:#000000;stroke-width:0.8;" x="246.86001" xlink:href="#mcc1fe96214" y="106.882927"/>
      </g>
     </g>
     <g id="text_8">
      <!-- 5.80 -->
      <g transform="translate(18.46625 109.660427)scale(0.08 -0.08)">
       <defs>
        <path d="M 1228 2134 
Q 725 2547 579 2797 
Q 434 3047 434 3316 
Q 434 3728 753 4026 
Q 1072 4325 1600 4325 
Q 2113 4325 2425 4047 
Q 2738 3769 2738 3413 
Q 2738 3175 2569 2928 
Q 2400 2681 1866 2347 
Q 2416 1922 2594 1678 
Q 2831 1359 2831 1006 
Q 2831 559 2490 242 
Q 2150 -75 1597 -75 
Q 994 -75 656 303 
Q 388 606 388 966 
Q 388 1247 577 1523 
Q 766 1800 1228 2134 
z
M 1719 2469 
Q 2094 2806 2194 3001 
Q 2294 3197 2294 3444 
Q 2294 3772 2109 3958 
Q 1925 4144 1606 4144 
Q 1288 4144 1088 3959 
Q 888 3775 888 3528 
Q 888 3366 970 3203 
Q 1053 3041 1206 2894 
L 1719 2469 
z
M 1375 2016 
Q 1116 1797 991 1539 
Q 866 1281 866 981 
Q 866 578 1086 336 
Q 1306 94 1647 94 
Q 1984 94 2187 284 
Q 2391 475 2391 747 
Q 2391 972 2272 1150 
Q 2050 1481 1375 2016 
z
" id="TimesNewRomanPSMT-38" transform="scale(0.015625)"/>
       </defs>
       <use xlink:href="#TimesNewRomanPSMT-35"/>
       <use x="50" xlink:href="#TimesNewRomanPSMT-2e"/>
       <use x="75" xlink:href="#TimesNewRomanPSMT-38"/>
       <use x="125" xlink:href="#TimesNewRomanPSMT-30"/>
      </g>
     </g>
    </g>
    <g id="ytick_3">
     <g id="line2d_47">
      <g>
       <use style="stroke:#000000;stroke-width:0.8;" x="35.96625" xlink:href="#md49230d91e" y="85.212726"/>
      </g>
     </g>
     <g id="line2d_48">
      <g>
       <use style="stroke:#000000;stroke-width:0.8;" x="246.86001" xlink:href="#mcc1fe96214" y="85.212726"/>
      </g>
     </g>
     <g id="text_9">
      <!-- 5.85 -->
      <g transform="translate(18.46625 87.990226)scale(0.08 -0.08)">
       <use xlink:href="#TimesNewRomanPSMT-35"/>
       <use x="50" xlink:href="#TimesNewRomanPSMT-2e"/>
       <use x="75" xlink:href="#TimesNewRomanPSMT-38"/>
       <use x="125" xlink:href="#TimesNewRomanPSMT-35"/>
      </g>
     </g>
    </g>
    <g id="ytick_4">
     <g id="line2d_49">
      <g>
       <use style="stroke:#000000;stroke-width:0.8;" x="35.96625" xlink:href="#md49230d91e" y="63.542524"/>
      </g>
     </g>
     <g id="line2d_50">
      <g>
       <use style="stroke:#000000;stroke-width:0.8;" x="246.86001" xlink:href="#mcc1fe96214" y="63.542524"/>
      </g>
     </g>
     <g id="text_10">
      <!-- 5.90 -->
      <g transform="translate(18.46625 66.320024)scale(0.08 -0.08)">
       <defs>
        <path d="M 338 -88 
L 338 28 
Q 744 34 1094 217 
Q 1444 400 1770 856 
Q 2097 1313 2225 1859 
Q 1734 1544 1338 1544 
Q 891 1544 572 1889 
Q 253 2234 253 2806 
Q 253 3363 572 3797 
Q 956 4325 1575 4325 
Q 2097 4325 2469 3894 
Q 2925 3359 2925 2575 
Q 2925 1869 2578 1258 
Q 2231 647 1613 244 
Q 1109 -88 516 -88 
L 338 -88 
z
M 2275 2091 
Q 2331 2497 2331 2741 
Q 2331 3044 2228 3395 
Q 2125 3747 1936 3934 
Q 1747 4122 1506 4122 
Q 1228 4122 1018 3872 
Q 809 3622 809 3128 
Q 809 2469 1088 2097 
Q 1291 1828 1588 1828 
Q 1731 1828 1928 1897 
Q 2125 1966 2275 2091 
z
" id="TimesNewRomanPSMT-39" transform="scale(0.015625)"/>
       </defs>
       <use xlink:href="#TimesNewRomanPSMT-35"/>
       <use x="50" xlink:href="#TimesNewRomanPSMT-2e"/>
       <use x="75" xlink:href="#TimesNewRomanPSMT-39"/>
       <use x="125" xlink:href="#TimesNewRomanPSMT-30"/>
      </g>
     </g>
    </g>
    <g id="ytick_5">
     <g id="line2d_51">
      <g>
       <use style="stroke:#000000;stroke-width:0.8;" x="35.96625" xlink:href="#md49230d91e" y="41.872323"/>
      </g>
     </g>
     <g id="line2d_52">
      <g>
       <use style="stroke:#000000;stroke-width:0.8;" x="246.86001" xlink:href="#mcc1fe96214" y="41.872323"/>
      </g>
     </g>
     <g id="text_11">
      <!-- 5.95 -->
      <g transform="translate(18.46625 44.649823)scale(0.08 -0.08)">
       <use xlink:href="#TimesNewRomanPSMT-35"/>
       <use x="50" xlink:href="#TimesNewRomanPSMT-2e"/>
       <use x="75" xlink:href="#TimesNewRomanPSMT-39"/>
       <use x="125" xlink:href="#TimesNewRomanPSMT-35"/>
      </g>
     </g>
    </g>
    <g id="ytick_6">
     <g id="line2d_53">
      <g>
       <use style="stroke:#000000;stroke-width:0.8;" x="35.96625" xlink:href="#md49230d91e" y="20.202121"/>
      </g>
     </g>
     <g id="line2d_54">
      <g>
       <use style="stroke:#000000;stroke-width:0.8;" x="246.86001" xlink:href="#mcc1fe96214" y="20.202121"/>
      </g>
     </g>
     <g id="text_12">
      <!-- 6.00 -->
      <g transform="translate(18.46625 22.979621)scale(0.08 -0.08)">
       <defs>
        <path d="M 2869 4325 
L 2869 4209 
Q 2456 4169 2195 4045 
Q 1934 3922 1679 3669 
Q 1425 3416 1258 3105 
Q 1091 2794 978 2366 
Q 1428 2675 1881 2675 
Q 2316 2675 2634 2325 
Q 2953 1975 2953 1425 
Q 2953 894 2631 456 
Q 2244 -75 1606 -75 
Q 1172 -75 869 213 
Q 275 772 275 1663 
Q 275 2231 503 2743 
Q 731 3256 1154 3653 
Q 1578 4050 1965 4187 
Q 2353 4325 2688 4325 
L 2869 4325 
z
M 925 2138 
Q 869 1716 869 1456 
Q 869 1156 980 804 
Q 1091 453 1309 247 
Q 1469 100 1697 100 
Q 1969 100 2183 356 
Q 2397 613 2397 1088 
Q 2397 1622 2184 2012 
Q 1972 2403 1581 2403 
Q 1463 2403 1327 2353 
Q 1191 2303 925 2138 
z
" id="TimesNewRomanPSMT-36" transform="scale(0.015625)"/>
       </defs>
       <use xlink:href="#TimesNewRomanPSMT-36"/>
       <use x="50" xlink:href="#TimesNewRomanPSMT-2e"/>
       <use x="75" xlink:href="#TimesNewRomanPSMT-30"/>
       <use x="125" xlink:href="#TimesNewRomanPSMT-30"/>
      </g>
     </g>
    </g>
    <g id="ytick_7">
     <g id="line2d_55">
      <defs>
       <path d="M 0 0 
L 2 0 
" id="m2c85e4ca56" style="stroke:#000000;stroke-width:0.6;"/>
      </defs>
      <g>
       <use style="stroke:#000000;stroke-width:0.6;" x="35.96625" xlink:href="#m2c85e4ca56" y="124.219089"/>
      </g>
     </g>
     <g id="line2d_56">
      <defs>
       <path d="M 0 0 
L -2 0 
" id="m6d8adf4a2f" style="stroke:#000000;stroke-width:0.6;"/>
      </defs>
      <g>
       <use style="stroke:#000000;stroke-width:0.6;" x="246.86001" xlink:href="#m6d8adf4a2f" y="124.219089"/>
      </g>
     </g>
    </g>
    <g id="ytick_8">
     <g id="line2d_57">
      <g>
       <use style="stroke:#000000;stroke-width:0.6;" x="35.96625" xlink:href="#m2c85e4ca56" y="119.885048"/>
      </g>
     </g>
     <g id="line2d_58">
      <g>
       <use style="stroke:#000000;stroke-width:0.6;" x="246.86001" xlink:href="#m6d8adf4a2f" y="119.885048"/>
      </g>
     </g>
    </g>
    <g id="ytick_9">
     <g id="line2d_59">
      <g>
       <use style="stroke:#000000;stroke-width:0.6;" x="35.96625" xlink:href="#m2c85e4ca56" y="115.551008"/>
      </g>
     </g>
     <g id="line2d_60">
      <g>
       <use style="stroke:#000000;stroke-width:0.6;" x="246.86001" xlink:href="#m6d8adf4a2f" y="115.551008"/>
      </g>
     </g>
    </g>
    <g id="ytick_10">
     <g id="line2d_61">
      <g>
       <use style="stroke:#000000;stroke-width:0.6;" x="35.96625" xlink:href="#m2c85e4ca56" y="111.216968"/>
      </g>
     </g>
     <g id="line2d_62">
      <g>
       <use style="stroke:#000000;stroke-width:0.6;" x="246.86001" xlink:href="#m6d8adf4a2f" y="111.216968"/>
      </g>
     </g>
    </g>
    <g id="ytick_11">
     <g id="line2d_63">
      <g>
       <use style="stroke:#000000;stroke-width:0.6;" x="35.96625" xlink:href="#m2c85e4ca56" y="102.548887"/>
      </g>
     </g>
     <g id="line2d_64">
      <g>
       <use style="stroke:#000000;stroke-width:0.6;" x="246.86001" xlink:href="#m6d8adf4a2f" y="102.548887"/>
      </g>
     </g>
    </g>
    <g id="ytick_12">
     <g id="line2d_65">
      <g>
       <use style="stroke:#000000;stroke-width:0.6;" x="35.96625" xlink:href="#m2c85e4ca56" y="98.214847"/>
      </g>
     </g>
     <g id="line2d_66">
      <g>
       <use style="stroke:#000000;stroke-width:0.6;" x="246.86001" xlink:href="#m6d8adf4a2f" y="98.214847"/>
      </g>
     </g>
    </g>
    <g id="ytick_13">
     <g id="line2d_67">
      <g>
       <use style="stroke:#000000;stroke-width:0.6;" x="35.96625" xlink:href="#m2c85e4ca56" y="93.880806"/>
      </g>
     </g>
     <g id="line2d_68">
      <g>
       <use style="stroke:#000000;stroke-width:0.6;" x="246.86001" xlink:href="#m6d8adf4a2f" y="93.880806"/>
      </g>
     </g>
    </g>
    <g id="ytick_14">
     <g id="line2d_69">
      <g>
       <use style="stroke:#000000;stroke-width:0.6;" x="35.96625" xlink:href="#m2c85e4ca56" y="89.546766"/>
      </g>
     </g>
     <g id="line2d_70">
      <g>
       <use style="stroke:#000000;stroke-width:0.6;" x="246.86001" xlink:href="#m6d8adf4a2f" y="89.546766"/>
      </g>
     </g>
    </g>
    <g id="ytick_15">
     <g id="line2d_71">
      <g>
       <use style="stroke:#000000;stroke-width:0.6;" x="35.96625" xlink:href="#m2c85e4ca56" y="80.878685"/>
      </g>
     </g>
     <g id="line2d_72">
      <g>
       <use style="stroke:#000000;stroke-width:0.6;" x="246.86001" xlink:href="#m6d8adf4a2f" y="80.878685"/>
      </g>
     </g>
    </g>
    <g id="ytick_16">
     <g id="line2d_73">
      <g>
       <use style="stroke:#000000;stroke-width:0.6;" x="35.96625" xlink:href="#m2c85e4ca56" y="76.544645"/>
      </g>
     </g>
     <g id="line2d_74">
      <g>
       <use style="stroke:#000000;stroke-width:0.6;" x="246.86001" xlink:href="#m6d8adf4a2f" y="76.544645"/>
      </g>
     </g>
    </g>
    <g id="ytick_17">
     <g id="line2d_75">
      <g>
       <use style="stroke:#000000;stroke-width:0.6;" x="35.96625" xlink:href="#m2c85e4ca56" y="72.210605"/>
      </g>
     </g>
     <g id="line2d_76">
      <g>
       <use style="stroke:#000000;stroke-width:0.6;" x="246.86001" xlink:href="#m6d8adf4a2f" y="72.210605"/>
      </g>
     </g>
    </g>
    <g id="ytick_18">
     <g id="line2d_77">
      <g>
       <use style="stroke:#000000;stroke-width:0.6;" x="35.96625" xlink:href="#m2c85e4ca56" y="67.876565"/>
      </g>
     </g>
     <g id="line2d_78">
      <g>
       <use style="stroke:#000000;stroke-width:0.6;" x="246.86001" xlink:href="#m6d8adf4a2f" y="67.876565"/>
      </g>
     </g>
    </g>
    <g id="ytick_19">
     <g id="line2d_79">
      <g>
       <use style="stroke:#000000;stroke-width:0.6;" x="35.96625" xlink:href="#m2c85e4ca56" y="59.208484"/>
      </g>
     </g>
     <g id="line2d_80">
      <g>
       <use style="stroke:#000000;stroke-width:0.6;" x="246.86001" xlink:href="#m6d8adf4a2f" y="59.208484"/>
      </g>
     </g>
    </g>
    <g id="ytick_20">
     <g id="line2d_81">
      <g>
       <use style="stroke:#000000;stroke-width:0.6;" x="35.96625" xlink:href="#m2c85e4ca56" y="54.874444"/>
      </g>
     </g>
     <g id="line2d_82">
      <g>
       <use style="stroke:#000000;stroke-width:0.6;" x="246.86001" xlink:href="#m6d8adf4a2f" y="54.874444"/>
      </g>
     </g>
    </g>
    <g id="ytick_21">
     <g id="line2d_83">
      <g>
       <use style="stroke:#000000;stroke-width:0.6;" x="35.96625" xlink:href="#m2c85e4ca56" y="50.540403"/>
      </g>
     </g>
     <g id="line2d_84">
      <g>
       <use style="stroke:#000000;stroke-width:0.6;" x="246.86001" xlink:href="#m6d8adf4a2f" y="50.540403"/>
      </g>
     </g>
    </g>
    <g id="ytick_22">
     <g id="line2d_85">
      <g>
       <use style="stroke:#000000;stroke-width:0.6;" x="35.96625" xlink:href="#m2c85e4ca56" y="46.206363"/>
      </g>
     </g>
     <g id="line2d_86">
      <g>
       <use style="stroke:#000000;stroke-width:0.6;" x="246.86001" xlink:href="#m6d8adf4a2f" y="46.206363"/>
      </g>
     </g>
    </g>
    <g id="ytick_23">
     <g id="line2d_87">
      <g>
       <use style="stroke:#000000;stroke-width:0.6;" x="35.96625" xlink:href="#m2c85e4ca56" y="37.538282"/>
      </g>
     </g>
     <g id="line2d_88">
      <g>
       <use style="stroke:#000000;stroke-width:0.6;" x="246.86001" xlink:href="#m6d8adf4a2f" y="37.538282"/>
      </g>
     </g>
    </g>
    <g id="ytick_24">
     <g id="line2d_89">
      <g>
       <use style="stroke:#000000;stroke-width:0.6;" x="35.96625" xlink:href="#m2c85e4ca56" y="33.204242"/>
      </g>
     </g>
     <g id="line2d_90">
      <g>
       <use style="stroke:#000000;stroke-width:0.6;" x="246.86001" xlink:href="#m6d8adf4a2f" y="33.204242"/>
      </g>
     </g>
    </g>
    <g id="ytick_25">
     <g id="line2d_91">
      <g>
       <use style="stroke:#000000;stroke-width:0.6;" x="35.96625" xlink:href="#m2c85e4ca56" y="28.870202"/>
      </g>
     </g>
     <g id="line2d_92">
      <g>
       <use style="stroke:#000000;stroke-width:0.6;" x="246.86001" xlink:href="#m6d8adf4a2f" y="28.870202"/>
      </g>
     </g>
    </g>
    <g id="ytick_26">
     <g id="line2d_93">
      <g>
       <use style="stroke:#000000;stroke-width:0.6;" x="35.96625" xlink:href="#m2c85e4ca56" y="24.536161"/>
      </g>
     </g>
     <g id="line2d_94">
      <g>
       <use style="stroke:#000000;stroke-width:0.6;" x="246.86001" xlink:href="#m6d8adf4a2f" y="24.536161"/>
      </g>
     </g>
    </g>
    <g id="ytick_27">
     <g id="line2d_95">
      <g>
       <use style="stroke:#000000;stroke-width:0.6;" x="35.96625" xlink:href="#m2c85e4ca56" y="15.868081"/>
      </g>
     </g>
     <g id="line2d_96">
      <g>
       <use style="stroke:#000000;stroke-width:0.6;" x="246.86001" xlink:href="#m6d8adf4a2f" y="15.868081"/>
      </g>
     </g>
    </g>
    <g id="ytick_28">
     <g id="line2d_97">
      <g>
       <use style="stroke:#000000;stroke-width:0.6;" x="35.96625" xlink:href="#m2c85e4ca56" y="11.53404"/>
      </g>
     </g>
     <g id="line2d_98">
      <g>
       <use style="stroke:#000000;stroke-width:0.6;" x="246.86001" xlink:href="#m6d8adf4a2f" y="11.53404"/>
      </g>
     </g>
    </g>
    <g id="ytick_29">
     <g id="line2d_99">
      <g>
       <use style="stroke:#000000;stroke-width:0.6;" x="35.96625" xlink:href="#m2c85e4ca56" y="7.2"/>
      </g>
     </g>
     <g id="line2d_100">
      <g>
       <use style="stroke:#000000;stroke-width:0.6;" x="246.86001" xlink:href="#m6d8adf4a2f" y="7.2"/>
      </g>
     </g>
    </g>
    <g id="text_13">
     <!-- Validation score -->
     <g transform="translate(12.755 95.923585)rotate(-90)scale(0.08 -0.08)">
      <defs>
       <path d="M 4544 4238 
L 4544 4122 
Q 4319 4081 4203 3978 
Q 4038 3825 3909 3509 
L 2431 -97 
L 2316 -97 
L 728 3556 
Q 606 3838 556 3900 
Q 478 3997 364 4051 
Q 250 4106 56 4122 
L 56 4238 
L 1788 4238 
L 1788 4122 
Q 1494 4094 1406 4022 
Q 1319 3950 1319 3838 
Q 1319 3681 1463 3350 
L 2541 866 
L 3541 3319 
Q 3688 3681 3688 3822 
Q 3688 3913 3597 3995 
Q 3506 4078 3291 4113 
Q 3275 4116 3238 4122 
L 3238 4238 
L 4544 4238 
z
" id="TimesNewRomanPSMT-56" transform="scale(0.015625)"/>
       <path d="M 1822 413 
Q 1381 72 1269 19 
Q 1100 -59 909 -59 
Q 613 -59 420 144 
Q 228 347 228 678 
Q 228 888 322 1041 
Q 450 1253 767 1440 
Q 1084 1628 1822 1897 
L 1822 2009 
Q 1822 2438 1686 2597 
Q 1550 2756 1291 2756 
Q 1094 2756 978 2650 
Q 859 2544 859 2406 
L 866 2225 
Q 866 2081 792 2003 
Q 719 1925 600 1925 
Q 484 1925 411 2006 
Q 338 2088 338 2228 
Q 338 2497 613 2722 
Q 888 2947 1384 2947 
Q 1766 2947 2009 2819 
Q 2194 2722 2281 2516 
Q 2338 2381 2338 1966 
L 2338 994 
Q 2338 584 2353 492 
Q 2369 400 2405 369 
Q 2441 338 2488 338 
Q 2538 338 2575 359 
Q 2641 400 2828 588 
L 2828 413 
Q 2478 -56 2159 -56 
Q 2006 -56 1915 50 
Q 1825 156 1822 413 
z
M 1822 616 
L 1822 1706 
Q 1350 1519 1213 1441 
Q 966 1303 859 1153 
Q 753 1003 753 825 
Q 753 600 887 451 
Q 1022 303 1197 303 
Q 1434 303 1822 616 
z
" id="TimesNewRomanPSMT-61" transform="scale(0.015625)"/>
       <path d="M 1184 4444 
L 1184 647 
Q 1184 378 1223 290 
Q 1263 203 1344 158 
Q 1425 113 1647 113 
L 1647 0 
L 244 0 
L 244 113 
Q 441 113 512 153 
Q 584 194 625 287 
Q 666 381 666 647 
L 666 3247 
Q 666 3731 644 3842 
Q 622 3953 573 3993 
Q 525 4034 450 4034 
Q 369 4034 244 3984 
L 191 4094 
L 1044 4444 
L 1184 4444 
z
" id="TimesNewRomanPSMT-6c" transform="scale(0.015625)"/>
       <path d="M 928 4444 
Q 1059 4444 1151 4351 
Q 1244 4259 1244 4128 
Q 1244 3997 1151 3903 
Q 1059 3809 928 3809 
Q 797 3809 703 3903 
Q 609 3997 609 4128 
Q 609 4259 701 4351 
Q 794 4444 928 4444 
z
M 1188 2947 
L 1188 647 
Q 1188 378 1227 289 
Q 1266 200 1342 156 
Q 1419 113 1622 113 
L 1622 0 
L 231 0 
L 231 113 
Q 441 113 512 153 
Q 584 194 626 287 
Q 669 381 669 647 
L 669 1750 
Q 669 2216 641 2353 
Q 619 2453 572 2492 
Q 525 2531 444 2531 
Q 356 2531 231 2484 
L 188 2597 
L 1050 2947 
L 1188 2947 
z
" id="TimesNewRomanPSMT-69" transform="scale(0.015625)"/>
       <path d="M 2222 322 
Q 2013 103 1813 7 
Q 1613 -88 1381 -88 
Q 913 -88 563 304 
Q 213 697 213 1313 
Q 213 1928 600 2439 
Q 988 2950 1597 2950 
Q 1975 2950 2222 2709 
L 2222 3238 
Q 2222 3728 2198 3840 
Q 2175 3953 2125 3993 
Q 2075 4034 2000 4034 
Q 1919 4034 1784 3984 
L 1744 4094 
L 2597 4444 
L 2738 4444 
L 2738 1134 
Q 2738 631 2761 520 
Q 2784 409 2836 365 
Q 2888 322 2956 322 
Q 3041 322 3181 375 
L 3216 266 
L 2366 -88 
L 2222 -88 
L 2222 322 
z
M 2222 541 
L 2222 2016 
Q 2203 2228 2109 2403 
Q 2016 2578 1861 2667 
Q 1706 2756 1559 2756 
Q 1284 2756 1069 2509 
Q 784 2184 784 1559 
Q 784 928 1059 592 
Q 1334 256 1672 256 
Q 1956 256 2222 541 
z
" id="TimesNewRomanPSMT-64" transform="scale(0.015625)"/>
       <path d="M 1031 3803 
L 1031 2863 
L 1700 2863 
L 1700 2644 
L 1031 2644 
L 1031 788 
Q 1031 509 1111 412 
Q 1191 316 1316 316 
Q 1419 316 1516 380 
Q 1613 444 1666 569 
L 1788 569 
Q 1678 263 1478 108 
Q 1278 -47 1066 -47 
Q 922 -47 784 33 
Q 647 113 581 261 
Q 516 409 516 719 
L 516 2644 
L 63 2644 
L 63 2747 
Q 234 2816 414 2980 
Q 594 3144 734 3369 
Q 806 3488 934 3803 
L 1031 3803 
z
" id="TimesNewRomanPSMT-74" transform="scale(0.015625)"/>
       <path d="M 1034 2341 
Q 1538 2947 1994 2947 
Q 2228 2947 2397 2830 
Q 2566 2713 2666 2444 
Q 2734 2256 2734 1869 
L 2734 647 
Q 2734 375 2778 278 
Q 2813 200 2889 156 
Q 2966 113 3172 113 
L 3172 0 
L 1756 0 
L 1756 113 
L 1816 113 
Q 2016 113 2095 173 
Q 2175 234 2206 353 
Q 2219 400 2219 647 
L 2219 1819 
Q 2219 2209 2117 2386 
Q 2016 2563 1775 2563 
Q 1403 2563 1034 2156 
L 1034 647 
Q 1034 356 1069 288 
Q 1113 197 1189 155 
Q 1266 113 1500 113 
L 1500 0 
L 84 0 
L 84 113 
L 147 113 
Q 366 113 442 223 
Q 519 334 519 647 
L 519 1709 
Q 519 2225 495 2337 
Q 472 2450 423 2490 
Q 375 2531 294 2531 
Q 206 2531 84 2484 
L 38 2597 
L 900 2947 
L 1034 2947 
L 1034 2341 
z
" id="TimesNewRomanPSMT-6e" transform="scale(0.015625)"/>
       <path id="TimesNewRomanPSMT-20" transform="scale(0.015625)"/>
       <path d="M 1038 2947 
L 1038 2303 
Q 1397 2947 1775 2947 
Q 1947 2947 2059 2842 
Q 2172 2738 2172 2600 
Q 2172 2478 2090 2393 
Q 2009 2309 1897 2309 
Q 1788 2309 1652 2417 
Q 1516 2525 1450 2525 
Q 1394 2525 1328 2463 
Q 1188 2334 1038 2041 
L 1038 669 
Q 1038 431 1097 309 
Q 1138 225 1241 169 
Q 1344 113 1538 113 
L 1538 0 
L 72 0 
L 72 113 
Q 291 113 397 181 
Q 475 231 506 341 
Q 522 394 522 644 
L 522 1753 
Q 522 2253 501 2348 
Q 481 2444 426 2487 
Q 372 2531 291 2531 
Q 194 2531 72 2484 
L 41 2597 
L 906 2947 
L 1038 2947 
z
" id="TimesNewRomanPSMT-72" transform="scale(0.015625)"/>
       <path d="M 681 1784 
Q 678 1147 991 784 
Q 1303 422 1725 422 
Q 2006 422 2214 576 
Q 2422 731 2563 1106 
L 2659 1044 
Q 2594 616 2278 264 
Q 1963 -88 1488 -88 
Q 972 -88 605 314 
Q 238 716 238 1394 
Q 238 2128 614 2539 
Q 991 2950 1559 2950 
Q 2041 2950 2350 2633 
Q 2659 2316 2659 1784 
L 681 1784 
z
M 681 1966 
L 2006 1966 
Q 1991 2241 1941 2353 
Q 1863 2528 1708 2628 
Q 1553 2728 1384 2728 
Q 1125 2728 920 2526 
Q 716 2325 681 1966 
z
" id="TimesNewRomanPSMT-65" transform="scale(0.015625)"/>
      </defs>
      <use xlink:href="#TimesNewRomanPSMT-56"/>
      <use x="61.091797" xlink:href="#TimesNewRomanPSMT-61"/>
      <use x="105.476562" xlink:href="#TimesNewRomanPSMT-6c"/>
      <use x="133.259766" xlink:href="#TimesNewRomanPSMT-69"/>
      <use x="161.042969" xlink:href="#TimesNewRomanPSMT-64"/>
      <use x="211.042969" xlink:href="#TimesNewRomanPSMT-61"/>
      <use x="255.427734" xlink:href="#TimesNewRomanPSMT-74"/>
      <use x="283.210938" xlink:href="#TimesNewRomanPSMT-69"/>
      <use x="310.994141" xlink:href="#TimesNewRomanPSMT-6f"/>
      <use x="360.994141" xlink:href="#TimesNewRomanPSMT-6e"/>
      <use x="410.994141" xlink:href="#TimesNewRomanPSMT-20"/>
      <use x="435.994141" xlink:href="#TimesNewRomanPSMT-73"/>
      <use x="474.910156" xlink:href="#TimesNewRomanPSMT-63"/>
      <use x="519.294922" xlink:href="#TimesNewRomanPSMT-6f"/>
      <use x="569.294922" xlink:href="#TimesNewRomanPSMT-72"/>
      <use x="602.595703" xlink:href="#TimesNewRomanPSMT-65"/>
     </g>
    </g>
   </g>
   <g id="line2d_101">
    <path clip-path="url(#p03e45282e3)" d="M 44.882377 -1 
L 46.406535 14.398813 
L 48.494592 20.054357 
L 50.582649 34.134937 
L 52.670706 39.44804 
L 54.758763 43.047079 
L 56.84682 46.012075 
L 58.934877 49.873782 
L 61.022934 49.267226 
L 63.110991 53.446368 
L 65.199048 60.220993 
L 67.287105 61.531857 
L 69.375162 56.550242 
L 71.46322 64.653711 
L 73.551277 63.627421 
L 75.639334 67.524262 
L 77.727391 67.143175 
L 79.815448 71.780696 
L 81.903505 73.203365 
L 83.991562 73.022741 
L 86.079619 74.780825 
L 88.167676 77.99857 
L 90.255733 76.314885 
L 92.34379 79.292901 
L 94.431847 73.12318 
L 96.519904 79.441285 
L 98.607961 79.745907 
L 100.696018 80.199533 
L 102.784075 83.180442 
L 104.872132 84.582238 
L 106.960189 84.642584 
L 109.048246 85.82759 
L 111.136303 84.996391 
L 113.22436 83.68408 
L 115.312417 83.800845 
L 117.400474 85.215867 
L 119.488531 85.891036 
L 121.576588 86.647629 
L 123.664645 88.274482 
L 125.752702 85.242113 
L 127.840759 85.688712 
L 129.928816 89.541327 
L 132.016873 91.831361 
L 134.10493 89.71513 
L 136.192987 90.600475 
L 138.281044 94.265646 
L 140.369101 91.757376 
L 142.457159 92.207075 
L 144.545216 94.184841 
L 146.633273 94.492976 
L 148.72133 95.581471 
L 150.809387 93.273043 
L 152.897444 91.419068 
L 154.985501 95.427507 
L 157.073558 93.610317 
L 159.161615 93.770688 
L 161.249672 96.40709 
L 163.337729 96.885102 
L 165.425786 96.39903 
L 167.513843 97.726014 
L 169.6019 99.096604 
L 171.689957 98.55804 
L 173.778014 100.161333 
L 175.866071 97.631982 
L 177.954128 99.333647 
L 180.042185 97.666495 
L 182.130242 100.71147 
L 184.218299 99.581022 
L 186.306356 100.757969 
L 188.394413 102.030187 
L 190.48247 100.32935 
L 192.570527 101.335386 
L 194.658584 101.036138 
L 196.746641 102.347002 
L 198.834698 102.103139 
L 200.922755 103.369778 
L 203.010812 103.536762 
L 205.098869 102.4462 
L 207.186926 101.970875 
L 209.274983 103.044077 
L 211.36304 103.404911 
L 213.451098 102.218458 
L 215.539155 102.306496 
L 217.627212 102.762395 
L 219.715269 105.199367 
L 221.803326 104.335721 
L 223.891383 103.398504 
L 225.97944 104.337788 
L 228.067497 106.558177 
L 230.155554 105.268186 
L 232.243611 104.281989 
L 234.331668 106.495351 
L 236.419725 104.908178 
L 238.507782 104.126992 
L 240.595839 105.98882 
L 242.683896 107.110381 
L 244.771953 105.689778 
" style="fill:none;stroke:#2ca02c;stroke-dasharray:4.5,1.5,1.5,1.5;stroke-dashoffset:0;stroke-opacity:0.2;stroke-width:1.5;"/>
   </g>
   <g id="line2d_102">
    <path clip-path="url(#p03e45282e3)" d="M 43.132124 -1 
L 44.318478 16.378233 
L 46.406535 29.655307 
L 48.494592 31.730618 
L 50.582649 37.864587 
L 52.670706 46.448341 
L 54.758763 49.532168 
L 56.84682 53.978732 
L 58.934877 59.683875 
L 61.022934 64.652677 
L 63.110991 63.259768 
L 65.199048 68.679509 
L 67.287105 63.214508 
L 69.375162 69.891381 
L 71.46322 75.969138 
L 73.551277 74.996168 
L 75.639334 77.929545 
L 77.727391 71.432262 
L 79.815448 75.000714 
L 81.903505 81.439511 
L 83.991562 81.163203 
L 86.079619 80.506634 
L 88.167676 81.912977 
L 90.255733 86.117952 
L 92.34379 86.543471 
L 94.431847 86.513505 
L 96.519904 87.01611 
L 98.607961 86.44262 
L 100.696018 88.383393 
L 102.784075 88.016153 
L 104.872132 92.595395 
L 106.960189 91.523226 
L 109.048246 93.720882 
L 111.136303 95.04828 
L 113.22436 94.573781 
L 115.312417 93.27387 
L 117.400474 93.112053 
L 119.488531 93.394768 
L 121.576588 92.386665 
L 123.664645 97.710101 
L 125.752702 99.206962 
L 127.840759 98.734117 
L 129.928816 99.518197 
L 132.016873 100.33183 
L 134.10493 99.313187 
L 136.192987 98.536547 
L 138.281044 100.818728 
L 140.369101 100.553786 
L 142.457159 100.593052 
L 144.545216 100.453554 
L 146.633273 101.013818 
L 148.72133 101.481703 
L 150.809387 103.205067 
L 152.897444 103.286286 
L 154.985501 105.315511 
L 157.073558 105.599053 
L 159.161615 104.620503 
L 161.249672 103.62356 
L 163.337729 105.622406 
L 165.425786 103.920122 
L 167.513843 105.950794 
L 169.6019 104.026967 
L 171.689957 105.731938 
L 173.778014 107.545613 
L 175.866071 106.38396 
L 177.954128 106.909298 
L 180.042185 105.100168 
L 182.130242 106.332087 
L 184.218299 107.242645 
L 186.306356 108.984609 
L 188.394413 109.540326 
L 190.48247 109.046815 
L 192.570527 108.824652 
L 194.658584 110.135516 
L 196.746641 108.485104 
L 198.834698 109.533093 
L 200.922755 108.904424 
L 203.010812 108.758519 
L 205.098869 108.764926 
L 207.186926 109.709583 
L 209.274983 109.070581 
L 211.36304 108.473738 
L 213.451098 110.725746 
L 215.539155 110.418645 
L 217.627212 109.699457 
L 219.715269 109.9148 
L 221.803326 111.218224 
L 223.891383 109.989818 
L 225.97944 110.794771 
L 228.067497 111.845654 
L 230.155554 112.786591 
L 232.243611 111.363922 
L 234.331668 110.935509 
L 236.419725 110.027018 
L 238.507782 110.730086 
L 240.595839 111.825401 
L 242.683896 112.155648 
L 244.771953 111.963658 
" style="fill:none;stroke:#1f77b4;stroke-dasharray:4.5,1.5,1.5,1.5;stroke-dashoffset:0;stroke-opacity:0.2;stroke-width:1.5;"/>
   </g>
   <g id="line2d_103">
    <path clip-path="url(#p03e45282e3)" d="M 48.101398 -1 
L 48.494592 1.933719 
L 50.582649 9.577775 
L 52.670706 27.971829 
L 54.758763 39.336648 
L 56.84682 36.940596 
L 58.934877 44.910973 
L 61.022934 51.673818 
L 63.110991 50.886845 
L 65.199048 54.811792 
L 67.287105 61.54591 
L 69.375162 57.582111 
L 71.46322 60.39521 
L 73.551277 63.976269 
L 75.639334 69.614039 
L 77.727391 71.668478 
L 79.815448 70.657895 
L 81.903505 74.06081 
L 83.991562 76.187168 
L 86.079619 77.989683 
L 88.167676 78.862629 
L 90.255733 78.999646 
L 92.34379 79.024653 
L 94.431847 80.788522 
L 96.519904 80.914174 
L 98.607961 83.26042 
L 100.696018 83.524123 
L 102.784075 81.867511 
L 104.872132 85.771171 
L 106.960189 83.315393 
L 109.048246 87.743151 
L 111.136303 86.548224 
L 113.22436 89.970979 
L 115.312417 88.36748 
L 117.400474 87.79461 
L 119.488531 86.587904 
L 121.576588 92.136809 
L 123.664645 91.208685 
L 125.752702 90.473584 
L 127.840759 91.358309 
L 129.928816 92.291807 
L 132.016873 95.696169 
L 134.10493 93.804167 
L 136.192987 94.895349 
L 138.281044 94.959001 
L 140.369101 95.561838 
L 142.457159 94.388611 
L 144.545216 96.036749 
L 146.633273 96.729071 
L 148.72133 96.632559 
L 150.809387 97.459005 
L 152.897444 96.468262 
L 154.985501 96.18658 
L 157.073558 98.609292 
L 159.161615 100.449628 
L 161.249672 98.16786 
L 163.337729 98.613012 
L 165.425786 100.684604 
L 167.513843 99.019725 
L 169.6019 100.576312 
L 171.689957 99.482031 
L 173.778014 102.66423 
L 175.866071 102.305876 
L 177.954128 100.4891 
L 180.042185 101.449877 
L 182.130242 98.803556 
L 184.218299 100.543453 
L 186.306356 105.013577 
L 188.394413 101.90433 
L 190.48247 102.141992 
L 192.570527 105.050363 
L 194.658584 103.491296 
L 196.746641 104.951578 
L 198.834698 104.367754 
L 200.922755 106.412479 
L 203.010812 104.214824 
L 205.098869 103.594834 
L 207.186926 105.731318 
L 209.274983 106.769593 
L 211.36304 106.058879 
L 213.451098 105.730698 
L 215.539155 106.018579 
L 217.627212 105.461416 
L 219.715269 107.005603 
L 221.803326 108.608689 
L 223.891383 106.089878 
L 225.97944 108.214995 
L 228.067497 107.34949 
L 230.155554 108.3237 
L 232.243611 108.189162 
L 234.331668 108.040158 
L 236.419725 109.651718 
L 238.507782 105.752811 
L 240.595839 110.074137 
L 242.683896 109.003622 
L 244.771953 109.766829 
" style="fill:none;stroke:#9467bd;stroke-linecap:square;stroke-opacity:0.2;stroke-width:1.5;"/>
   </g>
   <g id="line2d_104">
    <path clip-path="url(#p03e45282e3)" d="M 39.948386 -1 
L 40.142364 4.362424 
L 42.230421 19.372368 
L 44.318478 36.884797 
L 46.406535 44.838848 
L 48.494592 50.43012 
L 50.582649 55.077147 
L 52.670706 59.539004 
L 54.758763 62.533347 
L 56.84682 63.539176 
L 58.934877 67.368024 
L 61.022934 71.571139 
L 63.110991 73.11388 
L 65.199048 77.443473 
L 67.287105 78.298438 
L 69.375162 81.30642 
L 71.46322 82.142166 
L 73.551277 82.657997 
L 75.639334 83.491056 
L 77.727391 85.187968 
L 79.815448 89.060215 
L 81.903505 89.153007 
L 83.991562 91.459574 
L 86.079619 90.507477 
L 88.167676 89.935227 
L 90.255733 92.948169 
L 92.34379 91.549266 
L 94.431847 93.158345 
L 96.519904 94.585974 
L 98.607961 95.293175 
L 100.696018 97.410439 
L 102.784075 96.344471 
L 104.872132 97.443299 
L 106.960189 100.315917 
L 109.048246 100.546759 
L 111.136303 100.457274 
L 113.22436 102.366428 
L 115.312417 102.778721 
L 117.400474 101.805338 
L 119.488531 102.369735 
L 121.576588 104.007127 
L 123.664645 103.042217 
L 125.752702 104.489272 
L 127.840759 103.25446 
L 129.928816 103.889122 
L 132.016873 104.703789 
L 134.10493 104.734581 
L 136.192987 105.679239 
L 138.281044 104.902185 
L 140.369101 106.00866 
L 142.457159 106.835932 
L 144.545216 106.427153 
L 146.633273 105.341964 
L 148.72133 107.816136 
L 150.809387 107.175066 
L 152.897444 107.791749 
L 154.985501 109.065001 
L 157.073558 109.270631 
L 159.161615 107.621665 
L 161.249672 109.69181 
L 163.337729 111.352762 
L 165.425786 110.48395 
L 167.513843 109.786462 
L 169.6019 110.85305 
L 171.689957 111.814034 
L 173.778014 110.778652 
L 175.866071 111.951465 
L 177.954128 112.790517 
L 180.042185 112.201527 
L 182.130242 110.591415 
L 184.218299 110.302087 
L 186.306356 112.536322 
L 188.394413 113.995157 
L 190.48247 114.731704 
L 192.570527 113.01516 
L 194.658584 113.624403 
L 196.746641 114.301845 
L 198.834698 114.445063 
L 200.922755 114.737284 
L 203.010812 114.651932 
L 205.098869 112.129402 
L 207.186926 113.214797 
L 209.274983 114.285312 
L 211.36304 114.942294 
L 213.451098 115.508345 
L 215.539155 114.491975 
L 217.627212 116.341197 
L 219.715269 117.029592 
L 221.803326 116.537114 
L 223.891383 116.696038 
L 225.97944 116.53422 
L 228.067497 115.889018 
L 230.155554 117.070925 
L 232.243611 116.066335 
L 234.331668 117.633255 
L 236.419725 115.397366 
L 238.507782 115.7861 
L 240.595839 117.244315 
L 242.683896 117.207116 
L 244.771953 118.104447 
" style="fill:none;stroke:#ff7f0e;stroke-linecap:square;stroke-opacity:0.2;stroke-width:1.5;"/>
   </g>
   <g id="line2d_105">
    <path clip-path="url(#p03e45282e3)" d="M 51.912782 -1 
L 52.670706 6.880845 
L 54.758763 21.347338 
L 56.84682 31.213233 
L 58.934877 38.677453 
L 61.022934 42.913362 
L 63.110991 47.126564 
L 65.199048 52.364336 
L 67.287105 56.031344 
L 69.375162 56.238903 
L 71.46322 59.604826 
L 73.551277 61.213864 
L 75.639334 63.738023 
L 77.727391 65.100084 
L 79.815448 67.772329 
L 81.903505 69.944743 
L 83.991562 71.175942 
L 86.079619 72.617895 
L 88.167676 74.770165 
L 90.255733 75.388053 
L 92.34379 76.949992 
L 94.431847 75.419267 
L 96.519904 77.028075 
L 98.607961 78.115208 
L 100.696018 78.948938 
L 102.784075 80.641539 
L 104.872132 82.217819 
L 106.960189 83.187725 
L 109.048246 84.243671 
L 111.136303 84.544759 
L 113.22436 84.200487 
L 115.312417 84.04063 
L 117.400474 84.510725 
L 119.488531 85.062849 
L 121.576588 85.696761 
L 123.664645 86.727849 
L 125.752702 86.133555 
L 127.840759 85.955618 
L 129.928816 87.389901 
L 132.016873 89.166485 
L 134.10493 89.385943 
L 136.192987 89.871756 
L 138.281044 91.629312 
L 140.369101 91.680538 
L 142.457159 91.891152 
L 144.545216 92.808628 
L 146.633273 93.482367 
L 148.72133 94.322008 
L 150.809387 93.902422 
L 152.897444 92.909081 
L 154.985501 93.916451 
L 157.073558 93.793998 
L 159.161615 93.784674 
L 161.249672 94.83364 
L 163.337729 95.654225 
L 165.425786 95.952147 
L 167.513843 96.661694 
L 169.6019 97.635658 
L 171.689957 98.004611 
L 173.778014 98.867299 
L 175.866071 98.373173 
L 177.954128 98.757362 
L 180.042185 98.321015 
L 182.130242 99.277197 
L 184.218299 99.398727 
L 186.306356 99.942424 
L 188.394413 100.777529 
L 190.48247 100.598257 
L 192.570527 100.893109 
L 194.658584 100.95032 
L 196.746641 101.508993 
L 198.834698 101.746652 
L 200.922755 102.395902 
L 203.010812 102.852246 
L 205.098869 102.689828 
L 207.186926 102.402247 
L 209.274983 102.658979 
L 211.36304 102.957351 
L 213.451098 102.661794 
L 215.539155 102.519675 
L 217.627212 102.616763 
L 219.715269 103.649804 
L 221.803326 103.924171 
L 223.891383 103.713904 
L 225.97944 103.963458 
L 228.067497 105.001345 
L 230.155554 105.108082 
L 232.243611 104.777645 
L 234.331668 105.464727 
L 236.419725 105.242108 
L 238.507782 104.796061 
L 240.595839 105.273165 
L 242.683896 106.008051 
L 244.771953 105.880742 
" style="fill:none;stroke:#2ca02c;stroke-dasharray:4.5,1.5,1.5,1.5;stroke-dashoffset:0;stroke-width:1.5;"/>
   </g>
   <g id="line2d_106">
    <path clip-path="url(#p03e45282e3)" d="M 50.708102 -1 
L 52.670706 17.278308 
L 54.758763 30.179852 
L 56.84682 39.699404 
L 58.934877 47.693193 
L 61.022934 54.476987 
L 63.110991 57.990099 
L 65.199048 62.265863 
L 67.287105 62.645321 
L 69.375162 65.543745 
L 71.46322 69.713902 
L 73.551277 71.826808 
L 75.639334 74.267903 
L 77.727391 73.133646 
L 79.815448 73.880474 
L 81.903505 76.904089 
L 83.991562 78.607734 
L 86.079619 79.367294 
L 88.167676 80.385567 
L 90.255733 82.678521 
L 92.34379 84.224501 
L 94.431847 85.140103 
L 96.519904 85.890505 
L 98.607961 86.111351 
L 100.696018 87.020168 
L 102.784075 87.418562 
L 104.872132 89.489295 
L 106.960189 90.302868 
L 109.048246 91.670073 
L 111.136303 93.021356 
L 113.22436 93.642326 
L 115.312417 93.494944 
L 117.400474 93.341787 
L 119.488531 93.362979 
L 121.576588 92.972454 
L 123.664645 94.867513 
L 125.752702 96.603292 
L 127.840759 97.455622 
L 129.928816 98.280652 
L 132.016873 99.101123 
L 134.10493 99.185949 
L 136.192987 98.926188 
L 138.281044 99.683204 
L 140.369101 100.031437 
L 142.457159 100.256083 
L 144.545216 100.335071 
L 146.633273 100.60657 
L 148.72133 100.956623 
L 150.809387 101.856001 
L 152.897444 102.428115 
L 154.985501 103.583074 
L 157.073558 104.389465 
L 159.161615 104.481881 
L 161.249672 104.138552 
L 163.337729 104.732094 
L 165.425786 104.407305 
L 167.513843 105.024701 
L 169.6019 104.625607 
L 171.689957 105.068139 
L 173.778014 106.059129 
L 175.866071 106.189061 
L 177.954128 106.477156 
L 180.042185 105.926361 
L 182.130242 106.088652 
L 184.218299 106.550249 
L 186.306356 107.523993 
L 188.394413 108.330526 
L 190.48247 108.617042 
L 192.570527 108.700086 
L 194.658584 109.274258 
L 196.746641 108.958596 
L 198.834698 109.188395 
L 200.922755 109.074806 
L 203.010812 108.948292 
L 205.098869 108.874945 
L 207.186926 109.208801 
L 209.274983 109.153513 
L 211.36304 108.881603 
L 213.451098 109.61926 
L 215.539155 109.939014 
L 217.627212 109.843191 
L 219.715269 109.871835 
L 221.803326 110.41039 
L 223.891383 110.242162 
L 225.97944 110.463206 
L 228.067497 111.016185 
L 230.155554 111.724347 
L 232.243611 111.580177 
L 234.331668 111.32231 
L 236.419725 110.804193 
L 238.507782 110.77455 
L 240.595839 111.19489 
L 242.683896 111.579194 
L 244.771953 111.732979 
" style="fill:none;stroke:#1f77b4;stroke-dasharray:4.5,1.5,1.5,1.5;stroke-dashoffset:0;stroke-width:1.5;"/>
   </g>
   <g id="line2d_107">
    <path clip-path="url(#p03e45282e3)" d="M 51.720047 -1 
L 52.670706 5.746035 
L 54.758763 19.182281 
L 56.84682 26.285607 
L 58.934877 33.735753 
L 61.022934 40.910979 
L 63.110991 44.901326 
L 65.199048 48.865512 
L 67.287105 53.937671 
L 69.375162 55.395447 
L 71.46322 57.395352 
L 73.551277 60.027719 
L 75.639334 63.862247 
L 77.727391 66.984739 
L 79.815448 68.454002 
L 81.903505 70.696725 
L 83.991562 72.892902 
L 86.079619 74.931615 
L 88.167676 76.50402 
L 90.255733 77.502271 
L 92.34379 78.111223 
L 94.431847 79.182143 
L 96.519904 79.874955 
L 98.607961 81.229141 
L 100.696018 82.147134 
L 102.784075 82.035285 
L 104.872132 83.529639 
L 106.960189 83.443941 
L 109.048246 85.163625 
L 111.136303 85.717465 
L 113.22436 87.41887 
L 115.312417 87.798314 
L 117.400474 87.796833 
L 119.488531 87.313261 
L 121.576588 89.24268 
L 123.664645 90.029082 
L 125.752702 90.206883 
L 127.840759 90.667453 
L 129.928816 91.317195 
L 132.016873 93.068784 
L 134.10493 93.362938 
L 136.192987 93.975902 
L 138.281044 94.369142 
L 140.369101 94.84622 
L 142.457159 94.663176 
L 144.545216 95.212606 
L 146.633273 95.819192 
L 148.72133 96.144539 
L 150.809387 96.670325 
L 152.897444 96.5895 
L 154.985501 96.428332 
L 157.073558 97.300716 
L 159.161615 98.560281 
L 161.249672 98.403312 
L 163.337729 98.487192 
L 165.425786 99.366157 
L 167.513843 99.227584 
L 169.6019 99.767075 
L 171.689957 99.653058 
L 173.778014 100.857527 
L 175.866071 101.436866 
L 177.954128 101.05776 
L 180.042185 101.214607 
L 182.130242 100.250186 
L 184.218299 100.367493 
L 186.306356 102.225926 
L 188.394413 102.097288 
L 190.48247 102.115169 
L 192.570527 103.289247 
L 194.658584 103.370066 
L 196.746641 104.002671 
L 198.834698 104.148704 
L 200.922755 105.054214 
L 203.010812 104.718458 
L 205.098869 104.269008 
L 207.186926 104.853932 
L 209.274983 105.620197 
L 211.36304 105.795669 
L 213.451098 105.769681 
L 215.539155 105.86924 
L 217.627212 105.70611 
L 219.715269 106.225907 
L 221.803326 107.17902 
L 223.891383 106.743363 
L 225.97944 107.332016 
L 228.067497 107.339006 
L 230.155554 107.732884 
L 232.243611 107.915395 
L 234.331668 107.9653 
L 236.419725 108.639867 
L 238.507782 107.485045 
L 240.595839 108.520682 
L 242.683896 108.713858 
L 244.771953 109.135046 
" style="fill:none;stroke:#9467bd;stroke-linecap:square;stroke-width:1.5;"/>
   </g>
   <g id="line2d_108">
    <path clip-path="url(#p03e45282e3)" d="M 43.269398 -1 
L 44.318478 8.505529 
L 46.406535 23.038857 
L 48.494592 33.995362 
L 50.582649 42.428076 
L 52.670706 49.272447 
L 54.758763 54.576807 
L 56.84682 58.161755 
L 58.934877 61.844263 
L 61.022934 65.735013 
L 63.110991 68.68656 
L 65.199048 72.189325 
L 67.287105 74.63297 
L 69.375162 77.30235 
L 71.46322 79.238277 
L 73.551277 80.606165 
L 75.639334 81.760122 
L 77.727391 83.13126 
L 79.815448 85.502842 
L 81.903505 86.962908 
L 83.991562 88.761574 
L 86.079619 89.459935 
L 88.167676 89.650052 
L 90.255733 90.969299 
L 92.34379 91.201286 
L 94.431847 91.984109 
L 96.519904 93.024855 
L 98.607961 93.932183 
L 100.696018 95.323486 
L 102.784075 95.73188 
L 104.872132 96.416447 
L 106.960189 97.976235 
L 109.048246 99.004445 
L 111.136303 99.585577 
L 113.22436 100.697917 
L 115.312417 101.530239 
L 117.400474 101.640278 
L 119.488531 101.932061 
L 121.576588 102.762087 
L 123.664645 102.874139 
L 125.752702 103.520192 
L 127.840759 103.413899 
L 129.928816 103.603989 
L 132.016873 104.043909 
L 134.10493 104.320178 
L 136.192987 104.863802 
L 138.281044 104.879155 
L 140.369101 105.330957 
L 142.457159 105.932947 
L 144.545216 106.130629 
L 146.633273 105.815163 
L 148.72133 106.615552 
L 150.809387 106.839358 
L 152.897444 107.220314 
L 154.985501 107.958189 
L 157.073558 108.483166 
L 159.161615 108.138566 
L 161.249672 108.759863 
L 163.337729 109.797023 
L 165.425786 110.071794 
L 167.513843 109.957661 
L 169.6019 110.315817 
L 171.689957 110.915104 
L 173.778014 110.860523 
L 175.866071 111.2969 
L 177.954128 111.894347 
L 180.042185 112.017219 
L 182.130242 111.446897 
L 184.218299 110.988973 
L 186.306356 111.607913 
L 188.394413 112.56281 
L 190.48247 113.430368 
L 192.570527 113.264285 
L 194.658584 113.408332 
L 196.746641 113.765737 
L 198.834698 114.037467 
L 200.922755 114.317394 
L 203.010812 114.451209 
L 205.098869 113.522487 
L 207.186926 113.399411 
L 209.274983 113.753771 
L 211.36304 114.22918 
L 213.451098 114.740846 
L 215.539155 114.641298 
L 217.627212 115.321257 
L 219.715269 116.004591 
L 221.803326 116.2176 
L 223.891383 116.408975 
L 225.97944 116.459073 
L 228.067497 116.231051 
L 230.155554 116.567001 
L 232.243611 116.366734 
L 234.331668 116.873343 
L 236.419725 116.282952 
L 238.507782 116.084211 
L 240.595839 116.548253 
L 242.683896 116.811798 
L 244.771953 117.328857 
" style="fill:none;stroke:#ff7f0e;stroke-linecap:square;stroke-width:1.5;"/>
   </g>
   <g id="patch_3">
    <path d="M 35.96625 132.887169 
L 35.96625 7.2 
" style="fill:none;stroke:#000000;stroke-linecap:square;stroke-linejoin:miter;stroke-width:0.8;"/>
   </g>
   <g id="patch_4">
    <path d="M 246.86001 132.887169 
L 246.86001 7.2 
" style="fill:none;stroke:#000000;stroke-linecap:square;stroke-linejoin:miter;stroke-width:0.8;"/>
   </g>
   <g id="patch_5">
    <path d="M 35.96625 132.887169 
L 246.86001 132.887169 
" style="fill:none;stroke:#000000;stroke-linecap:square;stroke-linejoin:miter;stroke-width:0.8;"/>
   </g>
   <g id="patch_6">
    <path d="M 35.96625 7.2 
L 246.86001 7.2 
" style="fill:none;stroke:#000000;stroke-linecap:square;stroke-linejoin:miter;stroke-width:0.8;"/>
   </g>
   <g id="legend_1">
    <g id="line2d_109">
     <path d="M 113.87251 17.2 
L 129.87251 17.2 
" style="fill:none;stroke:#2ca02c;stroke-dasharray:4.5,1.5,1.5,1.5;stroke-dashoffset:0;stroke-width:1.5;"/>
    </g>
    <g id="line2d_110"/>
    <g id="text_14">
     <!-- A. Greedy Rollout -->
     <g transform="translate(136.27251 20)scale(0.08 -0.08)">
      <defs>
       <path d="M 2928 1419 
L 1288 1419 
L 1000 750 
Q 894 503 894 381 
Q 894 284 986 211 
Q 1078 138 1384 116 
L 1384 0 
L 50 0 
L 50 116 
Q 316 163 394 238 
Q 553 388 747 847 
L 2238 4334 
L 2347 4334 
L 3822 809 
Q 4000 384 4145 257 
Q 4291 131 4550 116 
L 4550 0 
L 2878 0 
L 2878 116 
Q 3131 128 3220 200 
Q 3309 272 3309 375 
Q 3309 513 3184 809 
L 2928 1419 
z
M 2841 1650 
L 2122 3363 
L 1384 1650 
L 2841 1650 
z
" id="TimesNewRomanPSMT-41" transform="scale(0.015625)"/>
       <path d="M 3928 4334 
L 4038 2997 
L 3928 2997 
Q 3763 3497 3500 3750 
Q 3122 4116 2528 4116 
Q 1719 4116 1297 3475 
Q 944 2934 944 2188 
Q 944 1581 1178 1081 
Q 1413 581 1792 348 
Q 2172 116 2572 116 
Q 2806 116 3025 175 
Q 3244 234 3447 350 
L 3447 1575 
Q 3447 1894 3398 1992 
Q 3350 2091 3248 2142 
Q 3147 2194 2891 2194 
L 2891 2313 
L 4531 2313 
L 4531 2194 
L 4453 2194 
Q 4209 2194 4119 2031 
Q 4056 1916 4056 1575 
L 4056 278 
Q 3697 84 3347 -6 
Q 2997 -97 2569 -97 
Q 1341 -97 703 691 
Q 225 1281 225 2053 
Q 225 2613 494 3125 
Q 813 3734 1369 4063 
Q 1834 4334 2469 4334 
Q 2700 4334 2889 4296 
Q 3078 4259 3425 4131 
Q 3600 4066 3659 4066 
Q 3719 4066 3761 4120 
Q 3803 4175 3813 4334 
L 3928 4334 
z
" id="TimesNewRomanPSMT-47" transform="scale(0.015625)"/>
       <path d="M 38 2863 
L 1372 2863 
L 1372 2747 
L 1306 2747 
Q 1166 2747 1095 2686 
Q 1025 2625 1025 2534 
Q 1025 2413 1128 2197 
L 1825 753 
L 2466 2334 
Q 2519 2463 2519 2588 
Q 2519 2644 2497 2672 
Q 2472 2706 2419 2726 
Q 2366 2747 2231 2747 
L 2231 2863 
L 3163 2863 
L 3163 2747 
Q 3047 2734 2984 2696 
Q 2922 2659 2847 2556 
Q 2819 2513 2741 2316 
L 1575 -541 
Q 1406 -956 1132 -1168 
Q 859 -1381 606 -1381 
Q 422 -1381 303 -1275 
Q 184 -1169 184 -1031 
Q 184 -900 270 -820 
Q 356 -741 506 -741 
Q 609 -741 788 -809 
Q 913 -856 944 -856 
Q 1038 -856 1148 -759 
Q 1259 -663 1372 -384 
L 1575 113 
L 547 2272 
Q 500 2369 397 2513 
Q 319 2622 269 2659 
Q 197 2709 38 2747 
L 38 2863 
z
" id="TimesNewRomanPSMT-79" transform="scale(0.015625)"/>
       <path d="M 4325 0 
L 3194 0 
L 1759 1981 
Q 1600 1975 1500 1975 
Q 1459 1975 1412 1976 
Q 1366 1978 1316 1981 
L 1316 750 
Q 1316 350 1403 253 
Q 1522 116 1759 116 
L 1925 116 
L 1925 0 
L 109 0 
L 109 116 
L 269 116 
Q 538 116 653 291 
Q 719 388 719 750 
L 719 3488 
Q 719 3888 631 3984 
Q 509 4122 269 4122 
L 109 4122 
L 109 4238 
L 1653 4238 
Q 2328 4238 2648 4139 
Q 2969 4041 3192 3777 
Q 3416 3513 3416 3147 
Q 3416 2756 3161 2468 
Q 2906 2181 2372 2063 
L 3247 847 
Q 3547 428 3762 290 
Q 3978 153 4325 116 
L 4325 0 
z
M 1316 2178 
Q 1375 2178 1419 2176 
Q 1463 2175 1491 2175 
Q 2097 2175 2405 2437 
Q 2713 2700 2713 3106 
Q 2713 3503 2464 3751 
Q 2216 4000 1806 4000 
Q 1625 4000 1316 3941 
L 1316 2178 
z
" id="TimesNewRomanPSMT-52" transform="scale(0.015625)"/>
       <path d="M 2709 2863 
L 2709 1128 
Q 2709 631 2732 520 
Q 2756 409 2807 365 
Q 2859 322 2928 322 
Q 3025 322 3147 375 
L 3191 266 
L 2334 -88 
L 2194 -88 
L 2194 519 
Q 1825 119 1631 15 
Q 1438 -88 1222 -88 
Q 981 -88 804 51 
Q 628 191 559 409 
Q 491 628 491 1028 
L 491 2306 
Q 491 2509 447 2587 
Q 403 2666 317 2708 
Q 231 2750 6 2747 
L 6 2863 
L 1009 2863 
L 1009 947 
Q 1009 547 1148 422 
Q 1288 297 1484 297 
Q 1619 297 1789 381 
Q 1959 466 2194 703 
L 2194 2325 
Q 2194 2569 2105 2655 
Q 2016 2741 1734 2747 
L 1734 2863 
L 2709 2863 
z
" id="TimesNewRomanPSMT-75" transform="scale(0.015625)"/>
      </defs>
      <use xlink:href="#TimesNewRomanPSMT-41"/>
      <use x="72.216797" xlink:href="#TimesNewRomanPSMT-2e"/>
      <use x="97.216797" xlink:href="#TimesNewRomanPSMT-20"/>
      <use x="122.216797" xlink:href="#TimesNewRomanPSMT-47"/>
      <use x="194.433594" xlink:href="#TimesNewRomanPSMT-72"/>
      <use x="227.734375" xlink:href="#TimesNewRomanPSMT-65"/>
      <use x="272.119141" xlink:href="#TimesNewRomanPSMT-65"/>
      <use x="316.503906" xlink:href="#TimesNewRomanPSMT-64"/>
      <use x="366.503906" xlink:href="#TimesNewRomanPSMT-79"/>
      <use x="416.503906" xlink:href="#TimesNewRomanPSMT-20"/>
      <use x="441.503906" xlink:href="#TimesNewRomanPSMT-52"/>
      <use x="508.203125" xlink:href="#TimesNewRomanPSMT-6f"/>
      <use x="558.203125" xlink:href="#TimesNewRomanPSMT-6c"/>
      <use x="585.986328" xlink:href="#TimesNewRomanPSMT-6c"/>
      <use x="613.769531" xlink:href="#TimesNewRomanPSMT-6f"/>
      <use x="663.769531" xlink:href="#TimesNewRomanPSMT-75"/>
      <use x="713.769531" xlink:href="#TimesNewRomanPSMT-74"/>
     </g>
    </g>
    <g id="line2d_111">
     <path d="M 113.87251 28.52625 
L 129.87251 28.52625 
" style="fill:none;stroke:#1f77b4;stroke-dasharray:4.5,1.5,1.5,1.5;stroke-dashoffset:0;stroke-width:1.5;"/>
    </g>
    <g id="line2d_112"/>
    <g id="text_15">
     <!-- B. Greedy Rollout + Entropy -->
     <g transform="translate(136.27251 31.32625)scale(0.08 -0.08)">
      <defs>
       <path d="M 2956 2163 
Q 3397 2069 3616 1863 
Q 3919 1575 3919 1159 
Q 3919 844 3719 555 
Q 3519 266 3170 133 
Q 2822 0 2106 0 
L 106 0 
L 106 116 
L 266 116 
Q 531 116 647 284 
Q 719 394 719 750 
L 719 3488 
Q 719 3881 628 3984 
Q 506 4122 266 4122 
L 106 4122 
L 106 4238 
L 1938 4238 
Q 2450 4238 2759 4163 
Q 3228 4050 3475 3764 
Q 3722 3478 3722 3106 
Q 3722 2788 3528 2536 
Q 3334 2284 2956 2163 
z
M 1319 2331 
Q 1434 2309 1582 2298 
Q 1731 2288 1909 2288 
Q 2366 2288 2595 2386 
Q 2825 2484 2947 2687 
Q 3069 2891 3069 3131 
Q 3069 3503 2766 3765 
Q 2463 4028 1881 4028 
Q 1569 4028 1319 3959 
L 1319 2331 
z
M 1319 306 
Q 1681 222 2034 222 
Q 2600 222 2897 476 
Q 3194 731 3194 1106 
Q 3194 1353 3059 1581 
Q 2925 1809 2622 1940 
Q 2319 2072 1872 2072 
Q 1678 2072 1540 2065 
Q 1403 2059 1319 2044 
L 1319 306 
z
" id="TimesNewRomanPSMT-42" transform="scale(0.015625)"/>
       <path d="M 1672 441 
L 1672 2000 
L 116 2000 
L 116 2256 
L 1672 2256 
L 1672 3809 
L 1922 3809 
L 1922 2256 
L 3484 2256 
L 3484 2000 
L 1922 2000 
L 1922 441 
L 1672 441 
z
" id="TimesNewRomanPSMT-2b" transform="scale(0.015625)"/>
      </defs>
      <use xlink:href="#TimesNewRomanPSMT-42"/>
      <use x="66.699219" xlink:href="#TimesNewRomanPSMT-2e"/>
      <use x="91.699219" xlink:href="#TimesNewRomanPSMT-20"/>
      <use x="116.699219" xlink:href="#TimesNewRomanPSMT-47"/>
      <use x="188.916016" xlink:href="#TimesNewRomanPSMT-72"/>
      <use x="222.216797" xlink:href="#TimesNewRomanPSMT-65"/>
      <use x="266.601562" xlink:href="#TimesNewRomanPSMT-65"/>
      <use x="310.986328" xlink:href="#TimesNewRomanPSMT-64"/>
      <use x="360.986328" xlink:href="#TimesNewRomanPSMT-79"/>
      <use x="410.986328" xlink:href="#TimesNewRomanPSMT-20"/>
      <use x="435.986328" xlink:href="#TimesNewRomanPSMT-52"/>
      <use x="502.685547" xlink:href="#TimesNewRomanPSMT-6f"/>
      <use x="552.685547" xlink:href="#TimesNewRomanPSMT-6c"/>
      <use x="580.46875" xlink:href="#TimesNewRomanPSMT-6c"/>
      <use x="608.251953" xlink:href="#TimesNewRomanPSMT-6f"/>
      <use x="658.251953" xlink:href="#TimesNewRomanPSMT-75"/>
      <use x="708.251953" xlink:href="#TimesNewRomanPSMT-74"/>
      <use x="736.035156" xlink:href="#TimesNewRomanPSMT-20"/>
      <use x="761.035156" xlink:href="#TimesNewRomanPSMT-2b"/>
      <use x="817.431641" xlink:href="#TimesNewRomanPSMT-20"/>
      <use x="842.431641" xlink:href="#TimesNewRomanPSMT-45"/>
      <use x="903.515625" xlink:href="#TimesNewRomanPSMT-6e"/>
      <use x="953.515625" xlink:href="#TimesNewRomanPSMT-74"/>
      <use x="981.298828" xlink:href="#TimesNewRomanPSMT-72"/>
      <use x="1014.599609" xlink:href="#TimesNewRomanPSMT-6f"/>
      <use x="1064.599609" xlink:href="#TimesNewRomanPSMT-70"/>
      <use x="1114.599609" xlink:href="#TimesNewRomanPSMT-79"/>
     </g>
    </g>
    <g id="line2d_113">
     <path d="M 113.87251 39.8525 
L 129.87251 39.8525 
" style="fill:none;stroke:#9467bd;stroke-linecap:square;stroke-width:1.5;"/>
    </g>
    <g id="line2d_114"/>
    <g id="text_16">
     <!-- C. Proposed Baseline -->
     <g transform="translate(136.27251 42.6525)scale(0.08 -0.08)">
      <defs>
       <path d="M 3853 4334 
L 3950 2894 
L 3853 2894 
Q 3659 3541 3300 3825 
Q 2941 4109 2438 4109 
Q 2016 4109 1675 3895 
Q 1334 3681 1139 3212 
Q 944 2744 944 2047 
Q 944 1472 1128 1050 
Q 1313 628 1683 403 
Q 2053 178 2528 178 
Q 2941 178 3256 354 
Q 3572 531 3950 1056 
L 4047 994 
Q 3728 428 3303 165 
Q 2878 -97 2294 -97 
Q 1241 -97 663 684 
Q 231 1266 231 2053 
Q 231 2688 515 3219 
Q 800 3750 1298 4042 
Q 1797 4334 2388 4334 
Q 2847 4334 3294 4109 
Q 3425 4041 3481 4041 
Q 3566 4041 3628 4100 
Q 3709 4184 3744 4334 
L 3853 4334 
z
" id="TimesNewRomanPSMT-43" transform="scale(0.015625)"/>
       <path d="M 1313 1984 
L 1313 750 
Q 1313 350 1400 253 
Q 1519 116 1759 116 
L 1922 116 
L 1922 0 
L 106 0 
L 106 116 
L 266 116 
Q 534 116 650 291 
Q 713 388 713 750 
L 713 3488 
Q 713 3888 628 3984 
Q 506 4122 266 4122 
L 106 4122 
L 106 4238 
L 1659 4238 
Q 2228 4238 2556 4120 
Q 2884 4003 3109 3725 
Q 3334 3447 3334 3066 
Q 3334 2547 2992 2222 
Q 2650 1897 2025 1897 
Q 1872 1897 1694 1919 
Q 1516 1941 1313 1984 
z
M 1313 2163 
Q 1478 2131 1606 2115 
Q 1734 2100 1825 2100 
Q 2150 2100 2386 2351 
Q 2622 2603 2622 3003 
Q 2622 3278 2509 3514 
Q 2397 3750 2190 3867 
Q 1984 3984 1722 3984 
Q 1563 3984 1313 3925 
L 1313 2163 
z
" id="TimesNewRomanPSMT-50" transform="scale(0.015625)"/>
      </defs>
      <use xlink:href="#TimesNewRomanPSMT-43"/>
      <use x="66.699219" xlink:href="#TimesNewRomanPSMT-2e"/>
      <use x="91.699219" xlink:href="#TimesNewRomanPSMT-20"/>
      <use x="116.699219" xlink:href="#TimesNewRomanPSMT-50"/>
      <use x="172.314453" xlink:href="#TimesNewRomanPSMT-72"/>
      <use x="205.615234" xlink:href="#TimesNewRomanPSMT-6f"/>
      <use x="255.615234" xlink:href="#TimesNewRomanPSMT-70"/>
      <use x="305.615234" xlink:href="#TimesNewRomanPSMT-6f"/>
      <use x="355.615234" xlink:href="#TimesNewRomanPSMT-73"/>
      <use x="394.53125" xlink:href="#TimesNewRomanPSMT-65"/>
      <use x="438.916016" xlink:href="#TimesNewRomanPSMT-64"/>
      <use x="488.916016" xlink:href="#TimesNewRomanPSMT-20"/>
      <use x="513.916016" xlink:href="#TimesNewRomanPSMT-42"/>
      <use x="580.615234" xlink:href="#TimesNewRomanPSMT-61"/>
      <use x="625" xlink:href="#TimesNewRomanPSMT-73"/>
      <use x="663.916016" xlink:href="#TimesNewRomanPSMT-65"/>
      <use x="708.300781" xlink:href="#TimesNewRomanPSMT-6c"/>
      <use x="736.083984" xlink:href="#TimesNewRomanPSMT-69"/>
      <use x="763.867188" xlink:href="#TimesNewRomanPSMT-6e"/>
      <use x="813.867188" xlink:href="#TimesNewRomanPSMT-65"/>
     </g>
    </g>
    <g id="line2d_115">
     <path d="M 113.87251 51.16375 
L 129.87251 51.16375 
" style="fill:none;stroke:#ff7f0e;stroke-linecap:square;stroke-width:1.5;"/>
    </g>
    <g id="line2d_116"/>
    <g id="text_17">
     <!-- D. Proposed Baseline + Entropy -->
     <g transform="translate(136.27251 53.96375)scale(0.08 -0.08)">
      <defs>
       <path d="M 109 0 
L 109 116 
L 269 116 
Q 538 116 650 288 
Q 719 391 719 750 
L 719 3488 
Q 719 3884 631 3984 
Q 509 4122 269 4122 
L 109 4122 
L 109 4238 
L 1834 4238 
Q 2784 4238 3279 4022 
Q 3775 3806 4076 3303 
Q 4378 2800 4378 2141 
Q 4378 1256 3841 663 
Q 3238 0 2003 0 
L 109 0 
z
M 1319 306 
Q 1716 219 1984 219 
Q 2709 219 3187 728 
Q 3666 1238 3666 2109 
Q 3666 2988 3187 3494 
Q 2709 4000 1959 4000 
Q 1678 4000 1319 3909 
L 1319 306 
z
" id="TimesNewRomanPSMT-44" transform="scale(0.015625)"/>
      </defs>
      <use xlink:href="#TimesNewRomanPSMT-44"/>
      <use x="72.216797" xlink:href="#TimesNewRomanPSMT-2e"/>
      <use x="97.216797" xlink:href="#TimesNewRomanPSMT-20"/>
      <use x="122.216797" xlink:href="#TimesNewRomanPSMT-50"/>
      <use x="177.832031" xlink:href="#TimesNewRomanPSMT-72"/>
      <use x="211.132812" xlink:href="#TimesNewRomanPSMT-6f"/>
      <use x="261.132812" xlink:href="#TimesNewRomanPSMT-70"/>
      <use x="311.132812" xlink:href="#TimesNewRomanPSMT-6f"/>
      <use x="361.132812" xlink:href="#TimesNewRomanPSMT-73"/>
      <use x="400.048828" xlink:href="#TimesNewRomanPSMT-65"/>
      <use x="444.433594" xlink:href="#TimesNewRomanPSMT-64"/>
      <use x="494.433594" xlink:href="#TimesNewRomanPSMT-20"/>
      <use x="519.433594" xlink:href="#TimesNewRomanPSMT-42"/>
      <use x="586.132812" xlink:href="#TimesNewRomanPSMT-61"/>
      <use x="630.517578" xlink:href="#TimesNewRomanPSMT-73"/>
      <use x="669.433594" xlink:href="#TimesNewRomanPSMT-65"/>
      <use x="713.818359" xlink:href="#TimesNewRomanPSMT-6c"/>
      <use x="741.601562" xlink:href="#TimesNewRomanPSMT-69"/>
      <use x="769.384766" xlink:href="#TimesNewRomanPSMT-6e"/>
      <use x="819.384766" xlink:href="#TimesNewRomanPSMT-65"/>
      <use x="863.769531" xlink:href="#TimesNewRomanPSMT-20"/>
      <use x="888.769531" xlink:href="#TimesNewRomanPSMT-2b"/>
      <use x="945.166016" xlink:href="#TimesNewRomanPSMT-20"/>
      <use x="970.166016" xlink:href="#TimesNewRomanPSMT-45"/>
      <use x="1031.25" xlink:href="#TimesNewRomanPSMT-6e"/>
      <use x="1081.25" xlink:href="#TimesNewRomanPSMT-74"/>
      <use x="1109.033203" xlink:href="#TimesNewRomanPSMT-72"/>
      <use x="1142.333984" xlink:href="#TimesNewRomanPSMT-6f"/>
      <use x="1192.333984" xlink:href="#TimesNewRomanPSMT-70"/>
      <use x="1242.333984" xlink:href="#TimesNewRomanPSMT-79"/>
     </g>
    </g>
   </g>
  </g>
 </g>
 <defs>
  <clipPath id="p03e45282e3">
   <rect height="125.687169" width="210.89376" x="35.96625" y="7.2"/>
  </clipPath>
 </defs>
</svg>
