<?xml version="1.0" encoding="utf-8" standalone="no"?>
<!DOCTYPE svg PUBLIC "-//W3C//DTD SVG 1.1//EN"
  "http://www.w3.org/Graphics/SVG/1.1/DTD/svg11.dtd">
<svg height="491.660937pt" version="1.1" viewBox="0 0 1275.25 491.660937" width="1275.25pt" xmlns="http://www.w3.org/2000/svg" xmlns:xlink="http://www.w3.org/1999/xlink">
 <metadata>
  <rdf:RDF xmlns:cc="http://creativecommons.org/ns#" xmlns:dc="http://purl.org/dc/elements/1.1/" xmlns:rdf="http://www.w3.org/1999/02/22-rdf-syntax-ns#">
   <cc:Work>
    <dc:type rdf:resource="http://purl.org/dc/dcmitype/StillImage"/>
    <dc:date>2022-06-22T13:39:49.449366</dc:date>
    <dc:format>image/svg+xml</dc:format>
    <dc:creator>
     <cc:Agent>
      <dc:title>Matplotlib v3.4.3, https://matplotlib.org/</dc:title>
     </cc:Agent>
    </dc:creator>
   </cc:Work>
  </rdf:RDF>
 </metadata>
 <defs>
  <style type="text/css">*{stroke-linecap:butt;stroke-linejoin:round;}</style>
 </defs>
 <g id="figure_1">
  <g id="patch_1">
   <path d="M 0 491.660937 
L 1275.25 491.660937 
L 1275.25 0 
L 0 0 
z
" style="fill:#ffffff;"/>
  </g>
  <g id="axes_1">
   <g id="patch_2">
    <path d="M 31.7 464.745 
L 589.7 464.745 
L 589.7 29.865 
L 31.7 29.865 
z
" style="fill:#ffffff;"/>
   </g>
   <g id="Quiver_1">
    <path clip-path="url(#paeb2446bb0)" d="M 187.490261 441.252909 
L 190.60225 439.0235 
L 186.463982 436.840034 
L 207.130221 429.757012 
L 193.775666 447.046272 
L 193.039478 442.425579 
L 189.927489 444.654988 
L 187.490261 441.252909 
" style="fill:#ccf900;"/>
    <path clip-path="url(#paeb2446bb0)" d="M 207.635744 427.726495 
L 308.831547 452.920487 
L 307.812076 448.353928 
L 326.600683 459.500716 
L 304.778936 460.537035 
L 307.8205 456.981523 
L 206.624697 431.78753 
L 207.635744 427.726495 
" style="fill:#ccf900;"/>
    <path clip-path="url(#paeb2446bb0)" d="M 325.942352 457.514474 
L 338.10004 453.484859 
L 334.797135 450.170708 
L 356.634546 449.546118 
L 338.747124 462.088158 
L 339.416703 457.457343 
L 327.259015 461.486958 
L 325.942352 457.514474 
" style="fill:#ccf900;"/>
    <path clip-path="url(#paeb2446bb0)" d="M 355.510927 447.780887 
L 437.307455 395.715099 
L 433.294987 393.308257 
L 454.318145 387.367762 
L 440.036699 403.899638 
L 439.554692 399.245559 
L 357.758165 451.311348 
L 355.510927 447.780887 
" style="fill:#ccf900;"/>
    <path clip-path="url(#paeb2446bb0)" d="M 454.271089 389.459733 
L 446.459517 389.284023 
L 448.457376 393.51502 
L 427.678835 386.768549 
L 448.739711 380.963195 
L 446.553629 385.100081 
L 454.3652 385.275791 
L 454.271089 389.459733 
" style="fill:#ccf900;"/>
    <path clip-path="url(#paeb2446bb0)" d="M 426.933889 388.723955 
L 385.866398 373.078567 
L 386.331911 377.734324 
L 369.012694 364.418644 
L 390.801589 366.001891 
L 387.356291 369.167756 
L 428.423782 384.813143 
L 426.933889 388.723955 
" style="fill:#ccf900;"/>
   </g>
   <g id="Quiver_2">
    <path clip-path="url(#paeb2446bb0)" d="M 466.891921 359.234576 
L 468.678114 360.324562 
L 470.515167 359.322667 
L 470.566026 357.230785 
L 468.779833 356.140798 
L 466.94278 357.142694 
L 466.891921 359.234576 
L 468.678114 360.324562 
" style="fill:#00a4bb;"/>
    <path clip-path="url(#paeb2446bb0)" d="M 466.663437 356.977585 
L 490.903354 344.976485 
L 487.171239 342.154411 
L 508.709057 338.495858 
L 492.741826 353.405926 
L 492.760216 348.72699 
L 468.520299 360.72809 
L 466.663437 356.977585 
" style="fill:#00a4bb;"/>
    <path clip-path="url(#paeb2446bb0)" d="M 506.79868 339.349681 
L 423.04644 151.959257 
L 420.079509 155.577282 
L 417.272404 133.912038 
L 431.541772 150.45434 
L 426.867194 150.25161 
L 510.619435 337.642034 
L 506.79868 339.349681 
" style="fill:#00a4bb;"/>
    <path clip-path="url(#paeb2446bb0)" d="M 418.087779 135.839139 
L 377.564307 152.985016 
L 381.122159 156.023843 
L 359.40502 158.396293 
L 376.229906 144.461236 
L 375.933556 149.130814 
L 416.457029 131.984937 
L 418.087779 135.839139 
" style="fill:#00a4bb;"/>
    <path clip-path="url(#paeb2446bb0)" d="M 359.957261 160.414606 
L 144.247321 219.436114 
L 147.370115 222.920498 
L 125.530265 222.38797 
L 144.05667 210.810622 
L 143.142839 215.399488 
L 358.852779 156.377981 
L 359.957261 160.414606 
" style="fill:#00a4bb;"/>
    <path clip-path="url(#paeb2446bb0)" d="M 126.630134 222.148422 
L 126.869682 223.248291 
L 128.829873 221.669327 
L 127.92574 233.38666 
L 122.230658 223.106612 
L 124.669944 223.727386 
L 124.430396 222.627517 
L 126.630134 222.148422 
" style="fill:#00a4bb;"/>
    <path clip-path="url(#paeb2446bb0)" d="M 128.765057 231.469866 
L 220.307968 271.554261 
L 220.069808 266.881354 
L 236.719804 281.024913 
L 215.033904 278.382123 
L 218.629333 275.387851 
L 127.086422 235.303455 
L 128.765057 231.469866 
" style="fill:#00a4bb;"/>
    <path clip-path="url(#paeb2446bb0)" d="M 237.835657 279.254763 
L 354.197201 352.60582 
L 354.658757 347.949669 
L 369.012694 364.418644 
L 347.963641 358.570566 
L 351.965496 356.146119 
L 235.603952 282.795062 
L 237.835657 279.254763 
" style="fill:#00a4bb;"/>
   </g>
   <g id="matplotlib.axis_1">
    <g id="xtick_1">
     <g id="line2d_1">
      <defs>
       <path d="M 0 0 
L 0 3.5 
" id="m1178520610" style="stroke:#000000;stroke-width:0.8;"/>
      </defs>
      <g>
       <use style="stroke:#000000;stroke-width:0.8;" x="31.7" xlink:href="#m1178520610" y="464.745"/>
      </g>
     </g>
     <g id="text_1">
      <!-- 0.0 -->
      <g transform="translate(22.95 481.46625)scale(0.14 -0.14)">
       <defs>
        <path d="M 231 2094 
Q 231 2819 450 3342 
Q 669 3866 1031 4122 
Q 1313 4325 1613 4325 
Q 2100 4325 2488 3828 
Q 2972 3213 2972 2159 
Q 2972 1422 2759 906 
Q 2547 391 2217 158 
Q 1888 -75 1581 -75 
Q 975 -75 572 641 
Q 231 1244 231 2094 
z
M 844 2016 
Q 844 1141 1059 588 
Q 1238 122 1591 122 
Q 1759 122 1940 273 
Q 2122 425 2216 781 
Q 2359 1319 2359 2297 
Q 2359 3022 2209 3506 
Q 2097 3866 1919 4016 
Q 1791 4119 1609 4119 
Q 1397 4119 1231 3928 
Q 1006 3669 925 3112 
Q 844 2556 844 2016 
z
" id="TimesNewRomanPSMT-30" transform="scale(0.015625)"/>
        <path d="M 800 606 
Q 947 606 1047 504 
Q 1147 403 1147 259 
Q 1147 116 1045 14 
Q 944 -88 800 -88 
Q 656 -88 554 14 
Q 453 116 453 259 
Q 453 406 554 506 
Q 656 606 800 606 
z
" id="TimesNewRomanPSMT-2e" transform="scale(0.015625)"/>
       </defs>
       <use xlink:href="#TimesNewRomanPSMT-30"/>
       <use x="50" xlink:href="#TimesNewRomanPSMT-2e"/>
       <use x="75" xlink:href="#TimesNewRomanPSMT-30"/>
      </g>
     </g>
    </g>
    <g id="xtick_2">
     <g id="line2d_2">
      <g>
       <use style="stroke:#000000;stroke-width:0.8;" x="310.7" xlink:href="#m1178520610" y="464.745"/>
      </g>
     </g>
     <g id="text_2">
      <!-- 0.5 -->
      <g transform="translate(301.95 481.46625)scale(0.14 -0.14)">
       <defs>
        <path d="M 2778 4238 
L 2534 3706 
L 1259 3706 
L 981 3138 
Q 1809 3016 2294 2522 
Q 2709 2097 2709 1522 
Q 2709 1188 2573 903 
Q 2438 619 2231 419 
Q 2025 219 1772 97 
Q 1413 -75 1034 -75 
Q 653 -75 479 54 
Q 306 184 306 341 
Q 306 428 378 495 
Q 450 563 559 563 
Q 641 563 702 538 
Q 763 513 909 409 
Q 1144 247 1384 247 
Q 1750 247 2026 523 
Q 2303 800 2303 1197 
Q 2303 1581 2056 1914 
Q 1809 2247 1375 2428 
Q 1034 2569 447 2591 
L 1259 4238 
L 2778 4238 
z
" id="TimesNewRomanPSMT-35" transform="scale(0.015625)"/>
       </defs>
       <use xlink:href="#TimesNewRomanPSMT-30"/>
       <use x="50" xlink:href="#TimesNewRomanPSMT-2e"/>
       <use x="75" xlink:href="#TimesNewRomanPSMT-35"/>
      </g>
     </g>
    </g>
    <g id="xtick_3">
     <g id="line2d_3">
      <g>
       <use style="stroke:#000000;stroke-width:0.8;" x="589.7" xlink:href="#m1178520610" y="464.745"/>
      </g>
     </g>
     <g id="text_3">
      <!-- 1.0 -->
      <g transform="translate(580.95 481.46625)scale(0.14 -0.14)">
       <defs>
        <path d="M 750 3822 
L 1781 4325 
L 1884 4325 
L 1884 747 
Q 1884 391 1914 303 
Q 1944 216 2037 169 
Q 2131 122 2419 116 
L 2419 0 
L 825 0 
L 825 116 
Q 1125 122 1212 167 
Q 1300 213 1334 289 
Q 1369 366 1369 747 
L 1369 3034 
Q 1369 3497 1338 3628 
Q 1316 3728 1258 3775 
Q 1200 3822 1119 3822 
Q 1003 3822 797 3725 
L 750 3822 
z
" id="TimesNewRomanPSMT-31" transform="scale(0.015625)"/>
       </defs>
       <use xlink:href="#TimesNewRomanPSMT-31"/>
       <use x="50" xlink:href="#TimesNewRomanPSMT-2e"/>
       <use x="75" xlink:href="#TimesNewRomanPSMT-30"/>
      </g>
     </g>
    </g>
   </g>
   <g id="matplotlib.axis_2">
    <g id="ytick_1">
     <g id="line2d_4">
      <defs>
       <path d="M 0 0 
L -3.5 0 
" id="md8dd824cf2" style="stroke:#000000;stroke-width:0.8;"/>
      </defs>
      <g>
       <use style="stroke:#000000;stroke-width:0.8;" x="31.7" xlink:href="#md8dd824cf2" y="464.745"/>
      </g>
     </g>
     <g id="text_4">
      <!-- 0.0 -->
      <g transform="translate(7.2 469.605625)scale(0.14 -0.14)">
       <use xlink:href="#TimesNewRomanPSMT-30"/>
       <use x="50" xlink:href="#TimesNewRomanPSMT-2e"/>
       <use x="75" xlink:href="#TimesNewRomanPSMT-30"/>
      </g>
     </g>
    </g>
    <g id="ytick_2">
     <g id="line2d_5">
      <g>
       <use style="stroke:#000000;stroke-width:0.8;" x="31.7" xlink:href="#md8dd824cf2" y="247.305"/>
      </g>
     </g>
     <g id="text_5">
      <!-- 0.5 -->
      <g transform="translate(7.2 252.165625)scale(0.14 -0.14)">
       <use xlink:href="#TimesNewRomanPSMT-30"/>
       <use x="50" xlink:href="#TimesNewRomanPSMT-2e"/>
       <use x="75" xlink:href="#TimesNewRomanPSMT-35"/>
      </g>
     </g>
    </g>
    <g id="ytick_3">
     <g id="line2d_6">
      <g>
       <use style="stroke:#000000;stroke-width:0.8;" x="31.7" xlink:href="#md8dd824cf2" y="29.865"/>
      </g>
     </g>
     <g id="text_6">
      <!-- 1.0 -->
      <g transform="translate(7.2 34.725625)scale(0.14 -0.14)">
       <use xlink:href="#TimesNewRomanPSMT-31"/>
       <use x="50" xlink:href="#TimesNewRomanPSMT-2e"/>
       <use x="75" xlink:href="#TimesNewRomanPSMT-30"/>
      </g>
     </g>
    </g>
   </g>
   <g id="line2d_7">
    <defs>
     <path d="M -10 10 
L 10 10 
L 10 -10 
L -10 -10 
z
" id="mdcf10d1496" style="stroke:#000000;stroke-linejoin:miter;"/>
    </defs>
    <g clip-path="url(#paeb2446bb0)">
     <use style="stroke:#000000;stroke-linejoin:miter;" x="369.012694" xlink:href="#mdcf10d1496" y="364.418644"/>
    </g>
   </g>
   <g id="line2d_8">
    <defs>
     <path d="M -5 5 
L 5 5 
L 5 -5 
L -5 -5 
z
" id="mdabba5b449" style="stroke:#0000ff;stroke-linejoin:miter;"/>
    </defs>
    <g clip-path="url(#paeb2446bb0)">
     <use style="fill:#0000ff;stroke:#0000ff;stroke-linejoin:miter;" x="182.116131" xlink:href="#mdabba5b449" y="38.395376"/>
     <use style="fill:#0000ff;stroke:#0000ff;stroke-linejoin:miter;" x="427.678835" xlink:href="#mdabba5b449" y="386.768549"/>
     <use style="fill:#0000ff;stroke:#0000ff;stroke-linejoin:miter;" x="127.733268" xlink:href="#mdabba5b449" y="356.91914"/>
     <use style="fill:#0000ff;stroke:#0000ff;stroke-linejoin:miter;" x="417.272404" xlink:href="#mdabba5b449" y="133.912038"/>
     <use style="fill:#0000ff;stroke:#0000ff;stroke-linejoin:miter;" x="207.130221" xlink:href="#mdabba5b449" y="429.757012"/>
     <use style="fill:#0000ff;stroke:#0000ff;stroke-linejoin:miter;" x="124.290122" xlink:href="#mdabba5b449" y="111.683261"/>
     <use style="fill:#0000ff;stroke:#0000ff;stroke-linejoin:miter;" x="359.40502" xlink:href="#mdabba5b449" y="158.396293"/>
     <use style="fill:#0000ff;stroke:#0000ff;stroke-linejoin:miter;" x="454.318145" xlink:href="#mdabba5b449" y="387.367762"/>
     <use style="fill:#0000ff;stroke:#0000ff;stroke-linejoin:miter;" x="100.45744" xlink:href="#mdabba5b449" y="402.308291"/>
     <use style="fill:#0000ff;stroke:#0000ff;stroke-linejoin:miter;" x="585.018973" xlink:href="#mdabba5b449" y="240.854722"/>
     <use style="fill:#0000ff;stroke:#0000ff;stroke-linejoin:miter;" x="326.600683" xlink:href="#mdabba5b449" y="459.500716"/>
     <use style="fill:#0000ff;stroke:#0000ff;stroke-linejoin:miter;" x="356.634546" xlink:href="#mdabba5b449" y="449.546118"/>
     <use style="fill:#0000ff;stroke:#0000ff;stroke-linejoin:miter;" x="127.92574" xlink:href="#mdabba5b449" y="233.38666"/>
     <use style="fill:#0000ff;stroke:#0000ff;stroke-linejoin:miter;" x="61.880004" xlink:href="#mdabba5b449" y="150.061905"/>
     <use style="fill:#0000ff;stroke:#0000ff;stroke-linejoin:miter;" x="508.709057" xlink:href="#mdabba5b449" y="338.495858"/>
     <use style="fill:#0000ff;stroke:#0000ff;stroke-linejoin:miter;" x="513.453277" xlink:href="#mdabba5b449" y="77.981129"/>
     <use style="fill:#0000ff;stroke:#0000ff;stroke-linejoin:miter;" x="53.146587" xlink:href="#mdabba5b449" y="236.23736"/>
     <use style="fill:#0000ff;stroke:#0000ff;stroke-linejoin:miter;" x="236.719804" xlink:href="#mdabba5b449" y="281.024913"/>
     <use style="fill:#0000ff;stroke:#0000ff;stroke-linejoin:miter;" x="467.591868" xlink:href="#mdabba5b449" y="358.852837"/>
     <use style="fill:#0000ff;stroke:#0000ff;stroke-linejoin:miter;" x="125.530265" xlink:href="#mdabba5b449" y="222.38797"/>
    </g>
   </g>
   <g id="line2d_9">
    <defs>
     <path d="M -5 5 
L 5 5 
L 5 -5 
L -5 -5 
z
" id="m3ac104c603" style="stroke:#ff0000;stroke-linejoin:miter;"/>
    </defs>
    <g clip-path="url(#paeb2446bb0)">
     <use style="fill:#ff0000;stroke:#ff0000;stroke-linejoin:miter;" x="188.708875" xlink:href="#m3ac104c603" y="442.953948"/>
     <use style="fill:#ff0000;stroke:#ff0000;stroke-linejoin:miter;" x="468.728973" xlink:href="#m3ac104c603" y="358.23268"/>
    </g>
   </g>
   <g id="patch_3">
    <path d="M 31.7 464.745 
L 31.7 29.865 
" style="fill:none;stroke:#000000;stroke-linecap:square;stroke-linejoin:miter;stroke-width:0.8;"/>
   </g>
   <g id="patch_4">
    <path d="M 589.7 464.745 
L 589.7 29.865 
" style="fill:none;stroke:#000000;stroke-linecap:square;stroke-linejoin:miter;stroke-width:0.8;"/>
   </g>
   <g id="patch_5">
    <path d="M 31.7 464.745 
L 589.7 464.745 
" style="fill:none;stroke:#000000;stroke-linecap:square;stroke-linejoin:miter;stroke-width:0.8;"/>
   </g>
   <g id="patch_6">
    <path d="M 31.7 29.865 
L 589.7 29.865 
" style="fill:none;stroke:#000000;stroke-linecap:square;stroke-linejoin:miter;stroke-width:0.8;"/>
   </g>
   <g id="text_7">
    <!-- 0.79 -->
    <g transform="translate(193.438401 437.415339)scale(0.14 -0.14)">
     <defs>
      <path d="M 644 4238 
L 2916 4238 
L 2916 4119 
L 1503 -88 
L 1153 -88 
L 2419 3728 
L 1253 3728 
Q 900 3728 750 3644 
Q 488 3500 328 3200 
L 238 3234 
L 644 4238 
z
" id="TimesNewRomanPSMT-37" transform="scale(0.015625)"/>
      <path d="M 338 -88 
L 338 28 
Q 744 34 1094 217 
Q 1444 400 1770 856 
Q 2097 1313 2225 1859 
Q 1734 1544 1338 1544 
Q 891 1544 572 1889 
Q 253 2234 253 2806 
Q 253 3363 572 3797 
Q 956 4325 1575 4325 
Q 2097 4325 2469 3894 
Q 2925 3359 2925 2575 
Q 2925 1869 2578 1258 
Q 2231 647 1613 244 
Q 1109 -88 516 -88 
L 338 -88 
z
M 2275 2091 
Q 2331 2497 2331 2741 
Q 2331 3044 2228 3395 
Q 2125 3747 1936 3934 
Q 1747 4122 1506 4122 
Q 1228 4122 1018 3872 
Q 809 3622 809 3128 
Q 809 2469 1088 2097 
Q 1291 1828 1588 1828 
Q 1731 1828 1928 1897 
Q 2125 1966 2275 2091 
z
" id="TimesNewRomanPSMT-39" transform="scale(0.015625)"/>
     </defs>
     <use xlink:href="#TimesNewRomanPSMT-30"/>
     <use x="50" xlink:href="#TimesNewRomanPSMT-2e"/>
     <use x="75" xlink:href="#TimesNewRomanPSMT-37"/>
     <use x="125" xlink:href="#TimesNewRomanPSMT-39"/>
    </g>
   </g>
   <g id="text_8">
    <!-- 1.84 -->
    <g transform="translate(473.4585 352.69407)scale(0.14 -0.14)">
     <defs>
      <path d="M 1228 2134 
Q 725 2547 579 2797 
Q 434 3047 434 3316 
Q 434 3728 753 4026 
Q 1072 4325 1600 4325 
Q 2113 4325 2425 4047 
Q 2738 3769 2738 3413 
Q 2738 3175 2569 2928 
Q 2400 2681 1866 2347 
Q 2416 1922 2594 1678 
Q 2831 1359 2831 1006 
Q 2831 559 2490 242 
Q 2150 -75 1597 -75 
Q 994 -75 656 303 
Q 388 606 388 966 
Q 388 1247 577 1523 
Q 766 1800 1228 2134 
z
M 1719 2469 
Q 2094 2806 2194 3001 
Q 2294 3197 2294 3444 
Q 2294 3772 2109 3958 
Q 1925 4144 1606 4144 
Q 1288 4144 1088 3959 
Q 888 3775 888 3528 
Q 888 3366 970 3203 
Q 1053 3041 1206 2894 
L 1719 2469 
z
M 1375 2016 
Q 1116 1797 991 1539 
Q 866 1281 866 981 
Q 866 578 1086 336 
Q 1306 94 1647 94 
Q 1984 94 2187 284 
Q 2391 475 2391 747 
Q 2391 972 2272 1150 
Q 2050 1481 1375 2016 
z
" id="TimesNewRomanPSMT-38" transform="scale(0.015625)"/>
      <path d="M 2978 1563 
L 2978 1119 
L 2409 1119 
L 2409 0 
L 1894 0 
L 1894 1119 
L 100 1119 
L 100 1519 
L 2066 4325 
L 2409 4325 
L 2409 1563 
L 2978 1563 
z
M 1894 1563 
L 1894 3666 
L 406 1563 
L 1894 1563 
z
" id="TimesNewRomanPSMT-34" transform="scale(0.015625)"/>
     </defs>
     <use xlink:href="#TimesNewRomanPSMT-31"/>
     <use x="50" xlink:href="#TimesNewRomanPSMT-2e"/>
     <use x="75" xlink:href="#TimesNewRomanPSMT-38"/>
     <use x="125" xlink:href="#TimesNewRomanPSMT-34"/>
    </g>
   </g>
   <g id="text_9">
    <!-- DDTM Total prize: 12.00 -->
    <g transform="translate(187.776875 23.865)scale(0.24 -0.24)">
     <defs>
      <path d="M 109 0 
L 109 116 
L 269 116 
Q 538 116 650 288 
Q 719 391 719 750 
L 719 3488 
Q 719 3884 631 3984 
Q 509 4122 269 4122 
L 109 4122 
L 109 4238 
L 1834 4238 
Q 2784 4238 3279 4022 
Q 3775 3806 4076 3303 
Q 4378 2800 4378 2141 
Q 4378 1256 3841 663 
Q 3238 0 2003 0 
L 109 0 
z
M 1319 306 
Q 1716 219 1984 219 
Q 2709 219 3187 728 
Q 3666 1238 3666 2109 
Q 3666 2988 3187 3494 
Q 2709 4000 1959 4000 
Q 1678 4000 1319 3909 
L 1319 306 
z
" id="TimesNewRomanPSMT-44" transform="scale(0.015625)"/>
      <path d="M 3703 4238 
L 3750 3244 
L 3631 3244 
Q 3597 3506 3538 3619 
Q 3441 3800 3280 3886 
Q 3119 3972 2856 3972 
L 2259 3972 
L 2259 734 
Q 2259 344 2344 247 
Q 2463 116 2709 116 
L 2856 116 
L 2856 0 
L 1059 0 
L 1059 116 
L 1209 116 
Q 1478 116 1591 278 
Q 1659 378 1659 734 
L 1659 3972 
L 1150 3972 
Q 853 3972 728 3928 
Q 566 3869 450 3700 
Q 334 3531 313 3244 
L 194 3244 
L 244 4238 
L 3703 4238 
z
" id="TimesNewRomanPSMT-54" transform="scale(0.015625)"/>
      <path d="M 2619 0 
L 981 3566 
L 981 734 
Q 981 344 1066 247 
Q 1181 116 1431 116 
L 1581 116 
L 1581 0 
L 106 0 
L 106 116 
L 256 116 
Q 525 116 638 278 
Q 706 378 706 734 
L 706 3503 
Q 706 3784 644 3909 
Q 600 4000 483 4061 
Q 366 4122 106 4122 
L 106 4238 
L 1306 4238 
L 2844 922 
L 4356 4238 
L 5556 4238 
L 5556 4122 
L 5409 4122 
Q 5138 4122 5025 3959 
Q 4956 3859 4956 3503 
L 4956 734 
Q 4956 344 5044 247 
Q 5159 116 5409 116 
L 5556 116 
L 5556 0 
L 3756 0 
L 3756 116 
L 3906 116 
Q 4178 116 4288 278 
Q 4356 378 4356 734 
L 4356 3566 
L 2722 0 
L 2619 0 
z
" id="TimesNewRomanPSMT-4d" transform="scale(0.015625)"/>
      <path id="TimesNewRomanPSMT-20" transform="scale(0.015625)"/>
      <path d="M 1600 2947 
Q 2250 2947 2644 2453 
Q 2978 2031 2978 1484 
Q 2978 1100 2793 706 
Q 2609 313 2286 112 
Q 1963 -88 1566 -88 
Q 919 -88 538 428 
Q 216 863 216 1403 
Q 216 1797 411 2186 
Q 606 2575 925 2761 
Q 1244 2947 1600 2947 
z
M 1503 2744 
Q 1338 2744 1170 2645 
Q 1003 2547 900 2300 
Q 797 2053 797 1666 
Q 797 1041 1045 587 
Q 1294 134 1700 134 
Q 2003 134 2200 384 
Q 2397 634 2397 1244 
Q 2397 2006 2069 2444 
Q 1847 2744 1503 2744 
z
" id="TimesNewRomanPSMT-6f" transform="scale(0.015625)"/>
      <path d="M 1031 3803 
L 1031 2863 
L 1700 2863 
L 1700 2644 
L 1031 2644 
L 1031 788 
Q 1031 509 1111 412 
Q 1191 316 1316 316 
Q 1419 316 1516 380 
Q 1613 444 1666 569 
L 1788 569 
Q 1678 263 1478 108 
Q 1278 -47 1066 -47 
Q 922 -47 784 33 
Q 647 113 581 261 
Q 516 409 516 719 
L 516 2644 
L 63 2644 
L 63 2747 
Q 234 2816 414 2980 
Q 594 3144 734 3369 
Q 806 3488 934 3803 
L 1031 3803 
z
" id="TimesNewRomanPSMT-74" transform="scale(0.015625)"/>
      <path d="M 1822 413 
Q 1381 72 1269 19 
Q 1100 -59 909 -59 
Q 613 -59 420 144 
Q 228 347 228 678 
Q 228 888 322 1041 
Q 450 1253 767 1440 
Q 1084 1628 1822 1897 
L 1822 2009 
Q 1822 2438 1686 2597 
Q 1550 2756 1291 2756 
Q 1094 2756 978 2650 
Q 859 2544 859 2406 
L 866 2225 
Q 866 2081 792 2003 
Q 719 1925 600 1925 
Q 484 1925 411 2006 
Q 338 2088 338 2228 
Q 338 2497 613 2722 
Q 888 2947 1384 2947 
Q 1766 2947 2009 2819 
Q 2194 2722 2281 2516 
Q 2338 2381 2338 1966 
L 2338 994 
Q 2338 584 2353 492 
Q 2369 400 2405 369 
Q 2441 338 2488 338 
Q 2538 338 2575 359 
Q 2641 400 2828 588 
L 2828 413 
Q 2478 -56 2159 -56 
Q 2006 -56 1915 50 
Q 1825 156 1822 413 
z
M 1822 616 
L 1822 1706 
Q 1350 1519 1213 1441 
Q 966 1303 859 1153 
Q 753 1003 753 825 
Q 753 600 887 451 
Q 1022 303 1197 303 
Q 1434 303 1822 616 
z
" id="TimesNewRomanPSMT-61" transform="scale(0.015625)"/>
      <path d="M 1184 4444 
L 1184 647 
Q 1184 378 1223 290 
Q 1263 203 1344 158 
Q 1425 113 1647 113 
L 1647 0 
L 244 0 
L 244 113 
Q 441 113 512 153 
Q 584 194 625 287 
Q 666 381 666 647 
L 666 3247 
Q 666 3731 644 3842 
Q 622 3953 573 3993 
Q 525 4034 450 4034 
Q 369 4034 244 3984 
L 191 4094 
L 1044 4444 
L 1184 4444 
z
" id="TimesNewRomanPSMT-6c" transform="scale(0.015625)"/>
      <path d="M -6 2578 
L 875 2934 
L 994 2934 
L 994 2266 
Q 1216 2644 1439 2795 
Q 1663 2947 1909 2947 
Q 2341 2947 2628 2609 
Q 2981 2197 2981 1534 
Q 2981 794 2556 309 
Q 2206 -88 1675 -88 
Q 1444 -88 1275 -22 
Q 1150 25 994 166 
L 994 -706 
Q 994 -1000 1030 -1079 
Q 1066 -1159 1155 -1206 
Q 1244 -1253 1478 -1253 
L 1478 -1369 
L -22 -1369 
L -22 -1253 
L 56 -1253 
Q 228 -1256 350 -1188 
Q 409 -1153 442 -1076 
Q 475 -1000 475 -688 
L 475 2019 
Q 475 2297 450 2372 
Q 425 2447 370 2484 
Q 316 2522 222 2522 
Q 147 2522 31 2478 
L -6 2578 
z
M 994 2081 
L 994 1013 
Q 994 666 1022 556 
Q 1066 375 1236 237 
Q 1406 100 1666 100 
Q 1978 100 2172 344 
Q 2425 663 2425 1241 
Q 2425 1897 2138 2250 
Q 1938 2494 1663 2494 
Q 1513 2494 1366 2419 
Q 1253 2363 994 2081 
z
" id="TimesNewRomanPSMT-70" transform="scale(0.015625)"/>
      <path d="M 1038 2947 
L 1038 2303 
Q 1397 2947 1775 2947 
Q 1947 2947 2059 2842 
Q 2172 2738 2172 2600 
Q 2172 2478 2090 2393 
Q 2009 2309 1897 2309 
Q 1788 2309 1652 2417 
Q 1516 2525 1450 2525 
Q 1394 2525 1328 2463 
Q 1188 2334 1038 2041 
L 1038 669 
Q 1038 431 1097 309 
Q 1138 225 1241 169 
Q 1344 113 1538 113 
L 1538 0 
L 72 0 
L 72 113 
Q 291 113 397 181 
Q 475 231 506 341 
Q 522 394 522 644 
L 522 1753 
Q 522 2253 501 2348 
Q 481 2444 426 2487 
Q 372 2531 291 2531 
Q 194 2531 72 2484 
L 41 2597 
L 906 2947 
L 1038 2947 
z
" id="TimesNewRomanPSMT-72" transform="scale(0.015625)"/>
      <path d="M 928 4444 
Q 1059 4444 1151 4351 
Q 1244 4259 1244 4128 
Q 1244 3997 1151 3903 
Q 1059 3809 928 3809 
Q 797 3809 703 3903 
Q 609 3997 609 4128 
Q 609 4259 701 4351 
Q 794 4444 928 4444 
z
M 1188 2947 
L 1188 647 
Q 1188 378 1227 289 
Q 1266 200 1342 156 
Q 1419 113 1622 113 
L 1622 0 
L 231 0 
L 231 113 
Q 441 113 512 153 
Q 584 194 626 287 
Q 669 381 669 647 
L 669 1750 
Q 669 2216 641 2353 
Q 619 2453 572 2492 
Q 525 2531 444 2531 
Q 356 2531 231 2484 
L 188 2597 
L 1050 2947 
L 1188 2947 
z
" id="TimesNewRomanPSMT-69" transform="scale(0.015625)"/>
      <path d="M 2688 878 
L 2653 0 
L 128 0 
L 128 113 
L 2028 2644 
L 1091 2644 
Q 788 2644 694 2605 
Q 600 2566 541 2456 
Q 456 2300 444 2069 
L 319 2069 
L 338 2863 
L 2738 2863 
L 2738 2747 
L 819 209 
L 1863 209 
Q 2191 209 2308 264 
Q 2425 319 2497 456 
Q 2547 556 2581 878 
L 2688 878 
z
" id="TimesNewRomanPSMT-7a" transform="scale(0.015625)"/>
      <path d="M 681 1784 
Q 678 1147 991 784 
Q 1303 422 1725 422 
Q 2006 422 2214 576 
Q 2422 731 2563 1106 
L 2659 1044 
Q 2594 616 2278 264 
Q 1963 -88 1488 -88 
Q 972 -88 605 314 
Q 238 716 238 1394 
Q 238 2128 614 2539 
Q 991 2950 1559 2950 
Q 2041 2950 2350 2633 
Q 2659 2316 2659 1784 
L 681 1784 
z
M 681 1966 
L 2006 1966 
Q 1991 2241 1941 2353 
Q 1863 2528 1708 2628 
Q 1553 2728 1384 2728 
Q 1125 2728 920 2526 
Q 716 2325 681 1966 
z
" id="TimesNewRomanPSMT-65" transform="scale(0.015625)"/>
      <path d="M 903 2950 
Q 1047 2950 1148 2848 
Q 1250 2747 1250 2603 
Q 1250 2459 1148 2357 
Q 1047 2256 903 2256 
Q 759 2256 657 2357 
Q 556 2459 556 2603 
Q 556 2747 657 2848 
Q 759 2950 903 2950 
z
M 897 609 
Q 1044 609 1145 506 
Q 1247 403 1247 259 
Q 1247 116 1144 14 
Q 1041 -88 897 -88 
Q 753 -88 651 14 
Q 550 116 550 259 
Q 550 403 651 506 
Q 753 609 897 609 
z
" id="TimesNewRomanPSMT-3a" transform="scale(0.015625)"/>
      <path d="M 2934 816 
L 2638 0 
L 138 0 
L 138 116 
Q 1241 1122 1691 1759 
Q 2141 2397 2141 2925 
Q 2141 3328 1894 3587 
Q 1647 3847 1303 3847 
Q 991 3847 742 3664 
Q 494 3481 375 3128 
L 259 3128 
Q 338 3706 661 4015 
Q 984 4325 1469 4325 
Q 1984 4325 2329 3994 
Q 2675 3663 2675 3213 
Q 2675 2891 2525 2569 
Q 2294 2063 1775 1497 
Q 997 647 803 472 
L 1909 472 
Q 2247 472 2383 497 
Q 2519 522 2628 598 
Q 2738 675 2819 816 
L 2934 816 
z
" id="TimesNewRomanPSMT-32" transform="scale(0.015625)"/>
     </defs>
     <use xlink:href="#TimesNewRomanPSMT-44"/>
     <use x="72.216797" xlink:href="#TimesNewRomanPSMT-44"/>
     <use x="144.433594" xlink:href="#TimesNewRomanPSMT-54"/>
     <use x="205.517578" xlink:href="#TimesNewRomanPSMT-4d"/>
     <use x="294.433594" xlink:href="#TimesNewRomanPSMT-20"/>
     <use x="317.683594" xlink:href="#TimesNewRomanPSMT-54"/>
     <use x="371.767578" xlink:href="#TimesNewRomanPSMT-6f"/>
     <use x="421.767578" xlink:href="#TimesNewRomanPSMT-74"/>
     <use x="449.550781" xlink:href="#TimesNewRomanPSMT-61"/>
     <use x="493.935547" xlink:href="#TimesNewRomanPSMT-6c"/>
     <use x="521.71875" xlink:href="#TimesNewRomanPSMT-20"/>
     <use x="546.71875" xlink:href="#TimesNewRomanPSMT-70"/>
     <use x="596.71875" xlink:href="#TimesNewRomanPSMT-72"/>
     <use x="630.019531" xlink:href="#TimesNewRomanPSMT-69"/>
     <use x="657.802734" xlink:href="#TimesNewRomanPSMT-7a"/>
     <use x="702.1875" xlink:href="#TimesNewRomanPSMT-65"/>
     <use x="746.572266" xlink:href="#TimesNewRomanPSMT-3a"/>
     <use x="774.355469" xlink:href="#TimesNewRomanPSMT-20"/>
     <use x="799.355469" xlink:href="#TimesNewRomanPSMT-31"/>
     <use x="849.355469" xlink:href="#TimesNewRomanPSMT-32"/>
     <use x="899.355469" xlink:href="#TimesNewRomanPSMT-2e"/>
     <use x="924.355469" xlink:href="#TimesNewRomanPSMT-30"/>
     <use x="974.355469" xlink:href="#TimesNewRomanPSMT-30"/>
    </g>
   </g>
   <g id="legend_1">
    <g id="patch_7">
     <path d="M 42.9 87.91 
L 493.7425 87.91 
Q 496.9425 87.91 496.9425 84.71 
L 496.9425 41.065 
Q 496.9425 37.865 493.7425 37.865 
L 42.9 37.865 
Q 39.7 37.865 39.7 41.065 
L 39.7 84.71 
Q 39.7 87.91 42.9 87.91 
z
" style="fill:#ffffff;opacity:0.8;stroke:#cccccc;stroke-linejoin:miter;"/>
    </g>
    <g id="patch_8">
     <path d="M 46.1 55.465 
L 78.1 55.465 
L 78.1 44.265 
L 46.1 44.265 
z
" style="fill:#ccf900;"/>
    </g>
    <g id="text_10">
     <!-- Vehicle 0. Prizes: 5.00, Avail. fuel: 0.79, Re-planned dist: 0.72 -->
     <g transform="translate(90.9 55.465)scale(0.16 -0.16)">
      <defs>
       <path d="M 4544 4238 
L 4544 4122 
Q 4319 4081 4203 3978 
Q 4038 3825 3909 3509 
L 2431 -97 
L 2316 -97 
L 728 3556 
Q 606 3838 556 3900 
Q 478 3997 364 4051 
Q 250 4106 56 4122 
L 56 4238 
L 1788 4238 
L 1788 4122 
Q 1494 4094 1406 4022 
Q 1319 3950 1319 3838 
Q 1319 3681 1463 3350 
L 2541 866 
L 3541 3319 
Q 3688 3681 3688 3822 
Q 3688 3913 3597 3995 
Q 3506 4078 3291 4113 
Q 3275 4116 3238 4122 
L 3238 4238 
L 4544 4238 
z
" id="TimesNewRomanPSMT-56" transform="scale(0.015625)"/>
       <path d="M 1041 4444 
L 1041 2350 
Q 1388 2731 1591 2839 
Q 1794 2947 1997 2947 
Q 2241 2947 2416 2812 
Q 2591 2678 2675 2391 
Q 2734 2191 2734 1659 
L 2734 647 
Q 2734 375 2778 275 
Q 2809 200 2884 156 
Q 2959 113 3159 113 
L 3159 0 
L 1753 0 
L 1753 113 
L 1819 113 
Q 2019 113 2097 173 
Q 2175 234 2206 353 
Q 2216 403 2216 647 
L 2216 1659 
Q 2216 2128 2167 2275 
Q 2119 2422 2012 2495 
Q 1906 2569 1756 2569 
Q 1603 2569 1437 2487 
Q 1272 2406 1041 2159 
L 1041 647 
Q 1041 353 1073 281 
Q 1106 209 1195 161 
Q 1284 113 1503 113 
L 1503 0 
L 84 0 
L 84 113 
Q 275 113 384 172 
Q 447 203 484 290 
Q 522 378 522 647 
L 522 3238 
Q 522 3728 498 3840 
Q 475 3953 426 3993 
Q 378 4034 297 4034 
Q 231 4034 84 3984 
L 41 4094 
L 897 4444 
L 1041 4444 
z
" id="TimesNewRomanPSMT-68" transform="scale(0.015625)"/>
       <path d="M 2631 1088 
Q 2516 522 2178 217 
Q 1841 -88 1431 -88 
Q 944 -88 581 321 
Q 219 731 219 1428 
Q 219 2103 620 2525 
Q 1022 2947 1584 2947 
Q 2006 2947 2278 2723 
Q 2550 2500 2550 2259 
Q 2550 2141 2473 2067 
Q 2397 1994 2259 1994 
Q 2075 1994 1981 2113 
Q 1928 2178 1911 2362 
Q 1894 2547 1784 2644 
Q 1675 2738 1481 2738 
Q 1169 2738 978 2506 
Q 725 2200 725 1697 
Q 725 1184 976 792 
Q 1228 400 1656 400 
Q 1963 400 2206 609 
Q 2378 753 2541 1131 
L 2631 1088 
z
" id="TimesNewRomanPSMT-63" transform="scale(0.015625)"/>
       <path d="M 1313 1984 
L 1313 750 
Q 1313 350 1400 253 
Q 1519 116 1759 116 
L 1922 116 
L 1922 0 
L 106 0 
L 106 116 
L 266 116 
Q 534 116 650 291 
Q 713 388 713 750 
L 713 3488 
Q 713 3888 628 3984 
Q 506 4122 266 4122 
L 106 4122 
L 106 4238 
L 1659 4238 
Q 2228 4238 2556 4120 
Q 2884 4003 3109 3725 
Q 3334 3447 3334 3066 
Q 3334 2547 2992 2222 
Q 2650 1897 2025 1897 
Q 1872 1897 1694 1919 
Q 1516 1941 1313 1984 
z
M 1313 2163 
Q 1478 2131 1606 2115 
Q 1734 2100 1825 2100 
Q 2150 2100 2386 2351 
Q 2622 2603 2622 3003 
Q 2622 3278 2509 3514 
Q 2397 3750 2190 3867 
Q 1984 3984 1722 3984 
Q 1563 3984 1313 3925 
L 1313 2163 
z
" id="TimesNewRomanPSMT-50" transform="scale(0.015625)"/>
       <path d="M 2050 2947 
L 2050 1972 
L 1947 1972 
Q 1828 2431 1642 2597 
Q 1456 2763 1169 2763 
Q 950 2763 815 2647 
Q 681 2531 681 2391 
Q 681 2216 781 2091 
Q 878 1963 1175 1819 
L 1631 1597 
Q 2266 1288 2266 781 
Q 2266 391 1970 151 
Q 1675 -88 1309 -88 
Q 1047 -88 709 6 
Q 606 38 541 38 
Q 469 38 428 -44 
L 325 -44 
L 325 978 
L 428 978 
Q 516 541 762 319 
Q 1009 97 1316 97 
Q 1531 97 1667 223 
Q 1803 350 1803 528 
Q 1803 744 1651 891 
Q 1500 1038 1047 1263 
Q 594 1488 453 1669 
Q 313 1847 313 2119 
Q 313 2472 555 2709 
Q 797 2947 1181 2947 
Q 1350 2947 1591 2875 
Q 1750 2828 1803 2828 
Q 1853 2828 1881 2850 
Q 1909 2872 1947 2947 
L 2050 2947 
z
" id="TimesNewRomanPSMT-73" transform="scale(0.015625)"/>
       <path d="M 344 -1066 
L 344 -928 
Q 666 -822 842 -598 
Q 1019 -375 1019 -125 
Q 1019 -66 991 -25 
Q 969 3 947 3 
Q 913 3 797 -59 
Q 741 -88 678 -88 
Q 525 -88 434 3 
Q 344 94 344 253 
Q 344 406 461 515 
Q 578 625 747 625 
Q 953 625 1114 445 
Q 1275 266 1275 -31 
Q 1275 -353 1051 -629 
Q 828 -906 344 -1066 
z
" id="TimesNewRomanPSMT-2c" transform="scale(0.015625)"/>
       <path d="M 2928 1419 
L 1288 1419 
L 1000 750 
Q 894 503 894 381 
Q 894 284 986 211 
Q 1078 138 1384 116 
L 1384 0 
L 50 0 
L 50 116 
Q 316 163 394 238 
Q 553 388 747 847 
L 2238 4334 
L 2347 4334 
L 3822 809 
Q 4000 384 4145 257 
Q 4291 131 4550 116 
L 4550 0 
L 2878 0 
L 2878 116 
Q 3131 128 3220 200 
Q 3309 272 3309 375 
Q 3309 513 3184 809 
L 2928 1419 
z
M 2841 1650 
L 2122 3363 
L 1384 1650 
L 2841 1650 
z
" id="TimesNewRomanPSMT-41" transform="scale(0.015625)"/>
       <path d="M 53 2863 
L 1400 2863 
L 1400 2747 
L 1313 2747 
Q 1191 2747 1127 2687 
Q 1063 2628 1063 2528 
Q 1063 2419 1128 2269 
L 1794 688 
L 2463 2328 
Q 2534 2503 2534 2594 
Q 2534 2638 2509 2666 
Q 2475 2713 2422 2730 
Q 2369 2747 2206 2747 
L 2206 2863 
L 3141 2863 
L 3141 2747 
Q 2978 2734 2916 2681 
Q 2806 2588 2719 2369 
L 1703 -88 
L 1575 -88 
L 553 2328 
Q 484 2497 421 2570 
Q 359 2644 263 2694 
Q 209 2722 53 2747 
L 53 2863 
z
" id="TimesNewRomanPSMT-76" transform="scale(0.015625)"/>
       <path d="M 1319 2638 
L 1319 756 
Q 1319 356 1406 250 
Q 1522 113 1716 113 
L 1975 113 
L 1975 0 
L 266 0 
L 266 113 
L 394 113 
Q 519 113 622 175 
Q 725 238 764 344 
Q 803 450 803 756 
L 803 2638 
L 247 2638 
L 247 2863 
L 803 2863 
L 803 3050 
Q 803 3478 940 3775 
Q 1078 4072 1361 4255 
Q 1644 4438 1997 4438 
Q 2325 4438 2600 4225 
Q 2781 4084 2781 3909 
Q 2781 3816 2700 3733 
Q 2619 3650 2525 3650 
Q 2453 3650 2373 3701 
Q 2294 3753 2178 3923 
Q 2063 4094 1966 4153 
Q 1869 4213 1750 4213 
Q 1606 4213 1506 4136 
Q 1406 4059 1362 3898 
Q 1319 3738 1319 3069 
L 1319 2863 
L 2056 2863 
L 2056 2638 
L 1319 2638 
z
" id="TimesNewRomanPSMT-66" transform="scale(0.015625)"/>
       <path d="M 2709 2863 
L 2709 1128 
Q 2709 631 2732 520 
Q 2756 409 2807 365 
Q 2859 322 2928 322 
Q 3025 322 3147 375 
L 3191 266 
L 2334 -88 
L 2194 -88 
L 2194 519 
Q 1825 119 1631 15 
Q 1438 -88 1222 -88 
Q 981 -88 804 51 
Q 628 191 559 409 
Q 491 628 491 1028 
L 491 2306 
Q 491 2509 447 2587 
Q 403 2666 317 2708 
Q 231 2750 6 2747 
L 6 2863 
L 1009 2863 
L 1009 947 
Q 1009 547 1148 422 
Q 1288 297 1484 297 
Q 1619 297 1789 381 
Q 1959 466 2194 703 
L 2194 2325 
Q 2194 2569 2105 2655 
Q 2016 2741 1734 2747 
L 1734 2863 
L 2709 2863 
z
" id="TimesNewRomanPSMT-75" transform="scale(0.015625)"/>
       <path d="M 4325 0 
L 3194 0 
L 1759 1981 
Q 1600 1975 1500 1975 
Q 1459 1975 1412 1976 
Q 1366 1978 1316 1981 
L 1316 750 
Q 1316 350 1403 253 
Q 1522 116 1759 116 
L 1925 116 
L 1925 0 
L 109 0 
L 109 116 
L 269 116 
Q 538 116 653 291 
Q 719 388 719 750 
L 719 3488 
Q 719 3888 631 3984 
Q 509 4122 269 4122 
L 109 4122 
L 109 4238 
L 1653 4238 
Q 2328 4238 2648 4139 
Q 2969 4041 3192 3777 
Q 3416 3513 3416 3147 
Q 3416 2756 3161 2468 
Q 2906 2181 2372 2063 
L 3247 847 
Q 3547 428 3762 290 
Q 3978 153 4325 116 
L 4325 0 
z
M 1316 2178 
Q 1375 2178 1419 2176 
Q 1463 2175 1491 2175 
Q 2097 2175 2405 2437 
Q 2713 2700 2713 3106 
Q 2713 3503 2464 3751 
Q 2216 4000 1806 4000 
Q 1625 4000 1316 3941 
L 1316 2178 
z
" id="TimesNewRomanPSMT-52" transform="scale(0.015625)"/>
       <path d="M 259 1672 
L 1875 1672 
L 1875 1200 
L 259 1200 
L 259 1672 
z
" id="TimesNewRomanPSMT-2d" transform="scale(0.015625)"/>
       <path d="M 1034 2341 
Q 1538 2947 1994 2947 
Q 2228 2947 2397 2830 
Q 2566 2713 2666 2444 
Q 2734 2256 2734 1869 
L 2734 647 
Q 2734 375 2778 278 
Q 2813 200 2889 156 
Q 2966 113 3172 113 
L 3172 0 
L 1756 0 
L 1756 113 
L 1816 113 
Q 2016 113 2095 173 
Q 2175 234 2206 353 
Q 2219 400 2219 647 
L 2219 1819 
Q 2219 2209 2117 2386 
Q 2016 2563 1775 2563 
Q 1403 2563 1034 2156 
L 1034 647 
Q 1034 356 1069 288 
Q 1113 197 1189 155 
Q 1266 113 1500 113 
L 1500 0 
L 84 0 
L 84 113 
L 147 113 
Q 366 113 442 223 
Q 519 334 519 647 
L 519 1709 
Q 519 2225 495 2337 
Q 472 2450 423 2490 
Q 375 2531 294 2531 
Q 206 2531 84 2484 
L 38 2597 
L 900 2947 
L 1034 2947 
L 1034 2341 
z
" id="TimesNewRomanPSMT-6e" transform="scale(0.015625)"/>
       <path d="M 2222 322 
Q 2013 103 1813 7 
Q 1613 -88 1381 -88 
Q 913 -88 563 304 
Q 213 697 213 1313 
Q 213 1928 600 2439 
Q 988 2950 1597 2950 
Q 1975 2950 2222 2709 
L 2222 3238 
Q 2222 3728 2198 3840 
Q 2175 3953 2125 3993 
Q 2075 4034 2000 4034 
Q 1919 4034 1784 3984 
L 1744 4094 
L 2597 4444 
L 2738 4444 
L 2738 1134 
Q 2738 631 2761 520 
Q 2784 409 2836 365 
Q 2888 322 2956 322 
Q 3041 322 3181 375 
L 3216 266 
L 2366 -88 
L 2222 -88 
L 2222 322 
z
M 2222 541 
L 2222 2016 
Q 2203 2228 2109 2403 
Q 2016 2578 1861 2667 
Q 1706 2756 1559 2756 
Q 1284 2756 1069 2509 
Q 784 2184 784 1559 
Q 784 928 1059 592 
Q 1334 256 1672 256 
Q 1956 256 2222 541 
z
" id="TimesNewRomanPSMT-64" transform="scale(0.015625)"/>
      </defs>
      <use xlink:href="#TimesNewRomanPSMT-56"/>
      <use x="61.091797" xlink:href="#TimesNewRomanPSMT-65"/>
      <use x="105.476562" xlink:href="#TimesNewRomanPSMT-68"/>
      <use x="155.476562" xlink:href="#TimesNewRomanPSMT-69"/>
      <use x="183.259766" xlink:href="#TimesNewRomanPSMT-63"/>
      <use x="227.644531" xlink:href="#TimesNewRomanPSMT-6c"/>
      <use x="255.427734" xlink:href="#TimesNewRomanPSMT-65"/>
      <use x="299.8125" xlink:href="#TimesNewRomanPSMT-20"/>
      <use x="324.8125" xlink:href="#TimesNewRomanPSMT-30"/>
      <use x="374.8125" xlink:href="#TimesNewRomanPSMT-2e"/>
      <use x="399.8125" xlink:href="#TimesNewRomanPSMT-20"/>
      <use x="424.8125" xlink:href="#TimesNewRomanPSMT-50"/>
      <use x="480.427734" xlink:href="#TimesNewRomanPSMT-72"/>
      <use x="513.728516" xlink:href="#TimesNewRomanPSMT-69"/>
      <use x="541.511719" xlink:href="#TimesNewRomanPSMT-7a"/>
      <use x="585.896484" xlink:href="#TimesNewRomanPSMT-65"/>
      <use x="630.28125" xlink:href="#TimesNewRomanPSMT-73"/>
      <use x="669.197266" xlink:href="#TimesNewRomanPSMT-3a"/>
      <use x="696.980469" xlink:href="#TimesNewRomanPSMT-20"/>
      <use x="721.980469" xlink:href="#TimesNewRomanPSMT-35"/>
      <use x="771.980469" xlink:href="#TimesNewRomanPSMT-2e"/>
      <use x="796.980469" xlink:href="#TimesNewRomanPSMT-30"/>
      <use x="846.980469" xlink:href="#TimesNewRomanPSMT-30"/>
      <use x="896.980469" xlink:href="#TimesNewRomanPSMT-2c"/>
      <use x="921.980469" xlink:href="#TimesNewRomanPSMT-20"/>
      <use x="941.480469" xlink:href="#TimesNewRomanPSMT-41"/>
      <use x="1006.322266" xlink:href="#TimesNewRomanPSMT-76"/>
      <use x="1056.322266" xlink:href="#TimesNewRomanPSMT-61"/>
      <use x="1100.707031" xlink:href="#TimesNewRomanPSMT-69"/>
      <use x="1128.490234" xlink:href="#TimesNewRomanPSMT-6c"/>
      <use x="1156.273438" xlink:href="#TimesNewRomanPSMT-2e"/>
      <use x="1181.273438" xlink:href="#TimesNewRomanPSMT-20"/>
      <use x="1206.273438" xlink:href="#TimesNewRomanPSMT-66"/>
      <use x="1239.574219" xlink:href="#TimesNewRomanPSMT-75"/>
      <use x="1289.574219" xlink:href="#TimesNewRomanPSMT-65"/>
      <use x="1333.958984" xlink:href="#TimesNewRomanPSMT-6c"/>
      <use x="1361.742188" xlink:href="#TimesNewRomanPSMT-3a"/>
      <use x="1389.525391" xlink:href="#TimesNewRomanPSMT-20"/>
      <use x="1414.525391" xlink:href="#TimesNewRomanPSMT-30"/>
      <use x="1464.525391" xlink:href="#TimesNewRomanPSMT-2e"/>
      <use x="1489.525391" xlink:href="#TimesNewRomanPSMT-37"/>
      <use x="1539.525391" xlink:href="#TimesNewRomanPSMT-39"/>
      <use x="1589.525391" xlink:href="#TimesNewRomanPSMT-2c"/>
      <use x="1614.525391" xlink:href="#TimesNewRomanPSMT-20"/>
      <use x="1639.525391" xlink:href="#TimesNewRomanPSMT-52"/>
      <use x="1706.224609" xlink:href="#TimesNewRomanPSMT-65"/>
      <use x="1750.609375" xlink:href="#TimesNewRomanPSMT-2d"/>
      <use x="1783.910156" xlink:href="#TimesNewRomanPSMT-70"/>
      <use x="1833.910156" xlink:href="#TimesNewRomanPSMT-6c"/>
      <use x="1861.693359" xlink:href="#TimesNewRomanPSMT-61"/>
      <use x="1906.078125" xlink:href="#TimesNewRomanPSMT-6e"/>
      <use x="1956.078125" xlink:href="#TimesNewRomanPSMT-6e"/>
      <use x="2006.078125" xlink:href="#TimesNewRomanPSMT-65"/>
      <use x="2050.462891" xlink:href="#TimesNewRomanPSMT-64"/>
      <use x="2100.462891" xlink:href="#TimesNewRomanPSMT-20"/>
      <use x="2125.462891" xlink:href="#TimesNewRomanPSMT-64"/>
      <use x="2175.462891" xlink:href="#TimesNewRomanPSMT-69"/>
      <use x="2203.246094" xlink:href="#TimesNewRomanPSMT-73"/>
      <use x="2242.162109" xlink:href="#TimesNewRomanPSMT-74"/>
      <use x="2269.945312" xlink:href="#TimesNewRomanPSMT-3a"/>
      <use x="2297.728516" xlink:href="#TimesNewRomanPSMT-20"/>
      <use x="2322.728516" xlink:href="#TimesNewRomanPSMT-30"/>
      <use x="2372.728516" xlink:href="#TimesNewRomanPSMT-2e"/>
      <use x="2397.728516" xlink:href="#TimesNewRomanPSMT-37"/>
      <use x="2447.728516" xlink:href="#TimesNewRomanPSMT-32"/>
     </g>
    </g>
    <g id="patch_9">
     <path d="M 46.1 78.0875 
L 78.1 78.0875 
L 78.1 66.8875 
L 46.1 66.8875 
z
" style="fill:#00a4bb;"/>
    </g>
    <g id="text_11">
     <!-- Vehicle 1. Prizes: 7.00, Avail. fuel: 1.84, Re-planned dist: 1.70 -->
     <g transform="translate(90.9 78.0875)scale(0.16 -0.16)">
      <use xlink:href="#TimesNewRomanPSMT-56"/>
      <use x="61.091797" xlink:href="#TimesNewRomanPSMT-65"/>
      <use x="105.476562" xlink:href="#TimesNewRomanPSMT-68"/>
      <use x="155.476562" xlink:href="#TimesNewRomanPSMT-69"/>
      <use x="183.259766" xlink:href="#TimesNewRomanPSMT-63"/>
      <use x="227.644531" xlink:href="#TimesNewRomanPSMT-6c"/>
      <use x="255.427734" xlink:href="#TimesNewRomanPSMT-65"/>
      <use x="299.8125" xlink:href="#TimesNewRomanPSMT-20"/>
      <use x="324.8125" xlink:href="#TimesNewRomanPSMT-31"/>
      <use x="374.8125" xlink:href="#TimesNewRomanPSMT-2e"/>
      <use x="399.8125" xlink:href="#TimesNewRomanPSMT-20"/>
      <use x="424.8125" xlink:href="#TimesNewRomanPSMT-50"/>
      <use x="480.427734" xlink:href="#TimesNewRomanPSMT-72"/>
      <use x="513.728516" xlink:href="#TimesNewRomanPSMT-69"/>
      <use x="541.511719" xlink:href="#TimesNewRomanPSMT-7a"/>
      <use x="585.896484" xlink:href="#TimesNewRomanPSMT-65"/>
      <use x="630.28125" xlink:href="#TimesNewRomanPSMT-73"/>
      <use x="669.197266" xlink:href="#TimesNewRomanPSMT-3a"/>
      <use x="696.980469" xlink:href="#TimesNewRomanPSMT-20"/>
      <use x="721.980469" xlink:href="#TimesNewRomanPSMT-37"/>
      <use x="771.980469" xlink:href="#TimesNewRomanPSMT-2e"/>
      <use x="796.980469" xlink:href="#TimesNewRomanPSMT-30"/>
      <use x="846.980469" xlink:href="#TimesNewRomanPSMT-30"/>
      <use x="896.980469" xlink:href="#TimesNewRomanPSMT-2c"/>
      <use x="921.980469" xlink:href="#TimesNewRomanPSMT-20"/>
      <use x="941.480469" xlink:href="#TimesNewRomanPSMT-41"/>
      <use x="1006.322266" xlink:href="#TimesNewRomanPSMT-76"/>
      <use x="1056.322266" xlink:href="#TimesNewRomanPSMT-61"/>
      <use x="1100.707031" xlink:href="#TimesNewRomanPSMT-69"/>
      <use x="1128.490234" xlink:href="#TimesNewRomanPSMT-6c"/>
      <use x="1156.273438" xlink:href="#TimesNewRomanPSMT-2e"/>
      <use x="1181.273438" xlink:href="#TimesNewRomanPSMT-20"/>
      <use x="1206.273438" xlink:href="#TimesNewRomanPSMT-66"/>
      <use x="1239.574219" xlink:href="#TimesNewRomanPSMT-75"/>
      <use x="1289.574219" xlink:href="#TimesNewRomanPSMT-65"/>
      <use x="1333.958984" xlink:href="#TimesNewRomanPSMT-6c"/>
      <use x="1361.742188" xlink:href="#TimesNewRomanPSMT-3a"/>
      <use x="1389.525391" xlink:href="#TimesNewRomanPSMT-20"/>
      <use x="1414.525391" xlink:href="#TimesNewRomanPSMT-31"/>
      <use x="1464.525391" xlink:href="#TimesNewRomanPSMT-2e"/>
      <use x="1489.525391" xlink:href="#TimesNewRomanPSMT-38"/>
      <use x="1539.525391" xlink:href="#TimesNewRomanPSMT-34"/>
      <use x="1589.525391" xlink:href="#TimesNewRomanPSMT-2c"/>
      <use x="1614.525391" xlink:href="#TimesNewRomanPSMT-20"/>
      <use x="1639.525391" xlink:href="#TimesNewRomanPSMT-52"/>
      <use x="1706.224609" xlink:href="#TimesNewRomanPSMT-65"/>
      <use x="1750.609375" xlink:href="#TimesNewRomanPSMT-2d"/>
      <use x="1783.910156" xlink:href="#TimesNewRomanPSMT-70"/>
      <use x="1833.910156" xlink:href="#TimesNewRomanPSMT-6c"/>
      <use x="1861.693359" xlink:href="#TimesNewRomanPSMT-61"/>
      <use x="1906.078125" xlink:href="#TimesNewRomanPSMT-6e"/>
      <use x="1956.078125" xlink:href="#TimesNewRomanPSMT-6e"/>
      <use x="2006.078125" xlink:href="#TimesNewRomanPSMT-65"/>
      <use x="2050.462891" xlink:href="#TimesNewRomanPSMT-64"/>
      <use x="2100.462891" xlink:href="#TimesNewRomanPSMT-20"/>
      <use x="2125.462891" xlink:href="#TimesNewRomanPSMT-64"/>
      <use x="2175.462891" xlink:href="#TimesNewRomanPSMT-69"/>
      <use x="2203.246094" xlink:href="#TimesNewRomanPSMT-73"/>
      <use x="2242.162109" xlink:href="#TimesNewRomanPSMT-74"/>
      <use x="2269.945312" xlink:href="#TimesNewRomanPSMT-3a"/>
      <use x="2297.728516" xlink:href="#TimesNewRomanPSMT-20"/>
      <use x="2322.728516" xlink:href="#TimesNewRomanPSMT-31"/>
      <use x="2372.728516" xlink:href="#TimesNewRomanPSMT-2e"/>
      <use x="2397.728516" xlink:href="#TimesNewRomanPSMT-37"/>
      <use x="2447.728516" xlink:href="#TimesNewRomanPSMT-30"/>
     </g>
    </g>
   </g>
  </g>
  <g id="axes_2">
   <g id="patch_10">
    <path d="M 701.3 464.745 
L 1259.3 464.745 
L 1259.3 29.865 
L 701.3 29.865 
z
" style="fill:#ffffff;"/>
   </g>
   <g id="Quiver_3">
    <path clip-path="url(#p46b01fd7db)" d="M 857.090261 441.252909 
L 860.20225 439.0235 
L 856.063982 436.840034 
L 876.730221 429.757012 
L 863.375666 447.046272 
L 862.639478 442.425579 
L 859.527489 444.654988 
L 857.090261 441.252909 
" style="fill:#ccf900;"/>
    <path clip-path="url(#p46b01fd7db)" d="M 877.235744 427.726495 
L 978.431547 452.920487 
L 977.412076 448.353928 
L 996.200683 459.500716 
L 974.378936 460.537035 
L 977.4205 456.981523 
L 876.224697 431.78753 
L 877.235744 427.726495 
" style="fill:#ccf900;"/>
    <path clip-path="url(#p46b01fd7db)" d="M 995.542352 457.514474 
L 1007.70004 453.484859 
L 1004.397135 450.170708 
L 1026.234546 449.546118 
L 1008.347124 462.088158 
L 1009.016703 457.457343 
L 996.859015 461.486958 
L 995.542352 457.514474 
" style="fill:#ccf900;"/>
    <path clip-path="url(#p46b01fd7db)" d="M 1025.110927 447.780887 
L 1106.907455 395.715099 
L 1102.894987 393.308257 
L 1123.918145 387.367762 
L 1109.636699 403.899638 
L 1109.154692 399.245559 
L 1027.358165 451.311348 
L 1025.110927 447.780887 
" style="fill:#ccf900;"/>
    <path clip-path="url(#p46b01fd7db)" d="M 1123.871089 389.459733 
L 1116.059517 389.284023 
L 1118.057376 393.51502 
L 1097.278835 386.768549 
L 1118.339711 380.963195 
L 1116.153629 385.100081 
L 1123.9652 385.275791 
L 1123.871089 389.459733 
" style="fill:#ccf900;"/>
    <path clip-path="url(#p46b01fd7db)" d="M 1096.533889 388.723955 
L 1055.466398 373.078567 
L 1055.931911 377.734324 
L 1038.612694 364.418644 
L 1060.401589 366.001891 
L 1056.956291 369.167756 
L 1098.023782 384.813143 
L 1096.533889 388.723955 
" style="fill:#ccf900;"/>
   </g>
   <g id="Quiver_4">
    <path clip-path="url(#p46b01fd7db)" d="M 1136.491921 359.234576 
L 1138.278114 360.324562 
L 1140.115167 359.322667 
L 1140.166026 357.230785 
L 1138.379833 356.140798 
L 1136.54278 357.142694 
L 1136.491921 359.234576 
L 1138.278114 360.324562 
" style="fill:#00a4bb;"/>
    <path clip-path="url(#p46b01fd7db)" d="M 1136.263437 356.977585 
L 1160.503354 344.976485 
L 1156.771239 342.154411 
L 1178.309057 338.495858 
L 1162.341826 353.405926 
L 1162.360216 348.72699 
L 1138.120299 360.72809 
L 1136.263437 356.977585 
" style="fill:#00a4bb;"/>
    <path clip-path="url(#p46b01fd7db)" d="M 1176.660344 337.207331 
L 1241.373522 254.404616 
L 1236.787569 253.476277 
L 1254.618973 240.854722 
L 1246.67985 261.207435 
L 1244.670949 256.981669 
L 1179.957771 339.784384 
L 1176.660344 337.207331 
" style="fill:#00a4bb;"/>
    <path clip-path="url(#p46b01fd7db)" d="M 1252.703249 241.69648 
L 1188.713374 96.064407 
L 1185.723684 99.663647 
L 1183.053277 77.981129 
L 1197.21803 94.613099 
L 1192.544823 94.380891 
L 1256.534698 240.012964 
L 1252.703249 241.69648 
" style="fill:#00a4bb;"/>
    <path clip-path="url(#p46b01fd7db)" d="M 1184.105176 79.790014 
L 1104.204267 126.253831 
L 1108.11695 128.819701 
L 1086.872404 133.912038 
L 1101.805555 117.966392 
L 1102.100469 122.636061 
L 1182.001378 76.172245 
L 1184.105176 79.790014 
" style="fill:#00a4bb;"/>
    <path clip-path="url(#p46b01fd7db)" d="M 1087.687779 135.839139 
L 1047.164307 152.985016 
L 1050.722159 156.023843 
L 1029.00502 158.396293 
L 1045.829906 144.461236 
L 1045.533556 149.130814 
L 1086.057029 131.984937 
L 1087.687779 135.839139 
" style="fill:#00a4bb;"/>
    <path clip-path="url(#p46b01fd7db)" d="M 1030.4843 159.876256 
L 921.118744 269.191359 
L 925.557266 270.672004 
L 906.319804 281.024913 
L 916.681588 261.792231 
L 918.160185 266.231435 
L 1027.525741 156.916331 
L 1030.4843 159.876256 
" style="fill:#00a4bb;"/>
    <path clip-path="url(#p46b01fd7db)" d="M 907.435657 279.254763 
L 1023.797201 352.60582 
L 1024.258757 347.949669 
L 1038.612694 364.418644 
L 1017.563641 358.570566 
L 1021.565496 356.146119 
L 905.203952 282.795062 
L 907.435657 279.254763 
" style="fill:#00a4bb;"/>
   </g>
   <g id="matplotlib.axis_3">
    <g id="xtick_4">
     <g id="line2d_10">
      <g>
       <use style="stroke:#000000;stroke-width:0.8;" x="701.3" xlink:href="#m1178520610" y="464.745"/>
      </g>
     </g>
     <g id="text_12">
      <!-- 0.0 -->
      <g transform="translate(692.55 481.46625)scale(0.14 -0.14)">
       <use xlink:href="#TimesNewRomanPSMT-30"/>
       <use x="50" xlink:href="#TimesNewRomanPSMT-2e"/>
       <use x="75" xlink:href="#TimesNewRomanPSMT-30"/>
      </g>
     </g>
    </g>
    <g id="xtick_5">
     <g id="line2d_11">
      <g>
       <use style="stroke:#000000;stroke-width:0.8;" x="980.3" xlink:href="#m1178520610" y="464.745"/>
      </g>
     </g>
     <g id="text_13">
      <!-- 0.5 -->
      <g transform="translate(971.55 481.46625)scale(0.14 -0.14)">
       <use xlink:href="#TimesNewRomanPSMT-30"/>
       <use x="50" xlink:href="#TimesNewRomanPSMT-2e"/>
       <use x="75" xlink:href="#TimesNewRomanPSMT-35"/>
      </g>
     </g>
    </g>
    <g id="xtick_6">
     <g id="line2d_12">
      <g>
       <use style="stroke:#000000;stroke-width:0.8;" x="1259.3" xlink:href="#m1178520610" y="464.745"/>
      </g>
     </g>
     <g id="text_14">
      <!-- 1.0 -->
      <g transform="translate(1250.55 481.46625)scale(0.14 -0.14)">
       <use xlink:href="#TimesNewRomanPSMT-31"/>
       <use x="50" xlink:href="#TimesNewRomanPSMT-2e"/>
       <use x="75" xlink:href="#TimesNewRomanPSMT-30"/>
      </g>
     </g>
    </g>
   </g>
   <g id="matplotlib.axis_4">
    <g id="ytick_4">
     <g id="line2d_13">
      <g>
       <use style="stroke:#000000;stroke-width:0.8;" x="701.3" xlink:href="#md8dd824cf2" y="464.745"/>
      </g>
     </g>
     <g id="text_15">
      <!-- 0.0 -->
      <g transform="translate(676.8 469.605625)scale(0.14 -0.14)">
       <use xlink:href="#TimesNewRomanPSMT-30"/>
       <use x="50" xlink:href="#TimesNewRomanPSMT-2e"/>
       <use x="75" xlink:href="#TimesNewRomanPSMT-30"/>
      </g>
     </g>
    </g>
    <g id="ytick_5">
     <g id="line2d_14">
      <g>
       <use style="stroke:#000000;stroke-width:0.8;" x="701.3" xlink:href="#md8dd824cf2" y="247.305"/>
      </g>
     </g>
     <g id="text_16">
      <!-- 0.5 -->
      <g transform="translate(676.8 252.165625)scale(0.14 -0.14)">
       <use xlink:href="#TimesNewRomanPSMT-30"/>
       <use x="50" xlink:href="#TimesNewRomanPSMT-2e"/>
       <use x="75" xlink:href="#TimesNewRomanPSMT-35"/>
      </g>
     </g>
    </g>
    <g id="ytick_6">
     <g id="line2d_15">
      <g>
       <use style="stroke:#000000;stroke-width:0.8;" x="701.3" xlink:href="#md8dd824cf2" y="29.865"/>
      </g>
     </g>
     <g id="text_17">
      <!-- 1.0 -->
      <g transform="translate(676.8 34.725625)scale(0.14 -0.14)">
       <use xlink:href="#TimesNewRomanPSMT-31"/>
       <use x="50" xlink:href="#TimesNewRomanPSMT-2e"/>
       <use x="75" xlink:href="#TimesNewRomanPSMT-30"/>
      </g>
     </g>
    </g>
   </g>
   <g id="line2d_16">
    <g clip-path="url(#p46b01fd7db)">
     <use style="stroke:#000000;stroke-linejoin:miter;" x="1038.612694" xlink:href="#mdcf10d1496" y="364.418644"/>
    </g>
   </g>
   <g id="line2d_17">
    <g clip-path="url(#p46b01fd7db)">
     <use style="fill:#0000ff;stroke:#0000ff;stroke-linejoin:miter;" x="851.716131" xlink:href="#mdabba5b449" y="38.395376"/>
     <use style="fill:#0000ff;stroke:#0000ff;stroke-linejoin:miter;" x="1097.278835" xlink:href="#mdabba5b449" y="386.768549"/>
     <use style="fill:#0000ff;stroke:#0000ff;stroke-linejoin:miter;" x="797.333268" xlink:href="#mdabba5b449" y="356.91914"/>
     <use style="fill:#0000ff;stroke:#0000ff;stroke-linejoin:miter;" x="1086.872404" xlink:href="#mdabba5b449" y="133.912038"/>
     <use style="fill:#0000ff;stroke:#0000ff;stroke-linejoin:miter;" x="876.730221" xlink:href="#mdabba5b449" y="429.757012"/>
     <use style="fill:#0000ff;stroke:#0000ff;stroke-linejoin:miter;" x="793.890122" xlink:href="#mdabba5b449" y="111.683261"/>
     <use style="fill:#0000ff;stroke:#0000ff;stroke-linejoin:miter;" x="1029.00502" xlink:href="#mdabba5b449" y="158.396293"/>
     <use style="fill:#0000ff;stroke:#0000ff;stroke-linejoin:miter;" x="1123.918145" xlink:href="#mdabba5b449" y="387.367762"/>
     <use style="fill:#0000ff;stroke:#0000ff;stroke-linejoin:miter;" x="770.05744" xlink:href="#mdabba5b449" y="402.308291"/>
     <use style="fill:#0000ff;stroke:#0000ff;stroke-linejoin:miter;" x="1254.618973" xlink:href="#mdabba5b449" y="240.854722"/>
     <use style="fill:#0000ff;stroke:#0000ff;stroke-linejoin:miter;" x="996.200683" xlink:href="#mdabba5b449" y="459.500716"/>
     <use style="fill:#0000ff;stroke:#0000ff;stroke-linejoin:miter;" x="1026.234546" xlink:href="#mdabba5b449" y="449.546118"/>
     <use style="fill:#0000ff;stroke:#0000ff;stroke-linejoin:miter;" x="797.52574" xlink:href="#mdabba5b449" y="233.38666"/>
     <use style="fill:#0000ff;stroke:#0000ff;stroke-linejoin:miter;" x="731.480004" xlink:href="#mdabba5b449" y="150.061905"/>
     <use style="fill:#0000ff;stroke:#0000ff;stroke-linejoin:miter;" x="1178.309057" xlink:href="#mdabba5b449" y="338.495858"/>
     <use style="fill:#0000ff;stroke:#0000ff;stroke-linejoin:miter;" x="1183.053277" xlink:href="#mdabba5b449" y="77.981129"/>
     <use style="fill:#0000ff;stroke:#0000ff;stroke-linejoin:miter;" x="722.746587" xlink:href="#mdabba5b449" y="236.23736"/>
     <use style="fill:#0000ff;stroke:#0000ff;stroke-linejoin:miter;" x="906.319804" xlink:href="#mdabba5b449" y="281.024913"/>
     <use style="fill:#0000ff;stroke:#0000ff;stroke-linejoin:miter;" x="1137.191868" xlink:href="#mdabba5b449" y="358.852837"/>
     <use style="fill:#0000ff;stroke:#0000ff;stroke-linejoin:miter;" x="795.130265" xlink:href="#mdabba5b449" y="222.38797"/>
    </g>
   </g>
   <g id="line2d_18">
    <g clip-path="url(#p46b01fd7db)">
     <use style="fill:#ff0000;stroke:#ff0000;stroke-linejoin:miter;" x="858.308875" xlink:href="#m3ac104c603" y="442.953948"/>
     <use style="fill:#ff0000;stroke:#ff0000;stroke-linejoin:miter;" x="1138.328973" xlink:href="#m3ac104c603" y="358.23268"/>
    </g>
   </g>
   <g id="patch_11">
    <path d="M 701.3 464.745 
L 701.3 29.865 
" style="fill:none;stroke:#000000;stroke-linecap:square;stroke-linejoin:miter;stroke-width:0.8;"/>
   </g>
   <g id="patch_12">
    <path d="M 1259.3 464.745 
L 1259.3 29.865 
" style="fill:none;stroke:#000000;stroke-linecap:square;stroke-linejoin:miter;stroke-width:0.8;"/>
   </g>
   <g id="patch_13">
    <path d="M 701.3 464.745 
L 1259.3 464.745 
" style="fill:none;stroke:#000000;stroke-linecap:square;stroke-linejoin:miter;stroke-width:0.8;"/>
   </g>
   <g id="patch_14">
    <path d="M 701.3 29.865 
L 1259.3 29.865 
" style="fill:none;stroke:#000000;stroke-linecap:square;stroke-linejoin:miter;stroke-width:0.8;"/>
   </g>
   <g id="text_18">
    <!-- 0.79 -->
    <g transform="translate(863.038401 437.415339)scale(0.14 -0.14)">
     <use xlink:href="#TimesNewRomanPSMT-30"/>
     <use x="50" xlink:href="#TimesNewRomanPSMT-2e"/>
     <use x="75" xlink:href="#TimesNewRomanPSMT-37"/>
     <use x="125" xlink:href="#TimesNewRomanPSMT-39"/>
    </g>
   </g>
   <g id="text_19">
    <!-- 1.84 -->
    <g transform="translate(1143.0585 352.69407)scale(0.14 -0.14)">
     <use xlink:href="#TimesNewRomanPSMT-31"/>
     <use x="50" xlink:href="#TimesNewRomanPSMT-2e"/>
     <use x="75" xlink:href="#TimesNewRomanPSMT-38"/>
     <use x="125" xlink:href="#TimesNewRomanPSMT-34"/>
    </g>
   </g>
   <g id="text_20">
    <!-- MILP Total prize: 12.00 -->
    <g transform="translate(864.490625 23.865)scale(0.24 -0.24)">
     <defs>
      <path d="M 1975 116 
L 1975 0 
L 159 0 
L 159 116 
L 309 116 
Q 572 116 691 269 
Q 766 369 766 750 
L 766 3488 
Q 766 3809 725 3913 
Q 694 3991 597 4047 
Q 459 4122 309 4122 
L 159 4122 
L 159 4238 
L 1975 4238 
L 1975 4122 
L 1822 4122 
Q 1563 4122 1444 3969 
Q 1366 3869 1366 3488 
L 1366 750 
Q 1366 428 1406 325 
Q 1438 247 1538 191 
Q 1672 116 1822 116 
L 1975 116 
z
" id="TimesNewRomanPSMT-49" transform="scale(0.015625)"/>
      <path d="M 3669 1172 
L 3772 1150 
L 3409 0 
L 128 0 
L 128 116 
L 288 116 
Q 556 116 672 291 
Q 738 391 738 753 
L 738 3488 
Q 738 3884 650 3984 
Q 528 4122 288 4122 
L 128 4122 
L 128 4238 
L 2047 4238 
L 2047 4122 
Q 1709 4125 1573 4059 
Q 1438 3994 1388 3894 
Q 1338 3794 1338 3416 
L 1338 753 
Q 1338 494 1388 397 
Q 1425 331 1503 300 
Q 1581 269 1991 269 
L 2300 269 
Q 2788 269 2984 341 
Q 3181 413 3343 595 
Q 3506 778 3669 1172 
z
" id="TimesNewRomanPSMT-4c" transform="scale(0.015625)"/>
     </defs>
     <use xlink:href="#TimesNewRomanPSMT-4d"/>
     <use x="88.916016" xlink:href="#TimesNewRomanPSMT-49"/>
     <use x="122.216797" xlink:href="#TimesNewRomanPSMT-4c"/>
     <use x="183.300781" xlink:href="#TimesNewRomanPSMT-50"/>
     <use x="235.166016" xlink:href="#TimesNewRomanPSMT-20"/>
     <use x="258.416016" xlink:href="#TimesNewRomanPSMT-54"/>
     <use x="312.5" xlink:href="#TimesNewRomanPSMT-6f"/>
     <use x="362.5" xlink:href="#TimesNewRomanPSMT-74"/>
     <use x="390.283203" xlink:href="#TimesNewRomanPSMT-61"/>
     <use x="434.667969" xlink:href="#TimesNewRomanPSMT-6c"/>
     <use x="462.451172" xlink:href="#TimesNewRomanPSMT-20"/>
     <use x="487.451172" xlink:href="#TimesNewRomanPSMT-70"/>
     <use x="537.451172" xlink:href="#TimesNewRomanPSMT-72"/>
     <use x="570.751953" xlink:href="#TimesNewRomanPSMT-69"/>
     <use x="598.535156" xlink:href="#TimesNewRomanPSMT-7a"/>
     <use x="642.919922" xlink:href="#TimesNewRomanPSMT-65"/>
     <use x="687.304688" xlink:href="#TimesNewRomanPSMT-3a"/>
     <use x="715.087891" xlink:href="#TimesNewRomanPSMT-20"/>
     <use x="740.087891" xlink:href="#TimesNewRomanPSMT-31"/>
     <use x="790.087891" xlink:href="#TimesNewRomanPSMT-32"/>
     <use x="840.087891" xlink:href="#TimesNewRomanPSMT-2e"/>
     <use x="865.087891" xlink:href="#TimesNewRomanPSMT-30"/>
     <use x="915.087891" xlink:href="#TimesNewRomanPSMT-30"/>
    </g>
   </g>
   <g id="legend_2">
    <g id="patch_15">
     <path d="M 712.5 87.91 
L 1163.3425 87.91 
Q 1166.5425 87.91 1166.5425 84.71 
L 1166.5425 41.065 
Q 1166.5425 37.865 1163.3425 37.865 
L 712.5 37.865 
Q 709.3 37.865 709.3 41.065 
L 709.3 84.71 
Q 709.3 87.91 712.5 87.91 
z
" style="fill:#ffffff;opacity:0.8;stroke:#cccccc;stroke-linejoin:miter;"/>
    </g>
    <g id="patch_16">
     <path d="M 715.7 55.465 
L 747.7 55.465 
L 747.7 44.265 
L 715.7 44.265 
z
" style="fill:#ccf900;"/>
    </g>
    <g id="text_21">
     <!-- Vehicle 0. Prizes: 5.00, Avail. fuel: 0.79, Re-planned dist: 0.72 -->
     <g transform="translate(760.5 55.465)scale(0.16 -0.16)">
      <use xlink:href="#TimesNewRomanPSMT-56"/>
      <use x="61.091797" xlink:href="#TimesNewRomanPSMT-65"/>
      <use x="105.476562" xlink:href="#TimesNewRomanPSMT-68"/>
      <use x="155.476562" xlink:href="#TimesNewRomanPSMT-69"/>
      <use x="183.259766" xlink:href="#TimesNewRomanPSMT-63"/>
      <use x="227.644531" xlink:href="#TimesNewRomanPSMT-6c"/>
      <use x="255.427734" xlink:href="#TimesNewRomanPSMT-65"/>
      <use x="299.8125" xlink:href="#TimesNewRomanPSMT-20"/>
      <use x="324.8125" xlink:href="#TimesNewRomanPSMT-30"/>
      <use x="374.8125" xlink:href="#TimesNewRomanPSMT-2e"/>
      <use x="399.8125" xlink:href="#TimesNewRomanPSMT-20"/>
      <use x="424.8125" xlink:href="#TimesNewRomanPSMT-50"/>
      <use x="480.427734" xlink:href="#TimesNewRomanPSMT-72"/>
      <use x="513.728516" xlink:href="#TimesNewRomanPSMT-69"/>
      <use x="541.511719" xlink:href="#TimesNewRomanPSMT-7a"/>
      <use x="585.896484" xlink:href="#TimesNewRomanPSMT-65"/>
      <use x="630.28125" xlink:href="#TimesNewRomanPSMT-73"/>
      <use x="669.197266" xlink:href="#TimesNewRomanPSMT-3a"/>
      <use x="696.980469" xlink:href="#TimesNewRomanPSMT-20"/>
      <use x="721.980469" xlink:href="#TimesNewRomanPSMT-35"/>
      <use x="771.980469" xlink:href="#TimesNewRomanPSMT-2e"/>
      <use x="796.980469" xlink:href="#TimesNewRomanPSMT-30"/>
      <use x="846.980469" xlink:href="#TimesNewRomanPSMT-30"/>
      <use x="896.980469" xlink:href="#TimesNewRomanPSMT-2c"/>
      <use x="921.980469" xlink:href="#TimesNewRomanPSMT-20"/>
      <use x="941.480469" xlink:href="#TimesNewRomanPSMT-41"/>
      <use x="1006.322266" xlink:href="#TimesNewRomanPSMT-76"/>
      <use x="1056.322266" xlink:href="#TimesNewRomanPSMT-61"/>
      <use x="1100.707031" xlink:href="#TimesNewRomanPSMT-69"/>
      <use x="1128.490234" xlink:href="#TimesNewRomanPSMT-6c"/>
      <use x="1156.273438" xlink:href="#TimesNewRomanPSMT-2e"/>
      <use x="1181.273438" xlink:href="#TimesNewRomanPSMT-20"/>
      <use x="1206.273438" xlink:href="#TimesNewRomanPSMT-66"/>
      <use x="1239.574219" xlink:href="#TimesNewRomanPSMT-75"/>
      <use x="1289.574219" xlink:href="#TimesNewRomanPSMT-65"/>
      <use x="1333.958984" xlink:href="#TimesNewRomanPSMT-6c"/>
      <use x="1361.742188" xlink:href="#TimesNewRomanPSMT-3a"/>
      <use x="1389.525391" xlink:href="#TimesNewRomanPSMT-20"/>
      <use x="1414.525391" xlink:href="#TimesNewRomanPSMT-30"/>
      <use x="1464.525391" xlink:href="#TimesNewRomanPSMT-2e"/>
      <use x="1489.525391" xlink:href="#TimesNewRomanPSMT-37"/>
      <use x="1539.525391" xlink:href="#TimesNewRomanPSMT-39"/>
      <use x="1589.525391" xlink:href="#TimesNewRomanPSMT-2c"/>
      <use x="1614.525391" xlink:href="#TimesNewRomanPSMT-20"/>
      <use x="1639.525391" xlink:href="#TimesNewRomanPSMT-52"/>
      <use x="1706.224609" xlink:href="#TimesNewRomanPSMT-65"/>
      <use x="1750.609375" xlink:href="#TimesNewRomanPSMT-2d"/>
      <use x="1783.910156" xlink:href="#TimesNewRomanPSMT-70"/>
      <use x="1833.910156" xlink:href="#TimesNewRomanPSMT-6c"/>
      <use x="1861.693359" xlink:href="#TimesNewRomanPSMT-61"/>
      <use x="1906.078125" xlink:href="#TimesNewRomanPSMT-6e"/>
      <use x="1956.078125" xlink:href="#TimesNewRomanPSMT-6e"/>
      <use x="2006.078125" xlink:href="#TimesNewRomanPSMT-65"/>
      <use x="2050.462891" xlink:href="#TimesNewRomanPSMT-64"/>
      <use x="2100.462891" xlink:href="#TimesNewRomanPSMT-20"/>
      <use x="2125.462891" xlink:href="#TimesNewRomanPSMT-64"/>
      <use x="2175.462891" xlink:href="#TimesNewRomanPSMT-69"/>
      <use x="2203.246094" xlink:href="#TimesNewRomanPSMT-73"/>
      <use x="2242.162109" xlink:href="#TimesNewRomanPSMT-74"/>
      <use x="2269.945312" xlink:href="#TimesNewRomanPSMT-3a"/>
      <use x="2297.728516" xlink:href="#TimesNewRomanPSMT-20"/>
      <use x="2322.728516" xlink:href="#TimesNewRomanPSMT-30"/>
      <use x="2372.728516" xlink:href="#TimesNewRomanPSMT-2e"/>
      <use x="2397.728516" xlink:href="#TimesNewRomanPSMT-37"/>
      <use x="2447.728516" xlink:href="#TimesNewRomanPSMT-32"/>
     </g>
    </g>
    <g id="patch_17">
     <path d="M 715.7 78.0875 
L 747.7 78.0875 
L 747.7 66.8875 
L 715.7 66.8875 
z
" style="fill:#00a4bb;"/>
    </g>
    <g id="text_22">
     <!-- Vehicle 1. Prizes: 7.00, Avail. fuel: 1.84, Re-planned dist: 1.56 -->
     <g transform="translate(760.5 78.0875)scale(0.16 -0.16)">
      <defs>
       <path d="M 2869 4325 
L 2869 4209 
Q 2456 4169 2195 4045 
Q 1934 3922 1679 3669 
Q 1425 3416 1258 3105 
Q 1091 2794 978 2366 
Q 1428 2675 1881 2675 
Q 2316 2675 2634 2325 
Q 2953 1975 2953 1425 
Q 2953 894 2631 456 
Q 2244 -75 1606 -75 
Q 1172 -75 869 213 
Q 275 772 275 1663 
Q 275 2231 503 2743 
Q 731 3256 1154 3653 
Q 1578 4050 1965 4187 
Q 2353 4325 2688 4325 
L 2869 4325 
z
M 925 2138 
Q 869 1716 869 1456 
Q 869 1156 980 804 
Q 1091 453 1309 247 
Q 1469 100 1697 100 
Q 1969 100 2183 356 
Q 2397 613 2397 1088 
Q 2397 1622 2184 2012 
Q 1972 2403 1581 2403 
Q 1463 2403 1327 2353 
Q 1191 2303 925 2138 
z
" id="TimesNewRomanPSMT-36" transform="scale(0.015625)"/>
      </defs>
      <use xlink:href="#TimesNewRomanPSMT-56"/>
      <use x="61.091797" xlink:href="#TimesNewRomanPSMT-65"/>
      <use x="105.476562" xlink:href="#TimesNewRomanPSMT-68"/>
      <use x="155.476562" xlink:href="#TimesNewRomanPSMT-69"/>
      <use x="183.259766" xlink:href="#TimesNewRomanPSMT-63"/>
      <use x="227.644531" xlink:href="#TimesNewRomanPSMT-6c"/>
      <use x="255.427734" xlink:href="#TimesNewRomanPSMT-65"/>
      <use x="299.8125" xlink:href="#TimesNewRomanPSMT-20"/>
      <use x="324.8125" xlink:href="#TimesNewRomanPSMT-31"/>
      <use x="374.8125" xlink:href="#TimesNewRomanPSMT-2e"/>
      <use x="399.8125" xlink:href="#TimesNewRomanPSMT-20"/>
      <use x="424.8125" xlink:href="#TimesNewRomanPSMT-50"/>
      <use x="480.427734" xlink:href="#TimesNewRomanPSMT-72"/>
      <use x="513.728516" xlink:href="#TimesNewRomanPSMT-69"/>
      <use x="541.511719" xlink:href="#TimesNewRomanPSMT-7a"/>
      <use x="585.896484" xlink:href="#TimesNewRomanPSMT-65"/>
      <use x="630.28125" xlink:href="#TimesNewRomanPSMT-73"/>
      <use x="669.197266" xlink:href="#TimesNewRomanPSMT-3a"/>
      <use x="696.980469" xlink:href="#TimesNewRomanPSMT-20"/>
      <use x="721.980469" xlink:href="#TimesNewRomanPSMT-37"/>
      <use x="771.980469" xlink:href="#TimesNewRomanPSMT-2e"/>
      <use x="796.980469" xlink:href="#TimesNewRomanPSMT-30"/>
      <use x="846.980469" xlink:href="#TimesNewRomanPSMT-30"/>
      <use x="896.980469" xlink:href="#TimesNewRomanPSMT-2c"/>
      <use x="921.980469" xlink:href="#TimesNewRomanPSMT-20"/>
      <use x="941.480469" xlink:href="#TimesNewRomanPSMT-41"/>
      <use x="1006.322266" xlink:href="#TimesNewRomanPSMT-76"/>
      <use x="1056.322266" xlink:href="#TimesNewRomanPSMT-61"/>
      <use x="1100.707031" xlink:href="#TimesNewRomanPSMT-69"/>
      <use x="1128.490234" xlink:href="#TimesNewRomanPSMT-6c"/>
      <use x="1156.273438" xlink:href="#TimesNewRomanPSMT-2e"/>
      <use x="1181.273438" xlink:href="#TimesNewRomanPSMT-20"/>
      <use x="1206.273438" xlink:href="#TimesNewRomanPSMT-66"/>
      <use x="1239.574219" xlink:href="#TimesNewRomanPSMT-75"/>
      <use x="1289.574219" xlink:href="#TimesNewRomanPSMT-65"/>
      <use x="1333.958984" xlink:href="#TimesNewRomanPSMT-6c"/>
      <use x="1361.742188" xlink:href="#TimesNewRomanPSMT-3a"/>
      <use x="1389.525391" xlink:href="#TimesNewRomanPSMT-20"/>
      <use x="1414.525391" xlink:href="#TimesNewRomanPSMT-31"/>
      <use x="1464.525391" xlink:href="#TimesNewRomanPSMT-2e"/>
      <use x="1489.525391" xlink:href="#TimesNewRomanPSMT-38"/>
      <use x="1539.525391" xlink:href="#TimesNewRomanPSMT-34"/>
      <use x="1589.525391" xlink:href="#TimesNewRomanPSMT-2c"/>
      <use x="1614.525391" xlink:href="#TimesNewRomanPSMT-20"/>
      <use x="1639.525391" xlink:href="#TimesNewRomanPSMT-52"/>
      <use x="1706.224609" xlink:href="#TimesNewRomanPSMT-65"/>
      <use x="1750.609375" xlink:href="#TimesNewRomanPSMT-2d"/>
      <use x="1783.910156" xlink:href="#TimesNewRomanPSMT-70"/>
      <use x="1833.910156" xlink:href="#TimesNewRomanPSMT-6c"/>
      <use x="1861.693359" xlink:href="#TimesNewRomanPSMT-61"/>
      <use x="1906.078125" xlink:href="#TimesNewRomanPSMT-6e"/>
      <use x="1956.078125" xlink:href="#TimesNewRomanPSMT-6e"/>
      <use x="2006.078125" xlink:href="#TimesNewRomanPSMT-65"/>
      <use x="2050.462891" xlink:href="#TimesNewRomanPSMT-64"/>
      <use x="2100.462891" xlink:href="#TimesNewRomanPSMT-20"/>
      <use x="2125.462891" xlink:href="#TimesNewRomanPSMT-64"/>
      <use x="2175.462891" xlink:href="#TimesNewRomanPSMT-69"/>
      <use x="2203.246094" xlink:href="#TimesNewRomanPSMT-73"/>
      <use x="2242.162109" xlink:href="#TimesNewRomanPSMT-74"/>
      <use x="2269.945312" xlink:href="#TimesNewRomanPSMT-3a"/>
      <use x="2297.728516" xlink:href="#TimesNewRomanPSMT-20"/>
      <use x="2322.728516" xlink:href="#TimesNewRomanPSMT-31"/>
      <use x="2372.728516" xlink:href="#TimesNewRomanPSMT-2e"/>
      <use x="2397.728516" xlink:href="#TimesNewRomanPSMT-35"/>
      <use x="2447.728516" xlink:href="#TimesNewRomanPSMT-36"/>
     </g>
    </g>
   </g>
  </g>
 </g>
 <defs>
  <clipPath id="paeb2446bb0">
   <rect height="434.88" width="558" x="31.7" y="29.865"/>
  </clipPath>
  <clipPath id="p46b01fd7db">
   <rect height="434.88" width="558" x="701.3" y="29.865"/>
  </clipPath>
 </defs>
</svg>
