<?xml version="1.0" encoding="utf-8" standalone="no"?>
<!DOCTYPE svg PUBLIC "-//W3C//DTD SVG 1.1//EN"
  "http://www.w3.org/Graphics/SVG/1.1/DTD/svg11.dtd">
<svg height="491.660937pt" version="1.1" viewBox="0 0 1275.25 491.660937" width="1275.25pt" xmlns="http://www.w3.org/2000/svg" xmlns:xlink="http://www.w3.org/1999/xlink">
 <metadata>
  <rdf:RDF xmlns:cc="http://creativecommons.org/ns#" xmlns:dc="http://purl.org/dc/elements/1.1/" xmlns:rdf="http://www.w3.org/1999/02/22-rdf-syntax-ns#">
   <cc:Work>
    <dc:type rdf:resource="http://purl.org/dc/dcmitype/StillImage"/>
    <dc:date>2022-06-22T13:45:24.097151</dc:date>
    <dc:format>image/svg+xml</dc:format>
    <dc:creator>
     <cc:Agent>
      <dc:title>Matplotlib v3.4.3, https://matplotlib.org/</dc:title>
     </cc:Agent>
    </dc:creator>
   </cc:Work>
  </rdf:RDF>
 </metadata>
 <defs>
  <style type="text/css">*{stroke-linecap:butt;stroke-linejoin:round;}</style>
 </defs>
 <g id="figure_1">
  <g id="patch_1">
   <path d="M 0 491.660937 
L 1275.25 491.660937 
L 1275.25 0 
L 0 0 
z
" style="fill:#ffffff;"/>
  </g>
  <g id="axes_1">
   <g id="patch_2">
    <path d="M 31.7 464.745 
L 589.7 464.745 
L 589.7 29.865 
L 31.7 29.865 
z
" style="fill:#ffffff;"/>
   </g>
   <g id="Quiver_1">
    <path clip-path="url(#p1d543f772f)" d="M 128.472467 104.357802 
L 154.565634 98.169279 
L 151.563847 94.580121 
L 173.372703 95.859348 
L 154.461148 106.796245 
L 155.531401 102.24132 
L 129.438234 108.429843 
L 128.472467 104.357802 
" style="fill:#ccf900;"/>
    <path clip-path="url(#p1d543f772f)" d="M 173.162555 93.777428 
L 248.409325 86.182059 
L 245.907108 82.228365 
L 267.35676 86.372648 
L 247.167996 94.71989 
L 248.829621 90.3459 
L 173.582851 97.941269 
L 173.162555 93.777428 
" style="fill:#ccf900;"/>
    <path clip-path="url(#p1d543f772f)" d="M 267.750501 84.317526 
L 428.249038 115.067498 
L 426.9814 110.563514 
L 446.351389 120.666293 
L 424.618951 122.894243 
L 427.461556 119.177741 
L 266.963018 88.427769 
L 267.750501 84.317526 
" style="fill:#ccf900;"/>
    <path clip-path="url(#p1d543f772f)" d="M 446.084677 118.59086 
L 511.606423 110.170709 
L 508.997566 106.286556 
L 530.55203 109.84573 
L 510.59784 118.739152 
L 512.139848 114.321574 
L 446.618102 122.741725 
L 446.084677 118.59086 
" style="fill:#ccf900;"/>
    <path clip-path="url(#p1d543f772f)" d="M 531.647814 108.607703 
L 532.885841 109.703487 
L 533.839382 106.131647 
L 542.932306 120.80357 
L 527.264678 113.559813 
L 530.694273 112.179542 
L 529.456246 111.083758 
L 531.647814 108.607703 
" style="fill:#ccf900;"/>
    <path clip-path="url(#p1d543f772f)" d="M 543.98031 122.614714 
L 498.908253 148.695282 
L 502.815405 151.269567 
L 481.559948 156.31617 
L 496.527383 140.4027 
L 496.812246 145.072993 
L 541.884303 118.992425 
L 543.98031 122.614714 
" style="fill:#ccf900;"/>
    <path clip-path="url(#p1d543f772f)" d="M 482.462383 158.20407 
L 479.26979 159.730161 
L 482.962561 162.603526 
L 461.376253 165.964176 
L 477.54795 151.276125 
L 477.46492 155.95436 
L 480.657513 154.428269 
L 482.462383 158.20407 
" style="fill:#ccf900;"/>
    <path clip-path="url(#p1d543f772f)" d="M 463.457671 166.179249 
L 463.17962 168.870139 
L 467.557529 167.218869 
L 459.162541 187.387825 
L 455.069023 165.928428 
L 459.016785 168.439992 
L 459.294835 165.749102 
L 463.457671 166.179249 
" style="fill:#ccf900;"/>
   </g>
   <g id="Quiver_2">
    <path clip-path="url(#p1d543f772f)" d="M 224.598424 133.719834 
L 188.565627 148.892058 
L 192.118205 151.93705 
L 170.396985 154.271843 
L 187.246007 140.365977 
L 186.941561 145.035034 
L 222.974358 129.86281 
L 224.598424 133.719834 
" style="fill:#00a4bb;"/>
    <path clip-path="url(#p1d543f772f)" d="M 170.655324 156.348334 
L 127.257444 161.747521 
L 129.850613 165.642165 
L 108.310681 161.99608 
L 128.300579 153.183215 
L 126.740766 157.594537 
L 170.138646 152.195351 
L 170.655324 156.348334 
" style="fill:#00a4bb;"/>
    <path clip-path="url(#p1d543f772f)" d="M 109.334036 163.821265 
L 89.716036 174.820794 
L 93.587931 177.447809 
L 72.266015 182.205803 
L 87.447802 166.496698 
L 87.669326 171.170423 
L 107.287326 160.170895 
L 109.334036 163.821265 
" style="fill:#00a4bb;"/>
    <path clip-path="url(#p1d543f772f)" d="M 72.7399 180.167669 
L 124.553159 192.214732 
L 123.462795 187.66458 
L 142.422478 198.517831 
L 120.619485 199.893382 
L 123.605389 196.291 
L 71.79213 184.243937 
L 72.7399 180.167669 
" style="fill:#00a4bb;"/>
    <path clip-path="url(#p1d543f772f)" d="M 144.296694 197.587311 
L 191.243322 292.145318 
L 194.061235 288.410061 
L 197.743788 309.943788 
L 182.815935 293.993183 
L 187.494888 294.006359 
L 140.548261 199.448351 
L 144.296694 197.587311 
" style="fill:#00a4bb;"/>
    <path clip-path="url(#p1d543f772f)" d="M 197.677185 307.852348 
L 230.301817 306.813397 
L 228.077171 302.697121 
L 249.191378 308.305408 
L 228.47679 315.245759 
L 230.435023 310.996276 
L 197.810392 312.035228 
L 197.677185 307.852348 
" style="fill:#00a4bb;"/>
    <path clip-path="url(#p1d543f772f)" d="M 250.077738 306.409908 
L 328.282612 342.979516 
L 328.159833 338.302155 
L 344.455755 352.85226 
L 322.84167 349.675157 
L 326.509892 346.770516 
L 248.305018 310.200908 
L 250.077738 306.409908 
" style="fill:#00a4bb;"/>
    <path clip-path="url(#p1d543f772f)" d="M 344.406714 350.760335 
L 398.80496 349.48507 
L 396.614952 345.350261 
L 417.681328 351.135624 
L 396.909199 357.901813 
L 398.903042 353.668921 
L 344.504796 354.944185 
L 344.406714 350.760335 
" style="fill:#00a4bb;"/>
    <path clip-path="url(#p1d543f772f)" d="M 418.252687 349.12264 
L 543.333874 384.625266 
L 542.463607 380.027939 
L 560.879373 391.780478 
L 539.035455 392.105844 
L 542.191157 388.651234 
L 417.109969 353.148609 
L 418.252687 349.12264 
" style="fill:#00a4bb;"/>
    <path clip-path="url(#p1d543f772f)" d="M 559.308567 393.162912 
L 473.503392 295.665784 
L 471.744213 300.001458 
L 462.632294 280.146092 
L 481.169052 291.706855 
L 476.645005 292.900916 
L 562.45018 390.398045 
L 559.308567 393.162912 
" style="fill:#00a4bb;"/>
    <path clip-path="url(#p1d543f772f)" d="M 460.541257 280.22431 
L 457.775467 206.285382 
L 453.67161 208.532855 
L 459.162541 187.387825 
L 466.217836 208.063546 
L 461.957543 206.128945 
L 464.723332 280.067873 
L 460.541257 280.22431 
" style="fill:#00a4bb;"/>
   </g>
   <g id="matplotlib.axis_1">
    <g id="xtick_1">
     <g id="line2d_1">
      <defs>
       <path d="M 0 0 
L 0 3.5 
" id="mc85ff694a2" style="stroke:#000000;stroke-width:0.8;"/>
      </defs>
      <g>
       <use style="stroke:#000000;stroke-width:0.8;" x="31.7" xlink:href="#mc85ff694a2" y="464.745"/>
      </g>
     </g>
     <g id="text_1">
      <!-- 0.0 -->
      <g transform="translate(22.95 481.46625)scale(0.14 -0.14)">
       <defs>
        <path d="M 231 2094 
Q 231 2819 450 3342 
Q 669 3866 1031 4122 
Q 1313 4325 1613 4325 
Q 2100 4325 2488 3828 
Q 2972 3213 2972 2159 
Q 2972 1422 2759 906 
Q 2547 391 2217 158 
Q 1888 -75 1581 -75 
Q 975 -75 572 641 
Q 231 1244 231 2094 
z
M 844 2016 
Q 844 1141 1059 588 
Q 1238 122 1591 122 
Q 1759 122 1940 273 
Q 2122 425 2216 781 
Q 2359 1319 2359 2297 
Q 2359 3022 2209 3506 
Q 2097 3866 1919 4016 
Q 1791 4119 1609 4119 
Q 1397 4119 1231 3928 
Q 1006 3669 925 3112 
Q 844 2556 844 2016 
z
" id="TimesNewRomanPSMT-30" transform="scale(0.015625)"/>
        <path d="M 800 606 
Q 947 606 1047 504 
Q 1147 403 1147 259 
Q 1147 116 1045 14 
Q 944 -88 800 -88 
Q 656 -88 554 14 
Q 453 116 453 259 
Q 453 406 554 506 
Q 656 606 800 606 
z
" id="TimesNewRomanPSMT-2e" transform="scale(0.015625)"/>
       </defs>
       <use xlink:href="#TimesNewRomanPSMT-30"/>
       <use x="50" xlink:href="#TimesNewRomanPSMT-2e"/>
       <use x="75" xlink:href="#TimesNewRomanPSMT-30"/>
      </g>
     </g>
    </g>
    <g id="xtick_2">
     <g id="line2d_2">
      <g>
       <use style="stroke:#000000;stroke-width:0.8;" x="310.7" xlink:href="#mc85ff694a2" y="464.745"/>
      </g>
     </g>
     <g id="text_2">
      <!-- 0.5 -->
      <g transform="translate(301.95 481.46625)scale(0.14 -0.14)">
       <defs>
        <path d="M 2778 4238 
L 2534 3706 
L 1259 3706 
L 981 3138 
Q 1809 3016 2294 2522 
Q 2709 2097 2709 1522 
Q 2709 1188 2573 903 
Q 2438 619 2231 419 
Q 2025 219 1772 97 
Q 1413 -75 1034 -75 
Q 653 -75 479 54 
Q 306 184 306 341 
Q 306 428 378 495 
Q 450 563 559 563 
Q 641 563 702 538 
Q 763 513 909 409 
Q 1144 247 1384 247 
Q 1750 247 2026 523 
Q 2303 800 2303 1197 
Q 2303 1581 2056 1914 
Q 1809 2247 1375 2428 
Q 1034 2569 447 2591 
L 1259 4238 
L 2778 4238 
z
" id="TimesNewRomanPSMT-35" transform="scale(0.015625)"/>
       </defs>
       <use xlink:href="#TimesNewRomanPSMT-30"/>
       <use x="50" xlink:href="#TimesNewRomanPSMT-2e"/>
       <use x="75" xlink:href="#TimesNewRomanPSMT-35"/>
      </g>
     </g>
    </g>
    <g id="xtick_3">
     <g id="line2d_3">
      <g>
       <use style="stroke:#000000;stroke-width:0.8;" x="589.7" xlink:href="#mc85ff694a2" y="464.745"/>
      </g>
     </g>
     <g id="text_3">
      <!-- 1.0 -->
      <g transform="translate(580.95 481.46625)scale(0.14 -0.14)">
       <defs>
        <path d="M 750 3822 
L 1781 4325 
L 1884 4325 
L 1884 747 
Q 1884 391 1914 303 
Q 1944 216 2037 169 
Q 2131 122 2419 116 
L 2419 0 
L 825 0 
L 825 116 
Q 1125 122 1212 167 
Q 1300 213 1334 289 
Q 1369 366 1369 747 
L 1369 3034 
Q 1369 3497 1338 3628 
Q 1316 3728 1258 3775 
Q 1200 3822 1119 3822 
Q 1003 3822 797 3725 
L 750 3822 
z
" id="TimesNewRomanPSMT-31" transform="scale(0.015625)"/>
       </defs>
       <use xlink:href="#TimesNewRomanPSMT-31"/>
       <use x="50" xlink:href="#TimesNewRomanPSMT-2e"/>
       <use x="75" xlink:href="#TimesNewRomanPSMT-30"/>
      </g>
     </g>
    </g>
   </g>
   <g id="matplotlib.axis_2">
    <g id="ytick_1">
     <g id="line2d_4">
      <defs>
       <path d="M 0 0 
L -3.5 0 
" id="m120789f4c1" style="stroke:#000000;stroke-width:0.8;"/>
      </defs>
      <g>
       <use style="stroke:#000000;stroke-width:0.8;" x="31.7" xlink:href="#m120789f4c1" y="464.745"/>
      </g>
     </g>
     <g id="text_4">
      <!-- 0.0 -->
      <g transform="translate(7.2 469.605625)scale(0.14 -0.14)">
       <use xlink:href="#TimesNewRomanPSMT-30"/>
       <use x="50" xlink:href="#TimesNewRomanPSMT-2e"/>
       <use x="75" xlink:href="#TimesNewRomanPSMT-30"/>
      </g>
     </g>
    </g>
    <g id="ytick_2">
     <g id="line2d_5">
      <g>
       <use style="stroke:#000000;stroke-width:0.8;" x="31.7" xlink:href="#m120789f4c1" y="247.305"/>
      </g>
     </g>
     <g id="text_5">
      <!-- 0.5 -->
      <g transform="translate(7.2 252.165625)scale(0.14 -0.14)">
       <use xlink:href="#TimesNewRomanPSMT-30"/>
       <use x="50" xlink:href="#TimesNewRomanPSMT-2e"/>
       <use x="75" xlink:href="#TimesNewRomanPSMT-35"/>
      </g>
     </g>
    </g>
    <g id="ytick_3">
     <g id="line2d_6">
      <g>
       <use style="stroke:#000000;stroke-width:0.8;" x="31.7" xlink:href="#m120789f4c1" y="29.865"/>
      </g>
     </g>
     <g id="text_6">
      <!-- 1.0 -->
      <g transform="translate(7.2 34.725625)scale(0.14 -0.14)">
       <use xlink:href="#TimesNewRomanPSMT-31"/>
       <use x="50" xlink:href="#TimesNewRomanPSMT-2e"/>
       <use x="75" xlink:href="#TimesNewRomanPSMT-30"/>
      </g>
     </g>
    </g>
   </g>
   <g id="line2d_7">
    <defs>
     <path d="M -10 10 
L 10 10 
L 10 -10 
L -10 -10 
z
" id="m1b5518f89d" style="stroke:#000000;stroke-linejoin:miter;"/>
    </defs>
    <g clip-path="url(#p1d543f772f)">
     <use style="stroke:#000000;stroke-linejoin:miter;" x="459.162541" xlink:href="#m1b5518f89d" y="187.387825"/>
    </g>
   </g>
   <g id="line2d_8">
    <defs>
     <path d="M -5 5 
L 5 5 
L 5 -5 
L -5 -5 
z
" id="mf0230d69f0" style="stroke:#0000ff;stroke-linejoin:miter;"/>
    </defs>
    <g clip-path="url(#p1d543f772f)">
     <use style="fill:#0000ff;stroke:#0000ff;stroke-linejoin:miter;" x="417.681328" xlink:href="#mf0230d69f0" y="351.135624"/>
     <use style="fill:#0000ff;stroke:#0000ff;stroke-linejoin:miter;" x="249.191378" xlink:href="#mf0230d69f0" y="308.305408"/>
     <use style="fill:#0000ff;stroke:#0000ff;stroke-linejoin:miter;" x="344.455755" xlink:href="#mf0230d69f0" y="352.85226"/>
     <use style="fill:#0000ff;stroke:#0000ff;stroke-linejoin:miter;" x="446.351389" xlink:href="#mf0230d69f0" y="120.666293"/>
     <use style="fill:#0000ff;stroke:#0000ff;stroke-linejoin:miter;" x="197.743788" xlink:href="#mf0230d69f0" y="309.943788"/>
     <use style="fill:#0000ff;stroke:#0000ff;stroke-linejoin:miter;" x="114.684877" xlink:href="#mf0230d69f0" y="368.064284"/>
     <use style="fill:#0000ff;stroke:#0000ff;stroke-linejoin:miter;" x="173.372703" xlink:href="#mf0230d69f0" y="95.859348"/>
     <use style="fill:#0000ff;stroke:#0000ff;stroke-linejoin:miter;" x="72.266015" xlink:href="#mf0230d69f0" y="182.205803"/>
     <use style="fill:#0000ff;stroke:#0000ff;stroke-linejoin:miter;" x="560.879373" xlink:href="#mf0230d69f0" y="391.780478"/>
     <use style="fill:#0000ff;stroke:#0000ff;stroke-linejoin:miter;" x="64.713937" xlink:href="#mf0230d69f0" y="129.47423"/>
     <use style="fill:#0000ff;stroke:#0000ff;stroke-linejoin:miter;" x="481.559948" xlink:href="#mf0230d69f0" y="156.31617"/>
     <use style="fill:#0000ff;stroke:#0000ff;stroke-linejoin:miter;" x="530.55203" xlink:href="#mf0230d69f0" y="109.84573"/>
     <use style="fill:#0000ff;stroke:#0000ff;stroke-linejoin:miter;" x="267.35676" xlink:href="#mf0230d69f0" y="86.372648"/>
     <use style="fill:#0000ff;stroke:#0000ff;stroke-linejoin:miter;" x="170.396985" xlink:href="#mf0230d69f0" y="154.271843"/>
     <use style="fill:#0000ff;stroke:#0000ff;stroke-linejoin:miter;" x="142.422478" xlink:href="#mf0230d69f0" y="198.517831"/>
     <use style="fill:#0000ff;stroke:#0000ff;stroke-linejoin:miter;" x="461.376253" xlink:href="#mf0230d69f0" y="165.964176"/>
     <use style="fill:#0000ff;stroke:#0000ff;stroke-linejoin:miter;" x="462.632294" xlink:href="#mf0230d69f0" y="280.146092"/>
     <use style="fill:#0000ff;stroke:#0000ff;stroke-linejoin:miter;" x="406.459476" xlink:href="#mf0230d69f0" y="219.529909"/>
     <use style="fill:#0000ff;stroke:#0000ff;stroke-linejoin:miter;" x="542.932306" xlink:href="#mf0230d69f0" y="120.80357"/>
     <use style="fill:#0000ff;stroke:#0000ff;stroke-linejoin:miter;" x="108.310681" xlink:href="#mf0230d69f0" y="161.99608"/>
    </g>
   </g>
   <g id="line2d_9">
    <defs>
     <path d="M -5 5 
L 5 5 
L 5 -5 
L -5 -5 
z
" id="m29898190a9" style="stroke:#ff0000;stroke-linejoin:miter;"/>
    </defs>
    <g clip-path="url(#p1d543f772f)">
     <use style="fill:#ff0000;stroke:#ff0000;stroke-linejoin:miter;" x="128.955351" xlink:href="#m29898190a9" y="106.393822"/>
     <use style="fill:#ff0000;stroke:#ff0000;stroke-linejoin:miter;" x="223.786391" xlink:href="#m29898190a9" y="131.791322"/>
    </g>
   </g>
   <g id="patch_3">
    <path d="M 31.7 464.745 
L 31.7 29.865 
" style="fill:none;stroke:#000000;stroke-linecap:square;stroke-linejoin:miter;stroke-width:0.8;"/>
   </g>
   <g id="patch_4">
    <path d="M 589.7 464.745 
L 589.7 29.865 
" style="fill:none;stroke:#000000;stroke-linecap:square;stroke-linejoin:miter;stroke-width:0.8;"/>
   </g>
   <g id="patch_5">
    <path d="M 31.7 464.745 
L 589.7 464.745 
" style="fill:none;stroke:#000000;stroke-linecap:square;stroke-linejoin:miter;stroke-width:0.8;"/>
   </g>
   <g id="patch_6">
    <path d="M 31.7 29.865 
L 589.7 29.865 
" style="fill:none;stroke:#000000;stroke-linecap:square;stroke-linejoin:miter;stroke-width:0.8;"/>
   </g>
   <g id="text_7">
    <!-- 1.11 -->
    <g transform="translate(133.583571 100.855212)scale(0.14 -0.14)">
     <use xlink:href="#TimesNewRomanPSMT-31"/>
     <use x="50" xlink:href="#TimesNewRomanPSMT-2e"/>
     <use x="75" xlink:href="#TimesNewRomanPSMT-31"/>
     <use x="121.25" xlink:href="#TimesNewRomanPSMT-31"/>
    </g>
   </g>
   <g id="text_8">
    <!-- 1.99 -->
    <g transform="translate(228.515917 126.252712)scale(0.14 -0.14)">
     <defs>
      <path d="M 338 -88 
L 338 28 
Q 744 34 1094 217 
Q 1444 400 1770 856 
Q 2097 1313 2225 1859 
Q 1734 1544 1338 1544 
Q 891 1544 572 1889 
Q 253 2234 253 2806 
Q 253 3363 572 3797 
Q 956 4325 1575 4325 
Q 2097 4325 2469 3894 
Q 2925 3359 2925 2575 
Q 2925 1869 2578 1258 
Q 2231 647 1613 244 
Q 1109 -88 516 -88 
L 338 -88 
z
M 2275 2091 
Q 2331 2497 2331 2741 
Q 2331 3044 2228 3395 
Q 2125 3747 1936 3934 
Q 1747 4122 1506 4122 
Q 1228 4122 1018 3872 
Q 809 3622 809 3128 
Q 809 2469 1088 2097 
Q 1291 1828 1588 1828 
Q 1731 1828 1928 1897 
Q 2125 1966 2275 2091 
z
" id="TimesNewRomanPSMT-39" transform="scale(0.015625)"/>
     </defs>
     <use xlink:href="#TimesNewRomanPSMT-31"/>
     <use x="50" xlink:href="#TimesNewRomanPSMT-2e"/>
     <use x="75" xlink:href="#TimesNewRomanPSMT-39"/>
     <use x="125" xlink:href="#TimesNewRomanPSMT-39"/>
    </g>
   </g>
   <g id="text_9">
    <!-- 0.95 -->
    <g transform="translate(422.410854 345.597015)scale(0.14 -0.14)">
     <use xlink:href="#TimesNewRomanPSMT-30"/>
     <use x="50" xlink:href="#TimesNewRomanPSMT-2e"/>
     <use x="75" xlink:href="#TimesNewRomanPSMT-39"/>
     <use x="125" xlink:href="#TimesNewRomanPSMT-35"/>
    </g>
   </g>
   <g id="text_10">
    <!-- 0.98 -->
    <g transform="translate(253.920904 302.766798)scale(0.14 -0.14)">
     <defs>
      <path d="M 1228 2134 
Q 725 2547 579 2797 
Q 434 3047 434 3316 
Q 434 3728 753 4026 
Q 1072 4325 1600 4325 
Q 2113 4325 2425 4047 
Q 2738 3769 2738 3413 
Q 2738 3175 2569 2928 
Q 2400 2681 1866 2347 
Q 2416 1922 2594 1678 
Q 2831 1359 2831 1006 
Q 2831 559 2490 242 
Q 2150 -75 1597 -75 
Q 994 -75 656 303 
Q 388 606 388 966 
Q 388 1247 577 1523 
Q 766 1800 1228 2134 
z
M 1719 2469 
Q 2094 2806 2194 3001 
Q 2294 3197 2294 3444 
Q 2294 3772 2109 3958 
Q 1925 4144 1606 4144 
Q 1288 4144 1088 3959 
Q 888 3775 888 3528 
Q 888 3366 970 3203 
Q 1053 3041 1206 2894 
L 1719 2469 
z
M 1375 2016 
Q 1116 1797 991 1539 
Q 866 1281 866 981 
Q 866 578 1086 336 
Q 1306 94 1647 94 
Q 1984 94 2187 284 
Q 2391 475 2391 747 
Q 2391 972 2272 1150 
Q 2050 1481 1375 2016 
z
" id="TimesNewRomanPSMT-38" transform="scale(0.015625)"/>
     </defs>
     <use xlink:href="#TimesNewRomanPSMT-30"/>
     <use x="50" xlink:href="#TimesNewRomanPSMT-2e"/>
     <use x="75" xlink:href="#TimesNewRomanPSMT-39"/>
     <use x="125" xlink:href="#TimesNewRomanPSMT-38"/>
    </g>
   </g>
   <g id="text_11">
    <!-- 0.95 -->
    <g transform="translate(349.185281 347.31365)scale(0.14 -0.14)">
     <use xlink:href="#TimesNewRomanPSMT-30"/>
     <use x="50" xlink:href="#TimesNewRomanPSMT-2e"/>
     <use x="75" xlink:href="#TimesNewRomanPSMT-39"/>
     <use x="125" xlink:href="#TimesNewRomanPSMT-35"/>
    </g>
   </g>
   <g id="text_12">
    <!-- 0.51 -->
    <g transform="translate(451.080916 115.127683)scale(0.14 -0.14)">
     <use xlink:href="#TimesNewRomanPSMT-30"/>
     <use x="50" xlink:href="#TimesNewRomanPSMT-2e"/>
     <use x="75" xlink:href="#TimesNewRomanPSMT-35"/>
     <use x="125" xlink:href="#TimesNewRomanPSMT-31"/>
    </g>
   </g>
   <g id="text_13">
    <!-- 0.84 -->
    <g transform="translate(202.473315 304.405178)scale(0.14 -0.14)">
     <defs>
      <path d="M 2978 1563 
L 2978 1119 
L 2409 1119 
L 2409 0 
L 1894 0 
L 1894 1119 
L 100 1119 
L 100 1519 
L 2066 4325 
L 2409 4325 
L 2409 1563 
L 2978 1563 
z
M 1894 1563 
L 1894 3666 
L 406 1563 
L 1894 1563 
z
" id="TimesNewRomanPSMT-34" transform="scale(0.015625)"/>
     </defs>
     <use xlink:href="#TimesNewRomanPSMT-30"/>
     <use x="50" xlink:href="#TimesNewRomanPSMT-2e"/>
     <use x="75" xlink:href="#TimesNewRomanPSMT-38"/>
     <use x="125" xlink:href="#TimesNewRomanPSMT-34"/>
    </g>
   </g>
   <g id="text_14">
    <!-- 0.25 -->
    <g transform="translate(119.414403 362.525674)scale(0.14 -0.14)">
     <defs>
      <path d="M 2934 816 
L 2638 0 
L 138 0 
L 138 116 
Q 1241 1122 1691 1759 
Q 2141 2397 2141 2925 
Q 2141 3328 1894 3587 
Q 1647 3847 1303 3847 
Q 991 3847 742 3664 
Q 494 3481 375 3128 
L 259 3128 
Q 338 3706 661 4015 
Q 984 4325 1469 4325 
Q 1984 4325 2329 3994 
Q 2675 3663 2675 3213 
Q 2675 2891 2525 2569 
Q 2294 2063 1775 1497 
Q 997 647 803 472 
L 1909 472 
Q 2247 472 2383 497 
Q 2519 522 2628 598 
Q 2738 675 2819 816 
L 2934 816 
z
" id="TimesNewRomanPSMT-32" transform="scale(0.015625)"/>
     </defs>
     <use xlink:href="#TimesNewRomanPSMT-30"/>
     <use x="50" xlink:href="#TimesNewRomanPSMT-2e"/>
     <use x="75" xlink:href="#TimesNewRomanPSMT-32"/>
     <use x="125" xlink:href="#TimesNewRomanPSMT-35"/>
    </g>
   </g>
   <g id="text_15">
    <!-- 0.46 -->
    <g transform="translate(178.102229 90.320738)scale(0.14 -0.14)">
     <defs>
      <path d="M 2869 4325 
L 2869 4209 
Q 2456 4169 2195 4045 
Q 1934 3922 1679 3669 
Q 1425 3416 1258 3105 
Q 1091 2794 978 2366 
Q 1428 2675 1881 2675 
Q 2316 2675 2634 2325 
Q 2953 1975 2953 1425 
Q 2953 894 2631 456 
Q 2244 -75 1606 -75 
Q 1172 -75 869 213 
Q 275 772 275 1663 
Q 275 2231 503 2743 
Q 731 3256 1154 3653 
Q 1578 4050 1965 4187 
Q 2353 4325 2688 4325 
L 2869 4325 
z
M 925 2138 
Q 869 1716 869 1456 
Q 869 1156 980 804 
Q 1091 453 1309 247 
Q 1469 100 1697 100 
Q 1969 100 2183 356 
Q 2397 613 2397 1088 
Q 2397 1622 2184 2012 
Q 1972 2403 1581 2403 
Q 1463 2403 1327 2353 
Q 1191 2303 925 2138 
z
" id="TimesNewRomanPSMT-36" transform="scale(0.015625)"/>
     </defs>
     <use xlink:href="#TimesNewRomanPSMT-30"/>
     <use x="50" xlink:href="#TimesNewRomanPSMT-2e"/>
     <use x="75" xlink:href="#TimesNewRomanPSMT-34"/>
     <use x="125" xlink:href="#TimesNewRomanPSMT-36"/>
    </g>
   </g>
   <g id="text_16">
    <!-- 0.93 -->
    <g transform="translate(76.995541 176.667193)scale(0.14 -0.14)">
     <defs>
      <path d="M 325 3431 
Q 506 3859 782 4092 
Q 1059 4325 1472 4325 
Q 1981 4325 2253 3994 
Q 2459 3747 2459 3466 
Q 2459 3003 1878 2509 
Q 2269 2356 2469 2072 
Q 2669 1788 2669 1403 
Q 2669 853 2319 450 
Q 1863 -75 997 -75 
Q 569 -75 414 31 
Q 259 138 259 259 
Q 259 350 332 419 
Q 406 488 509 488 
Q 588 488 669 463 
Q 722 447 909 348 
Q 1097 250 1169 231 
Q 1284 197 1416 197 
Q 1734 197 1970 444 
Q 2206 691 2206 1028 
Q 2206 1275 2097 1509 
Q 2016 1684 1919 1775 
Q 1784 1900 1550 2001 
Q 1316 2103 1072 2103 
L 972 2103 
L 972 2197 
Q 1219 2228 1467 2375 
Q 1716 2522 1828 2728 
Q 1941 2934 1941 3181 
Q 1941 3503 1739 3701 
Q 1538 3900 1238 3900 
Q 753 3900 428 3381 
L 325 3431 
z
" id="TimesNewRomanPSMT-33" transform="scale(0.015625)"/>
     </defs>
     <use xlink:href="#TimesNewRomanPSMT-30"/>
     <use x="50" xlink:href="#TimesNewRomanPSMT-2e"/>
     <use x="75" xlink:href="#TimesNewRomanPSMT-39"/>
     <use x="125" xlink:href="#TimesNewRomanPSMT-33"/>
    </g>
   </g>
   <g id="text_17">
    <!-- 0.93 -->
    <g transform="translate(565.044065 386.241869)scale(0.14 -0.14)">
     <use xlink:href="#TimesNewRomanPSMT-30"/>
     <use x="50" xlink:href="#TimesNewRomanPSMT-2e"/>
     <use x="75" xlink:href="#TimesNewRomanPSMT-39"/>
     <use x="125" xlink:href="#TimesNewRomanPSMT-33"/>
    </g>
   </g>
   <g id="text_18">
    <!-- 0.02 -->
    <g transform="translate(69.443464 123.93562)scale(0.14 -0.14)">
     <use xlink:href="#TimesNewRomanPSMT-30"/>
     <use x="50" xlink:href="#TimesNewRomanPSMT-2e"/>
     <use x="75" xlink:href="#TimesNewRomanPSMT-30"/>
     <use x="125" xlink:href="#TimesNewRomanPSMT-32"/>
    </g>
   </g>
   <g id="text_19">
    <!-- 0.86 -->
    <g transform="translate(486.289474 150.77756)scale(0.14 -0.14)">
     <use xlink:href="#TimesNewRomanPSMT-30"/>
     <use x="50" xlink:href="#TimesNewRomanPSMT-2e"/>
     <use x="75" xlink:href="#TimesNewRomanPSMT-38"/>
     <use x="125" xlink:href="#TimesNewRomanPSMT-36"/>
    </g>
   </g>
   <g id="text_20">
    <!-- 0.48 -->
    <g transform="translate(535.281556 104.30712)scale(0.14 -0.14)">
     <use xlink:href="#TimesNewRomanPSMT-30"/>
     <use x="50" xlink:href="#TimesNewRomanPSMT-2e"/>
     <use x="75" xlink:href="#TimesNewRomanPSMT-34"/>
     <use x="125" xlink:href="#TimesNewRomanPSMT-38"/>
    </g>
   </g>
   <g id="text_21">
    <!-- 0.87 -->
    <g transform="translate(272.086286 80.834038)scale(0.14 -0.14)">
     <defs>
      <path d="M 644 4238 
L 2916 4238 
L 2916 4119 
L 1503 -88 
L 1153 -88 
L 2419 3728 
L 1253 3728 
Q 900 3728 750 3644 
Q 488 3500 328 3200 
L 238 3234 
L 644 4238 
z
" id="TimesNewRomanPSMT-37" transform="scale(0.015625)"/>
     </defs>
     <use xlink:href="#TimesNewRomanPSMT-30"/>
     <use x="50" xlink:href="#TimesNewRomanPSMT-2e"/>
     <use x="75" xlink:href="#TimesNewRomanPSMT-38"/>
     <use x="125" xlink:href="#TimesNewRomanPSMT-37"/>
    </g>
   </g>
   <g id="text_22">
    <!-- 0.59 -->
    <g transform="translate(175.126511 148.733233)scale(0.14 -0.14)">
     <use xlink:href="#TimesNewRomanPSMT-30"/>
     <use x="50" xlink:href="#TimesNewRomanPSMT-2e"/>
     <use x="75" xlink:href="#TimesNewRomanPSMT-35"/>
     <use x="125" xlink:href="#TimesNewRomanPSMT-39"/>
    </g>
   </g>
   <g id="text_23">
    <!-- 0.63 -->
    <g transform="translate(147.152004 192.979221)scale(0.14 -0.14)">
     <use xlink:href="#TimesNewRomanPSMT-30"/>
     <use x="50" xlink:href="#TimesNewRomanPSMT-2e"/>
     <use x="75" xlink:href="#TimesNewRomanPSMT-36"/>
     <use x="125" xlink:href="#TimesNewRomanPSMT-33"/>
    </g>
   </g>
   <g id="text_24">
    <!-- 0.79 -->
    <g transform="translate(466.105779 178.229348)scale(0.14 -0.14)">
     <use xlink:href="#TimesNewRomanPSMT-30"/>
     <use x="50" xlink:href="#TimesNewRomanPSMT-2e"/>
     <use x="75" xlink:href="#TimesNewRomanPSMT-37"/>
     <use x="125" xlink:href="#TimesNewRomanPSMT-39"/>
    </g>
   </g>
   <g id="text_25">
    <!-- 0.22 -->
    <g transform="translate(467.36182 274.607482)scale(0.14 -0.14)">
     <use xlink:href="#TimesNewRomanPSMT-30"/>
     <use x="50" xlink:href="#TimesNewRomanPSMT-2e"/>
     <use x="75" xlink:href="#TimesNewRomanPSMT-32"/>
     <use x="125" xlink:href="#TimesNewRomanPSMT-32"/>
    </g>
   </g>
   <g id="text_26">
    <!-- 0.77 -->
    <g transform="translate(411.189003 213.991299)scale(0.14 -0.14)">
     <use xlink:href="#TimesNewRomanPSMT-30"/>
     <use x="50" xlink:href="#TimesNewRomanPSMT-2e"/>
     <use x="75" xlink:href="#TimesNewRomanPSMT-37"/>
     <use x="125" xlink:href="#TimesNewRomanPSMT-37"/>
    </g>
   </g>
   <g id="text_27">
    <!-- 0.75 -->
    <g transform="translate(547.661832 133.068742)scale(0.14 -0.14)">
     <use xlink:href="#TimesNewRomanPSMT-30"/>
     <use x="50" xlink:href="#TimesNewRomanPSMT-2e"/>
     <use x="75" xlink:href="#TimesNewRomanPSMT-37"/>
     <use x="125" xlink:href="#TimesNewRomanPSMT-35"/>
    </g>
   </g>
   <g id="text_28">
    <!-- 0.30 -->
    <g transform="translate(113.040207 156.45747)scale(0.14 -0.14)">
     <use xlink:href="#TimesNewRomanPSMT-30"/>
     <use x="50" xlink:href="#TimesNewRomanPSMT-2e"/>
     <use x="75" xlink:href="#TimesNewRomanPSMT-33"/>
     <use x="125" xlink:href="#TimesNewRomanPSMT-30"/>
    </g>
   </g>
   <g id="text_29">
    <!-- DDTM Total prize: 12.04 -->
    <g transform="translate(187.776875 23.865)scale(0.24 -0.24)">
     <defs>
      <path d="M 109 0 
L 109 116 
L 269 116 
Q 538 116 650 288 
Q 719 391 719 750 
L 719 3488 
Q 719 3884 631 3984 
Q 509 4122 269 4122 
L 109 4122 
L 109 4238 
L 1834 4238 
Q 2784 4238 3279 4022 
Q 3775 3806 4076 3303 
Q 4378 2800 4378 2141 
Q 4378 1256 3841 663 
Q 3238 0 2003 0 
L 109 0 
z
M 1319 306 
Q 1716 219 1984 219 
Q 2709 219 3187 728 
Q 3666 1238 3666 2109 
Q 3666 2988 3187 3494 
Q 2709 4000 1959 4000 
Q 1678 4000 1319 3909 
L 1319 306 
z
" id="TimesNewRomanPSMT-44" transform="scale(0.015625)"/>
      <path d="M 3703 4238 
L 3750 3244 
L 3631 3244 
Q 3597 3506 3538 3619 
Q 3441 3800 3280 3886 
Q 3119 3972 2856 3972 
L 2259 3972 
L 2259 734 
Q 2259 344 2344 247 
Q 2463 116 2709 116 
L 2856 116 
L 2856 0 
L 1059 0 
L 1059 116 
L 1209 116 
Q 1478 116 1591 278 
Q 1659 378 1659 734 
L 1659 3972 
L 1150 3972 
Q 853 3972 728 3928 
Q 566 3869 450 3700 
Q 334 3531 313 3244 
L 194 3244 
L 244 4238 
L 3703 4238 
z
" id="TimesNewRomanPSMT-54" transform="scale(0.015625)"/>
      <path d="M 2619 0 
L 981 3566 
L 981 734 
Q 981 344 1066 247 
Q 1181 116 1431 116 
L 1581 116 
L 1581 0 
L 106 0 
L 106 116 
L 256 116 
Q 525 116 638 278 
Q 706 378 706 734 
L 706 3503 
Q 706 3784 644 3909 
Q 600 4000 483 4061 
Q 366 4122 106 4122 
L 106 4238 
L 1306 4238 
L 2844 922 
L 4356 4238 
L 5556 4238 
L 5556 4122 
L 5409 4122 
Q 5138 4122 5025 3959 
Q 4956 3859 4956 3503 
L 4956 734 
Q 4956 344 5044 247 
Q 5159 116 5409 116 
L 5556 116 
L 5556 0 
L 3756 0 
L 3756 116 
L 3906 116 
Q 4178 116 4288 278 
Q 4356 378 4356 734 
L 4356 3566 
L 2722 0 
L 2619 0 
z
" id="TimesNewRomanPSMT-4d" transform="scale(0.015625)"/>
      <path id="TimesNewRomanPSMT-20" transform="scale(0.015625)"/>
      <path d="M 1600 2947 
Q 2250 2947 2644 2453 
Q 2978 2031 2978 1484 
Q 2978 1100 2793 706 
Q 2609 313 2286 112 
Q 1963 -88 1566 -88 
Q 919 -88 538 428 
Q 216 863 216 1403 
Q 216 1797 411 2186 
Q 606 2575 925 2761 
Q 1244 2947 1600 2947 
z
M 1503 2744 
Q 1338 2744 1170 2645 
Q 1003 2547 900 2300 
Q 797 2053 797 1666 
Q 797 1041 1045 587 
Q 1294 134 1700 134 
Q 2003 134 2200 384 
Q 2397 634 2397 1244 
Q 2397 2006 2069 2444 
Q 1847 2744 1503 2744 
z
" id="TimesNewRomanPSMT-6f" transform="scale(0.015625)"/>
      <path d="M 1031 3803 
L 1031 2863 
L 1700 2863 
L 1700 2644 
L 1031 2644 
L 1031 788 
Q 1031 509 1111 412 
Q 1191 316 1316 316 
Q 1419 316 1516 380 
Q 1613 444 1666 569 
L 1788 569 
Q 1678 263 1478 108 
Q 1278 -47 1066 -47 
Q 922 -47 784 33 
Q 647 113 581 261 
Q 516 409 516 719 
L 516 2644 
L 63 2644 
L 63 2747 
Q 234 2816 414 2980 
Q 594 3144 734 3369 
Q 806 3488 934 3803 
L 1031 3803 
z
" id="TimesNewRomanPSMT-74" transform="scale(0.015625)"/>
      <path d="M 1822 413 
Q 1381 72 1269 19 
Q 1100 -59 909 -59 
Q 613 -59 420 144 
Q 228 347 228 678 
Q 228 888 322 1041 
Q 450 1253 767 1440 
Q 1084 1628 1822 1897 
L 1822 2009 
Q 1822 2438 1686 2597 
Q 1550 2756 1291 2756 
Q 1094 2756 978 2650 
Q 859 2544 859 2406 
L 866 2225 
Q 866 2081 792 2003 
Q 719 1925 600 1925 
Q 484 1925 411 2006 
Q 338 2088 338 2228 
Q 338 2497 613 2722 
Q 888 2947 1384 2947 
Q 1766 2947 2009 2819 
Q 2194 2722 2281 2516 
Q 2338 2381 2338 1966 
L 2338 994 
Q 2338 584 2353 492 
Q 2369 400 2405 369 
Q 2441 338 2488 338 
Q 2538 338 2575 359 
Q 2641 400 2828 588 
L 2828 413 
Q 2478 -56 2159 -56 
Q 2006 -56 1915 50 
Q 1825 156 1822 413 
z
M 1822 616 
L 1822 1706 
Q 1350 1519 1213 1441 
Q 966 1303 859 1153 
Q 753 1003 753 825 
Q 753 600 887 451 
Q 1022 303 1197 303 
Q 1434 303 1822 616 
z
" id="TimesNewRomanPSMT-61" transform="scale(0.015625)"/>
      <path d="M 1184 4444 
L 1184 647 
Q 1184 378 1223 290 
Q 1263 203 1344 158 
Q 1425 113 1647 113 
L 1647 0 
L 244 0 
L 244 113 
Q 441 113 512 153 
Q 584 194 625 287 
Q 666 381 666 647 
L 666 3247 
Q 666 3731 644 3842 
Q 622 3953 573 3993 
Q 525 4034 450 4034 
Q 369 4034 244 3984 
L 191 4094 
L 1044 4444 
L 1184 4444 
z
" id="TimesNewRomanPSMT-6c" transform="scale(0.015625)"/>
      <path d="M -6 2578 
L 875 2934 
L 994 2934 
L 994 2266 
Q 1216 2644 1439 2795 
Q 1663 2947 1909 2947 
Q 2341 2947 2628 2609 
Q 2981 2197 2981 1534 
Q 2981 794 2556 309 
Q 2206 -88 1675 -88 
Q 1444 -88 1275 -22 
Q 1150 25 994 166 
L 994 -706 
Q 994 -1000 1030 -1079 
Q 1066 -1159 1155 -1206 
Q 1244 -1253 1478 -1253 
L 1478 -1369 
L -22 -1369 
L -22 -1253 
L 56 -1253 
Q 228 -1256 350 -1188 
Q 409 -1153 442 -1076 
Q 475 -1000 475 -688 
L 475 2019 
Q 475 2297 450 2372 
Q 425 2447 370 2484 
Q 316 2522 222 2522 
Q 147 2522 31 2478 
L -6 2578 
z
M 994 2081 
L 994 1013 
Q 994 666 1022 556 
Q 1066 375 1236 237 
Q 1406 100 1666 100 
Q 1978 100 2172 344 
Q 2425 663 2425 1241 
Q 2425 1897 2138 2250 
Q 1938 2494 1663 2494 
Q 1513 2494 1366 2419 
Q 1253 2363 994 2081 
z
" id="TimesNewRomanPSMT-70" transform="scale(0.015625)"/>
      <path d="M 1038 2947 
L 1038 2303 
Q 1397 2947 1775 2947 
Q 1947 2947 2059 2842 
Q 2172 2738 2172 2600 
Q 2172 2478 2090 2393 
Q 2009 2309 1897 2309 
Q 1788 2309 1652 2417 
Q 1516 2525 1450 2525 
Q 1394 2525 1328 2463 
Q 1188 2334 1038 2041 
L 1038 669 
Q 1038 431 1097 309 
Q 1138 225 1241 169 
Q 1344 113 1538 113 
L 1538 0 
L 72 0 
L 72 113 
Q 291 113 397 181 
Q 475 231 506 341 
Q 522 394 522 644 
L 522 1753 
Q 522 2253 501 2348 
Q 481 2444 426 2487 
Q 372 2531 291 2531 
Q 194 2531 72 2484 
L 41 2597 
L 906 2947 
L 1038 2947 
z
" id="TimesNewRomanPSMT-72" transform="scale(0.015625)"/>
      <path d="M 928 4444 
Q 1059 4444 1151 4351 
Q 1244 4259 1244 4128 
Q 1244 3997 1151 3903 
Q 1059 3809 928 3809 
Q 797 3809 703 3903 
Q 609 3997 609 4128 
Q 609 4259 701 4351 
Q 794 4444 928 4444 
z
M 1188 2947 
L 1188 647 
Q 1188 378 1227 289 
Q 1266 200 1342 156 
Q 1419 113 1622 113 
L 1622 0 
L 231 0 
L 231 113 
Q 441 113 512 153 
Q 584 194 626 287 
Q 669 381 669 647 
L 669 1750 
Q 669 2216 641 2353 
Q 619 2453 572 2492 
Q 525 2531 444 2531 
Q 356 2531 231 2484 
L 188 2597 
L 1050 2947 
L 1188 2947 
z
" id="TimesNewRomanPSMT-69" transform="scale(0.015625)"/>
      <path d="M 2688 878 
L 2653 0 
L 128 0 
L 128 113 
L 2028 2644 
L 1091 2644 
Q 788 2644 694 2605 
Q 600 2566 541 2456 
Q 456 2300 444 2069 
L 319 2069 
L 338 2863 
L 2738 2863 
L 2738 2747 
L 819 209 
L 1863 209 
Q 2191 209 2308 264 
Q 2425 319 2497 456 
Q 2547 556 2581 878 
L 2688 878 
z
" id="TimesNewRomanPSMT-7a" transform="scale(0.015625)"/>
      <path d="M 681 1784 
Q 678 1147 991 784 
Q 1303 422 1725 422 
Q 2006 422 2214 576 
Q 2422 731 2563 1106 
L 2659 1044 
Q 2594 616 2278 264 
Q 1963 -88 1488 -88 
Q 972 -88 605 314 
Q 238 716 238 1394 
Q 238 2128 614 2539 
Q 991 2950 1559 2950 
Q 2041 2950 2350 2633 
Q 2659 2316 2659 1784 
L 681 1784 
z
M 681 1966 
L 2006 1966 
Q 1991 2241 1941 2353 
Q 1863 2528 1708 2628 
Q 1553 2728 1384 2728 
Q 1125 2728 920 2526 
Q 716 2325 681 1966 
z
" id="TimesNewRomanPSMT-65" transform="scale(0.015625)"/>
      <path d="M 903 2950 
Q 1047 2950 1148 2848 
Q 1250 2747 1250 2603 
Q 1250 2459 1148 2357 
Q 1047 2256 903 2256 
Q 759 2256 657 2357 
Q 556 2459 556 2603 
Q 556 2747 657 2848 
Q 759 2950 903 2950 
z
M 897 609 
Q 1044 609 1145 506 
Q 1247 403 1247 259 
Q 1247 116 1144 14 
Q 1041 -88 897 -88 
Q 753 -88 651 14 
Q 550 116 550 259 
Q 550 403 651 506 
Q 753 609 897 609 
z
" id="TimesNewRomanPSMT-3a" transform="scale(0.015625)"/>
     </defs>
     <use xlink:href="#TimesNewRomanPSMT-44"/>
     <use x="72.216797" xlink:href="#TimesNewRomanPSMT-44"/>
     <use x="144.433594" xlink:href="#TimesNewRomanPSMT-54"/>
     <use x="205.517578" xlink:href="#TimesNewRomanPSMT-4d"/>
     <use x="294.433594" xlink:href="#TimesNewRomanPSMT-20"/>
     <use x="317.683594" xlink:href="#TimesNewRomanPSMT-54"/>
     <use x="371.767578" xlink:href="#TimesNewRomanPSMT-6f"/>
     <use x="421.767578" xlink:href="#TimesNewRomanPSMT-74"/>
     <use x="449.550781" xlink:href="#TimesNewRomanPSMT-61"/>
     <use x="493.935547" xlink:href="#TimesNewRomanPSMT-6c"/>
     <use x="521.71875" xlink:href="#TimesNewRomanPSMT-20"/>
     <use x="546.71875" xlink:href="#TimesNewRomanPSMT-70"/>
     <use x="596.71875" xlink:href="#TimesNewRomanPSMT-72"/>
     <use x="630.019531" xlink:href="#TimesNewRomanPSMT-69"/>
     <use x="657.802734" xlink:href="#TimesNewRomanPSMT-7a"/>
     <use x="702.1875" xlink:href="#TimesNewRomanPSMT-65"/>
     <use x="746.572266" xlink:href="#TimesNewRomanPSMT-3a"/>
     <use x="774.355469" xlink:href="#TimesNewRomanPSMT-20"/>
     <use x="799.355469" xlink:href="#TimesNewRomanPSMT-31"/>
     <use x="849.355469" xlink:href="#TimesNewRomanPSMT-32"/>
     <use x="899.355469" xlink:href="#TimesNewRomanPSMT-2e"/>
     <use x="924.355469" xlink:href="#TimesNewRomanPSMT-30"/>
     <use x="974.355469" xlink:href="#TimesNewRomanPSMT-34"/>
    </g>
   </g>
   <g id="legend_1">
    <g id="patch_7">
     <path d="M 42.9 456.745 
L 493.7425 456.745 
Q 496.9425 456.745 496.9425 453.545 
L 496.9425 409.9 
Q 496.9425 406.7 493.7425 406.7 
L 42.9 406.7 
Q 39.7 406.7 39.7 409.9 
L 39.7 453.545 
Q 39.7 456.745 42.9 456.745 
z
" style="fill:#ffffff;opacity:0.8;stroke:#cccccc;stroke-linejoin:miter;"/>
    </g>
    <g id="patch_8">
     <path d="M 46.1 424.3 
L 78.1 424.3 
L 78.1 413.1 
L 46.1 413.1 
z
" style="fill:#ccf900;"/>
    </g>
    <g id="text_30">
     <!-- Vehicle 0. Prizes: 4.72, Avail. fuel: 1.11, Re-planned dist: 0.99 -->
     <g transform="translate(90.9 424.3)scale(0.16 -0.16)">
      <defs>
       <path d="M 4544 4238 
L 4544 4122 
Q 4319 4081 4203 3978 
Q 4038 3825 3909 3509 
L 2431 -97 
L 2316 -97 
L 728 3556 
Q 606 3838 556 3900 
Q 478 3997 364 4051 
Q 250 4106 56 4122 
L 56 4238 
L 1788 4238 
L 1788 4122 
Q 1494 4094 1406 4022 
Q 1319 3950 1319 3838 
Q 1319 3681 1463 3350 
L 2541 866 
L 3541 3319 
Q 3688 3681 3688 3822 
Q 3688 3913 3597 3995 
Q 3506 4078 3291 4113 
Q 3275 4116 3238 4122 
L 3238 4238 
L 4544 4238 
z
" id="TimesNewRomanPSMT-56" transform="scale(0.015625)"/>
       <path d="M 1041 4444 
L 1041 2350 
Q 1388 2731 1591 2839 
Q 1794 2947 1997 2947 
Q 2241 2947 2416 2812 
Q 2591 2678 2675 2391 
Q 2734 2191 2734 1659 
L 2734 647 
Q 2734 375 2778 275 
Q 2809 200 2884 156 
Q 2959 113 3159 113 
L 3159 0 
L 1753 0 
L 1753 113 
L 1819 113 
Q 2019 113 2097 173 
Q 2175 234 2206 353 
Q 2216 403 2216 647 
L 2216 1659 
Q 2216 2128 2167 2275 
Q 2119 2422 2012 2495 
Q 1906 2569 1756 2569 
Q 1603 2569 1437 2487 
Q 1272 2406 1041 2159 
L 1041 647 
Q 1041 353 1073 281 
Q 1106 209 1195 161 
Q 1284 113 1503 113 
L 1503 0 
L 84 0 
L 84 113 
Q 275 113 384 172 
Q 447 203 484 290 
Q 522 378 522 647 
L 522 3238 
Q 522 3728 498 3840 
Q 475 3953 426 3993 
Q 378 4034 297 4034 
Q 231 4034 84 3984 
L 41 4094 
L 897 4444 
L 1041 4444 
z
" id="TimesNewRomanPSMT-68" transform="scale(0.015625)"/>
       <path d="M 2631 1088 
Q 2516 522 2178 217 
Q 1841 -88 1431 -88 
Q 944 -88 581 321 
Q 219 731 219 1428 
Q 219 2103 620 2525 
Q 1022 2947 1584 2947 
Q 2006 2947 2278 2723 
Q 2550 2500 2550 2259 
Q 2550 2141 2473 2067 
Q 2397 1994 2259 1994 
Q 2075 1994 1981 2113 
Q 1928 2178 1911 2362 
Q 1894 2547 1784 2644 
Q 1675 2738 1481 2738 
Q 1169 2738 978 2506 
Q 725 2200 725 1697 
Q 725 1184 976 792 
Q 1228 400 1656 400 
Q 1963 400 2206 609 
Q 2378 753 2541 1131 
L 2631 1088 
z
" id="TimesNewRomanPSMT-63" transform="scale(0.015625)"/>
       <path d="M 1313 1984 
L 1313 750 
Q 1313 350 1400 253 
Q 1519 116 1759 116 
L 1922 116 
L 1922 0 
L 106 0 
L 106 116 
L 266 116 
Q 534 116 650 291 
Q 713 388 713 750 
L 713 3488 
Q 713 3888 628 3984 
Q 506 4122 266 4122 
L 106 4122 
L 106 4238 
L 1659 4238 
Q 2228 4238 2556 4120 
Q 2884 4003 3109 3725 
Q 3334 3447 3334 3066 
Q 3334 2547 2992 2222 
Q 2650 1897 2025 1897 
Q 1872 1897 1694 1919 
Q 1516 1941 1313 1984 
z
M 1313 2163 
Q 1478 2131 1606 2115 
Q 1734 2100 1825 2100 
Q 2150 2100 2386 2351 
Q 2622 2603 2622 3003 
Q 2622 3278 2509 3514 
Q 2397 3750 2190 3867 
Q 1984 3984 1722 3984 
Q 1563 3984 1313 3925 
L 1313 2163 
z
" id="TimesNewRomanPSMT-50" transform="scale(0.015625)"/>
       <path d="M 2050 2947 
L 2050 1972 
L 1947 1972 
Q 1828 2431 1642 2597 
Q 1456 2763 1169 2763 
Q 950 2763 815 2647 
Q 681 2531 681 2391 
Q 681 2216 781 2091 
Q 878 1963 1175 1819 
L 1631 1597 
Q 2266 1288 2266 781 
Q 2266 391 1970 151 
Q 1675 -88 1309 -88 
Q 1047 -88 709 6 
Q 606 38 541 38 
Q 469 38 428 -44 
L 325 -44 
L 325 978 
L 428 978 
Q 516 541 762 319 
Q 1009 97 1316 97 
Q 1531 97 1667 223 
Q 1803 350 1803 528 
Q 1803 744 1651 891 
Q 1500 1038 1047 1263 
Q 594 1488 453 1669 
Q 313 1847 313 2119 
Q 313 2472 555 2709 
Q 797 2947 1181 2947 
Q 1350 2947 1591 2875 
Q 1750 2828 1803 2828 
Q 1853 2828 1881 2850 
Q 1909 2872 1947 2947 
L 2050 2947 
z
" id="TimesNewRomanPSMT-73" transform="scale(0.015625)"/>
       <path d="M 344 -1066 
L 344 -928 
Q 666 -822 842 -598 
Q 1019 -375 1019 -125 
Q 1019 -66 991 -25 
Q 969 3 947 3 
Q 913 3 797 -59 
Q 741 -88 678 -88 
Q 525 -88 434 3 
Q 344 94 344 253 
Q 344 406 461 515 
Q 578 625 747 625 
Q 953 625 1114 445 
Q 1275 266 1275 -31 
Q 1275 -353 1051 -629 
Q 828 -906 344 -1066 
z
" id="TimesNewRomanPSMT-2c" transform="scale(0.015625)"/>
       <path d="M 2928 1419 
L 1288 1419 
L 1000 750 
Q 894 503 894 381 
Q 894 284 986 211 
Q 1078 138 1384 116 
L 1384 0 
L 50 0 
L 50 116 
Q 316 163 394 238 
Q 553 388 747 847 
L 2238 4334 
L 2347 4334 
L 3822 809 
Q 4000 384 4145 257 
Q 4291 131 4550 116 
L 4550 0 
L 2878 0 
L 2878 116 
Q 3131 128 3220 200 
Q 3309 272 3309 375 
Q 3309 513 3184 809 
L 2928 1419 
z
M 2841 1650 
L 2122 3363 
L 1384 1650 
L 2841 1650 
z
" id="TimesNewRomanPSMT-41" transform="scale(0.015625)"/>
       <path d="M 53 2863 
L 1400 2863 
L 1400 2747 
L 1313 2747 
Q 1191 2747 1127 2687 
Q 1063 2628 1063 2528 
Q 1063 2419 1128 2269 
L 1794 688 
L 2463 2328 
Q 2534 2503 2534 2594 
Q 2534 2638 2509 2666 
Q 2475 2713 2422 2730 
Q 2369 2747 2206 2747 
L 2206 2863 
L 3141 2863 
L 3141 2747 
Q 2978 2734 2916 2681 
Q 2806 2588 2719 2369 
L 1703 -88 
L 1575 -88 
L 553 2328 
Q 484 2497 421 2570 
Q 359 2644 263 2694 
Q 209 2722 53 2747 
L 53 2863 
z
" id="TimesNewRomanPSMT-76" transform="scale(0.015625)"/>
       <path d="M 1319 2638 
L 1319 756 
Q 1319 356 1406 250 
Q 1522 113 1716 113 
L 1975 113 
L 1975 0 
L 266 0 
L 266 113 
L 394 113 
Q 519 113 622 175 
Q 725 238 764 344 
Q 803 450 803 756 
L 803 2638 
L 247 2638 
L 247 2863 
L 803 2863 
L 803 3050 
Q 803 3478 940 3775 
Q 1078 4072 1361 4255 
Q 1644 4438 1997 4438 
Q 2325 4438 2600 4225 
Q 2781 4084 2781 3909 
Q 2781 3816 2700 3733 
Q 2619 3650 2525 3650 
Q 2453 3650 2373 3701 
Q 2294 3753 2178 3923 
Q 2063 4094 1966 4153 
Q 1869 4213 1750 4213 
Q 1606 4213 1506 4136 
Q 1406 4059 1362 3898 
Q 1319 3738 1319 3069 
L 1319 2863 
L 2056 2863 
L 2056 2638 
L 1319 2638 
z
" id="TimesNewRomanPSMT-66" transform="scale(0.015625)"/>
       <path d="M 2709 2863 
L 2709 1128 
Q 2709 631 2732 520 
Q 2756 409 2807 365 
Q 2859 322 2928 322 
Q 3025 322 3147 375 
L 3191 266 
L 2334 -88 
L 2194 -88 
L 2194 519 
Q 1825 119 1631 15 
Q 1438 -88 1222 -88 
Q 981 -88 804 51 
Q 628 191 559 409 
Q 491 628 491 1028 
L 491 2306 
Q 491 2509 447 2587 
Q 403 2666 317 2708 
Q 231 2750 6 2747 
L 6 2863 
L 1009 2863 
L 1009 947 
Q 1009 547 1148 422 
Q 1288 297 1484 297 
Q 1619 297 1789 381 
Q 1959 466 2194 703 
L 2194 2325 
Q 2194 2569 2105 2655 
Q 2016 2741 1734 2747 
L 1734 2863 
L 2709 2863 
z
" id="TimesNewRomanPSMT-75" transform="scale(0.015625)"/>
       <path d="M 4325 0 
L 3194 0 
L 1759 1981 
Q 1600 1975 1500 1975 
Q 1459 1975 1412 1976 
Q 1366 1978 1316 1981 
L 1316 750 
Q 1316 350 1403 253 
Q 1522 116 1759 116 
L 1925 116 
L 1925 0 
L 109 0 
L 109 116 
L 269 116 
Q 538 116 653 291 
Q 719 388 719 750 
L 719 3488 
Q 719 3888 631 3984 
Q 509 4122 269 4122 
L 109 4122 
L 109 4238 
L 1653 4238 
Q 2328 4238 2648 4139 
Q 2969 4041 3192 3777 
Q 3416 3513 3416 3147 
Q 3416 2756 3161 2468 
Q 2906 2181 2372 2063 
L 3247 847 
Q 3547 428 3762 290 
Q 3978 153 4325 116 
L 4325 0 
z
M 1316 2178 
Q 1375 2178 1419 2176 
Q 1463 2175 1491 2175 
Q 2097 2175 2405 2437 
Q 2713 2700 2713 3106 
Q 2713 3503 2464 3751 
Q 2216 4000 1806 4000 
Q 1625 4000 1316 3941 
L 1316 2178 
z
" id="TimesNewRomanPSMT-52" transform="scale(0.015625)"/>
       <path d="M 259 1672 
L 1875 1672 
L 1875 1200 
L 259 1200 
L 259 1672 
z
" id="TimesNewRomanPSMT-2d" transform="scale(0.015625)"/>
       <path d="M 1034 2341 
Q 1538 2947 1994 2947 
Q 2228 2947 2397 2830 
Q 2566 2713 2666 2444 
Q 2734 2256 2734 1869 
L 2734 647 
Q 2734 375 2778 278 
Q 2813 200 2889 156 
Q 2966 113 3172 113 
L 3172 0 
L 1756 0 
L 1756 113 
L 1816 113 
Q 2016 113 2095 173 
Q 2175 234 2206 353 
Q 2219 400 2219 647 
L 2219 1819 
Q 2219 2209 2117 2386 
Q 2016 2563 1775 2563 
Q 1403 2563 1034 2156 
L 1034 647 
Q 1034 356 1069 288 
Q 1113 197 1189 155 
Q 1266 113 1500 113 
L 1500 0 
L 84 0 
L 84 113 
L 147 113 
Q 366 113 442 223 
Q 519 334 519 647 
L 519 1709 
Q 519 2225 495 2337 
Q 472 2450 423 2490 
Q 375 2531 294 2531 
Q 206 2531 84 2484 
L 38 2597 
L 900 2947 
L 1034 2947 
L 1034 2341 
z
" id="TimesNewRomanPSMT-6e" transform="scale(0.015625)"/>
       <path d="M 2222 322 
Q 2013 103 1813 7 
Q 1613 -88 1381 -88 
Q 913 -88 563 304 
Q 213 697 213 1313 
Q 213 1928 600 2439 
Q 988 2950 1597 2950 
Q 1975 2950 2222 2709 
L 2222 3238 
Q 2222 3728 2198 3840 
Q 2175 3953 2125 3993 
Q 2075 4034 2000 4034 
Q 1919 4034 1784 3984 
L 1744 4094 
L 2597 4444 
L 2738 4444 
L 2738 1134 
Q 2738 631 2761 520 
Q 2784 409 2836 365 
Q 2888 322 2956 322 
Q 3041 322 3181 375 
L 3216 266 
L 2366 -88 
L 2222 -88 
L 2222 322 
z
M 2222 541 
L 2222 2016 
Q 2203 2228 2109 2403 
Q 2016 2578 1861 2667 
Q 1706 2756 1559 2756 
Q 1284 2756 1069 2509 
Q 784 2184 784 1559 
Q 784 928 1059 592 
Q 1334 256 1672 256 
Q 1956 256 2222 541 
z
" id="TimesNewRomanPSMT-64" transform="scale(0.015625)"/>
      </defs>
      <use xlink:href="#TimesNewRomanPSMT-56"/>
      <use x="61.091797" xlink:href="#TimesNewRomanPSMT-65"/>
      <use x="105.476562" xlink:href="#TimesNewRomanPSMT-68"/>
      <use x="155.476562" xlink:href="#TimesNewRomanPSMT-69"/>
      <use x="183.259766" xlink:href="#TimesNewRomanPSMT-63"/>
      <use x="227.644531" xlink:href="#TimesNewRomanPSMT-6c"/>
      <use x="255.427734" xlink:href="#TimesNewRomanPSMT-65"/>
      <use x="299.8125" xlink:href="#TimesNewRomanPSMT-20"/>
      <use x="324.8125" xlink:href="#TimesNewRomanPSMT-30"/>
      <use x="374.8125" xlink:href="#TimesNewRomanPSMT-2e"/>
      <use x="399.8125" xlink:href="#TimesNewRomanPSMT-20"/>
      <use x="424.8125" xlink:href="#TimesNewRomanPSMT-50"/>
      <use x="480.427734" xlink:href="#TimesNewRomanPSMT-72"/>
      <use x="513.728516" xlink:href="#TimesNewRomanPSMT-69"/>
      <use x="541.511719" xlink:href="#TimesNewRomanPSMT-7a"/>
      <use x="585.896484" xlink:href="#TimesNewRomanPSMT-65"/>
      <use x="630.28125" xlink:href="#TimesNewRomanPSMT-73"/>
      <use x="669.197266" xlink:href="#TimesNewRomanPSMT-3a"/>
      <use x="696.980469" xlink:href="#TimesNewRomanPSMT-20"/>
      <use x="721.980469" xlink:href="#TimesNewRomanPSMT-34"/>
      <use x="771.980469" xlink:href="#TimesNewRomanPSMT-2e"/>
      <use x="796.980469" xlink:href="#TimesNewRomanPSMT-37"/>
      <use x="846.980469" xlink:href="#TimesNewRomanPSMT-32"/>
      <use x="896.980469" xlink:href="#TimesNewRomanPSMT-2c"/>
      <use x="921.980469" xlink:href="#TimesNewRomanPSMT-20"/>
      <use x="941.480469" xlink:href="#TimesNewRomanPSMT-41"/>
      <use x="1006.322266" xlink:href="#TimesNewRomanPSMT-76"/>
      <use x="1056.322266" xlink:href="#TimesNewRomanPSMT-61"/>
      <use x="1100.707031" xlink:href="#TimesNewRomanPSMT-69"/>
      <use x="1128.490234" xlink:href="#TimesNewRomanPSMT-6c"/>
      <use x="1156.273438" xlink:href="#TimesNewRomanPSMT-2e"/>
      <use x="1181.273438" xlink:href="#TimesNewRomanPSMT-20"/>
      <use x="1206.273438" xlink:href="#TimesNewRomanPSMT-66"/>
      <use x="1239.574219" xlink:href="#TimesNewRomanPSMT-75"/>
      <use x="1289.574219" xlink:href="#TimesNewRomanPSMT-65"/>
      <use x="1333.958984" xlink:href="#TimesNewRomanPSMT-6c"/>
      <use x="1361.742188" xlink:href="#TimesNewRomanPSMT-3a"/>
      <use x="1389.525391" xlink:href="#TimesNewRomanPSMT-20"/>
      <use x="1414.525391" xlink:href="#TimesNewRomanPSMT-31"/>
      <use x="1464.525391" xlink:href="#TimesNewRomanPSMT-2e"/>
      <use x="1489.525391" xlink:href="#TimesNewRomanPSMT-31"/>
      <use x="1535.775391" xlink:href="#TimesNewRomanPSMT-31"/>
      <use x="1585.775391" xlink:href="#TimesNewRomanPSMT-2c"/>
      <use x="1610.775391" xlink:href="#TimesNewRomanPSMT-20"/>
      <use x="1635.775391" xlink:href="#TimesNewRomanPSMT-52"/>
      <use x="1702.474609" xlink:href="#TimesNewRomanPSMT-65"/>
      <use x="1746.859375" xlink:href="#TimesNewRomanPSMT-2d"/>
      <use x="1780.160156" xlink:href="#TimesNewRomanPSMT-70"/>
      <use x="1830.160156" xlink:href="#TimesNewRomanPSMT-6c"/>
      <use x="1857.943359" xlink:href="#TimesNewRomanPSMT-61"/>
      <use x="1902.328125" xlink:href="#TimesNewRomanPSMT-6e"/>
      <use x="1952.328125" xlink:href="#TimesNewRomanPSMT-6e"/>
      <use x="2002.328125" xlink:href="#TimesNewRomanPSMT-65"/>
      <use x="2046.712891" xlink:href="#TimesNewRomanPSMT-64"/>
      <use x="2096.712891" xlink:href="#TimesNewRomanPSMT-20"/>
      <use x="2121.712891" xlink:href="#TimesNewRomanPSMT-64"/>
      <use x="2171.712891" xlink:href="#TimesNewRomanPSMT-69"/>
      <use x="2199.496094" xlink:href="#TimesNewRomanPSMT-73"/>
      <use x="2238.412109" xlink:href="#TimesNewRomanPSMT-74"/>
      <use x="2266.195312" xlink:href="#TimesNewRomanPSMT-3a"/>
      <use x="2293.978516" xlink:href="#TimesNewRomanPSMT-20"/>
      <use x="2318.978516" xlink:href="#TimesNewRomanPSMT-30"/>
      <use x="2368.978516" xlink:href="#TimesNewRomanPSMT-2e"/>
      <use x="2393.978516" xlink:href="#TimesNewRomanPSMT-39"/>
      <use x="2443.978516" xlink:href="#TimesNewRomanPSMT-39"/>
     </g>
    </g>
    <g id="patch_9">
     <path d="M 46.1 446.9225 
L 78.1 446.9225 
L 78.1 435.7225 
L 46.1 435.7225 
z
" style="fill:#00a4bb;"/>
    </g>
    <g id="text_31">
     <!-- Vehicle 1. Prizes: 7.32, Avail. fuel: 1.99, Re-planned dist: 1.91 -->
     <g transform="translate(90.9 446.9225)scale(0.16 -0.16)">
      <use xlink:href="#TimesNewRomanPSMT-56"/>
      <use x="61.091797" xlink:href="#TimesNewRomanPSMT-65"/>
      <use x="105.476562" xlink:href="#TimesNewRomanPSMT-68"/>
      <use x="155.476562" xlink:href="#TimesNewRomanPSMT-69"/>
      <use x="183.259766" xlink:href="#TimesNewRomanPSMT-63"/>
      <use x="227.644531" xlink:href="#TimesNewRomanPSMT-6c"/>
      <use x="255.427734" xlink:href="#TimesNewRomanPSMT-65"/>
      <use x="299.8125" xlink:href="#TimesNewRomanPSMT-20"/>
      <use x="324.8125" xlink:href="#TimesNewRomanPSMT-31"/>
      <use x="374.8125" xlink:href="#TimesNewRomanPSMT-2e"/>
      <use x="399.8125" xlink:href="#TimesNewRomanPSMT-20"/>
      <use x="424.8125" xlink:href="#TimesNewRomanPSMT-50"/>
      <use x="480.427734" xlink:href="#TimesNewRomanPSMT-72"/>
      <use x="513.728516" xlink:href="#TimesNewRomanPSMT-69"/>
      <use x="541.511719" xlink:href="#TimesNewRomanPSMT-7a"/>
      <use x="585.896484" xlink:href="#TimesNewRomanPSMT-65"/>
      <use x="630.28125" xlink:href="#TimesNewRomanPSMT-73"/>
      <use x="669.197266" xlink:href="#TimesNewRomanPSMT-3a"/>
      <use x="696.980469" xlink:href="#TimesNewRomanPSMT-20"/>
      <use x="721.980469" xlink:href="#TimesNewRomanPSMT-37"/>
      <use x="771.980469" xlink:href="#TimesNewRomanPSMT-2e"/>
      <use x="796.980469" xlink:href="#TimesNewRomanPSMT-33"/>
      <use x="846.980469" xlink:href="#TimesNewRomanPSMT-32"/>
      <use x="896.980469" xlink:href="#TimesNewRomanPSMT-2c"/>
      <use x="921.980469" xlink:href="#TimesNewRomanPSMT-20"/>
      <use x="941.480469" xlink:href="#TimesNewRomanPSMT-41"/>
      <use x="1006.322266" xlink:href="#TimesNewRomanPSMT-76"/>
      <use x="1056.322266" xlink:href="#TimesNewRomanPSMT-61"/>
      <use x="1100.707031" xlink:href="#TimesNewRomanPSMT-69"/>
      <use x="1128.490234" xlink:href="#TimesNewRomanPSMT-6c"/>
      <use x="1156.273438" xlink:href="#TimesNewRomanPSMT-2e"/>
      <use x="1181.273438" xlink:href="#TimesNewRomanPSMT-20"/>
      <use x="1206.273438" xlink:href="#TimesNewRomanPSMT-66"/>
      <use x="1239.574219" xlink:href="#TimesNewRomanPSMT-75"/>
      <use x="1289.574219" xlink:href="#TimesNewRomanPSMT-65"/>
      <use x="1333.958984" xlink:href="#TimesNewRomanPSMT-6c"/>
      <use x="1361.742188" xlink:href="#TimesNewRomanPSMT-3a"/>
      <use x="1389.525391" xlink:href="#TimesNewRomanPSMT-20"/>
      <use x="1414.525391" xlink:href="#TimesNewRomanPSMT-31"/>
      <use x="1464.525391" xlink:href="#TimesNewRomanPSMT-2e"/>
      <use x="1489.525391" xlink:href="#TimesNewRomanPSMT-39"/>
      <use x="1539.525391" xlink:href="#TimesNewRomanPSMT-39"/>
      <use x="1589.525391" xlink:href="#TimesNewRomanPSMT-2c"/>
      <use x="1614.525391" xlink:href="#TimesNewRomanPSMT-20"/>
      <use x="1639.525391" xlink:href="#TimesNewRomanPSMT-52"/>
      <use x="1706.224609" xlink:href="#TimesNewRomanPSMT-65"/>
      <use x="1750.609375" xlink:href="#TimesNewRomanPSMT-2d"/>
      <use x="1783.910156" xlink:href="#TimesNewRomanPSMT-70"/>
      <use x="1833.910156" xlink:href="#TimesNewRomanPSMT-6c"/>
      <use x="1861.693359" xlink:href="#TimesNewRomanPSMT-61"/>
      <use x="1906.078125" xlink:href="#TimesNewRomanPSMT-6e"/>
      <use x="1956.078125" xlink:href="#TimesNewRomanPSMT-6e"/>
      <use x="2006.078125" xlink:href="#TimesNewRomanPSMT-65"/>
      <use x="2050.462891" xlink:href="#TimesNewRomanPSMT-64"/>
      <use x="2100.462891" xlink:href="#TimesNewRomanPSMT-20"/>
      <use x="2125.462891" xlink:href="#TimesNewRomanPSMT-64"/>
      <use x="2175.462891" xlink:href="#TimesNewRomanPSMT-69"/>
      <use x="2203.246094" xlink:href="#TimesNewRomanPSMT-73"/>
      <use x="2242.162109" xlink:href="#TimesNewRomanPSMT-74"/>
      <use x="2269.945312" xlink:href="#TimesNewRomanPSMT-3a"/>
      <use x="2297.728516" xlink:href="#TimesNewRomanPSMT-20"/>
      <use x="2322.728516" xlink:href="#TimesNewRomanPSMT-31"/>
      <use x="2372.728516" xlink:href="#TimesNewRomanPSMT-2e"/>
      <use x="2397.728516" xlink:href="#TimesNewRomanPSMT-39"/>
      <use x="2447.728516" xlink:href="#TimesNewRomanPSMT-31"/>
     </g>
    </g>
   </g>
  </g>
  <g id="axes_2">
   <g id="patch_10">
    <path d="M 701.3 464.745 
L 1259.3 464.745 
L 1259.3 29.865 
L 701.3 29.865 
z
" style="fill:#ffffff;"/>
   </g>
   <g id="Quiver_3">
    <path clip-path="url(#p2175733204)" d="M 798.072467 104.357802 
L 824.165634 98.169279 
L 821.163847 94.580121 
L 842.972703 95.859348 
L 824.061148 106.796245 
L 825.131401 102.24132 
L 799.038234 108.429843 
L 798.072467 104.357802 
" style="fill:#ccf900;"/>
    <path clip-path="url(#p2175733204)" d="M 842.762555 93.777428 
L 918.009325 86.182059 
L 915.507108 82.228365 
L 936.95676 86.372648 
L 916.767996 94.71989 
L 918.429621 90.3459 
L 843.182851 97.941269 
L 842.762555 93.777428 
" style="fill:#ccf900;"/>
    <path clip-path="url(#p2175733204)" d="M 937.350501 84.317526 
L 1097.849038 115.067498 
L 1096.5814 110.563514 
L 1115.951389 120.666293 
L 1094.218951 122.894243 
L 1097.061556 119.177741 
L 936.563018 88.427769 
L 937.350501 84.317526 
" style="fill:#ccf900;"/>
    <path clip-path="url(#p2175733204)" d="M 1115.954364 118.573795 
L 1193.702799 118.684304 
L 1191.61625 114.496334 
L 1212.532306 120.80357 
L 1191.598405 127.051321 
L 1193.696851 122.8693 
L 1115.948415 122.758791 
L 1115.954364 118.573795 
" style="fill:#ccf900;"/>
    <path clip-path="url(#p2175733204)" d="M 1211.436522 122.041597 
L 1210.198495 120.945813 
L 1209.244954 124.517653 
L 1200.15203 109.84573 
L 1215.819658 117.089487 
L 1212.390063 118.469758 
L 1213.62809 119.565542 
L 1211.436522 122.041597 
" style="fill:#ccf900;"/>
    <path clip-path="url(#p2175733204)" d="M 1201.592064 111.363906 
L 1166.263562 144.874035 
L 1170.661807 146.470352 
L 1151.159948 156.31617 
L 1162.0216 137.361299 
L 1163.383494 141.837684 
L 1198.711995 108.327555 
L 1201.592064 111.363906 
" style="fill:#ccf900;"/>
    <path clip-path="url(#p2175733204)" d="M 1152.062383 158.20407 
L 1148.86979 159.730161 
L 1152.562561 162.603526 
L 1130.976253 165.964176 
L 1147.14795 151.276125 
L 1147.06492 155.95436 
L 1150.257513 154.428269 
L 1152.062383 158.20407 
" style="fill:#ccf900;"/>
    <path clip-path="url(#p2175733204)" d="M 1133.057671 166.179249 
L 1132.77962 168.870139 
L 1137.157529 167.218869 
L 1128.762541 187.387825 
L 1124.669023 165.928428 
L 1128.616785 168.439992 
L 1128.894835 165.749102 
L 1133.057671 166.179249 
" style="fill:#ccf900;"/>
   </g>
   <g id="Quiver_4">
    <path clip-path="url(#p2175733204)" d="M 894.198424 133.719834 
L 858.165627 148.892058 
L 861.718205 151.93705 
L 839.996985 154.271843 
L 856.846007 140.365977 
L 856.541561 145.035034 
L 892.574358 129.86281 
L 894.198424 133.719834 
" style="fill:#00a4bb;"/>
    <path clip-path="url(#p2175733204)" d="M 840.255324 156.348334 
L 796.857444 161.747521 
L 799.450613 165.642165 
L 777.910681 161.99608 
L 797.900579 153.183215 
L 796.340766 157.594537 
L 839.738646 152.195351 
L 840.255324 156.348334 
" style="fill:#00a4bb;"/>
    <path clip-path="url(#p2175733204)" d="M 778.934036 163.821265 
L 759.316036 174.820794 
L 763.187931 177.447809 
L 741.866015 182.205803 
L 757.047802 166.496698 
L 757.269326 171.170423 
L 776.887326 160.170895 
L 778.934036 163.821265 
" style="fill:#00a4bb;"/>
    <path clip-path="url(#p2175733204)" d="M 743.358783 180.739448 
L 855.639359 295.042515 
L 857.15854 290.617036 
L 867.343788 309.943788 
L 848.201929 299.415168 
L 852.653821 297.975226 
L 740.373246 183.672158 
L 743.358783 180.739448 
" style="fill:#00a4bb;"/>
    <path clip-path="url(#p2175733204)" d="M 867.277185 307.852348 
L 899.901817 306.813397 
L 897.677171 302.697121 
L 918.791378 308.305408 
L 898.07679 315.245759 
L 900.035023 310.996276 
L 867.410392 312.035228 
L 867.277185 307.852348 
" style="fill:#00a4bb;"/>
    <path clip-path="url(#p2175733204)" d="M 919.677738 306.409908 
L 997.882612 342.979516 
L 997.759833 338.302155 
L 1014.055755 352.85226 
L 992.44167 349.675157 
L 996.109892 346.770516 
L 917.905018 310.200908 
L 919.677738 306.409908 
" style="fill:#00a4bb;"/>
    <path clip-path="url(#p2175733204)" d="M 1014.006714 350.760335 
L 1068.40496 349.48507 
L 1066.214952 345.350261 
L 1087.281328 351.135624 
L 1066.509199 357.901813 
L 1068.503042 353.668921 
L 1014.104796 354.944185 
L 1014.006714 350.760335 
" style="fill:#00a4bb;"/>
    <path clip-path="url(#p2175733204)" d="M 1087.852687 349.12264 
L 1212.933874 384.625266 
L 1212.063607 380.027939 
L 1230.479373 391.780478 
L 1208.635455 392.105844 
L 1211.791157 388.651234 
L 1086.709969 353.148609 
L 1087.852687 349.12264 
" style="fill:#00a4bb;"/>
    <path clip-path="url(#p2175733204)" d="M 1228.908567 393.162912 
L 1143.103392 295.665784 
L 1141.344213 300.001458 
L 1132.232294 280.146092 
L 1150.769052 291.706855 
L 1146.245005 292.900916 
L 1232.05018 390.398045 
L 1228.908567 393.162912 
" style="fill:#00a4bb;"/>
    <path clip-path="url(#p2175733204)" d="M 1130.69749 281.56839 
L 1087.325355 234.765446 
L 1085.678045 239.144846 
L 1076.059476 219.529909 
L 1094.886871 230.611058 
L 1090.394964 231.920849 
L 1133.767098 278.723794 
L 1130.69749 281.56839 
" style="fill:#00a4bb;"/>
    <path clip-path="url(#p2175733204)" d="M 1074.969955 217.743432 
L 1111.594727 195.407037 
L 1107.629208 192.923604 
L 1128.762541 187.387825 
L 1114.166334 203.642466 
L 1113.773769 198.979991 
L 1077.148997 221.316386 
L 1074.969955 217.743432 
" style="fill:#00a4bb;"/>
   </g>
   <g id="matplotlib.axis_3">
    <g id="xtick_4">
     <g id="line2d_10">
      <g>
       <use style="stroke:#000000;stroke-width:0.8;" x="701.3" xlink:href="#mc85ff694a2" y="464.745"/>
      </g>
     </g>
     <g id="text_32">
      <!-- 0.0 -->
      <g transform="translate(692.55 481.46625)scale(0.14 -0.14)">
       <use xlink:href="#TimesNewRomanPSMT-30"/>
       <use x="50" xlink:href="#TimesNewRomanPSMT-2e"/>
       <use x="75" xlink:href="#TimesNewRomanPSMT-30"/>
      </g>
     </g>
    </g>
    <g id="xtick_5">
     <g id="line2d_11">
      <g>
       <use style="stroke:#000000;stroke-width:0.8;" x="980.3" xlink:href="#mc85ff694a2" y="464.745"/>
      </g>
     </g>
     <g id="text_33">
      <!-- 0.5 -->
      <g transform="translate(971.55 481.46625)scale(0.14 -0.14)">
       <use xlink:href="#TimesNewRomanPSMT-30"/>
       <use x="50" xlink:href="#TimesNewRomanPSMT-2e"/>
       <use x="75" xlink:href="#TimesNewRomanPSMT-35"/>
      </g>
     </g>
    </g>
    <g id="xtick_6">
     <g id="line2d_12">
      <g>
       <use style="stroke:#000000;stroke-width:0.8;" x="1259.3" xlink:href="#mc85ff694a2" y="464.745"/>
      </g>
     </g>
     <g id="text_34">
      <!-- 1.0 -->
      <g transform="translate(1250.55 481.46625)scale(0.14 -0.14)">
       <use xlink:href="#TimesNewRomanPSMT-31"/>
       <use x="50" xlink:href="#TimesNewRomanPSMT-2e"/>
       <use x="75" xlink:href="#TimesNewRomanPSMT-30"/>
      </g>
     </g>
    </g>
   </g>
   <g id="matplotlib.axis_4">
    <g id="ytick_4">
     <g id="line2d_13">
      <g>
       <use style="stroke:#000000;stroke-width:0.8;" x="701.3" xlink:href="#m120789f4c1" y="464.745"/>
      </g>
     </g>
     <g id="text_35">
      <!-- 0.0 -->
      <g transform="translate(676.8 469.605625)scale(0.14 -0.14)">
       <use xlink:href="#TimesNewRomanPSMT-30"/>
       <use x="50" xlink:href="#TimesNewRomanPSMT-2e"/>
       <use x="75" xlink:href="#TimesNewRomanPSMT-30"/>
      </g>
     </g>
    </g>
    <g id="ytick_5">
     <g id="line2d_14">
      <g>
       <use style="stroke:#000000;stroke-width:0.8;" x="701.3" xlink:href="#m120789f4c1" y="247.305"/>
      </g>
     </g>
     <g id="text_36">
      <!-- 0.5 -->
      <g transform="translate(676.8 252.165625)scale(0.14 -0.14)">
       <use xlink:href="#TimesNewRomanPSMT-30"/>
       <use x="50" xlink:href="#TimesNewRomanPSMT-2e"/>
       <use x="75" xlink:href="#TimesNewRomanPSMT-35"/>
      </g>
     </g>
    </g>
    <g id="ytick_6">
     <g id="line2d_15">
      <g>
       <use style="stroke:#000000;stroke-width:0.8;" x="701.3" xlink:href="#m120789f4c1" y="29.865"/>
      </g>
     </g>
     <g id="text_37">
      <!-- 1.0 -->
      <g transform="translate(676.8 34.725625)scale(0.14 -0.14)">
       <use xlink:href="#TimesNewRomanPSMT-31"/>
       <use x="50" xlink:href="#TimesNewRomanPSMT-2e"/>
       <use x="75" xlink:href="#TimesNewRomanPSMT-30"/>
      </g>
     </g>
    </g>
   </g>
   <g id="line2d_16">
    <g clip-path="url(#p2175733204)">
     <use style="stroke:#000000;stroke-linejoin:miter;" x="1128.762541" xlink:href="#m1b5518f89d" y="187.387825"/>
    </g>
   </g>
   <g id="line2d_17">
    <g clip-path="url(#p2175733204)">
     <use style="fill:#0000ff;stroke:#0000ff;stroke-linejoin:miter;" x="1087.281328" xlink:href="#mf0230d69f0" y="351.135624"/>
     <use style="fill:#0000ff;stroke:#0000ff;stroke-linejoin:miter;" x="918.791378" xlink:href="#mf0230d69f0" y="308.305408"/>
     <use style="fill:#0000ff;stroke:#0000ff;stroke-linejoin:miter;" x="1014.055755" xlink:href="#mf0230d69f0" y="352.85226"/>
     <use style="fill:#0000ff;stroke:#0000ff;stroke-linejoin:miter;" x="1115.951389" xlink:href="#mf0230d69f0" y="120.666293"/>
     <use style="fill:#0000ff;stroke:#0000ff;stroke-linejoin:miter;" x="867.343788" xlink:href="#mf0230d69f0" y="309.943788"/>
     <use style="fill:#0000ff;stroke:#0000ff;stroke-linejoin:miter;" x="784.284877" xlink:href="#mf0230d69f0" y="368.064284"/>
     <use style="fill:#0000ff;stroke:#0000ff;stroke-linejoin:miter;" x="842.972703" xlink:href="#mf0230d69f0" y="95.859348"/>
     <use style="fill:#0000ff;stroke:#0000ff;stroke-linejoin:miter;" x="741.866015" xlink:href="#mf0230d69f0" y="182.205803"/>
     <use style="fill:#0000ff;stroke:#0000ff;stroke-linejoin:miter;" x="1230.479373" xlink:href="#mf0230d69f0" y="391.780478"/>
     <use style="fill:#0000ff;stroke:#0000ff;stroke-linejoin:miter;" x="734.313937" xlink:href="#mf0230d69f0" y="129.47423"/>
     <use style="fill:#0000ff;stroke:#0000ff;stroke-linejoin:miter;" x="1151.159948" xlink:href="#mf0230d69f0" y="156.31617"/>
     <use style="fill:#0000ff;stroke:#0000ff;stroke-linejoin:miter;" x="1200.15203" xlink:href="#mf0230d69f0" y="109.84573"/>
     <use style="fill:#0000ff;stroke:#0000ff;stroke-linejoin:miter;" x="936.95676" xlink:href="#mf0230d69f0" y="86.372648"/>
     <use style="fill:#0000ff;stroke:#0000ff;stroke-linejoin:miter;" x="839.996985" xlink:href="#mf0230d69f0" y="154.271843"/>
     <use style="fill:#0000ff;stroke:#0000ff;stroke-linejoin:miter;" x="812.022478" xlink:href="#mf0230d69f0" y="198.517831"/>
     <use style="fill:#0000ff;stroke:#0000ff;stroke-linejoin:miter;" x="1130.976253" xlink:href="#mf0230d69f0" y="165.964176"/>
     <use style="fill:#0000ff;stroke:#0000ff;stroke-linejoin:miter;" x="1132.232294" xlink:href="#mf0230d69f0" y="280.146092"/>
     <use style="fill:#0000ff;stroke:#0000ff;stroke-linejoin:miter;" x="1076.059476" xlink:href="#mf0230d69f0" y="219.529909"/>
     <use style="fill:#0000ff;stroke:#0000ff;stroke-linejoin:miter;" x="1212.532306" xlink:href="#mf0230d69f0" y="120.80357"/>
     <use style="fill:#0000ff;stroke:#0000ff;stroke-linejoin:miter;" x="777.910681" xlink:href="#mf0230d69f0" y="161.99608"/>
    </g>
   </g>
   <g id="line2d_18">
    <g clip-path="url(#p2175733204)">
     <use style="fill:#ff0000;stroke:#ff0000;stroke-linejoin:miter;" x="798.555351" xlink:href="#m29898190a9" y="106.393822"/>
     <use style="fill:#ff0000;stroke:#ff0000;stroke-linejoin:miter;" x="893.386391" xlink:href="#m29898190a9" y="131.791322"/>
    </g>
   </g>
   <g id="patch_11">
    <path d="M 701.3 464.745 
L 701.3 29.865 
" style="fill:none;stroke:#000000;stroke-linecap:square;stroke-linejoin:miter;stroke-width:0.8;"/>
   </g>
   <g id="patch_12">
    <path d="M 1259.3 464.745 
L 1259.3 29.865 
" style="fill:none;stroke:#000000;stroke-linecap:square;stroke-linejoin:miter;stroke-width:0.8;"/>
   </g>
   <g id="patch_13">
    <path d="M 701.3 464.745 
L 1259.3 464.745 
" style="fill:none;stroke:#000000;stroke-linecap:square;stroke-linejoin:miter;stroke-width:0.8;"/>
   </g>
   <g id="patch_14">
    <path d="M 701.3 29.865 
L 1259.3 29.865 
" style="fill:none;stroke:#000000;stroke-linecap:square;stroke-linejoin:miter;stroke-width:0.8;"/>
   </g>
   <g id="text_38">
    <!-- 1.11 -->
    <g transform="translate(803.183571 100.855212)scale(0.14 -0.14)">
     <use xlink:href="#TimesNewRomanPSMT-31"/>
     <use x="50" xlink:href="#TimesNewRomanPSMT-2e"/>
     <use x="75" xlink:href="#TimesNewRomanPSMT-31"/>
     <use x="121.25" xlink:href="#TimesNewRomanPSMT-31"/>
    </g>
   </g>
   <g id="text_39">
    <!-- 1.99 -->
    <g transform="translate(898.115917 126.252712)scale(0.14 -0.14)">
     <use xlink:href="#TimesNewRomanPSMT-31"/>
     <use x="50" xlink:href="#TimesNewRomanPSMT-2e"/>
     <use x="75" xlink:href="#TimesNewRomanPSMT-39"/>
     <use x="125" xlink:href="#TimesNewRomanPSMT-39"/>
    </g>
   </g>
   <g id="text_40">
    <!-- 0.95 -->
    <g transform="translate(1092.010854 345.597015)scale(0.14 -0.14)">
     <use xlink:href="#TimesNewRomanPSMT-30"/>
     <use x="50" xlink:href="#TimesNewRomanPSMT-2e"/>
     <use x="75" xlink:href="#TimesNewRomanPSMT-39"/>
     <use x="125" xlink:href="#TimesNewRomanPSMT-35"/>
    </g>
   </g>
   <g id="text_41">
    <!-- 0.98 -->
    <g transform="translate(923.520904 302.766798)scale(0.14 -0.14)">
     <use xlink:href="#TimesNewRomanPSMT-30"/>
     <use x="50" xlink:href="#TimesNewRomanPSMT-2e"/>
     <use x="75" xlink:href="#TimesNewRomanPSMT-39"/>
     <use x="125" xlink:href="#TimesNewRomanPSMT-38"/>
    </g>
   </g>
   <g id="text_42">
    <!-- 0.95 -->
    <g transform="translate(1018.785281 347.31365)scale(0.14 -0.14)">
     <use xlink:href="#TimesNewRomanPSMT-30"/>
     <use x="50" xlink:href="#TimesNewRomanPSMT-2e"/>
     <use x="75" xlink:href="#TimesNewRomanPSMT-39"/>
     <use x="125" xlink:href="#TimesNewRomanPSMT-35"/>
    </g>
   </g>
   <g id="text_43">
    <!-- 0.51 -->
    <g transform="translate(1120.680916 115.127683)scale(0.14 -0.14)">
     <use xlink:href="#TimesNewRomanPSMT-30"/>
     <use x="50" xlink:href="#TimesNewRomanPSMT-2e"/>
     <use x="75" xlink:href="#TimesNewRomanPSMT-35"/>
     <use x="125" xlink:href="#TimesNewRomanPSMT-31"/>
    </g>
   </g>
   <g id="text_44">
    <!-- 0.84 -->
    <g transform="translate(872.073315 304.405178)scale(0.14 -0.14)">
     <use xlink:href="#TimesNewRomanPSMT-30"/>
     <use x="50" xlink:href="#TimesNewRomanPSMT-2e"/>
     <use x="75" xlink:href="#TimesNewRomanPSMT-38"/>
     <use x="125" xlink:href="#TimesNewRomanPSMT-34"/>
    </g>
   </g>
   <g id="text_45">
    <!-- 0.25 -->
    <g transform="translate(789.014403 362.525674)scale(0.14 -0.14)">
     <use xlink:href="#TimesNewRomanPSMT-30"/>
     <use x="50" xlink:href="#TimesNewRomanPSMT-2e"/>
     <use x="75" xlink:href="#TimesNewRomanPSMT-32"/>
     <use x="125" xlink:href="#TimesNewRomanPSMT-35"/>
    </g>
   </g>
   <g id="text_46">
    <!-- 0.46 -->
    <g transform="translate(847.702229 90.320738)scale(0.14 -0.14)">
     <use xlink:href="#TimesNewRomanPSMT-30"/>
     <use x="50" xlink:href="#TimesNewRomanPSMT-2e"/>
     <use x="75" xlink:href="#TimesNewRomanPSMT-34"/>
     <use x="125" xlink:href="#TimesNewRomanPSMT-36"/>
    </g>
   </g>
   <g id="text_47">
    <!-- 0.93 -->
    <g transform="translate(746.595541 176.667193)scale(0.14 -0.14)">
     <use xlink:href="#TimesNewRomanPSMT-30"/>
     <use x="50" xlink:href="#TimesNewRomanPSMT-2e"/>
     <use x="75" xlink:href="#TimesNewRomanPSMT-39"/>
     <use x="125" xlink:href="#TimesNewRomanPSMT-33"/>
    </g>
   </g>
   <g id="text_48">
    <!-- 0.93 -->
    <g transform="translate(1234.644065 386.241869)scale(0.14 -0.14)">
     <use xlink:href="#TimesNewRomanPSMT-30"/>
     <use x="50" xlink:href="#TimesNewRomanPSMT-2e"/>
     <use x="75" xlink:href="#TimesNewRomanPSMT-39"/>
     <use x="125" xlink:href="#TimesNewRomanPSMT-33"/>
    </g>
   </g>
   <g id="text_49">
    <!-- 0.02 -->
    <g transform="translate(739.043464 123.93562)scale(0.14 -0.14)">
     <use xlink:href="#TimesNewRomanPSMT-30"/>
     <use x="50" xlink:href="#TimesNewRomanPSMT-2e"/>
     <use x="75" xlink:href="#TimesNewRomanPSMT-30"/>
     <use x="125" xlink:href="#TimesNewRomanPSMT-32"/>
    </g>
   </g>
   <g id="text_50">
    <!-- 0.86 -->
    <g transform="translate(1155.889474 150.77756)scale(0.14 -0.14)">
     <use xlink:href="#TimesNewRomanPSMT-30"/>
     <use x="50" xlink:href="#TimesNewRomanPSMT-2e"/>
     <use x="75" xlink:href="#TimesNewRomanPSMT-38"/>
     <use x="125" xlink:href="#TimesNewRomanPSMT-36"/>
    </g>
   </g>
   <g id="text_51">
    <!-- 0.48 -->
    <g transform="translate(1204.881556 104.30712)scale(0.14 -0.14)">
     <use xlink:href="#TimesNewRomanPSMT-30"/>
     <use x="50" xlink:href="#TimesNewRomanPSMT-2e"/>
     <use x="75" xlink:href="#TimesNewRomanPSMT-34"/>
     <use x="125" xlink:href="#TimesNewRomanPSMT-38"/>
    </g>
   </g>
   <g id="text_52">
    <!-- 0.87 -->
    <g transform="translate(941.686286 80.834038)scale(0.14 -0.14)">
     <use xlink:href="#TimesNewRomanPSMT-30"/>
     <use x="50" xlink:href="#TimesNewRomanPSMT-2e"/>
     <use x="75" xlink:href="#TimesNewRomanPSMT-38"/>
     <use x="125" xlink:href="#TimesNewRomanPSMT-37"/>
    </g>
   </g>
   <g id="text_53">
    <!-- 0.59 -->
    <g transform="translate(844.726511 148.733233)scale(0.14 -0.14)">
     <use xlink:href="#TimesNewRomanPSMT-30"/>
     <use x="50" xlink:href="#TimesNewRomanPSMT-2e"/>
     <use x="75" xlink:href="#TimesNewRomanPSMT-35"/>
     <use x="125" xlink:href="#TimesNewRomanPSMT-39"/>
    </g>
   </g>
   <g id="text_54">
    <!-- 0.63 -->
    <g transform="translate(816.752004 192.979221)scale(0.14 -0.14)">
     <use xlink:href="#TimesNewRomanPSMT-30"/>
     <use x="50" xlink:href="#TimesNewRomanPSMT-2e"/>
     <use x="75" xlink:href="#TimesNewRomanPSMT-36"/>
     <use x="125" xlink:href="#TimesNewRomanPSMT-33"/>
    </g>
   </g>
   <g id="text_55">
    <!-- 0.79 -->
    <g transform="translate(1135.705779 178.229348)scale(0.14 -0.14)">
     <use xlink:href="#TimesNewRomanPSMT-30"/>
     <use x="50" xlink:href="#TimesNewRomanPSMT-2e"/>
     <use x="75" xlink:href="#TimesNewRomanPSMT-37"/>
     <use x="125" xlink:href="#TimesNewRomanPSMT-39"/>
    </g>
   </g>
   <g id="text_56">
    <!-- 0.22 -->
    <g transform="translate(1136.96182 274.607482)scale(0.14 -0.14)">
     <use xlink:href="#TimesNewRomanPSMT-30"/>
     <use x="50" xlink:href="#TimesNewRomanPSMT-2e"/>
     <use x="75" xlink:href="#TimesNewRomanPSMT-32"/>
     <use x="125" xlink:href="#TimesNewRomanPSMT-32"/>
    </g>
   </g>
   <g id="text_57">
    <!-- 0.77 -->
    <g transform="translate(1080.789003 213.991299)scale(0.14 -0.14)">
     <use xlink:href="#TimesNewRomanPSMT-30"/>
     <use x="50" xlink:href="#TimesNewRomanPSMT-2e"/>
     <use x="75" xlink:href="#TimesNewRomanPSMT-37"/>
     <use x="125" xlink:href="#TimesNewRomanPSMT-37"/>
    </g>
   </g>
   <g id="text_58">
    <!-- 0.75 -->
    <g transform="translate(1217.261832 133.068742)scale(0.14 -0.14)">
     <use xlink:href="#TimesNewRomanPSMT-30"/>
     <use x="50" xlink:href="#TimesNewRomanPSMT-2e"/>
     <use x="75" xlink:href="#TimesNewRomanPSMT-37"/>
     <use x="125" xlink:href="#TimesNewRomanPSMT-35"/>
    </g>
   </g>
   <g id="text_59">
    <!-- 0.30 -->
    <g transform="translate(782.640207 156.45747)scale(0.14 -0.14)">
     <use xlink:href="#TimesNewRomanPSMT-30"/>
     <use x="50" xlink:href="#TimesNewRomanPSMT-2e"/>
     <use x="75" xlink:href="#TimesNewRomanPSMT-33"/>
     <use x="125" xlink:href="#TimesNewRomanPSMT-30"/>
    </g>
   </g>
   <g id="text_60">
    <!-- MILP Total prize: 12.18 -->
    <g transform="translate(864.490625 23.865)scale(0.24 -0.24)">
     <defs>
      <path d="M 1975 116 
L 1975 0 
L 159 0 
L 159 116 
L 309 116 
Q 572 116 691 269 
Q 766 369 766 750 
L 766 3488 
Q 766 3809 725 3913 
Q 694 3991 597 4047 
Q 459 4122 309 4122 
L 159 4122 
L 159 4238 
L 1975 4238 
L 1975 4122 
L 1822 4122 
Q 1563 4122 1444 3969 
Q 1366 3869 1366 3488 
L 1366 750 
Q 1366 428 1406 325 
Q 1438 247 1538 191 
Q 1672 116 1822 116 
L 1975 116 
z
" id="TimesNewRomanPSMT-49" transform="scale(0.015625)"/>
      <path d="M 3669 1172 
L 3772 1150 
L 3409 0 
L 128 0 
L 128 116 
L 288 116 
Q 556 116 672 291 
Q 738 391 738 753 
L 738 3488 
Q 738 3884 650 3984 
Q 528 4122 288 4122 
L 128 4122 
L 128 4238 
L 2047 4238 
L 2047 4122 
Q 1709 4125 1573 4059 
Q 1438 3994 1388 3894 
Q 1338 3794 1338 3416 
L 1338 753 
Q 1338 494 1388 397 
Q 1425 331 1503 300 
Q 1581 269 1991 269 
L 2300 269 
Q 2788 269 2984 341 
Q 3181 413 3343 595 
Q 3506 778 3669 1172 
z
" id="TimesNewRomanPSMT-4c" transform="scale(0.015625)"/>
     </defs>
     <use xlink:href="#TimesNewRomanPSMT-4d"/>
     <use x="88.916016" xlink:href="#TimesNewRomanPSMT-49"/>
     <use x="122.216797" xlink:href="#TimesNewRomanPSMT-4c"/>
     <use x="183.300781" xlink:href="#TimesNewRomanPSMT-50"/>
     <use x="235.166016" xlink:href="#TimesNewRomanPSMT-20"/>
     <use x="258.416016" xlink:href="#TimesNewRomanPSMT-54"/>
     <use x="312.5" xlink:href="#TimesNewRomanPSMT-6f"/>
     <use x="362.5" xlink:href="#TimesNewRomanPSMT-74"/>
     <use x="390.283203" xlink:href="#TimesNewRomanPSMT-61"/>
     <use x="434.667969" xlink:href="#TimesNewRomanPSMT-6c"/>
     <use x="462.451172" xlink:href="#TimesNewRomanPSMT-20"/>
     <use x="487.451172" xlink:href="#TimesNewRomanPSMT-70"/>
     <use x="537.451172" xlink:href="#TimesNewRomanPSMT-72"/>
     <use x="570.751953" xlink:href="#TimesNewRomanPSMT-69"/>
     <use x="598.535156" xlink:href="#TimesNewRomanPSMT-7a"/>
     <use x="642.919922" xlink:href="#TimesNewRomanPSMT-65"/>
     <use x="687.304688" xlink:href="#TimesNewRomanPSMT-3a"/>
     <use x="715.087891" xlink:href="#TimesNewRomanPSMT-20"/>
     <use x="740.087891" xlink:href="#TimesNewRomanPSMT-31"/>
     <use x="790.087891" xlink:href="#TimesNewRomanPSMT-32"/>
     <use x="840.087891" xlink:href="#TimesNewRomanPSMT-2e"/>
     <use x="865.087891" xlink:href="#TimesNewRomanPSMT-31"/>
     <use x="915.087891" xlink:href="#TimesNewRomanPSMT-38"/>
    </g>
   </g>
   <g id="legend_2">
    <g id="patch_15">
     <path d="M 712.5 456.745 
L 1163.3425 456.745 
Q 1166.5425 456.745 1166.5425 453.545 
L 1166.5425 409.9 
Q 1166.5425 406.7 1163.3425 406.7 
L 712.5 406.7 
Q 709.3 406.7 709.3 409.9 
L 709.3 453.545 
Q 709.3 456.745 712.5 456.745 
z
" style="fill:#ffffff;opacity:0.8;stroke:#cccccc;stroke-linejoin:miter;"/>
    </g>
    <g id="patch_16">
     <path d="M 715.7 424.3 
L 747.7 424.3 
L 747.7 413.1 
L 715.7 413.1 
z
" style="fill:#ccf900;"/>
    </g>
    <g id="text_61">
     <!-- Vehicle 0. Prizes: 4.72, Avail. fuel: 1.11, Re-planned dist: 1.01 -->
     <g transform="translate(760.5 424.3)scale(0.16 -0.16)">
      <use xlink:href="#TimesNewRomanPSMT-56"/>
      <use x="61.091797" xlink:href="#TimesNewRomanPSMT-65"/>
      <use x="105.476562" xlink:href="#TimesNewRomanPSMT-68"/>
      <use x="155.476562" xlink:href="#TimesNewRomanPSMT-69"/>
      <use x="183.259766" xlink:href="#TimesNewRomanPSMT-63"/>
      <use x="227.644531" xlink:href="#TimesNewRomanPSMT-6c"/>
      <use x="255.427734" xlink:href="#TimesNewRomanPSMT-65"/>
      <use x="299.8125" xlink:href="#TimesNewRomanPSMT-20"/>
      <use x="324.8125" xlink:href="#TimesNewRomanPSMT-30"/>
      <use x="374.8125" xlink:href="#TimesNewRomanPSMT-2e"/>
      <use x="399.8125" xlink:href="#TimesNewRomanPSMT-20"/>
      <use x="424.8125" xlink:href="#TimesNewRomanPSMT-50"/>
      <use x="480.427734" xlink:href="#TimesNewRomanPSMT-72"/>
      <use x="513.728516" xlink:href="#TimesNewRomanPSMT-69"/>
      <use x="541.511719" xlink:href="#TimesNewRomanPSMT-7a"/>
      <use x="585.896484" xlink:href="#TimesNewRomanPSMT-65"/>
      <use x="630.28125" xlink:href="#TimesNewRomanPSMT-73"/>
      <use x="669.197266" xlink:href="#TimesNewRomanPSMT-3a"/>
      <use x="696.980469" xlink:href="#TimesNewRomanPSMT-20"/>
      <use x="721.980469" xlink:href="#TimesNewRomanPSMT-34"/>
      <use x="771.980469" xlink:href="#TimesNewRomanPSMT-2e"/>
      <use x="796.980469" xlink:href="#TimesNewRomanPSMT-37"/>
      <use x="846.980469" xlink:href="#TimesNewRomanPSMT-32"/>
      <use x="896.980469" xlink:href="#TimesNewRomanPSMT-2c"/>
      <use x="921.980469" xlink:href="#TimesNewRomanPSMT-20"/>
      <use x="941.480469" xlink:href="#TimesNewRomanPSMT-41"/>
      <use x="1006.322266" xlink:href="#TimesNewRomanPSMT-76"/>
      <use x="1056.322266" xlink:href="#TimesNewRomanPSMT-61"/>
      <use x="1100.707031" xlink:href="#TimesNewRomanPSMT-69"/>
      <use x="1128.490234" xlink:href="#TimesNewRomanPSMT-6c"/>
      <use x="1156.273438" xlink:href="#TimesNewRomanPSMT-2e"/>
      <use x="1181.273438" xlink:href="#TimesNewRomanPSMT-20"/>
      <use x="1206.273438" xlink:href="#TimesNewRomanPSMT-66"/>
      <use x="1239.574219" xlink:href="#TimesNewRomanPSMT-75"/>
      <use x="1289.574219" xlink:href="#TimesNewRomanPSMT-65"/>
      <use x="1333.958984" xlink:href="#TimesNewRomanPSMT-6c"/>
      <use x="1361.742188" xlink:href="#TimesNewRomanPSMT-3a"/>
      <use x="1389.525391" xlink:href="#TimesNewRomanPSMT-20"/>
      <use x="1414.525391" xlink:href="#TimesNewRomanPSMT-31"/>
      <use x="1464.525391" xlink:href="#TimesNewRomanPSMT-2e"/>
      <use x="1489.525391" xlink:href="#TimesNewRomanPSMT-31"/>
      <use x="1535.775391" xlink:href="#TimesNewRomanPSMT-31"/>
      <use x="1585.775391" xlink:href="#TimesNewRomanPSMT-2c"/>
      <use x="1610.775391" xlink:href="#TimesNewRomanPSMT-20"/>
      <use x="1635.775391" xlink:href="#TimesNewRomanPSMT-52"/>
      <use x="1702.474609" xlink:href="#TimesNewRomanPSMT-65"/>
      <use x="1746.859375" xlink:href="#TimesNewRomanPSMT-2d"/>
      <use x="1780.160156" xlink:href="#TimesNewRomanPSMT-70"/>
      <use x="1830.160156" xlink:href="#TimesNewRomanPSMT-6c"/>
      <use x="1857.943359" xlink:href="#TimesNewRomanPSMT-61"/>
      <use x="1902.328125" xlink:href="#TimesNewRomanPSMT-6e"/>
      <use x="1952.328125" xlink:href="#TimesNewRomanPSMT-6e"/>
      <use x="2002.328125" xlink:href="#TimesNewRomanPSMT-65"/>
      <use x="2046.712891" xlink:href="#TimesNewRomanPSMT-64"/>
      <use x="2096.712891" xlink:href="#TimesNewRomanPSMT-20"/>
      <use x="2121.712891" xlink:href="#TimesNewRomanPSMT-64"/>
      <use x="2171.712891" xlink:href="#TimesNewRomanPSMT-69"/>
      <use x="2199.496094" xlink:href="#TimesNewRomanPSMT-73"/>
      <use x="2238.412109" xlink:href="#TimesNewRomanPSMT-74"/>
      <use x="2266.195312" xlink:href="#TimesNewRomanPSMT-3a"/>
      <use x="2293.978516" xlink:href="#TimesNewRomanPSMT-20"/>
      <use x="2318.978516" xlink:href="#TimesNewRomanPSMT-31"/>
      <use x="2368.978516" xlink:href="#TimesNewRomanPSMT-2e"/>
      <use x="2393.978516" xlink:href="#TimesNewRomanPSMT-30"/>
      <use x="2443.978516" xlink:href="#TimesNewRomanPSMT-31"/>
     </g>
    </g>
    <g id="patch_17">
     <path d="M 715.7 446.9225 
L 747.7 446.9225 
L 747.7 435.7225 
L 715.7 435.7225 
z
" style="fill:#00a4bb;"/>
    </g>
    <g id="text_62">
     <!-- Vehicle 1. Prizes: 7.46, Avail. fuel: 1.99, Re-planned dist: 1.89 -->
     <g transform="translate(760.5 446.9225)scale(0.16 -0.16)">
      <use xlink:href="#TimesNewRomanPSMT-56"/>
      <use x="61.091797" xlink:href="#TimesNewRomanPSMT-65"/>
      <use x="105.476562" xlink:href="#TimesNewRomanPSMT-68"/>
      <use x="155.476562" xlink:href="#TimesNewRomanPSMT-69"/>
      <use x="183.259766" xlink:href="#TimesNewRomanPSMT-63"/>
      <use x="227.644531" xlink:href="#TimesNewRomanPSMT-6c"/>
      <use x="255.427734" xlink:href="#TimesNewRomanPSMT-65"/>
      <use x="299.8125" xlink:href="#TimesNewRomanPSMT-20"/>
      <use x="324.8125" xlink:href="#TimesNewRomanPSMT-31"/>
      <use x="374.8125" xlink:href="#TimesNewRomanPSMT-2e"/>
      <use x="399.8125" xlink:href="#TimesNewRomanPSMT-20"/>
      <use x="424.8125" xlink:href="#TimesNewRomanPSMT-50"/>
      <use x="480.427734" xlink:href="#TimesNewRomanPSMT-72"/>
      <use x="513.728516" xlink:href="#TimesNewRomanPSMT-69"/>
      <use x="541.511719" xlink:href="#TimesNewRomanPSMT-7a"/>
      <use x="585.896484" xlink:href="#TimesNewRomanPSMT-65"/>
      <use x="630.28125" xlink:href="#TimesNewRomanPSMT-73"/>
      <use x="669.197266" xlink:href="#TimesNewRomanPSMT-3a"/>
      <use x="696.980469" xlink:href="#TimesNewRomanPSMT-20"/>
      <use x="721.980469" xlink:href="#TimesNewRomanPSMT-37"/>
      <use x="771.980469" xlink:href="#TimesNewRomanPSMT-2e"/>
      <use x="796.980469" xlink:href="#TimesNewRomanPSMT-34"/>
      <use x="846.980469" xlink:href="#TimesNewRomanPSMT-36"/>
      <use x="896.980469" xlink:href="#TimesNewRomanPSMT-2c"/>
      <use x="921.980469" xlink:href="#TimesNewRomanPSMT-20"/>
      <use x="941.480469" xlink:href="#TimesNewRomanPSMT-41"/>
      <use x="1006.322266" xlink:href="#TimesNewRomanPSMT-76"/>
      <use x="1056.322266" xlink:href="#TimesNewRomanPSMT-61"/>
      <use x="1100.707031" xlink:href="#TimesNewRomanPSMT-69"/>
      <use x="1128.490234" xlink:href="#TimesNewRomanPSMT-6c"/>
      <use x="1156.273438" xlink:href="#TimesNewRomanPSMT-2e"/>
      <use x="1181.273438" xlink:href="#TimesNewRomanPSMT-20"/>
      <use x="1206.273438" xlink:href="#TimesNewRomanPSMT-66"/>
      <use x="1239.574219" xlink:href="#TimesNewRomanPSMT-75"/>
      <use x="1289.574219" xlink:href="#TimesNewRomanPSMT-65"/>
      <use x="1333.958984" xlink:href="#TimesNewRomanPSMT-6c"/>
      <use x="1361.742188" xlink:href="#TimesNewRomanPSMT-3a"/>
      <use x="1389.525391" xlink:href="#TimesNewRomanPSMT-20"/>
      <use x="1414.525391" xlink:href="#TimesNewRomanPSMT-31"/>
      <use x="1464.525391" xlink:href="#TimesNewRomanPSMT-2e"/>
      <use x="1489.525391" xlink:href="#TimesNewRomanPSMT-39"/>
      <use x="1539.525391" xlink:href="#TimesNewRomanPSMT-39"/>
      <use x="1589.525391" xlink:href="#TimesNewRomanPSMT-2c"/>
      <use x="1614.525391" xlink:href="#TimesNewRomanPSMT-20"/>
      <use x="1639.525391" xlink:href="#TimesNewRomanPSMT-52"/>
      <use x="1706.224609" xlink:href="#TimesNewRomanPSMT-65"/>
      <use x="1750.609375" xlink:href="#TimesNewRomanPSMT-2d"/>
      <use x="1783.910156" xlink:href="#TimesNewRomanPSMT-70"/>
      <use x="1833.910156" xlink:href="#TimesNewRomanPSMT-6c"/>
      <use x="1861.693359" xlink:href="#TimesNewRomanPSMT-61"/>
      <use x="1906.078125" xlink:href="#TimesNewRomanPSMT-6e"/>
      <use x="1956.078125" xlink:href="#TimesNewRomanPSMT-6e"/>
      <use x="2006.078125" xlink:href="#TimesNewRomanPSMT-65"/>
      <use x="2050.462891" xlink:href="#TimesNewRomanPSMT-64"/>
      <use x="2100.462891" xlink:href="#TimesNewRomanPSMT-20"/>
      <use x="2125.462891" xlink:href="#TimesNewRomanPSMT-64"/>
      <use x="2175.462891" xlink:href="#TimesNewRomanPSMT-69"/>
      <use x="2203.246094" xlink:href="#TimesNewRomanPSMT-73"/>
      <use x="2242.162109" xlink:href="#TimesNewRomanPSMT-74"/>
      <use x="2269.945312" xlink:href="#TimesNewRomanPSMT-3a"/>
      <use x="2297.728516" xlink:href="#TimesNewRomanPSMT-20"/>
      <use x="2322.728516" xlink:href="#TimesNewRomanPSMT-31"/>
      <use x="2372.728516" xlink:href="#TimesNewRomanPSMT-2e"/>
      <use x="2397.728516" xlink:href="#TimesNewRomanPSMT-38"/>
      <use x="2447.728516" xlink:href="#TimesNewRomanPSMT-39"/>
     </g>
    </g>
   </g>
  </g>
 </g>
 <defs>
  <clipPath id="p1d543f772f">
   <rect height="434.88" width="558" x="31.7" y="29.865"/>
  </clipPath>
  <clipPath id="p2175733204">
   <rect height="434.88" width="558" x="701.3" y="29.865"/>
  </clipPath>
 </defs>
</svg>
