<?xml version="1.0" encoding="utf-8" standalone="no"?>
<!DOCTYPE svg PUBLIC "-//W3C//DTD SVG 1.1//EN"
  "http://www.w3.org/Graphics/SVG/1.1/DTD/svg11.dtd">
<svg height="491.660937pt" version="1.1" viewBox="0 0 1275.25 491.660937" width="1275.25pt" xmlns="http://www.w3.org/2000/svg" xmlns:xlink="http://www.w3.org/1999/xlink">
 <metadata>
  <rdf:RDF xmlns:cc="http://creativecommons.org/ns#" xmlns:dc="http://purl.org/dc/elements/1.1/" xmlns:rdf="http://www.w3.org/1999/02/22-rdf-syntax-ns#">
   <cc:Work>
    <dc:type rdf:resource="http://purl.org/dc/dcmitype/StillImage"/>
    <dc:date>2022-06-22T13:39:37.530282</dc:date>
    <dc:format>image/svg+xml</dc:format>
    <dc:creator>
     <cc:Agent>
      <dc:title>Matplotlib v3.4.3, https://matplotlib.org/</dc:title>
     </cc:Agent>
    </dc:creator>
   </cc:Work>
  </rdf:RDF>
 </metadata>
 <defs>
  <style type="text/css">*{stroke-linecap:butt;stroke-linejoin:round;}</style>
 </defs>
 <g id="figure_1">
  <g id="patch_1">
   <path d="M 0 491.660937 
L 1275.25 491.660937 
L 1275.25 0 
L 0 0 
z
" style="fill:#ffffff;"/>
  </g>
  <g id="axes_1">
   <g id="patch_2">
    <path d="M 31.7 464.745 
L 589.7 464.745 
L 589.7 29.865 
L 31.7 29.865 
z
" style="fill:#ffffff;"/>
   </g>
   <g id="Quiver_1">
    <path clip-path="url(#pbba23968ce)" d="M 274.143395 159.715891 
L 305.114403 248.099183 
L 308.371944 244.740433 
L 309.367562 266.564075 
L 296.523344 248.892384 
L 301.164869 249.483167 
L 270.193862 161.099874 
L 274.143395 159.715891 
" style="fill:#ccf900;"/>
    <path clip-path="url(#pbba23968ce)" d="M 309.825492 264.522298 
L 338.063229 270.85546 
L 336.937312 266.313975 
L 355.981298 277.018609 
L 334.189731 278.564641 
L 337.147369 274.939016 
L 308.909632 268.605853 
L 309.825492 264.522298 
" style="fill:#ccf900;"/>
    <path clip-path="url(#pbba23968ce)" d="M 357.594134 275.685449 
L 395.732996 321.825247 
L 397.625509 317.546091 
L 406.118601 337.673933 
L 387.948492 325.545051 
L 392.507324 324.491567 
L 354.368462 278.351769 
L 357.594134 275.685449 
" style="fill:#ccf900;"/>
    <path clip-path="url(#pbba23968ce)" d="M 408.208544 337.777347 
L 405.481571 392.887851 
L 409.764872 391.004736 
L 402.460899 411.593923 
L 397.225214 390.38425 
L 401.301685 392.681022 
L 404.028658 337.570518 
L 408.208544 337.777347 
" style="fill:#ccf900;"/>
    <path clip-path="url(#pbba23968ce)" d="M 403.862319 410.040032 
L 424.647865 428.786057 
L 425.896814 424.276855 
L 437.231465 442.95273 
L 417.488293 433.600202 
L 421.845024 431.89384 
L 401.059479 413.147815 
L 403.862319 410.040032 
" style="fill:#ccf900;"/>
    <path clip-path="url(#pbba23968ce)" d="M 438.080723 444.865141 
L 409.808774 457.420079 
L 413.419703 460.395642 
L 391.747816 463.150996 
L 408.32415 448.921176 
L 408.110257 453.595257 
L 436.382206 441.040319 
L 438.080723 444.865141 
" style="fill:#ccf900;"/>
    <path clip-path="url(#pbba23968ce)" d="M 390.182651 464.539813 
L 372.874041 445.033402 
L 371.132527 449.376202 
L 361.939851 429.558096 
L 380.52352 441.043299 
L 376.004372 442.255768 
L 393.312982 461.762179 
L 390.182651 464.539813 
" style="fill:#ccf900;"/>
    <path clip-path="url(#pbba23968ce)" d="M 361.076243 431.46407 
L 224.195422 369.442535 
L 224.374179 374.118091 
L 207.905264 359.764085 
L 229.555829 362.682248 
L 225.922638 365.630587 
L 362.80346 427.652122 
L 361.076243 431.46407 
" style="fill:#ccf900;"/>
    <path clip-path="url(#pbba23968ce)" d="M 205.864872 359.300023 
L 226.069445 270.46431 
L 221.524597 271.576579 
L 232.286394 252.564837 
L 233.766954 274.36095 
L 230.15023 271.392434 
L 209.945657 360.228147 
L 205.864872 359.300023 
" style="fill:#ccf900;"/>
    <path clip-path="url(#pbba23968ce)" d="M 230.627735 253.840535 
L 185.614984 195.315103 
L 183.573365 199.525159 
L 175.792357 179.111473 
L 193.525319 191.870968 
L 188.932302 192.763706 
L 233.945053 251.289138 
L 230.627735 253.840535 
" style="fill:#ccf900;"/>
    <path clip-path="url(#pbba23968ce)" d="M 175.173601 181.110397 
L 78.246 151.106984 
L 79.007412 155.723588 
L 60.87444 143.539255 
L 82.719948 143.730044 
L 79.483512 147.109136 
L 176.411113 177.112549 
L 175.173601 181.110397 
" style="fill:#ccf900;"/>
   </g>
   <g id="Quiver_2">
    <path clip-path="url(#pbba23968ce)" d="M 357.33452 295.173266 
L 483.782659 239.342031 
L 480.178065 236.358797 
L 501.85576 233.649524 
L 485.249211 247.844071 
L 485.473041 243.170455 
L 359.024902 299.001691 
L 357.33452 295.173266 
" style="fill:#00a4bb;"/>
    <path clip-path="url(#pbba23968ce)" d="M 501.136034 235.614352 
L 240.750119 140.233688 
L 241.275494 144.883071 
L 223.786391 131.791322 
L 245.593853 133.094101 
L 242.189572 136.304032 
L 502.575486 231.684696 
L 501.136034 235.614352 
" style="fill:#00a4bb;"/>
    <path clip-path="url(#pbba23968ce)" d="M 221.984344 132.854893 
L 184.628115 69.560896 
L 182.087593 73.490085 
L 176.858021 52.278904 
L 192.899873 67.108658 
L 188.232209 67.433754 
L 225.588438 130.727751 
L 221.984344 132.854893 
" style="fill:#00a4bb;"/>
    <path clip-path="url(#pbba23968ce)" d="M 178.42484 53.665856 
L 143.004737 93.679407 
L 147.525326 94.886493 
L 128.955351 106.393822 
L 138.124415 86.564781 
L 139.8711 90.905503 
L 175.291203 50.891952 
L 178.42484 53.665856 
" style="fill:#00a4bb;"/>
    <path clip-path="url(#pbba23968ce)" d="M 129.957565 108.230701 
L 78.408562 136.356207 
L 82.249869 139.02775 
L 60.87444 143.539255 
L 76.236584 128.006478 
L 76.404133 132.68245 
L 127.953137 104.556944 
L 129.957565 108.230701 
" style="fill:#00a4bb;"/>
   </g>
   <g id="matplotlib.axis_1">
    <g id="xtick_1">
     <g id="line2d_1">
      <defs>
       <path d="M 0 0 
L 0 3.5 
" id="mc2f9670a5e" style="stroke:#000000;stroke-width:0.8;"/>
      </defs>
      <g>
       <use style="stroke:#000000;stroke-width:0.8;" x="31.7" xlink:href="#mc2f9670a5e" y="464.745"/>
      </g>
     </g>
     <g id="text_1">
      <!-- 0.0 -->
      <g transform="translate(22.95 481.46625)scale(0.14 -0.14)">
       <defs>
        <path d="M 231 2094 
Q 231 2819 450 3342 
Q 669 3866 1031 4122 
Q 1313 4325 1613 4325 
Q 2100 4325 2488 3828 
Q 2972 3213 2972 2159 
Q 2972 1422 2759 906 
Q 2547 391 2217 158 
Q 1888 -75 1581 -75 
Q 975 -75 572 641 
Q 231 1244 231 2094 
z
M 844 2016 
Q 844 1141 1059 588 
Q 1238 122 1591 122 
Q 1759 122 1940 273 
Q 2122 425 2216 781 
Q 2359 1319 2359 2297 
Q 2359 3022 2209 3506 
Q 2097 3866 1919 4016 
Q 1791 4119 1609 4119 
Q 1397 4119 1231 3928 
Q 1006 3669 925 3112 
Q 844 2556 844 2016 
z
" id="TimesNewRomanPSMT-30" transform="scale(0.015625)"/>
        <path d="M 800 606 
Q 947 606 1047 504 
Q 1147 403 1147 259 
Q 1147 116 1045 14 
Q 944 -88 800 -88 
Q 656 -88 554 14 
Q 453 116 453 259 
Q 453 406 554 506 
Q 656 606 800 606 
z
" id="TimesNewRomanPSMT-2e" transform="scale(0.015625)"/>
       </defs>
       <use xlink:href="#TimesNewRomanPSMT-30"/>
       <use x="50" xlink:href="#TimesNewRomanPSMT-2e"/>
       <use x="75" xlink:href="#TimesNewRomanPSMT-30"/>
      </g>
     </g>
    </g>
    <g id="xtick_2">
     <g id="line2d_2">
      <g>
       <use style="stroke:#000000;stroke-width:0.8;" x="310.7" xlink:href="#mc2f9670a5e" y="464.745"/>
      </g>
     </g>
     <g id="text_2">
      <!-- 0.5 -->
      <g transform="translate(301.95 481.46625)scale(0.14 -0.14)">
       <defs>
        <path d="M 2778 4238 
L 2534 3706 
L 1259 3706 
L 981 3138 
Q 1809 3016 2294 2522 
Q 2709 2097 2709 1522 
Q 2709 1188 2573 903 
Q 2438 619 2231 419 
Q 2025 219 1772 97 
Q 1413 -75 1034 -75 
Q 653 -75 479 54 
Q 306 184 306 341 
Q 306 428 378 495 
Q 450 563 559 563 
Q 641 563 702 538 
Q 763 513 909 409 
Q 1144 247 1384 247 
Q 1750 247 2026 523 
Q 2303 800 2303 1197 
Q 2303 1581 2056 1914 
Q 1809 2247 1375 2428 
Q 1034 2569 447 2591 
L 1259 4238 
L 2778 4238 
z
" id="TimesNewRomanPSMT-35" transform="scale(0.015625)"/>
       </defs>
       <use xlink:href="#TimesNewRomanPSMT-30"/>
       <use x="50" xlink:href="#TimesNewRomanPSMT-2e"/>
       <use x="75" xlink:href="#TimesNewRomanPSMT-35"/>
      </g>
     </g>
    </g>
    <g id="xtick_3">
     <g id="line2d_3">
      <g>
       <use style="stroke:#000000;stroke-width:0.8;" x="589.7" xlink:href="#mc2f9670a5e" y="464.745"/>
      </g>
     </g>
     <g id="text_3">
      <!-- 1.0 -->
      <g transform="translate(580.95 481.46625)scale(0.14 -0.14)">
       <defs>
        <path d="M 750 3822 
L 1781 4325 
L 1884 4325 
L 1884 747 
Q 1884 391 1914 303 
Q 1944 216 2037 169 
Q 2131 122 2419 116 
L 2419 0 
L 825 0 
L 825 116 
Q 1125 122 1212 167 
Q 1300 213 1334 289 
Q 1369 366 1369 747 
L 1369 3034 
Q 1369 3497 1338 3628 
Q 1316 3728 1258 3775 
Q 1200 3822 1119 3822 
Q 1003 3822 797 3725 
L 750 3822 
z
" id="TimesNewRomanPSMT-31" transform="scale(0.015625)"/>
       </defs>
       <use xlink:href="#TimesNewRomanPSMT-31"/>
       <use x="50" xlink:href="#TimesNewRomanPSMT-2e"/>
       <use x="75" xlink:href="#TimesNewRomanPSMT-30"/>
      </g>
     </g>
    </g>
   </g>
   <g id="matplotlib.axis_2">
    <g id="ytick_1">
     <g id="line2d_4">
      <defs>
       <path d="M 0 0 
L -3.5 0 
" id="m52a26e36bb" style="stroke:#000000;stroke-width:0.8;"/>
      </defs>
      <g>
       <use style="stroke:#000000;stroke-width:0.8;" x="31.7" xlink:href="#m52a26e36bb" y="464.745"/>
      </g>
     </g>
     <g id="text_4">
      <!-- 0.0 -->
      <g transform="translate(7.2 469.605625)scale(0.14 -0.14)">
       <use xlink:href="#TimesNewRomanPSMT-30"/>
       <use x="50" xlink:href="#TimesNewRomanPSMT-2e"/>
       <use x="75" xlink:href="#TimesNewRomanPSMT-30"/>
      </g>
     </g>
    </g>
    <g id="ytick_2">
     <g id="line2d_5">
      <g>
       <use style="stroke:#000000;stroke-width:0.8;" x="31.7" xlink:href="#m52a26e36bb" y="247.305"/>
      </g>
     </g>
     <g id="text_5">
      <!-- 0.5 -->
      <g transform="translate(7.2 252.165625)scale(0.14 -0.14)">
       <use xlink:href="#TimesNewRomanPSMT-30"/>
       <use x="50" xlink:href="#TimesNewRomanPSMT-2e"/>
       <use x="75" xlink:href="#TimesNewRomanPSMT-35"/>
      </g>
     </g>
    </g>
    <g id="ytick_3">
     <g id="line2d_6">
      <g>
       <use style="stroke:#000000;stroke-width:0.8;" x="31.7" xlink:href="#m52a26e36bb" y="29.865"/>
      </g>
     </g>
     <g id="text_6">
      <!-- 1.0 -->
      <g transform="translate(7.2 34.725625)scale(0.14 -0.14)">
       <use xlink:href="#TimesNewRomanPSMT-31"/>
       <use x="50" xlink:href="#TimesNewRomanPSMT-2e"/>
       <use x="75" xlink:href="#TimesNewRomanPSMT-30"/>
      </g>
     </g>
    </g>
   </g>
   <g id="line2d_7">
    <defs>
     <path d="M -10 10 
L 10 10 
L 10 -10 
L -10 -10 
z
" id="m6ffb40cc3c" style="stroke:#000000;stroke-linejoin:miter;"/>
    </defs>
    <g clip-path="url(#pbba23968ce)">
     <use style="stroke:#000000;stroke-linejoin:miter;" x="60.87444" xlink:href="#m6ffb40cc3c" y="143.539255"/>
    </g>
   </g>
   <g id="line2d_8">
    <defs>
     <path d="M -5 5 
L 5 5 
L 5 -5 
L -5 -5 
z
" id="m22eaebb948" style="stroke:#0000ff;stroke-linejoin:miter;"/>
    </defs>
    <g clip-path="url(#pbba23968ce)">
     <use style="fill:#0000ff;stroke:#0000ff;stroke-linejoin:miter;" x="175.792357" xlink:href="#m22eaebb948" y="179.111473"/>
     <use style="fill:#0000ff;stroke:#0000ff;stroke-linejoin:miter;" x="207.905264" xlink:href="#m22eaebb948" y="359.764085"/>
     <use style="fill:#0000ff;stroke:#0000ff;stroke-linejoin:miter;" x="165.819495" xlink:href="#m22eaebb948" y="409.139502"/>
     <use style="fill:#0000ff;stroke:#0000ff;stroke-linejoin:miter;" x="546.086461" xlink:href="#m22eaebb948" y="320.947534"/>
     <use style="fill:#0000ff;stroke:#0000ff;stroke-linejoin:miter;" x="232.286394" xlink:href="#m22eaebb948" y="252.564837"/>
     <use style="fill:#0000ff;stroke:#0000ff;stroke-linejoin:miter;" x="128.955351" xlink:href="#m22eaebb948" y="106.393822"/>
     <use style="fill:#0000ff;stroke:#0000ff;stroke-linejoin:miter;" x="223.786391" xlink:href="#m22eaebb948" y="131.791322"/>
     <use style="fill:#0000ff;stroke:#0000ff;stroke-linejoin:miter;" x="391.747816" xlink:href="#m22eaebb948" y="463.150996"/>
     <use style="fill:#0000ff;stroke:#0000ff;stroke-linejoin:miter;" x="54.174469" xlink:href="#m22eaebb948" y="459.236556"/>
     <use style="fill:#0000ff;stroke:#0000ff;stroke-linejoin:miter;" x="561.07291" xlink:href="#m22eaebb948" y="48.973423"/>
     <use style="fill:#0000ff;stroke:#0000ff;stroke-linejoin:miter;" x="406.118601" xlink:href="#m22eaebb948" y="337.673933"/>
     <use style="fill:#0000ff;stroke:#0000ff;stroke-linejoin:miter;" x="402.460899" xlink:href="#m22eaebb948" y="411.593923"/>
     <use style="fill:#0000ff;stroke:#0000ff;stroke-linejoin:miter;" x="355.981298" xlink:href="#m22eaebb948" y="277.018609"/>
     <use style="fill:#0000ff;stroke:#0000ff;stroke-linejoin:miter;" x="501.85576" xlink:href="#m22eaebb948" y="233.649524"/>
     <use style="fill:#0000ff;stroke:#0000ff;stroke-linejoin:miter;" x="309.367562" xlink:href="#m22eaebb948" y="266.564075"/>
     <use style="fill:#0000ff;stroke:#0000ff;stroke-linejoin:miter;" x="578.514168" xlink:href="#m22eaebb948" y="399.369668"/>
     <use style="fill:#0000ff;stroke:#0000ff;stroke-linejoin:miter;" x="437.231465" xlink:href="#m22eaebb948" y="442.95273"/>
     <use style="fill:#0000ff;stroke:#0000ff;stroke-linejoin:miter;" x="361.939851" xlink:href="#m22eaebb948" y="429.558096"/>
     <use style="fill:#0000ff;stroke:#0000ff;stroke-linejoin:miter;" x="446.245924" xlink:href="#m22eaebb948" y="52.734697"/>
     <use style="fill:#0000ff;stroke:#0000ff;stroke-linejoin:miter;" x="176.858021" xlink:href="#m22eaebb948" y="52.278904"/>
    </g>
   </g>
   <g id="line2d_9">
    <defs>
     <path d="M -5 5 
L 5 5 
L 5 -5 
L -5 -5 
z
" id="m054ffee610" style="stroke:#ff0000;stroke-linejoin:miter;"/>
    </defs>
    <g clip-path="url(#pbba23968ce)">
     <use style="fill:#ff0000;stroke:#ff0000;stroke-linejoin:miter;" x="272.168629" xlink:href="#m054ffee610" y="160.407882"/>
     <use style="fill:#ff0000;stroke:#ff0000;stroke-linejoin:miter;" x="358.179711" xlink:href="#m054ffee610" y="297.087478"/>
    </g>
   </g>
   <g id="patch_3">
    <path d="M 31.7 464.745 
L 31.7 29.865 
" style="fill:none;stroke:#000000;stroke-linecap:square;stroke-linejoin:miter;stroke-width:0.8;"/>
   </g>
   <g id="patch_4">
    <path d="M 589.7 464.745 
L 589.7 29.865 
" style="fill:none;stroke:#000000;stroke-linecap:square;stroke-linejoin:miter;stroke-width:0.8;"/>
   </g>
   <g id="patch_5">
    <path d="M 31.7 464.745 
L 589.7 464.745 
" style="fill:none;stroke:#000000;stroke-linecap:square;stroke-linejoin:miter;stroke-width:0.8;"/>
   </g>
   <g id="patch_6">
    <path d="M 31.7 29.865 
L 589.7 29.865 
" style="fill:none;stroke:#000000;stroke-linecap:square;stroke-linejoin:miter;stroke-width:0.8;"/>
   </g>
   <g id="text_7">
    <!-- 1.97 -->
    <g transform="translate(276.898155 154.869273)scale(0.14 -0.14)">
     <defs>
      <path d="M 338 -88 
L 338 28 
Q 744 34 1094 217 
Q 1444 400 1770 856 
Q 2097 1313 2225 1859 
Q 1734 1544 1338 1544 
Q 891 1544 572 1889 
Q 253 2234 253 2806 
Q 253 3363 572 3797 
Q 956 4325 1575 4325 
Q 2097 4325 2469 3894 
Q 2925 3359 2925 2575 
Q 2925 1869 2578 1258 
Q 2231 647 1613 244 
Q 1109 -88 516 -88 
L 338 -88 
z
M 2275 2091 
Q 2331 2497 2331 2741 
Q 2331 3044 2228 3395 
Q 2125 3747 1936 3934 
Q 1747 4122 1506 4122 
Q 1228 4122 1018 3872 
Q 809 3622 809 3128 
Q 809 2469 1088 2097 
Q 1291 1828 1588 1828 
Q 1731 1828 1928 1897 
Q 2125 1966 2275 2091 
z
" id="TimesNewRomanPSMT-39" transform="scale(0.015625)"/>
      <path d="M 644 4238 
L 2916 4238 
L 2916 4119 
L 1503 -88 
L 1153 -88 
L 2419 3728 
L 1253 3728 
Q 900 3728 750 3644 
Q 488 3500 328 3200 
L 238 3234 
L 644 4238 
z
" id="TimesNewRomanPSMT-37" transform="scale(0.015625)"/>
     </defs>
     <use xlink:href="#TimesNewRomanPSMT-31"/>
     <use x="50" xlink:href="#TimesNewRomanPSMT-2e"/>
     <use x="75" xlink:href="#TimesNewRomanPSMT-39"/>
     <use x="125" xlink:href="#TimesNewRomanPSMT-37"/>
    </g>
   </g>
   <g id="text_8">
    <!-- 1.44 -->
    <g transform="translate(362.909237 291.548869)scale(0.14 -0.14)">
     <defs>
      <path d="M 2978 1563 
L 2978 1119 
L 2409 1119 
L 2409 0 
L 1894 0 
L 1894 1119 
L 100 1119 
L 100 1519 
L 2066 4325 
L 2409 4325 
L 2409 1563 
L 2978 1563 
z
M 1894 1563 
L 1894 3666 
L 406 1563 
L 1894 1563 
z
" id="TimesNewRomanPSMT-34" transform="scale(0.015625)"/>
     </defs>
     <use xlink:href="#TimesNewRomanPSMT-31"/>
     <use x="50" xlink:href="#TimesNewRomanPSMT-2e"/>
     <use x="75" xlink:href="#TimesNewRomanPSMT-34"/>
     <use x="125" xlink:href="#TimesNewRomanPSMT-34"/>
    </g>
   </g>
   <g id="text_9">
    <!-- DDTM Total prize: 14.00 -->
    <g transform="translate(187.776875 23.865)scale(0.24 -0.24)">
     <defs>
      <path d="M 109 0 
L 109 116 
L 269 116 
Q 538 116 650 288 
Q 719 391 719 750 
L 719 3488 
Q 719 3884 631 3984 
Q 509 4122 269 4122 
L 109 4122 
L 109 4238 
L 1834 4238 
Q 2784 4238 3279 4022 
Q 3775 3806 4076 3303 
Q 4378 2800 4378 2141 
Q 4378 1256 3841 663 
Q 3238 0 2003 0 
L 109 0 
z
M 1319 306 
Q 1716 219 1984 219 
Q 2709 219 3187 728 
Q 3666 1238 3666 2109 
Q 3666 2988 3187 3494 
Q 2709 4000 1959 4000 
Q 1678 4000 1319 3909 
L 1319 306 
z
" id="TimesNewRomanPSMT-44" transform="scale(0.015625)"/>
      <path d="M 3703 4238 
L 3750 3244 
L 3631 3244 
Q 3597 3506 3538 3619 
Q 3441 3800 3280 3886 
Q 3119 3972 2856 3972 
L 2259 3972 
L 2259 734 
Q 2259 344 2344 247 
Q 2463 116 2709 116 
L 2856 116 
L 2856 0 
L 1059 0 
L 1059 116 
L 1209 116 
Q 1478 116 1591 278 
Q 1659 378 1659 734 
L 1659 3972 
L 1150 3972 
Q 853 3972 728 3928 
Q 566 3869 450 3700 
Q 334 3531 313 3244 
L 194 3244 
L 244 4238 
L 3703 4238 
z
" id="TimesNewRomanPSMT-54" transform="scale(0.015625)"/>
      <path d="M 2619 0 
L 981 3566 
L 981 734 
Q 981 344 1066 247 
Q 1181 116 1431 116 
L 1581 116 
L 1581 0 
L 106 0 
L 106 116 
L 256 116 
Q 525 116 638 278 
Q 706 378 706 734 
L 706 3503 
Q 706 3784 644 3909 
Q 600 4000 483 4061 
Q 366 4122 106 4122 
L 106 4238 
L 1306 4238 
L 2844 922 
L 4356 4238 
L 5556 4238 
L 5556 4122 
L 5409 4122 
Q 5138 4122 5025 3959 
Q 4956 3859 4956 3503 
L 4956 734 
Q 4956 344 5044 247 
Q 5159 116 5409 116 
L 5556 116 
L 5556 0 
L 3756 0 
L 3756 116 
L 3906 116 
Q 4178 116 4288 278 
Q 4356 378 4356 734 
L 4356 3566 
L 2722 0 
L 2619 0 
z
" id="TimesNewRomanPSMT-4d" transform="scale(0.015625)"/>
      <path id="TimesNewRomanPSMT-20" transform="scale(0.015625)"/>
      <path d="M 1600 2947 
Q 2250 2947 2644 2453 
Q 2978 2031 2978 1484 
Q 2978 1100 2793 706 
Q 2609 313 2286 112 
Q 1963 -88 1566 -88 
Q 919 -88 538 428 
Q 216 863 216 1403 
Q 216 1797 411 2186 
Q 606 2575 925 2761 
Q 1244 2947 1600 2947 
z
M 1503 2744 
Q 1338 2744 1170 2645 
Q 1003 2547 900 2300 
Q 797 2053 797 1666 
Q 797 1041 1045 587 
Q 1294 134 1700 134 
Q 2003 134 2200 384 
Q 2397 634 2397 1244 
Q 2397 2006 2069 2444 
Q 1847 2744 1503 2744 
z
" id="TimesNewRomanPSMT-6f" transform="scale(0.015625)"/>
      <path d="M 1031 3803 
L 1031 2863 
L 1700 2863 
L 1700 2644 
L 1031 2644 
L 1031 788 
Q 1031 509 1111 412 
Q 1191 316 1316 316 
Q 1419 316 1516 380 
Q 1613 444 1666 569 
L 1788 569 
Q 1678 263 1478 108 
Q 1278 -47 1066 -47 
Q 922 -47 784 33 
Q 647 113 581 261 
Q 516 409 516 719 
L 516 2644 
L 63 2644 
L 63 2747 
Q 234 2816 414 2980 
Q 594 3144 734 3369 
Q 806 3488 934 3803 
L 1031 3803 
z
" id="TimesNewRomanPSMT-74" transform="scale(0.015625)"/>
      <path d="M 1822 413 
Q 1381 72 1269 19 
Q 1100 -59 909 -59 
Q 613 -59 420 144 
Q 228 347 228 678 
Q 228 888 322 1041 
Q 450 1253 767 1440 
Q 1084 1628 1822 1897 
L 1822 2009 
Q 1822 2438 1686 2597 
Q 1550 2756 1291 2756 
Q 1094 2756 978 2650 
Q 859 2544 859 2406 
L 866 2225 
Q 866 2081 792 2003 
Q 719 1925 600 1925 
Q 484 1925 411 2006 
Q 338 2088 338 2228 
Q 338 2497 613 2722 
Q 888 2947 1384 2947 
Q 1766 2947 2009 2819 
Q 2194 2722 2281 2516 
Q 2338 2381 2338 1966 
L 2338 994 
Q 2338 584 2353 492 
Q 2369 400 2405 369 
Q 2441 338 2488 338 
Q 2538 338 2575 359 
Q 2641 400 2828 588 
L 2828 413 
Q 2478 -56 2159 -56 
Q 2006 -56 1915 50 
Q 1825 156 1822 413 
z
M 1822 616 
L 1822 1706 
Q 1350 1519 1213 1441 
Q 966 1303 859 1153 
Q 753 1003 753 825 
Q 753 600 887 451 
Q 1022 303 1197 303 
Q 1434 303 1822 616 
z
" id="TimesNewRomanPSMT-61" transform="scale(0.015625)"/>
      <path d="M 1184 4444 
L 1184 647 
Q 1184 378 1223 290 
Q 1263 203 1344 158 
Q 1425 113 1647 113 
L 1647 0 
L 244 0 
L 244 113 
Q 441 113 512 153 
Q 584 194 625 287 
Q 666 381 666 647 
L 666 3247 
Q 666 3731 644 3842 
Q 622 3953 573 3993 
Q 525 4034 450 4034 
Q 369 4034 244 3984 
L 191 4094 
L 1044 4444 
L 1184 4444 
z
" id="TimesNewRomanPSMT-6c" transform="scale(0.015625)"/>
      <path d="M -6 2578 
L 875 2934 
L 994 2934 
L 994 2266 
Q 1216 2644 1439 2795 
Q 1663 2947 1909 2947 
Q 2341 2947 2628 2609 
Q 2981 2197 2981 1534 
Q 2981 794 2556 309 
Q 2206 -88 1675 -88 
Q 1444 -88 1275 -22 
Q 1150 25 994 166 
L 994 -706 
Q 994 -1000 1030 -1079 
Q 1066 -1159 1155 -1206 
Q 1244 -1253 1478 -1253 
L 1478 -1369 
L -22 -1369 
L -22 -1253 
L 56 -1253 
Q 228 -1256 350 -1188 
Q 409 -1153 442 -1076 
Q 475 -1000 475 -688 
L 475 2019 
Q 475 2297 450 2372 
Q 425 2447 370 2484 
Q 316 2522 222 2522 
Q 147 2522 31 2478 
L -6 2578 
z
M 994 2081 
L 994 1013 
Q 994 666 1022 556 
Q 1066 375 1236 237 
Q 1406 100 1666 100 
Q 1978 100 2172 344 
Q 2425 663 2425 1241 
Q 2425 1897 2138 2250 
Q 1938 2494 1663 2494 
Q 1513 2494 1366 2419 
Q 1253 2363 994 2081 
z
" id="TimesNewRomanPSMT-70" transform="scale(0.015625)"/>
      <path d="M 1038 2947 
L 1038 2303 
Q 1397 2947 1775 2947 
Q 1947 2947 2059 2842 
Q 2172 2738 2172 2600 
Q 2172 2478 2090 2393 
Q 2009 2309 1897 2309 
Q 1788 2309 1652 2417 
Q 1516 2525 1450 2525 
Q 1394 2525 1328 2463 
Q 1188 2334 1038 2041 
L 1038 669 
Q 1038 431 1097 309 
Q 1138 225 1241 169 
Q 1344 113 1538 113 
L 1538 0 
L 72 0 
L 72 113 
Q 291 113 397 181 
Q 475 231 506 341 
Q 522 394 522 644 
L 522 1753 
Q 522 2253 501 2348 
Q 481 2444 426 2487 
Q 372 2531 291 2531 
Q 194 2531 72 2484 
L 41 2597 
L 906 2947 
L 1038 2947 
z
" id="TimesNewRomanPSMT-72" transform="scale(0.015625)"/>
      <path d="M 928 4444 
Q 1059 4444 1151 4351 
Q 1244 4259 1244 4128 
Q 1244 3997 1151 3903 
Q 1059 3809 928 3809 
Q 797 3809 703 3903 
Q 609 3997 609 4128 
Q 609 4259 701 4351 
Q 794 4444 928 4444 
z
M 1188 2947 
L 1188 647 
Q 1188 378 1227 289 
Q 1266 200 1342 156 
Q 1419 113 1622 113 
L 1622 0 
L 231 0 
L 231 113 
Q 441 113 512 153 
Q 584 194 626 287 
Q 669 381 669 647 
L 669 1750 
Q 669 2216 641 2353 
Q 619 2453 572 2492 
Q 525 2531 444 2531 
Q 356 2531 231 2484 
L 188 2597 
L 1050 2947 
L 1188 2947 
z
" id="TimesNewRomanPSMT-69" transform="scale(0.015625)"/>
      <path d="M 2688 878 
L 2653 0 
L 128 0 
L 128 113 
L 2028 2644 
L 1091 2644 
Q 788 2644 694 2605 
Q 600 2566 541 2456 
Q 456 2300 444 2069 
L 319 2069 
L 338 2863 
L 2738 2863 
L 2738 2747 
L 819 209 
L 1863 209 
Q 2191 209 2308 264 
Q 2425 319 2497 456 
Q 2547 556 2581 878 
L 2688 878 
z
" id="TimesNewRomanPSMT-7a" transform="scale(0.015625)"/>
      <path d="M 681 1784 
Q 678 1147 991 784 
Q 1303 422 1725 422 
Q 2006 422 2214 576 
Q 2422 731 2563 1106 
L 2659 1044 
Q 2594 616 2278 264 
Q 1963 -88 1488 -88 
Q 972 -88 605 314 
Q 238 716 238 1394 
Q 238 2128 614 2539 
Q 991 2950 1559 2950 
Q 2041 2950 2350 2633 
Q 2659 2316 2659 1784 
L 681 1784 
z
M 681 1966 
L 2006 1966 
Q 1991 2241 1941 2353 
Q 1863 2528 1708 2628 
Q 1553 2728 1384 2728 
Q 1125 2728 920 2526 
Q 716 2325 681 1966 
z
" id="TimesNewRomanPSMT-65" transform="scale(0.015625)"/>
      <path d="M 903 2950 
Q 1047 2950 1148 2848 
Q 1250 2747 1250 2603 
Q 1250 2459 1148 2357 
Q 1047 2256 903 2256 
Q 759 2256 657 2357 
Q 556 2459 556 2603 
Q 556 2747 657 2848 
Q 759 2950 903 2950 
z
M 897 609 
Q 1044 609 1145 506 
Q 1247 403 1247 259 
Q 1247 116 1144 14 
Q 1041 -88 897 -88 
Q 753 -88 651 14 
Q 550 116 550 259 
Q 550 403 651 506 
Q 753 609 897 609 
z
" id="TimesNewRomanPSMT-3a" transform="scale(0.015625)"/>
     </defs>
     <use xlink:href="#TimesNewRomanPSMT-44"/>
     <use x="72.216797" xlink:href="#TimesNewRomanPSMT-44"/>
     <use x="144.433594" xlink:href="#TimesNewRomanPSMT-54"/>
     <use x="205.517578" xlink:href="#TimesNewRomanPSMT-4d"/>
     <use x="294.433594" xlink:href="#TimesNewRomanPSMT-20"/>
     <use x="317.683594" xlink:href="#TimesNewRomanPSMT-54"/>
     <use x="371.767578" xlink:href="#TimesNewRomanPSMT-6f"/>
     <use x="421.767578" xlink:href="#TimesNewRomanPSMT-74"/>
     <use x="449.550781" xlink:href="#TimesNewRomanPSMT-61"/>
     <use x="493.935547" xlink:href="#TimesNewRomanPSMT-6c"/>
     <use x="521.71875" xlink:href="#TimesNewRomanPSMT-20"/>
     <use x="546.71875" xlink:href="#TimesNewRomanPSMT-70"/>
     <use x="596.71875" xlink:href="#TimesNewRomanPSMT-72"/>
     <use x="630.019531" xlink:href="#TimesNewRomanPSMT-69"/>
     <use x="657.802734" xlink:href="#TimesNewRomanPSMT-7a"/>
     <use x="702.1875" xlink:href="#TimesNewRomanPSMT-65"/>
     <use x="746.572266" xlink:href="#TimesNewRomanPSMT-3a"/>
     <use x="774.355469" xlink:href="#TimesNewRomanPSMT-20"/>
     <use x="799.355469" xlink:href="#TimesNewRomanPSMT-31"/>
     <use x="849.355469" xlink:href="#TimesNewRomanPSMT-34"/>
     <use x="899.355469" xlink:href="#TimesNewRomanPSMT-2e"/>
     <use x="924.355469" xlink:href="#TimesNewRomanPSMT-30"/>
     <use x="974.355469" xlink:href="#TimesNewRomanPSMT-30"/>
    </g>
   </g>
   <g id="legend_1">
    <g id="patch_7">
     <path d="M 42.9 87.91 
L 501.7425 87.91 
Q 504.9425 87.91 504.9425 84.71 
L 504.9425 41.065 
Q 504.9425 37.865 501.7425 37.865 
L 42.9 37.865 
Q 39.7 37.865 39.7 41.065 
L 39.7 84.71 
Q 39.7 87.91 42.9 87.91 
z
" style="fill:#ffffff;opacity:0.8;stroke:#cccccc;stroke-linejoin:miter;"/>
    </g>
    <g id="patch_8">
     <path d="M 46.1 55.465 
L 78.1 55.465 
L 78.1 44.265 
L 46.1 44.265 
z
" style="fill:#ccf900;"/>
    </g>
    <g id="text_10">
     <!-- Vehicle 0. Prizes: 10.00, Avail. fuel: 1.97, Re-planned dist: 1.93 -->
     <g transform="translate(90.9 55.465)scale(0.16 -0.16)">
      <defs>
       <path d="M 4544 4238 
L 4544 4122 
Q 4319 4081 4203 3978 
Q 4038 3825 3909 3509 
L 2431 -97 
L 2316 -97 
L 728 3556 
Q 606 3838 556 3900 
Q 478 3997 364 4051 
Q 250 4106 56 4122 
L 56 4238 
L 1788 4238 
L 1788 4122 
Q 1494 4094 1406 4022 
Q 1319 3950 1319 3838 
Q 1319 3681 1463 3350 
L 2541 866 
L 3541 3319 
Q 3688 3681 3688 3822 
Q 3688 3913 3597 3995 
Q 3506 4078 3291 4113 
Q 3275 4116 3238 4122 
L 3238 4238 
L 4544 4238 
z
" id="TimesNewRomanPSMT-56" transform="scale(0.015625)"/>
       <path d="M 1041 4444 
L 1041 2350 
Q 1388 2731 1591 2839 
Q 1794 2947 1997 2947 
Q 2241 2947 2416 2812 
Q 2591 2678 2675 2391 
Q 2734 2191 2734 1659 
L 2734 647 
Q 2734 375 2778 275 
Q 2809 200 2884 156 
Q 2959 113 3159 113 
L 3159 0 
L 1753 0 
L 1753 113 
L 1819 113 
Q 2019 113 2097 173 
Q 2175 234 2206 353 
Q 2216 403 2216 647 
L 2216 1659 
Q 2216 2128 2167 2275 
Q 2119 2422 2012 2495 
Q 1906 2569 1756 2569 
Q 1603 2569 1437 2487 
Q 1272 2406 1041 2159 
L 1041 647 
Q 1041 353 1073 281 
Q 1106 209 1195 161 
Q 1284 113 1503 113 
L 1503 0 
L 84 0 
L 84 113 
Q 275 113 384 172 
Q 447 203 484 290 
Q 522 378 522 647 
L 522 3238 
Q 522 3728 498 3840 
Q 475 3953 426 3993 
Q 378 4034 297 4034 
Q 231 4034 84 3984 
L 41 4094 
L 897 4444 
L 1041 4444 
z
" id="TimesNewRomanPSMT-68" transform="scale(0.015625)"/>
       <path d="M 2631 1088 
Q 2516 522 2178 217 
Q 1841 -88 1431 -88 
Q 944 -88 581 321 
Q 219 731 219 1428 
Q 219 2103 620 2525 
Q 1022 2947 1584 2947 
Q 2006 2947 2278 2723 
Q 2550 2500 2550 2259 
Q 2550 2141 2473 2067 
Q 2397 1994 2259 1994 
Q 2075 1994 1981 2113 
Q 1928 2178 1911 2362 
Q 1894 2547 1784 2644 
Q 1675 2738 1481 2738 
Q 1169 2738 978 2506 
Q 725 2200 725 1697 
Q 725 1184 976 792 
Q 1228 400 1656 400 
Q 1963 400 2206 609 
Q 2378 753 2541 1131 
L 2631 1088 
z
" id="TimesNewRomanPSMT-63" transform="scale(0.015625)"/>
       <path d="M 1313 1984 
L 1313 750 
Q 1313 350 1400 253 
Q 1519 116 1759 116 
L 1922 116 
L 1922 0 
L 106 0 
L 106 116 
L 266 116 
Q 534 116 650 291 
Q 713 388 713 750 
L 713 3488 
Q 713 3888 628 3984 
Q 506 4122 266 4122 
L 106 4122 
L 106 4238 
L 1659 4238 
Q 2228 4238 2556 4120 
Q 2884 4003 3109 3725 
Q 3334 3447 3334 3066 
Q 3334 2547 2992 2222 
Q 2650 1897 2025 1897 
Q 1872 1897 1694 1919 
Q 1516 1941 1313 1984 
z
M 1313 2163 
Q 1478 2131 1606 2115 
Q 1734 2100 1825 2100 
Q 2150 2100 2386 2351 
Q 2622 2603 2622 3003 
Q 2622 3278 2509 3514 
Q 2397 3750 2190 3867 
Q 1984 3984 1722 3984 
Q 1563 3984 1313 3925 
L 1313 2163 
z
" id="TimesNewRomanPSMT-50" transform="scale(0.015625)"/>
       <path d="M 2050 2947 
L 2050 1972 
L 1947 1972 
Q 1828 2431 1642 2597 
Q 1456 2763 1169 2763 
Q 950 2763 815 2647 
Q 681 2531 681 2391 
Q 681 2216 781 2091 
Q 878 1963 1175 1819 
L 1631 1597 
Q 2266 1288 2266 781 
Q 2266 391 1970 151 
Q 1675 -88 1309 -88 
Q 1047 -88 709 6 
Q 606 38 541 38 
Q 469 38 428 -44 
L 325 -44 
L 325 978 
L 428 978 
Q 516 541 762 319 
Q 1009 97 1316 97 
Q 1531 97 1667 223 
Q 1803 350 1803 528 
Q 1803 744 1651 891 
Q 1500 1038 1047 1263 
Q 594 1488 453 1669 
Q 313 1847 313 2119 
Q 313 2472 555 2709 
Q 797 2947 1181 2947 
Q 1350 2947 1591 2875 
Q 1750 2828 1803 2828 
Q 1853 2828 1881 2850 
Q 1909 2872 1947 2947 
L 2050 2947 
z
" id="TimesNewRomanPSMT-73" transform="scale(0.015625)"/>
       <path d="M 344 -1066 
L 344 -928 
Q 666 -822 842 -598 
Q 1019 -375 1019 -125 
Q 1019 -66 991 -25 
Q 969 3 947 3 
Q 913 3 797 -59 
Q 741 -88 678 -88 
Q 525 -88 434 3 
Q 344 94 344 253 
Q 344 406 461 515 
Q 578 625 747 625 
Q 953 625 1114 445 
Q 1275 266 1275 -31 
Q 1275 -353 1051 -629 
Q 828 -906 344 -1066 
z
" id="TimesNewRomanPSMT-2c" transform="scale(0.015625)"/>
       <path d="M 2928 1419 
L 1288 1419 
L 1000 750 
Q 894 503 894 381 
Q 894 284 986 211 
Q 1078 138 1384 116 
L 1384 0 
L 50 0 
L 50 116 
Q 316 163 394 238 
Q 553 388 747 847 
L 2238 4334 
L 2347 4334 
L 3822 809 
Q 4000 384 4145 257 
Q 4291 131 4550 116 
L 4550 0 
L 2878 0 
L 2878 116 
Q 3131 128 3220 200 
Q 3309 272 3309 375 
Q 3309 513 3184 809 
L 2928 1419 
z
M 2841 1650 
L 2122 3363 
L 1384 1650 
L 2841 1650 
z
" id="TimesNewRomanPSMT-41" transform="scale(0.015625)"/>
       <path d="M 53 2863 
L 1400 2863 
L 1400 2747 
L 1313 2747 
Q 1191 2747 1127 2687 
Q 1063 2628 1063 2528 
Q 1063 2419 1128 2269 
L 1794 688 
L 2463 2328 
Q 2534 2503 2534 2594 
Q 2534 2638 2509 2666 
Q 2475 2713 2422 2730 
Q 2369 2747 2206 2747 
L 2206 2863 
L 3141 2863 
L 3141 2747 
Q 2978 2734 2916 2681 
Q 2806 2588 2719 2369 
L 1703 -88 
L 1575 -88 
L 553 2328 
Q 484 2497 421 2570 
Q 359 2644 263 2694 
Q 209 2722 53 2747 
L 53 2863 
z
" id="TimesNewRomanPSMT-76" transform="scale(0.015625)"/>
       <path d="M 1319 2638 
L 1319 756 
Q 1319 356 1406 250 
Q 1522 113 1716 113 
L 1975 113 
L 1975 0 
L 266 0 
L 266 113 
L 394 113 
Q 519 113 622 175 
Q 725 238 764 344 
Q 803 450 803 756 
L 803 2638 
L 247 2638 
L 247 2863 
L 803 2863 
L 803 3050 
Q 803 3478 940 3775 
Q 1078 4072 1361 4255 
Q 1644 4438 1997 4438 
Q 2325 4438 2600 4225 
Q 2781 4084 2781 3909 
Q 2781 3816 2700 3733 
Q 2619 3650 2525 3650 
Q 2453 3650 2373 3701 
Q 2294 3753 2178 3923 
Q 2063 4094 1966 4153 
Q 1869 4213 1750 4213 
Q 1606 4213 1506 4136 
Q 1406 4059 1362 3898 
Q 1319 3738 1319 3069 
L 1319 2863 
L 2056 2863 
L 2056 2638 
L 1319 2638 
z
" id="TimesNewRomanPSMT-66" transform="scale(0.015625)"/>
       <path d="M 2709 2863 
L 2709 1128 
Q 2709 631 2732 520 
Q 2756 409 2807 365 
Q 2859 322 2928 322 
Q 3025 322 3147 375 
L 3191 266 
L 2334 -88 
L 2194 -88 
L 2194 519 
Q 1825 119 1631 15 
Q 1438 -88 1222 -88 
Q 981 -88 804 51 
Q 628 191 559 409 
Q 491 628 491 1028 
L 491 2306 
Q 491 2509 447 2587 
Q 403 2666 317 2708 
Q 231 2750 6 2747 
L 6 2863 
L 1009 2863 
L 1009 947 
Q 1009 547 1148 422 
Q 1288 297 1484 297 
Q 1619 297 1789 381 
Q 1959 466 2194 703 
L 2194 2325 
Q 2194 2569 2105 2655 
Q 2016 2741 1734 2747 
L 1734 2863 
L 2709 2863 
z
" id="TimesNewRomanPSMT-75" transform="scale(0.015625)"/>
       <path d="M 4325 0 
L 3194 0 
L 1759 1981 
Q 1600 1975 1500 1975 
Q 1459 1975 1412 1976 
Q 1366 1978 1316 1981 
L 1316 750 
Q 1316 350 1403 253 
Q 1522 116 1759 116 
L 1925 116 
L 1925 0 
L 109 0 
L 109 116 
L 269 116 
Q 538 116 653 291 
Q 719 388 719 750 
L 719 3488 
Q 719 3888 631 3984 
Q 509 4122 269 4122 
L 109 4122 
L 109 4238 
L 1653 4238 
Q 2328 4238 2648 4139 
Q 2969 4041 3192 3777 
Q 3416 3513 3416 3147 
Q 3416 2756 3161 2468 
Q 2906 2181 2372 2063 
L 3247 847 
Q 3547 428 3762 290 
Q 3978 153 4325 116 
L 4325 0 
z
M 1316 2178 
Q 1375 2178 1419 2176 
Q 1463 2175 1491 2175 
Q 2097 2175 2405 2437 
Q 2713 2700 2713 3106 
Q 2713 3503 2464 3751 
Q 2216 4000 1806 4000 
Q 1625 4000 1316 3941 
L 1316 2178 
z
" id="TimesNewRomanPSMT-52" transform="scale(0.015625)"/>
       <path d="M 259 1672 
L 1875 1672 
L 1875 1200 
L 259 1200 
L 259 1672 
z
" id="TimesNewRomanPSMT-2d" transform="scale(0.015625)"/>
       <path d="M 1034 2341 
Q 1538 2947 1994 2947 
Q 2228 2947 2397 2830 
Q 2566 2713 2666 2444 
Q 2734 2256 2734 1869 
L 2734 647 
Q 2734 375 2778 278 
Q 2813 200 2889 156 
Q 2966 113 3172 113 
L 3172 0 
L 1756 0 
L 1756 113 
L 1816 113 
Q 2016 113 2095 173 
Q 2175 234 2206 353 
Q 2219 400 2219 647 
L 2219 1819 
Q 2219 2209 2117 2386 
Q 2016 2563 1775 2563 
Q 1403 2563 1034 2156 
L 1034 647 
Q 1034 356 1069 288 
Q 1113 197 1189 155 
Q 1266 113 1500 113 
L 1500 0 
L 84 0 
L 84 113 
L 147 113 
Q 366 113 442 223 
Q 519 334 519 647 
L 519 1709 
Q 519 2225 495 2337 
Q 472 2450 423 2490 
Q 375 2531 294 2531 
Q 206 2531 84 2484 
L 38 2597 
L 900 2947 
L 1034 2947 
L 1034 2341 
z
" id="TimesNewRomanPSMT-6e" transform="scale(0.015625)"/>
       <path d="M 2222 322 
Q 2013 103 1813 7 
Q 1613 -88 1381 -88 
Q 913 -88 563 304 
Q 213 697 213 1313 
Q 213 1928 600 2439 
Q 988 2950 1597 2950 
Q 1975 2950 2222 2709 
L 2222 3238 
Q 2222 3728 2198 3840 
Q 2175 3953 2125 3993 
Q 2075 4034 2000 4034 
Q 1919 4034 1784 3984 
L 1744 4094 
L 2597 4444 
L 2738 4444 
L 2738 1134 
Q 2738 631 2761 520 
Q 2784 409 2836 365 
Q 2888 322 2956 322 
Q 3041 322 3181 375 
L 3216 266 
L 2366 -88 
L 2222 -88 
L 2222 322 
z
M 2222 541 
L 2222 2016 
Q 2203 2228 2109 2403 
Q 2016 2578 1861 2667 
Q 1706 2756 1559 2756 
Q 1284 2756 1069 2509 
Q 784 2184 784 1559 
Q 784 928 1059 592 
Q 1334 256 1672 256 
Q 1956 256 2222 541 
z
" id="TimesNewRomanPSMT-64" transform="scale(0.015625)"/>
       <path d="M 325 3431 
Q 506 3859 782 4092 
Q 1059 4325 1472 4325 
Q 1981 4325 2253 3994 
Q 2459 3747 2459 3466 
Q 2459 3003 1878 2509 
Q 2269 2356 2469 2072 
Q 2669 1788 2669 1403 
Q 2669 853 2319 450 
Q 1863 -75 997 -75 
Q 569 -75 414 31 
Q 259 138 259 259 
Q 259 350 332 419 
Q 406 488 509 488 
Q 588 488 669 463 
Q 722 447 909 348 
Q 1097 250 1169 231 
Q 1284 197 1416 197 
Q 1734 197 1970 444 
Q 2206 691 2206 1028 
Q 2206 1275 2097 1509 
Q 2016 1684 1919 1775 
Q 1784 1900 1550 2001 
Q 1316 2103 1072 2103 
L 972 2103 
L 972 2197 
Q 1219 2228 1467 2375 
Q 1716 2522 1828 2728 
Q 1941 2934 1941 3181 
Q 1941 3503 1739 3701 
Q 1538 3900 1238 3900 
Q 753 3900 428 3381 
L 325 3431 
z
" id="TimesNewRomanPSMT-33" transform="scale(0.015625)"/>
      </defs>
      <use xlink:href="#TimesNewRomanPSMT-56"/>
      <use x="61.091797" xlink:href="#TimesNewRomanPSMT-65"/>
      <use x="105.476562" xlink:href="#TimesNewRomanPSMT-68"/>
      <use x="155.476562" xlink:href="#TimesNewRomanPSMT-69"/>
      <use x="183.259766" xlink:href="#TimesNewRomanPSMT-63"/>
      <use x="227.644531" xlink:href="#TimesNewRomanPSMT-6c"/>
      <use x="255.427734" xlink:href="#TimesNewRomanPSMT-65"/>
      <use x="299.8125" xlink:href="#TimesNewRomanPSMT-20"/>
      <use x="324.8125" xlink:href="#TimesNewRomanPSMT-30"/>
      <use x="374.8125" xlink:href="#TimesNewRomanPSMT-2e"/>
      <use x="399.8125" xlink:href="#TimesNewRomanPSMT-20"/>
      <use x="424.8125" xlink:href="#TimesNewRomanPSMT-50"/>
      <use x="480.427734" xlink:href="#TimesNewRomanPSMT-72"/>
      <use x="513.728516" xlink:href="#TimesNewRomanPSMT-69"/>
      <use x="541.511719" xlink:href="#TimesNewRomanPSMT-7a"/>
      <use x="585.896484" xlink:href="#TimesNewRomanPSMT-65"/>
      <use x="630.28125" xlink:href="#TimesNewRomanPSMT-73"/>
      <use x="669.197266" xlink:href="#TimesNewRomanPSMT-3a"/>
      <use x="696.980469" xlink:href="#TimesNewRomanPSMT-20"/>
      <use x="721.980469" xlink:href="#TimesNewRomanPSMT-31"/>
      <use x="771.980469" xlink:href="#TimesNewRomanPSMT-30"/>
      <use x="821.980469" xlink:href="#TimesNewRomanPSMT-2e"/>
      <use x="846.980469" xlink:href="#TimesNewRomanPSMT-30"/>
      <use x="896.980469" xlink:href="#TimesNewRomanPSMT-30"/>
      <use x="946.980469" xlink:href="#TimesNewRomanPSMT-2c"/>
      <use x="971.980469" xlink:href="#TimesNewRomanPSMT-20"/>
      <use x="991.480469" xlink:href="#TimesNewRomanPSMT-41"/>
      <use x="1056.322266" xlink:href="#TimesNewRomanPSMT-76"/>
      <use x="1106.322266" xlink:href="#TimesNewRomanPSMT-61"/>
      <use x="1150.707031" xlink:href="#TimesNewRomanPSMT-69"/>
      <use x="1178.490234" xlink:href="#TimesNewRomanPSMT-6c"/>
      <use x="1206.273438" xlink:href="#TimesNewRomanPSMT-2e"/>
      <use x="1231.273438" xlink:href="#TimesNewRomanPSMT-20"/>
      <use x="1256.273438" xlink:href="#TimesNewRomanPSMT-66"/>
      <use x="1289.574219" xlink:href="#TimesNewRomanPSMT-75"/>
      <use x="1339.574219" xlink:href="#TimesNewRomanPSMT-65"/>
      <use x="1383.958984" xlink:href="#TimesNewRomanPSMT-6c"/>
      <use x="1411.742188" xlink:href="#TimesNewRomanPSMT-3a"/>
      <use x="1439.525391" xlink:href="#TimesNewRomanPSMT-20"/>
      <use x="1464.525391" xlink:href="#TimesNewRomanPSMT-31"/>
      <use x="1514.525391" xlink:href="#TimesNewRomanPSMT-2e"/>
      <use x="1539.525391" xlink:href="#TimesNewRomanPSMT-39"/>
      <use x="1589.525391" xlink:href="#TimesNewRomanPSMT-37"/>
      <use x="1639.525391" xlink:href="#TimesNewRomanPSMT-2c"/>
      <use x="1664.525391" xlink:href="#TimesNewRomanPSMT-20"/>
      <use x="1689.525391" xlink:href="#TimesNewRomanPSMT-52"/>
      <use x="1756.224609" xlink:href="#TimesNewRomanPSMT-65"/>
      <use x="1800.609375" xlink:href="#TimesNewRomanPSMT-2d"/>
      <use x="1833.910156" xlink:href="#TimesNewRomanPSMT-70"/>
      <use x="1883.910156" xlink:href="#TimesNewRomanPSMT-6c"/>
      <use x="1911.693359" xlink:href="#TimesNewRomanPSMT-61"/>
      <use x="1956.078125" xlink:href="#TimesNewRomanPSMT-6e"/>
      <use x="2006.078125" xlink:href="#TimesNewRomanPSMT-6e"/>
      <use x="2056.078125" xlink:href="#TimesNewRomanPSMT-65"/>
      <use x="2100.462891" xlink:href="#TimesNewRomanPSMT-64"/>
      <use x="2150.462891" xlink:href="#TimesNewRomanPSMT-20"/>
      <use x="2175.462891" xlink:href="#TimesNewRomanPSMT-64"/>
      <use x="2225.462891" xlink:href="#TimesNewRomanPSMT-69"/>
      <use x="2253.246094" xlink:href="#TimesNewRomanPSMT-73"/>
      <use x="2292.162109" xlink:href="#TimesNewRomanPSMT-74"/>
      <use x="2319.945312" xlink:href="#TimesNewRomanPSMT-3a"/>
      <use x="2347.728516" xlink:href="#TimesNewRomanPSMT-20"/>
      <use x="2372.728516" xlink:href="#TimesNewRomanPSMT-31"/>
      <use x="2422.728516" xlink:href="#TimesNewRomanPSMT-2e"/>
      <use x="2447.728516" xlink:href="#TimesNewRomanPSMT-39"/>
      <use x="2497.728516" xlink:href="#TimesNewRomanPSMT-33"/>
     </g>
    </g>
    <g id="patch_9">
     <path d="M 46.1 78.0875 
L 78.1 78.0875 
L 78.1 66.8875 
L 46.1 66.8875 
z
" style="fill:#00a4bb;"/>
    </g>
    <g id="text_11">
     <!-- Vehicle 1. Prizes: 4.00, Avail. fuel: 1.44, Re-planned dist: 1.34 -->
     <g transform="translate(90.9 78.0875)scale(0.16 -0.16)">
      <use xlink:href="#TimesNewRomanPSMT-56"/>
      <use x="61.091797" xlink:href="#TimesNewRomanPSMT-65"/>
      <use x="105.476562" xlink:href="#TimesNewRomanPSMT-68"/>
      <use x="155.476562" xlink:href="#TimesNewRomanPSMT-69"/>
      <use x="183.259766" xlink:href="#TimesNewRomanPSMT-63"/>
      <use x="227.644531" xlink:href="#TimesNewRomanPSMT-6c"/>
      <use x="255.427734" xlink:href="#TimesNewRomanPSMT-65"/>
      <use x="299.8125" xlink:href="#TimesNewRomanPSMT-20"/>
      <use x="324.8125" xlink:href="#TimesNewRomanPSMT-31"/>
      <use x="374.8125" xlink:href="#TimesNewRomanPSMT-2e"/>
      <use x="399.8125" xlink:href="#TimesNewRomanPSMT-20"/>
      <use x="424.8125" xlink:href="#TimesNewRomanPSMT-50"/>
      <use x="480.427734" xlink:href="#TimesNewRomanPSMT-72"/>
      <use x="513.728516" xlink:href="#TimesNewRomanPSMT-69"/>
      <use x="541.511719" xlink:href="#TimesNewRomanPSMT-7a"/>
      <use x="585.896484" xlink:href="#TimesNewRomanPSMT-65"/>
      <use x="630.28125" xlink:href="#TimesNewRomanPSMT-73"/>
      <use x="669.197266" xlink:href="#TimesNewRomanPSMT-3a"/>
      <use x="696.980469" xlink:href="#TimesNewRomanPSMT-20"/>
      <use x="721.980469" xlink:href="#TimesNewRomanPSMT-34"/>
      <use x="771.980469" xlink:href="#TimesNewRomanPSMT-2e"/>
      <use x="796.980469" xlink:href="#TimesNewRomanPSMT-30"/>
      <use x="846.980469" xlink:href="#TimesNewRomanPSMT-30"/>
      <use x="896.980469" xlink:href="#TimesNewRomanPSMT-2c"/>
      <use x="921.980469" xlink:href="#TimesNewRomanPSMT-20"/>
      <use x="941.480469" xlink:href="#TimesNewRomanPSMT-41"/>
      <use x="1006.322266" xlink:href="#TimesNewRomanPSMT-76"/>
      <use x="1056.322266" xlink:href="#TimesNewRomanPSMT-61"/>
      <use x="1100.707031" xlink:href="#TimesNewRomanPSMT-69"/>
      <use x="1128.490234" xlink:href="#TimesNewRomanPSMT-6c"/>
      <use x="1156.273438" xlink:href="#TimesNewRomanPSMT-2e"/>
      <use x="1181.273438" xlink:href="#TimesNewRomanPSMT-20"/>
      <use x="1206.273438" xlink:href="#TimesNewRomanPSMT-66"/>
      <use x="1239.574219" xlink:href="#TimesNewRomanPSMT-75"/>
      <use x="1289.574219" xlink:href="#TimesNewRomanPSMT-65"/>
      <use x="1333.958984" xlink:href="#TimesNewRomanPSMT-6c"/>
      <use x="1361.742188" xlink:href="#TimesNewRomanPSMT-3a"/>
      <use x="1389.525391" xlink:href="#TimesNewRomanPSMT-20"/>
      <use x="1414.525391" xlink:href="#TimesNewRomanPSMT-31"/>
      <use x="1464.525391" xlink:href="#TimesNewRomanPSMT-2e"/>
      <use x="1489.525391" xlink:href="#TimesNewRomanPSMT-34"/>
      <use x="1539.525391" xlink:href="#TimesNewRomanPSMT-34"/>
      <use x="1589.525391" xlink:href="#TimesNewRomanPSMT-2c"/>
      <use x="1614.525391" xlink:href="#TimesNewRomanPSMT-20"/>
      <use x="1639.525391" xlink:href="#TimesNewRomanPSMT-52"/>
      <use x="1706.224609" xlink:href="#TimesNewRomanPSMT-65"/>
      <use x="1750.609375" xlink:href="#TimesNewRomanPSMT-2d"/>
      <use x="1783.910156" xlink:href="#TimesNewRomanPSMT-70"/>
      <use x="1833.910156" xlink:href="#TimesNewRomanPSMT-6c"/>
      <use x="1861.693359" xlink:href="#TimesNewRomanPSMT-61"/>
      <use x="1906.078125" xlink:href="#TimesNewRomanPSMT-6e"/>
      <use x="1956.078125" xlink:href="#TimesNewRomanPSMT-6e"/>
      <use x="2006.078125" xlink:href="#TimesNewRomanPSMT-65"/>
      <use x="2050.462891" xlink:href="#TimesNewRomanPSMT-64"/>
      <use x="2100.462891" xlink:href="#TimesNewRomanPSMT-20"/>
      <use x="2125.462891" xlink:href="#TimesNewRomanPSMT-64"/>
      <use x="2175.462891" xlink:href="#TimesNewRomanPSMT-69"/>
      <use x="2203.246094" xlink:href="#TimesNewRomanPSMT-73"/>
      <use x="2242.162109" xlink:href="#TimesNewRomanPSMT-74"/>
      <use x="2269.945312" xlink:href="#TimesNewRomanPSMT-3a"/>
      <use x="2297.728516" xlink:href="#TimesNewRomanPSMT-20"/>
      <use x="2322.728516" xlink:href="#TimesNewRomanPSMT-31"/>
      <use x="2372.728516" xlink:href="#TimesNewRomanPSMT-2e"/>
      <use x="2397.728516" xlink:href="#TimesNewRomanPSMT-33"/>
      <use x="2447.728516" xlink:href="#TimesNewRomanPSMT-34"/>
     </g>
    </g>
   </g>
  </g>
  <g id="axes_2">
   <g id="patch_10">
    <path d="M 701.3 464.745 
L 1259.3 464.745 
L 1259.3 29.865 
L 701.3 29.865 
z
" style="fill:#ffffff;"/>
   </g>
   <g id="Quiver_3">
    <path clip-path="url(#p47551cfd6b)" d="M 1029.131787 295.490467 
L 1062.697573 323.908234 
L 1063.804714 319.362135 
L 1075.718601 337.673933 
L 1055.692256 328.944204 
L 1059.99342 327.102258 
L 1026.427635 298.68449 
L 1029.131787 295.490467 
" style="fill:#ccf900;"/>
    <path clip-path="url(#p47551cfd6b)" d="M 1074.47937 339.360012 
L 992.903045 279.403231 
L 992.110663 284.01462 
L 978.967562 266.564075 
L 999.546048 273.898145 
L 995.381507 276.031072 
L 1076.957832 335.987853 
L 1074.47937 339.360012 
" style="fill:#ccf900;"/>
    <path clip-path="url(#p47551cfd6b)" d="M 978.593646 268.622896 
L 920.041864 257.988906 
L 921.352852 262.480464 
L 901.886394 252.564837 
L 923.596351 250.12754 
L 920.789697 253.871265 
L 979.341479 264.505255 
L 978.593646 268.622896 
" style="fill:#ccf900;"/>
    <path clip-path="url(#p47551cfd6b)" d="M 900.227735 253.840535 
L 855.214984 195.315103 
L 853.173365 199.525159 
L 845.392357 179.111473 
L 863.125319 191.870968 
L 858.532302 192.763706 
L 903.545053 251.289138 
L 900.227735 253.840535 
" style="fill:#ccf900;"/>
    <path clip-path="url(#p47551cfd6b)" d="M 843.923234 177.621429 
L 878.506865 143.523385 
L 874.078574 142.012419 
L 893.386391 131.791322 
L 882.893313 150.952688 
L 881.445111 146.503475 
L 846.86148 180.601518 
L 843.923234 177.621429 
" style="fill:#ccf900;"/>
    <path clip-path="url(#p47551cfd6b)" d="M 891.584344 132.854893 
L 854.228115 69.560896 
L 851.687593 73.490085 
L 846.458021 52.278904 
L 862.499873 67.108658 
L 857.832209 67.433754 
L 895.188438 130.727751 
L 891.584344 132.854893 
" style="fill:#ccf900;"/>
    <path clip-path="url(#p47551cfd6b)" d="M 848.02484 53.665856 
L 812.604737 93.679407 
L 817.125326 94.886493 
L 798.555351 106.393822 
L 807.724415 86.564781 
L 809.4711 90.905503 
L 844.891203 50.891952 
L 848.02484 53.665856 
" style="fill:#ccf900;"/>
    <path clip-path="url(#p47551cfd6b)" d="M 799.557565 108.230701 
L 748.008562 136.356207 
L 751.849869 139.02775 
L 730.47444 143.539255 
L 745.836584 128.006478 
L 746.004133 132.68245 
L 797.553137 104.556944 
L 799.557565 108.230701 
" style="fill:#ccf900;"/>
   </g>
   <g id="Quiver_4">
    <path clip-path="url(#p47551cfd6b)" d="M 943.46778 159.186636 
L 1016.289235 260.505004 
L 1018.466291 256.36336 
L 1025.581298 277.018609 
L 1008.271385 263.690837 
L 1012.890933 262.947496 
L 940.069478 161.629128 
L 943.46778 159.186636 
" style="fill:#00a4bb;"/>
    <path clip-path="url(#p47551cfd6b)" d="M 1027.559154 276.335498 
L 1067.890751 393.110107 
L 1071.163351 389.766027 
L 1072.060899 411.593923 
L 1059.296215 393.864697 
L 1063.935038 394.47633 
L 1023.603442 277.701721 
L 1027.559154 276.335498 
" style="fill:#00a4bb;"/>
    <path clip-path="url(#p47551cfd6b)" d="M 1073.462319 410.040032 
L 1094.247865 428.786057 
L 1095.496814 424.276855 
L 1106.831465 442.95273 
L 1087.088293 433.600202 
L 1091.445024 431.89384 
L 1070.659479 413.147815 
L 1073.462319 410.040032 
" style="fill:#00a4bb;"/>
    <path clip-path="url(#p47551cfd6b)" d="M 1107.680723 444.865141 
L 1079.408774 457.420079 
L 1083.019703 460.395642 
L 1061.347816 463.150996 
L 1077.92415 448.921176 
L 1077.710257 453.595257 
L 1105.982206 441.040319 
L 1107.680723 444.865141 
" style="fill:#00a4bb;"/>
    <path clip-path="url(#p47551cfd6b)" d="M 1059.782651 464.539813 
L 1042.474041 445.033402 
L 1040.732527 449.376202 
L 1031.539851 429.558096 
L 1050.12352 441.043299 
L 1045.604372 442.255768 
L 1062.912982 461.762179 
L 1059.782651 464.539813 
" style="fill:#00a4bb;"/>
    <path clip-path="url(#p47551cfd6b)" d="M 1031.323167 431.639346 
L 853.934066 413.170912 
L 855.581948 417.550098 
L 835.419495 409.139502 
L 856.882054 405.062594 
L 854.367435 409.008411 
L 1031.756536 427.476845 
L 1031.323167 431.639346 
" style="fill:#00a4bb;"/>
    <path clip-path="url(#p47551cfd6b)" d="M 833.826995 407.782115 
L 863.696277 372.739195 
L 859.15389 371.61692 
L 877.505264 359.764085 
L 868.708888 379.761245 
L 866.881276 375.45397 
L 837.011995 410.49689 
L 833.826995 407.782115 
" style="fill:#00a4bb;"/>
    <path clip-path="url(#p47551cfd6b)" d="M 875.774913 360.940708 
L 739.333691 160.28904 
L 737.04961 164.372637 
L 730.47444 143.539255 
L 747.431719 157.312902 
L 742.794393 157.935795 
L 879.235616 358.587463 
L 875.774913 360.940708 
" style="fill:#00a4bb;"/>
   </g>
   <g id="matplotlib.axis_3">
    <g id="xtick_4">
     <g id="line2d_10">
      <g>
       <use style="stroke:#000000;stroke-width:0.8;" x="701.3" xlink:href="#mc2f9670a5e" y="464.745"/>
      </g>
     </g>
     <g id="text_12">
      <!-- 0.0 -->
      <g transform="translate(692.55 481.46625)scale(0.14 -0.14)">
       <use xlink:href="#TimesNewRomanPSMT-30"/>
       <use x="50" xlink:href="#TimesNewRomanPSMT-2e"/>
       <use x="75" xlink:href="#TimesNewRomanPSMT-30"/>
      </g>
     </g>
    </g>
    <g id="xtick_5">
     <g id="line2d_11">
      <g>
       <use style="stroke:#000000;stroke-width:0.8;" x="980.3" xlink:href="#mc2f9670a5e" y="464.745"/>
      </g>
     </g>
     <g id="text_13">
      <!-- 0.5 -->
      <g transform="translate(971.55 481.46625)scale(0.14 -0.14)">
       <use xlink:href="#TimesNewRomanPSMT-30"/>
       <use x="50" xlink:href="#TimesNewRomanPSMT-2e"/>
       <use x="75" xlink:href="#TimesNewRomanPSMT-35"/>
      </g>
     </g>
    </g>
    <g id="xtick_6">
     <g id="line2d_12">
      <g>
       <use style="stroke:#000000;stroke-width:0.8;" x="1259.3" xlink:href="#mc2f9670a5e" y="464.745"/>
      </g>
     </g>
     <g id="text_14">
      <!-- 1.0 -->
      <g transform="translate(1250.55 481.46625)scale(0.14 -0.14)">
       <use xlink:href="#TimesNewRomanPSMT-31"/>
       <use x="50" xlink:href="#TimesNewRomanPSMT-2e"/>
       <use x="75" xlink:href="#TimesNewRomanPSMT-30"/>
      </g>
     </g>
    </g>
   </g>
   <g id="matplotlib.axis_4">
    <g id="ytick_4">
     <g id="line2d_13">
      <g>
       <use style="stroke:#000000;stroke-width:0.8;" x="701.3" xlink:href="#m52a26e36bb" y="464.745"/>
      </g>
     </g>
     <g id="text_15">
      <!-- 0.0 -->
      <g transform="translate(676.8 469.605625)scale(0.14 -0.14)">
       <use xlink:href="#TimesNewRomanPSMT-30"/>
       <use x="50" xlink:href="#TimesNewRomanPSMT-2e"/>
       <use x="75" xlink:href="#TimesNewRomanPSMT-30"/>
      </g>
     </g>
    </g>
    <g id="ytick_5">
     <g id="line2d_14">
      <g>
       <use style="stroke:#000000;stroke-width:0.8;" x="701.3" xlink:href="#m52a26e36bb" y="247.305"/>
      </g>
     </g>
     <g id="text_16">
      <!-- 0.5 -->
      <g transform="translate(676.8 252.165625)scale(0.14 -0.14)">
       <use xlink:href="#TimesNewRomanPSMT-30"/>
       <use x="50" xlink:href="#TimesNewRomanPSMT-2e"/>
       <use x="75" xlink:href="#TimesNewRomanPSMT-35"/>
      </g>
     </g>
    </g>
    <g id="ytick_6">
     <g id="line2d_15">
      <g>
       <use style="stroke:#000000;stroke-width:0.8;" x="701.3" xlink:href="#m52a26e36bb" y="29.865"/>
      </g>
     </g>
     <g id="text_17">
      <!-- 1.0 -->
      <g transform="translate(676.8 34.725625)scale(0.14 -0.14)">
       <use xlink:href="#TimesNewRomanPSMT-31"/>
       <use x="50" xlink:href="#TimesNewRomanPSMT-2e"/>
       <use x="75" xlink:href="#TimesNewRomanPSMT-30"/>
      </g>
     </g>
    </g>
   </g>
   <g id="line2d_16">
    <g clip-path="url(#p47551cfd6b)">
     <use style="stroke:#000000;stroke-linejoin:miter;" x="730.47444" xlink:href="#m6ffb40cc3c" y="143.539255"/>
    </g>
   </g>
   <g id="line2d_17">
    <g clip-path="url(#p47551cfd6b)">
     <use style="fill:#0000ff;stroke:#0000ff;stroke-linejoin:miter;" x="845.392357" xlink:href="#m22eaebb948" y="179.111473"/>
     <use style="fill:#0000ff;stroke:#0000ff;stroke-linejoin:miter;" x="877.505264" xlink:href="#m22eaebb948" y="359.764085"/>
     <use style="fill:#0000ff;stroke:#0000ff;stroke-linejoin:miter;" x="835.419495" xlink:href="#m22eaebb948" y="409.139502"/>
     <use style="fill:#0000ff;stroke:#0000ff;stroke-linejoin:miter;" x="1215.686461" xlink:href="#m22eaebb948" y="320.947534"/>
     <use style="fill:#0000ff;stroke:#0000ff;stroke-linejoin:miter;" x="901.886394" xlink:href="#m22eaebb948" y="252.564837"/>
     <use style="fill:#0000ff;stroke:#0000ff;stroke-linejoin:miter;" x="798.555351" xlink:href="#m22eaebb948" y="106.393822"/>
     <use style="fill:#0000ff;stroke:#0000ff;stroke-linejoin:miter;" x="893.386391" xlink:href="#m22eaebb948" y="131.791322"/>
     <use style="fill:#0000ff;stroke:#0000ff;stroke-linejoin:miter;" x="1061.347816" xlink:href="#m22eaebb948" y="463.150996"/>
     <use style="fill:#0000ff;stroke:#0000ff;stroke-linejoin:miter;" x="723.774469" xlink:href="#m22eaebb948" y="459.236556"/>
     <use style="fill:#0000ff;stroke:#0000ff;stroke-linejoin:miter;" x="1230.67291" xlink:href="#m22eaebb948" y="48.973423"/>
     <use style="fill:#0000ff;stroke:#0000ff;stroke-linejoin:miter;" x="1075.718601" xlink:href="#m22eaebb948" y="337.673933"/>
     <use style="fill:#0000ff;stroke:#0000ff;stroke-linejoin:miter;" x="1072.060899" xlink:href="#m22eaebb948" y="411.593923"/>
     <use style="fill:#0000ff;stroke:#0000ff;stroke-linejoin:miter;" x="1025.581298" xlink:href="#m22eaebb948" y="277.018609"/>
     <use style="fill:#0000ff;stroke:#0000ff;stroke-linejoin:miter;" x="1171.45576" xlink:href="#m22eaebb948" y="233.649524"/>
     <use style="fill:#0000ff;stroke:#0000ff;stroke-linejoin:miter;" x="978.967562" xlink:href="#m22eaebb948" y="266.564075"/>
     <use style="fill:#0000ff;stroke:#0000ff;stroke-linejoin:miter;" x="1248.114168" xlink:href="#m22eaebb948" y="399.369668"/>
     <use style="fill:#0000ff;stroke:#0000ff;stroke-linejoin:miter;" x="1106.831465" xlink:href="#m22eaebb948" y="442.95273"/>
     <use style="fill:#0000ff;stroke:#0000ff;stroke-linejoin:miter;" x="1031.539851" xlink:href="#m22eaebb948" y="429.558096"/>
     <use style="fill:#0000ff;stroke:#0000ff;stroke-linejoin:miter;" x="1115.845924" xlink:href="#m22eaebb948" y="52.734697"/>
     <use style="fill:#0000ff;stroke:#0000ff;stroke-linejoin:miter;" x="846.458021" xlink:href="#m22eaebb948" y="52.278904"/>
    </g>
   </g>
   <g id="line2d_18">
    <g clip-path="url(#p47551cfd6b)">
     <use style="fill:#ff0000;stroke:#ff0000;stroke-linejoin:miter;" x="1027.779711" xlink:href="#m054ffee610" y="297.087478"/>
     <use style="fill:#ff0000;stroke:#ff0000;stroke-linejoin:miter;" x="941.768629" xlink:href="#m054ffee610" y="160.407882"/>
    </g>
   </g>
   <g id="patch_11">
    <path d="M 701.3 464.745 
L 701.3 29.865 
" style="fill:none;stroke:#000000;stroke-linecap:square;stroke-linejoin:miter;stroke-width:0.8;"/>
   </g>
   <g id="patch_12">
    <path d="M 1259.3 464.745 
L 1259.3 29.865 
" style="fill:none;stroke:#000000;stroke-linecap:square;stroke-linejoin:miter;stroke-width:0.8;"/>
   </g>
   <g id="patch_13">
    <path d="M 701.3 464.745 
L 1259.3 464.745 
" style="fill:none;stroke:#000000;stroke-linecap:square;stroke-linejoin:miter;stroke-width:0.8;"/>
   </g>
   <g id="patch_14">
    <path d="M 701.3 29.865 
L 1259.3 29.865 
" style="fill:none;stroke:#000000;stroke-linecap:square;stroke-linejoin:miter;stroke-width:0.8;"/>
   </g>
   <g id="text_18">
    <!-- 1.44 -->
    <g transform="translate(1032.509237 291.548869)scale(0.14 -0.14)">
     <use xlink:href="#TimesNewRomanPSMT-31"/>
     <use x="50" xlink:href="#TimesNewRomanPSMT-2e"/>
     <use x="75" xlink:href="#TimesNewRomanPSMT-34"/>
     <use x="125" xlink:href="#TimesNewRomanPSMT-34"/>
    </g>
   </g>
   <g id="text_19">
    <!-- 1.97 -->
    <g transform="translate(946.498155 154.869273)scale(0.14 -0.14)">
     <use xlink:href="#TimesNewRomanPSMT-31"/>
     <use x="50" xlink:href="#TimesNewRomanPSMT-2e"/>
     <use x="75" xlink:href="#TimesNewRomanPSMT-39"/>
     <use x="125" xlink:href="#TimesNewRomanPSMT-37"/>
    </g>
   </g>
   <g id="text_20">
    <!-- MILP Total prize: 14.00 -->
    <g transform="translate(864.490625 23.865)scale(0.24 -0.24)">
     <defs>
      <path d="M 1975 116 
L 1975 0 
L 159 0 
L 159 116 
L 309 116 
Q 572 116 691 269 
Q 766 369 766 750 
L 766 3488 
Q 766 3809 725 3913 
Q 694 3991 597 4047 
Q 459 4122 309 4122 
L 159 4122 
L 159 4238 
L 1975 4238 
L 1975 4122 
L 1822 4122 
Q 1563 4122 1444 3969 
Q 1366 3869 1366 3488 
L 1366 750 
Q 1366 428 1406 325 
Q 1438 247 1538 191 
Q 1672 116 1822 116 
L 1975 116 
z
" id="TimesNewRomanPSMT-49" transform="scale(0.015625)"/>
      <path d="M 3669 1172 
L 3772 1150 
L 3409 0 
L 128 0 
L 128 116 
L 288 116 
Q 556 116 672 291 
Q 738 391 738 753 
L 738 3488 
Q 738 3884 650 3984 
Q 528 4122 288 4122 
L 128 4122 
L 128 4238 
L 2047 4238 
L 2047 4122 
Q 1709 4125 1573 4059 
Q 1438 3994 1388 3894 
Q 1338 3794 1338 3416 
L 1338 753 
Q 1338 494 1388 397 
Q 1425 331 1503 300 
Q 1581 269 1991 269 
L 2300 269 
Q 2788 269 2984 341 
Q 3181 413 3343 595 
Q 3506 778 3669 1172 
z
" id="TimesNewRomanPSMT-4c" transform="scale(0.015625)"/>
     </defs>
     <use xlink:href="#TimesNewRomanPSMT-4d"/>
     <use x="88.916016" xlink:href="#TimesNewRomanPSMT-49"/>
     <use x="122.216797" xlink:href="#TimesNewRomanPSMT-4c"/>
     <use x="183.300781" xlink:href="#TimesNewRomanPSMT-50"/>
     <use x="235.166016" xlink:href="#TimesNewRomanPSMT-20"/>
     <use x="258.416016" xlink:href="#TimesNewRomanPSMT-54"/>
     <use x="312.5" xlink:href="#TimesNewRomanPSMT-6f"/>
     <use x="362.5" xlink:href="#TimesNewRomanPSMT-74"/>
     <use x="390.283203" xlink:href="#TimesNewRomanPSMT-61"/>
     <use x="434.667969" xlink:href="#TimesNewRomanPSMT-6c"/>
     <use x="462.451172" xlink:href="#TimesNewRomanPSMT-20"/>
     <use x="487.451172" xlink:href="#TimesNewRomanPSMT-70"/>
     <use x="537.451172" xlink:href="#TimesNewRomanPSMT-72"/>
     <use x="570.751953" xlink:href="#TimesNewRomanPSMT-69"/>
     <use x="598.535156" xlink:href="#TimesNewRomanPSMT-7a"/>
     <use x="642.919922" xlink:href="#TimesNewRomanPSMT-65"/>
     <use x="687.304688" xlink:href="#TimesNewRomanPSMT-3a"/>
     <use x="715.087891" xlink:href="#TimesNewRomanPSMT-20"/>
     <use x="740.087891" xlink:href="#TimesNewRomanPSMT-31"/>
     <use x="790.087891" xlink:href="#TimesNewRomanPSMT-34"/>
     <use x="840.087891" xlink:href="#TimesNewRomanPSMT-2e"/>
     <use x="865.087891" xlink:href="#TimesNewRomanPSMT-30"/>
     <use x="915.087891" xlink:href="#TimesNewRomanPSMT-30"/>
    </g>
   </g>
   <g id="legend_2">
    <g id="patch_15">
     <path d="M 712.5 87.91 
L 1163.3425 87.91 
Q 1166.5425 87.91 1166.5425 84.71 
L 1166.5425 41.065 
Q 1166.5425 37.865 1163.3425 37.865 
L 712.5 37.865 
Q 709.3 37.865 709.3 41.065 
L 709.3 84.71 
Q 709.3 87.91 712.5 87.91 
z
" style="fill:#ffffff;opacity:0.8;stroke:#cccccc;stroke-linejoin:miter;"/>
    </g>
    <g id="patch_16">
     <path d="M 715.7 55.465 
L 747.7 55.465 
L 747.7 44.265 
L 715.7 44.265 
z
" style="fill:#ccf900;"/>
    </g>
    <g id="text_21">
     <!-- Vehicle 0. Prizes: 7.00, Avail. fuel: 1.44, Re-planned dist: 1.34 -->
     <g transform="translate(760.5 55.465)scale(0.16 -0.16)">
      <use xlink:href="#TimesNewRomanPSMT-56"/>
      <use x="61.091797" xlink:href="#TimesNewRomanPSMT-65"/>
      <use x="105.476562" xlink:href="#TimesNewRomanPSMT-68"/>
      <use x="155.476562" xlink:href="#TimesNewRomanPSMT-69"/>
      <use x="183.259766" xlink:href="#TimesNewRomanPSMT-63"/>
      <use x="227.644531" xlink:href="#TimesNewRomanPSMT-6c"/>
      <use x="255.427734" xlink:href="#TimesNewRomanPSMT-65"/>
      <use x="299.8125" xlink:href="#TimesNewRomanPSMT-20"/>
      <use x="324.8125" xlink:href="#TimesNewRomanPSMT-30"/>
      <use x="374.8125" xlink:href="#TimesNewRomanPSMT-2e"/>
      <use x="399.8125" xlink:href="#TimesNewRomanPSMT-20"/>
      <use x="424.8125" xlink:href="#TimesNewRomanPSMT-50"/>
      <use x="480.427734" xlink:href="#TimesNewRomanPSMT-72"/>
      <use x="513.728516" xlink:href="#TimesNewRomanPSMT-69"/>
      <use x="541.511719" xlink:href="#TimesNewRomanPSMT-7a"/>
      <use x="585.896484" xlink:href="#TimesNewRomanPSMT-65"/>
      <use x="630.28125" xlink:href="#TimesNewRomanPSMT-73"/>
      <use x="669.197266" xlink:href="#TimesNewRomanPSMT-3a"/>
      <use x="696.980469" xlink:href="#TimesNewRomanPSMT-20"/>
      <use x="721.980469" xlink:href="#TimesNewRomanPSMT-37"/>
      <use x="771.980469" xlink:href="#TimesNewRomanPSMT-2e"/>
      <use x="796.980469" xlink:href="#TimesNewRomanPSMT-30"/>
      <use x="846.980469" xlink:href="#TimesNewRomanPSMT-30"/>
      <use x="896.980469" xlink:href="#TimesNewRomanPSMT-2c"/>
      <use x="921.980469" xlink:href="#TimesNewRomanPSMT-20"/>
      <use x="941.480469" xlink:href="#TimesNewRomanPSMT-41"/>
      <use x="1006.322266" xlink:href="#TimesNewRomanPSMT-76"/>
      <use x="1056.322266" xlink:href="#TimesNewRomanPSMT-61"/>
      <use x="1100.707031" xlink:href="#TimesNewRomanPSMT-69"/>
      <use x="1128.490234" xlink:href="#TimesNewRomanPSMT-6c"/>
      <use x="1156.273438" xlink:href="#TimesNewRomanPSMT-2e"/>
      <use x="1181.273438" xlink:href="#TimesNewRomanPSMT-20"/>
      <use x="1206.273438" xlink:href="#TimesNewRomanPSMT-66"/>
      <use x="1239.574219" xlink:href="#TimesNewRomanPSMT-75"/>
      <use x="1289.574219" xlink:href="#TimesNewRomanPSMT-65"/>
      <use x="1333.958984" xlink:href="#TimesNewRomanPSMT-6c"/>
      <use x="1361.742188" xlink:href="#TimesNewRomanPSMT-3a"/>
      <use x="1389.525391" xlink:href="#TimesNewRomanPSMT-20"/>
      <use x="1414.525391" xlink:href="#TimesNewRomanPSMT-31"/>
      <use x="1464.525391" xlink:href="#TimesNewRomanPSMT-2e"/>
      <use x="1489.525391" xlink:href="#TimesNewRomanPSMT-34"/>
      <use x="1539.525391" xlink:href="#TimesNewRomanPSMT-34"/>
      <use x="1589.525391" xlink:href="#TimesNewRomanPSMT-2c"/>
      <use x="1614.525391" xlink:href="#TimesNewRomanPSMT-20"/>
      <use x="1639.525391" xlink:href="#TimesNewRomanPSMT-52"/>
      <use x="1706.224609" xlink:href="#TimesNewRomanPSMT-65"/>
      <use x="1750.609375" xlink:href="#TimesNewRomanPSMT-2d"/>
      <use x="1783.910156" xlink:href="#TimesNewRomanPSMT-70"/>
      <use x="1833.910156" xlink:href="#TimesNewRomanPSMT-6c"/>
      <use x="1861.693359" xlink:href="#TimesNewRomanPSMT-61"/>
      <use x="1906.078125" xlink:href="#TimesNewRomanPSMT-6e"/>
      <use x="1956.078125" xlink:href="#TimesNewRomanPSMT-6e"/>
      <use x="2006.078125" xlink:href="#TimesNewRomanPSMT-65"/>
      <use x="2050.462891" xlink:href="#TimesNewRomanPSMT-64"/>
      <use x="2100.462891" xlink:href="#TimesNewRomanPSMT-20"/>
      <use x="2125.462891" xlink:href="#TimesNewRomanPSMT-64"/>
      <use x="2175.462891" xlink:href="#TimesNewRomanPSMT-69"/>
      <use x="2203.246094" xlink:href="#TimesNewRomanPSMT-73"/>
      <use x="2242.162109" xlink:href="#TimesNewRomanPSMT-74"/>
      <use x="2269.945312" xlink:href="#TimesNewRomanPSMT-3a"/>
      <use x="2297.728516" xlink:href="#TimesNewRomanPSMT-20"/>
      <use x="2322.728516" xlink:href="#TimesNewRomanPSMT-31"/>
      <use x="2372.728516" xlink:href="#TimesNewRomanPSMT-2e"/>
      <use x="2397.728516" xlink:href="#TimesNewRomanPSMT-33"/>
      <use x="2447.728516" xlink:href="#TimesNewRomanPSMT-34"/>
     </g>
    </g>
    <g id="patch_17">
     <path d="M 715.7 78.0875 
L 747.7 78.0875 
L 747.7 66.8875 
L 715.7 66.8875 
z
" style="fill:#00a4bb;"/>
    </g>
    <g id="text_22">
     <!-- Vehicle 1. Prizes: 7.00, Avail. fuel: 1.97, Re-planned dist: 1.90 -->
     <g transform="translate(760.5 78.0875)scale(0.16 -0.16)">
      <use xlink:href="#TimesNewRomanPSMT-56"/>
      <use x="61.091797" xlink:href="#TimesNewRomanPSMT-65"/>
      <use x="105.476562" xlink:href="#TimesNewRomanPSMT-68"/>
      <use x="155.476562" xlink:href="#TimesNewRomanPSMT-69"/>
      <use x="183.259766" xlink:href="#TimesNewRomanPSMT-63"/>
      <use x="227.644531" xlink:href="#TimesNewRomanPSMT-6c"/>
      <use x="255.427734" xlink:href="#TimesNewRomanPSMT-65"/>
      <use x="299.8125" xlink:href="#TimesNewRomanPSMT-20"/>
      <use x="324.8125" xlink:href="#TimesNewRomanPSMT-31"/>
      <use x="374.8125" xlink:href="#TimesNewRomanPSMT-2e"/>
      <use x="399.8125" xlink:href="#TimesNewRomanPSMT-20"/>
      <use x="424.8125" xlink:href="#TimesNewRomanPSMT-50"/>
      <use x="480.427734" xlink:href="#TimesNewRomanPSMT-72"/>
      <use x="513.728516" xlink:href="#TimesNewRomanPSMT-69"/>
      <use x="541.511719" xlink:href="#TimesNewRomanPSMT-7a"/>
      <use x="585.896484" xlink:href="#TimesNewRomanPSMT-65"/>
      <use x="630.28125" xlink:href="#TimesNewRomanPSMT-73"/>
      <use x="669.197266" xlink:href="#TimesNewRomanPSMT-3a"/>
      <use x="696.980469" xlink:href="#TimesNewRomanPSMT-20"/>
      <use x="721.980469" xlink:href="#TimesNewRomanPSMT-37"/>
      <use x="771.980469" xlink:href="#TimesNewRomanPSMT-2e"/>
      <use x="796.980469" xlink:href="#TimesNewRomanPSMT-30"/>
      <use x="846.980469" xlink:href="#TimesNewRomanPSMT-30"/>
      <use x="896.980469" xlink:href="#TimesNewRomanPSMT-2c"/>
      <use x="921.980469" xlink:href="#TimesNewRomanPSMT-20"/>
      <use x="941.480469" xlink:href="#TimesNewRomanPSMT-41"/>
      <use x="1006.322266" xlink:href="#TimesNewRomanPSMT-76"/>
      <use x="1056.322266" xlink:href="#TimesNewRomanPSMT-61"/>
      <use x="1100.707031" xlink:href="#TimesNewRomanPSMT-69"/>
      <use x="1128.490234" xlink:href="#TimesNewRomanPSMT-6c"/>
      <use x="1156.273438" xlink:href="#TimesNewRomanPSMT-2e"/>
      <use x="1181.273438" xlink:href="#TimesNewRomanPSMT-20"/>
      <use x="1206.273438" xlink:href="#TimesNewRomanPSMT-66"/>
      <use x="1239.574219" xlink:href="#TimesNewRomanPSMT-75"/>
      <use x="1289.574219" xlink:href="#TimesNewRomanPSMT-65"/>
      <use x="1333.958984" xlink:href="#TimesNewRomanPSMT-6c"/>
      <use x="1361.742188" xlink:href="#TimesNewRomanPSMT-3a"/>
      <use x="1389.525391" xlink:href="#TimesNewRomanPSMT-20"/>
      <use x="1414.525391" xlink:href="#TimesNewRomanPSMT-31"/>
      <use x="1464.525391" xlink:href="#TimesNewRomanPSMT-2e"/>
      <use x="1489.525391" xlink:href="#TimesNewRomanPSMT-39"/>
      <use x="1539.525391" xlink:href="#TimesNewRomanPSMT-37"/>
      <use x="1589.525391" xlink:href="#TimesNewRomanPSMT-2c"/>
      <use x="1614.525391" xlink:href="#TimesNewRomanPSMT-20"/>
      <use x="1639.525391" xlink:href="#TimesNewRomanPSMT-52"/>
      <use x="1706.224609" xlink:href="#TimesNewRomanPSMT-65"/>
      <use x="1750.609375" xlink:href="#TimesNewRomanPSMT-2d"/>
      <use x="1783.910156" xlink:href="#TimesNewRomanPSMT-70"/>
      <use x="1833.910156" xlink:href="#TimesNewRomanPSMT-6c"/>
      <use x="1861.693359" xlink:href="#TimesNewRomanPSMT-61"/>
      <use x="1906.078125" xlink:href="#TimesNewRomanPSMT-6e"/>
      <use x="1956.078125" xlink:href="#TimesNewRomanPSMT-6e"/>
      <use x="2006.078125" xlink:href="#TimesNewRomanPSMT-65"/>
      <use x="2050.462891" xlink:href="#TimesNewRomanPSMT-64"/>
      <use x="2100.462891" xlink:href="#TimesNewRomanPSMT-20"/>
      <use x="2125.462891" xlink:href="#TimesNewRomanPSMT-64"/>
      <use x="2175.462891" xlink:href="#TimesNewRomanPSMT-69"/>
      <use x="2203.246094" xlink:href="#TimesNewRomanPSMT-73"/>
      <use x="2242.162109" xlink:href="#TimesNewRomanPSMT-74"/>
      <use x="2269.945312" xlink:href="#TimesNewRomanPSMT-3a"/>
      <use x="2297.728516" xlink:href="#TimesNewRomanPSMT-20"/>
      <use x="2322.728516" xlink:href="#TimesNewRomanPSMT-31"/>
      <use x="2372.728516" xlink:href="#TimesNewRomanPSMT-2e"/>
      <use x="2397.728516" xlink:href="#TimesNewRomanPSMT-39"/>
      <use x="2447.728516" xlink:href="#TimesNewRomanPSMT-30"/>
     </g>
    </g>
   </g>
  </g>
 </g>
 <defs>
  <clipPath id="pbba23968ce">
   <rect height="434.88" width="558" x="31.7" y="29.865"/>
  </clipPath>
  <clipPath id="p47551cfd6b">
   <rect height="434.88" width="558" x="701.3" y="29.865"/>
  </clipPath>
 </defs>
</svg>
