<?xml version="1.0" encoding="utf-8" standalone="no"?>
<!DOCTYPE svg PUBLIC "-//W3C//DTD SVG 1.1//EN"
  "http://www.w3.org/Graphics/SVG/1.1/DTD/svg11.dtd">
<svg height="491.660937pt" version="1.1" viewBox="0 0 1275.25 491.660937" width="1275.25pt" xmlns="http://www.w3.org/2000/svg" xmlns:xlink="http://www.w3.org/1999/xlink">
 <metadata>
  <rdf:RDF xmlns:cc="http://creativecommons.org/ns#" xmlns:dc="http://purl.org/dc/elements/1.1/" xmlns:rdf="http://www.w3.org/1999/02/22-rdf-syntax-ns#">
   <cc:Work>
    <dc:type rdf:resource="http://purl.org/dc/dcmitype/StillImage"/>
    <dc:date>2022-06-22T13:45:15.842902</dc:date>
    <dc:format>image/svg+xml</dc:format>
    <dc:creator>
     <cc:Agent>
      <dc:title>Matplotlib v3.4.3, https://matplotlib.org/</dc:title>
     </cc:Agent>
    </dc:creator>
   </cc:Work>
  </rdf:RDF>
 </metadata>
 <defs>
  <style type="text/css">*{stroke-linecap:butt;stroke-linejoin:round;}</style>
 </defs>
 <g id="figure_1">
  <g id="patch_1">
   <path d="M 0 491.660937 
L 1275.25 491.660937 
L 1275.25 0 
L 0 0 
z
" style="fill:#ffffff;"/>
  </g>
  <g id="axes_1">
   <g id="patch_2">
    <path d="M 31.7 464.745 
L 589.7 464.745 
L 589.7 29.865 
L 31.7 29.865 
z
" style="fill:#ffffff;"/>
   </g>
   <g id="Quiver_1">
    <path clip-path="url(#pe7e64c5b89)" d="M 413.159855 104.369484 
L 417.449233 98.89349 
L 412.864303 97.960112 
L 430.709564 85.358157 
L 422.748083 105.702135 
L 420.743826 101.474164 
L 416.454448 106.950158 
L 413.159855 104.369484 
" style="fill:#ccf900;"/>
    <path clip-path="url(#pe7e64c5b89)" d="M 432.73824 84.845293 
L 444.846285 132.739673 
L 448.390773 129.685269 
L 447.433384 151.510622 
L 436.218716 132.762453 
L 440.788932 133.765401 
L 428.680888 85.871021 
L 432.73824 84.845293 
" style="fill:#ccf900;"/>
    <path clip-path="url(#pe7e64c5b89)" d="M 448.361 153.386278 
L 407.018077 173.832654 
L 410.748965 176.65635 
L 389.209559 180.305544 
L 405.183268 165.402415 
L 405.162845 170.081343 
L 446.505768 149.634966 
L 448.361 153.386278 
" style="fill:#ccf900;"/>
    <path clip-path="url(#pe7e64c5b89)" d="M 390.479874 181.96833 
L 353.148677 210.48816 
L 357.352092 212.543417 
L 336.91329 220.258207 
L 349.730204 202.566702 
L 350.608048 207.162589 
L 387.939245 178.642758 
L 390.479874 181.96833 
" style="fill:#ccf900;"/>
    <path clip-path="url(#pe7e64c5b89)" d="M 336.591015 222.325741 
L 262.198574 210.729891 
L 263.621558 215.187233 
L 243.913046 205.761884 
L 265.555206 202.782031 
L 262.843123 206.594824 
L 337.235565 218.190674 
L 336.591015 222.325741 
" style="fill:#ccf900;"/>
    <path clip-path="url(#pe7e64c5b89)" d="M 243.288263 207.758933 
L 166.377077 183.697014 
L 167.124559 188.315894 
L 149.028425 176.076917 
L 170.873258 176.333604 
L 167.626643 179.702918 
L 244.537829 203.764836 
L 243.288263 207.758933 
" style="fill:#ccf900;"/>
    <path clip-path="url(#pe7e64c5b89)" d="M 149.121089 178.167365 
L 86.752997 180.932001 
L 89.028773 185.020231 
L 67.846307 179.675537 
L 88.472785 172.477548 
L 86.567667 176.751107 
L 148.93576 173.98647 
L 149.121089 178.167365 
" style="fill:#ccf900;"/>
    <path clip-path="url(#pe7e64c5b89)" d="M 68.815063 179.64133 
L 68.84927 180.610086 
L 70.752575 179.572916 
L 68.18838 189.363099 
L 64.940039 179.778159 
L 66.911758 180.678501 
L 66.877551 179.709745 
L 68.815063 179.64133 
" style="fill:#ccf900;"/>
   </g>
   <g id="Quiver_2">
    <path clip-path="url(#pe7e64c5b89)" d="M 365.740418 180.767714 
L 420.957887 269.512849 
L 423.405773 265.525289 
L 429.130242 286.608294 
L 412.745775 272.15797 
L 417.404554 271.723742 
L 362.187085 182.978607 
L 365.740418 180.767714 
" style="fill:#00a4bb;"/>
    <path clip-path="url(#pe7e64c5b89)" d="M 430.498777 288.191223 
L 381.270727 330.751758 
L 385.590728 332.549082 
L 365.655823 341.485648 
L 377.379515 323.051503 
L 378.533656 327.585898 
L 427.761706 285.025364 
L 430.498777 288.191223 
" style="fill:#00a4bb;"/>
    <path clip-path="url(#pe7e64c5b89)" d="M 366.81826 343.225561 
L 214.15173 445.222097 
L 218.216516 447.539488 
L 197.330075 453.944111 
L 211.241898 437.100008 
L 211.826857 441.742271 
L 364.493387 339.745735 
L 366.81826 343.225561 
" style="fill:#00a4bb;"/>
    <path clip-path="url(#pe7e64c5b89)" d="M 195.9495 455.516552 
L 91.540381 363.847201 
L 90.351672 368.372657 
L 78.768991 349.849587 
L 98.635121 358.938013 
L 94.30153 360.70232 
L 198.71065 452.371671 
L 195.9495 455.516552 
" style="fill:#00a4bb;"/>
    <path clip-path="url(#pe7e64c5b89)" d="M 76.885245 348.93851 
L 120.745985 258.251873 
L 116.067418 258.313465 
L 130.829418 242.209242 
L 127.369889 263.779924 
L 124.513475 260.074026 
L 80.652736 350.760663 
L 76.885245 348.93851 
" style="fill:#00a4bb;"/>
    <path clip-path="url(#pe7e64c5b89)" d="M 130.899147 240.832706 
L 132.275684 240.902436 
L 131.038607 238.079633 
L 144.594781 242.90654 
L 130.620228 246.338852 
L 132.136224 243.655509 
L 130.759688 243.585779 
L 130.899147 240.832706 
" style="fill:#00a4bb;"/>
    <path clip-path="url(#pe7e64c5b89)" d="M 143.393924 244.620161 
L 82.410115 201.884436 
L 81.722021 206.512536 
L 68.18838 189.363099 
L 88.927165 196.230808 
L 84.811829 198.457193 
L 145.795639 241.192918 
L 143.393924 244.620161 
" style="fill:#00a4bb;"/>
   </g>
   <g id="matplotlib.axis_1">
    <g id="xtick_1">
     <g id="line2d_1">
      <defs>
       <path d="M 0 0 
L 0 3.5 
" id="m88371b99c2" style="stroke:#000000;stroke-width:0.8;"/>
      </defs>
      <g>
       <use style="stroke:#000000;stroke-width:0.8;" x="31.7" xlink:href="#m88371b99c2" y="464.745"/>
      </g>
     </g>
     <g id="text_1">
      <!-- 0.0 -->
      <g transform="translate(22.95 481.46625)scale(0.14 -0.14)">
       <defs>
        <path d="M 231 2094 
Q 231 2819 450 3342 
Q 669 3866 1031 4122 
Q 1313 4325 1613 4325 
Q 2100 4325 2488 3828 
Q 2972 3213 2972 2159 
Q 2972 1422 2759 906 
Q 2547 391 2217 158 
Q 1888 -75 1581 -75 
Q 975 -75 572 641 
Q 231 1244 231 2094 
z
M 844 2016 
Q 844 1141 1059 588 
Q 1238 122 1591 122 
Q 1759 122 1940 273 
Q 2122 425 2216 781 
Q 2359 1319 2359 2297 
Q 2359 3022 2209 3506 
Q 2097 3866 1919 4016 
Q 1791 4119 1609 4119 
Q 1397 4119 1231 3928 
Q 1006 3669 925 3112 
Q 844 2556 844 2016 
z
" id="TimesNewRomanPSMT-30" transform="scale(0.015625)"/>
        <path d="M 800 606 
Q 947 606 1047 504 
Q 1147 403 1147 259 
Q 1147 116 1045 14 
Q 944 -88 800 -88 
Q 656 -88 554 14 
Q 453 116 453 259 
Q 453 406 554 506 
Q 656 606 800 606 
z
" id="TimesNewRomanPSMT-2e" transform="scale(0.015625)"/>
       </defs>
       <use xlink:href="#TimesNewRomanPSMT-30"/>
       <use x="50" xlink:href="#TimesNewRomanPSMT-2e"/>
       <use x="75" xlink:href="#TimesNewRomanPSMT-30"/>
      </g>
     </g>
    </g>
    <g id="xtick_2">
     <g id="line2d_2">
      <g>
       <use style="stroke:#000000;stroke-width:0.8;" x="310.7" xlink:href="#m88371b99c2" y="464.745"/>
      </g>
     </g>
     <g id="text_2">
      <!-- 0.5 -->
      <g transform="translate(301.95 481.46625)scale(0.14 -0.14)">
       <defs>
        <path d="M 2778 4238 
L 2534 3706 
L 1259 3706 
L 981 3138 
Q 1809 3016 2294 2522 
Q 2709 2097 2709 1522 
Q 2709 1188 2573 903 
Q 2438 619 2231 419 
Q 2025 219 1772 97 
Q 1413 -75 1034 -75 
Q 653 -75 479 54 
Q 306 184 306 341 
Q 306 428 378 495 
Q 450 563 559 563 
Q 641 563 702 538 
Q 763 513 909 409 
Q 1144 247 1384 247 
Q 1750 247 2026 523 
Q 2303 800 2303 1197 
Q 2303 1581 2056 1914 
Q 1809 2247 1375 2428 
Q 1034 2569 447 2591 
L 1259 4238 
L 2778 4238 
z
" id="TimesNewRomanPSMT-35" transform="scale(0.015625)"/>
       </defs>
       <use xlink:href="#TimesNewRomanPSMT-30"/>
       <use x="50" xlink:href="#TimesNewRomanPSMT-2e"/>
       <use x="75" xlink:href="#TimesNewRomanPSMT-35"/>
      </g>
     </g>
    </g>
    <g id="xtick_3">
     <g id="line2d_3">
      <g>
       <use style="stroke:#000000;stroke-width:0.8;" x="589.7" xlink:href="#m88371b99c2" y="464.745"/>
      </g>
     </g>
     <g id="text_3">
      <!-- 1.0 -->
      <g transform="translate(580.95 481.46625)scale(0.14 -0.14)">
       <defs>
        <path d="M 750 3822 
L 1781 4325 
L 1884 4325 
L 1884 747 
Q 1884 391 1914 303 
Q 1944 216 2037 169 
Q 2131 122 2419 116 
L 2419 0 
L 825 0 
L 825 116 
Q 1125 122 1212 167 
Q 1300 213 1334 289 
Q 1369 366 1369 747 
L 1369 3034 
Q 1369 3497 1338 3628 
Q 1316 3728 1258 3775 
Q 1200 3822 1119 3822 
Q 1003 3822 797 3725 
L 750 3822 
z
" id="TimesNewRomanPSMT-31" transform="scale(0.015625)"/>
       </defs>
       <use xlink:href="#TimesNewRomanPSMT-31"/>
       <use x="50" xlink:href="#TimesNewRomanPSMT-2e"/>
       <use x="75" xlink:href="#TimesNewRomanPSMT-30"/>
      </g>
     </g>
    </g>
   </g>
   <g id="matplotlib.axis_2">
    <g id="ytick_1">
     <g id="line2d_4">
      <defs>
       <path d="M 0 0 
L -3.5 0 
" id="m767e9dca9d" style="stroke:#000000;stroke-width:0.8;"/>
      </defs>
      <g>
       <use style="stroke:#000000;stroke-width:0.8;" x="31.7" xlink:href="#m767e9dca9d" y="464.745"/>
      </g>
     </g>
     <g id="text_4">
      <!-- 0.0 -->
      <g transform="translate(7.2 469.605625)scale(0.14 -0.14)">
       <use xlink:href="#TimesNewRomanPSMT-30"/>
       <use x="50" xlink:href="#TimesNewRomanPSMT-2e"/>
       <use x="75" xlink:href="#TimesNewRomanPSMT-30"/>
      </g>
     </g>
    </g>
    <g id="ytick_2">
     <g id="line2d_5">
      <g>
       <use style="stroke:#000000;stroke-width:0.8;" x="31.7" xlink:href="#m767e9dca9d" y="247.305"/>
      </g>
     </g>
     <g id="text_5">
      <!-- 0.5 -->
      <g transform="translate(7.2 252.165625)scale(0.14 -0.14)">
       <use xlink:href="#TimesNewRomanPSMT-30"/>
       <use x="50" xlink:href="#TimesNewRomanPSMT-2e"/>
       <use x="75" xlink:href="#TimesNewRomanPSMT-35"/>
      </g>
     </g>
    </g>
    <g id="ytick_3">
     <g id="line2d_6">
      <g>
       <use style="stroke:#000000;stroke-width:0.8;" x="31.7" xlink:href="#m767e9dca9d" y="29.865"/>
      </g>
     </g>
     <g id="text_6">
      <!-- 1.0 -->
      <g transform="translate(7.2 34.725625)scale(0.14 -0.14)">
       <use xlink:href="#TimesNewRomanPSMT-31"/>
       <use x="50" xlink:href="#TimesNewRomanPSMT-2e"/>
       <use x="75" xlink:href="#TimesNewRomanPSMT-30"/>
      </g>
     </g>
    </g>
   </g>
   <g id="line2d_7">
    <defs>
     <path d="M -10 10 
L 10 10 
L 10 -10 
L -10 -10 
z
" id="mae54c5bead" style="stroke:#000000;stroke-linejoin:miter;"/>
    </defs>
    <g clip-path="url(#pe7e64c5b89)">
     <use style="stroke:#000000;stroke-linejoin:miter;" x="68.18838" xlink:href="#mae54c5bead" y="189.363099"/>
    </g>
   </g>
   <g id="line2d_8">
    <defs>
     <path d="M -5 5 
L 5 5 
L 5 -5 
L -5 -5 
z
" id="me1a018a47e" style="stroke:#0000ff;stroke-linejoin:miter;"/>
    </defs>
    <g clip-path="url(#pe7e64c5b89)">
     <use style="fill:#0000ff;stroke:#0000ff;stroke-linejoin:miter;" x="541.32162" xlink:href="#me1a018a47e" y="205.199116"/>
     <use style="fill:#0000ff;stroke:#0000ff;stroke-linejoin:miter;" x="430.709564" xlink:href="#me1a018a47e" y="85.358157"/>
     <use style="fill:#0000ff;stroke:#0000ff;stroke-linejoin:miter;" x="429.130242" xlink:href="#me1a018a47e" y="286.608294"/>
     <use style="fill:#0000ff;stroke:#0000ff;stroke-linejoin:miter;" x="78.768991" xlink:href="#me1a018a47e" y="349.849587"/>
     <use style="fill:#0000ff;stroke:#0000ff;stroke-linejoin:miter;" x="144.594781" xlink:href="#me1a018a47e" y="242.90654"/>
     <use style="fill:#0000ff;stroke:#0000ff;stroke-linejoin:miter;" x="113.150887" xlink:href="#me1a018a47e" y="109.232287"/>
     <use style="fill:#0000ff;stroke:#0000ff;stroke-linejoin:miter;" x="365.655823" xlink:href="#me1a018a47e" y="341.485648"/>
     <use style="fill:#0000ff;stroke:#0000ff;stroke-linejoin:miter;" x="149.028425" xlink:href="#me1a018a47e" y="176.076917"/>
     <use style="fill:#0000ff;stroke:#0000ff;stroke-linejoin:miter;" x="243.913046" xlink:href="#me1a018a47e" y="205.761884"/>
     <use style="fill:#0000ff;stroke:#0000ff;stroke-linejoin:miter;" x="336.91329" xlink:href="#me1a018a47e" y="220.258207"/>
     <use style="fill:#0000ff;stroke:#0000ff;stroke-linejoin:miter;" x="272.089737" xlink:href="#me1a018a47e" y="289.915071"/>
     <use style="fill:#0000ff;stroke:#0000ff;stroke-linejoin:miter;" x="245.279109" xlink:href="#me1a018a47e" y="163.459987"/>
     <use style="fill:#0000ff;stroke:#0000ff;stroke-linejoin:miter;" x="130.829418" xlink:href="#me1a018a47e" y="242.209242"/>
     <use style="fill:#0000ff;stroke:#0000ff;stroke-linejoin:miter;" x="197.330075" xlink:href="#me1a018a47e" y="453.944111"/>
     <use style="fill:#0000ff;stroke:#0000ff;stroke-linejoin:miter;" x="389.209559" xlink:href="#me1a018a47e" y="180.305544"/>
     <use style="fill:#0000ff;stroke:#0000ff;stroke-linejoin:miter;" x="558.968222" xlink:href="#me1a018a47e" y="104.437237"/>
     <use style="fill:#0000ff;stroke:#0000ff;stroke-linejoin:miter;" x="583.773575" xlink:href="#me1a018a47e" y="418.172873"/>
     <use style="fill:#0000ff;stroke:#0000ff;stroke-linejoin:miter;" x="67.846307" xlink:href="#me1a018a47e" y="179.675537"/>
     <use style="fill:#0000ff;stroke:#0000ff;stroke-linejoin:miter;" x="447.433384" xlink:href="#me1a018a47e" y="151.510622"/>
     <use style="fill:#0000ff;stroke:#0000ff;stroke-linejoin:miter;" x="126.976051" xlink:href="#me1a018a47e" y="77.142201"/>
    </g>
   </g>
   <g id="line2d_9">
    <defs>
     <path d="M -5 5 
L 5 5 
L 5 -5 
L -5 -5 
z
" id="m6177af2e12" style="stroke:#ff0000;stroke-linejoin:miter;"/>
    </defs>
    <g clip-path="url(#pe7e64c5b89)">
     <use style="fill:#ff0000;stroke:#ff0000;stroke-linejoin:miter;" x="414.807151" xlink:href="#m6177af2e12" y="105.659821"/>
     <use style="fill:#ff0000;stroke:#ff0000;stroke-linejoin:miter;" x="363.963752" xlink:href="#m6177af2e12" y="181.87316"/>
    </g>
   </g>
   <g id="patch_3">
    <path d="M 31.7 464.745 
L 31.7 29.865 
" style="fill:none;stroke:#000000;stroke-linecap:square;stroke-linejoin:miter;stroke-width:0.8;"/>
   </g>
   <g id="patch_4">
    <path d="M 589.7 464.745 
L 589.7 29.865 
" style="fill:none;stroke:#000000;stroke-linecap:square;stroke-linejoin:miter;stroke-width:0.8;"/>
   </g>
   <g id="patch_5">
    <path d="M 31.7 464.745 
L 589.7 464.745 
" style="fill:none;stroke:#000000;stroke-linecap:square;stroke-linejoin:miter;stroke-width:0.8;"/>
   </g>
   <g id="patch_6">
    <path d="M 31.7 29.865 
L 589.7 29.865 
" style="fill:none;stroke:#000000;stroke-linecap:square;stroke-linejoin:miter;stroke-width:0.8;"/>
   </g>
   <g id="text_7">
    <!-- 1.11 -->
    <g transform="translate(419.435372 100.121211)scale(0.14 -0.14)">
     <use xlink:href="#TimesNewRomanPSMT-31"/>
     <use x="50" xlink:href="#TimesNewRomanPSMT-2e"/>
     <use x="75" xlink:href="#TimesNewRomanPSMT-31"/>
     <use x="121.25" xlink:href="#TimesNewRomanPSMT-31"/>
    </g>
   </g>
   <g id="text_8">
    <!-- 1.70 -->
    <g transform="translate(368.693278 176.334551)scale(0.14 -0.14)">
     <defs>
      <path d="M 644 4238 
L 2916 4238 
L 2916 4119 
L 1503 -88 
L 1153 -88 
L 2419 3728 
L 1253 3728 
Q 900 3728 750 3644 
Q 488 3500 328 3200 
L 238 3234 
L 644 4238 
z
" id="TimesNewRomanPSMT-37" transform="scale(0.015625)"/>
     </defs>
     <use xlink:href="#TimesNewRomanPSMT-31"/>
     <use x="50" xlink:href="#TimesNewRomanPSMT-2e"/>
     <use x="75" xlink:href="#TimesNewRomanPSMT-37"/>
     <use x="125" xlink:href="#TimesNewRomanPSMT-30"/>
    </g>
   </g>
   <g id="text_9">
    <!-- 0.27 -->
    <g transform="translate(546.051147 199.660506)scale(0.14 -0.14)">
     <defs>
      <path d="M 2934 816 
L 2638 0 
L 138 0 
L 138 116 
Q 1241 1122 1691 1759 
Q 2141 2397 2141 2925 
Q 2141 3328 1894 3587 
Q 1647 3847 1303 3847 
Q 991 3847 742 3664 
Q 494 3481 375 3128 
L 259 3128 
Q 338 3706 661 4015 
Q 984 4325 1469 4325 
Q 1984 4325 2329 3994 
Q 2675 3663 2675 3213 
Q 2675 2891 2525 2569 
Q 2294 2063 1775 1497 
Q 997 647 803 472 
L 1909 472 
Q 2247 472 2383 497 
Q 2519 522 2628 598 
Q 2738 675 2819 816 
L 2934 816 
z
" id="TimesNewRomanPSMT-32" transform="scale(0.015625)"/>
     </defs>
     <use xlink:href="#TimesNewRomanPSMT-30"/>
     <use x="50" xlink:href="#TimesNewRomanPSMT-2e"/>
     <use x="75" xlink:href="#TimesNewRomanPSMT-32"/>
     <use x="125" xlink:href="#TimesNewRomanPSMT-37"/>
    </g>
   </g>
   <g id="text_10">
    <!-- 1.00 -->
    <g transform="translate(435.43909 79.819547)scale(0.14 -0.14)">
     <use xlink:href="#TimesNewRomanPSMT-31"/>
     <use x="50" xlink:href="#TimesNewRomanPSMT-2e"/>
     <use x="75" xlink:href="#TimesNewRomanPSMT-30"/>
     <use x="125" xlink:href="#TimesNewRomanPSMT-30"/>
    </g>
   </g>
   <g id="text_11">
    <!-- 0.67 -->
    <g transform="translate(433.859768 281.069684)scale(0.14 -0.14)">
     <defs>
      <path d="M 2869 4325 
L 2869 4209 
Q 2456 4169 2195 4045 
Q 1934 3922 1679 3669 
Q 1425 3416 1258 3105 
Q 1091 2794 978 2366 
Q 1428 2675 1881 2675 
Q 2316 2675 2634 2325 
Q 2953 1975 2953 1425 
Q 2953 894 2631 456 
Q 2244 -75 1606 -75 
Q 1172 -75 869 213 
Q 275 772 275 1663 
Q 275 2231 503 2743 
Q 731 3256 1154 3653 
Q 1578 4050 1965 4187 
Q 2353 4325 2688 4325 
L 2869 4325 
z
M 925 2138 
Q 869 1716 869 1456 
Q 869 1156 980 804 
Q 1091 453 1309 247 
Q 1469 100 1697 100 
Q 1969 100 2183 356 
Q 2397 613 2397 1088 
Q 2397 1622 2184 2012 
Q 1972 2403 1581 2403 
Q 1463 2403 1327 2353 
Q 1191 2303 925 2138 
z
" id="TimesNewRomanPSMT-36" transform="scale(0.015625)"/>
     </defs>
     <use xlink:href="#TimesNewRomanPSMT-30"/>
     <use x="50" xlink:href="#TimesNewRomanPSMT-2e"/>
     <use x="75" xlink:href="#TimesNewRomanPSMT-36"/>
     <use x="125" xlink:href="#TimesNewRomanPSMT-37"/>
    </g>
   </g>
   <g id="text_12">
    <!-- 0.02 -->
    <g transform="translate(83.498517 344.310977)scale(0.14 -0.14)">
     <use xlink:href="#TimesNewRomanPSMT-30"/>
     <use x="50" xlink:href="#TimesNewRomanPSMT-2e"/>
     <use x="75" xlink:href="#TimesNewRomanPSMT-30"/>
     <use x="125" xlink:href="#TimesNewRomanPSMT-32"/>
    </g>
   </g>
   <g id="text_13">
    <!-- 0.94 -->
    <g transform="translate(149.324308 237.36793)scale(0.14 -0.14)">
     <defs>
      <path d="M 338 -88 
L 338 28 
Q 744 34 1094 217 
Q 1444 400 1770 856 
Q 2097 1313 2225 1859 
Q 1734 1544 1338 1544 
Q 891 1544 572 1889 
Q 253 2234 253 2806 
Q 253 3363 572 3797 
Q 956 4325 1575 4325 
Q 2097 4325 2469 3894 
Q 2925 3359 2925 2575 
Q 2925 1869 2578 1258 
Q 2231 647 1613 244 
Q 1109 -88 516 -88 
L 338 -88 
z
M 2275 2091 
Q 2331 2497 2331 2741 
Q 2331 3044 2228 3395 
Q 2125 3747 1936 3934 
Q 1747 4122 1506 4122 
Q 1228 4122 1018 3872 
Q 809 3622 809 3128 
Q 809 2469 1088 2097 
Q 1291 1828 1588 1828 
Q 1731 1828 1928 1897 
Q 2125 1966 2275 2091 
z
" id="TimesNewRomanPSMT-39" transform="scale(0.015625)"/>
      <path d="M 2978 1563 
L 2978 1119 
L 2409 1119 
L 2409 0 
L 1894 0 
L 1894 1119 
L 100 1119 
L 100 1519 
L 2066 4325 
L 2409 4325 
L 2409 1563 
L 2978 1563 
z
M 1894 1563 
L 1894 3666 
L 406 1563 
L 1894 1563 
z
" id="TimesNewRomanPSMT-34" transform="scale(0.015625)"/>
     </defs>
     <use xlink:href="#TimesNewRomanPSMT-30"/>
     <use x="50" xlink:href="#TimesNewRomanPSMT-2e"/>
     <use x="75" xlink:href="#TimesNewRomanPSMT-39"/>
     <use x="125" xlink:href="#TimesNewRomanPSMT-34"/>
    </g>
   </g>
   <g id="text_14">
    <!-- 0.13 -->
    <g transform="translate(117.880413 103.693677)scale(0.14 -0.14)">
     <defs>
      <path d="M 325 3431 
Q 506 3859 782 4092 
Q 1059 4325 1472 4325 
Q 1981 4325 2253 3994 
Q 2459 3747 2459 3466 
Q 2459 3003 1878 2509 
Q 2269 2356 2469 2072 
Q 2669 1788 2669 1403 
Q 2669 853 2319 450 
Q 1863 -75 997 -75 
Q 569 -75 414 31 
Q 259 138 259 259 
Q 259 350 332 419 
Q 406 488 509 488 
Q 588 488 669 463 
Q 722 447 909 348 
Q 1097 250 1169 231 
Q 1284 197 1416 197 
Q 1734 197 1970 444 
Q 2206 691 2206 1028 
Q 2206 1275 2097 1509 
Q 2016 1684 1919 1775 
Q 1784 1900 1550 2001 
Q 1316 2103 1072 2103 
L 972 2103 
L 972 2197 
Q 1219 2228 1467 2375 
Q 1716 2522 1828 2728 
Q 1941 2934 1941 3181 
Q 1941 3503 1739 3701 
Q 1538 3900 1238 3900 
Q 753 3900 428 3381 
L 325 3431 
z
" id="TimesNewRomanPSMT-33" transform="scale(0.015625)"/>
     </defs>
     <use xlink:href="#TimesNewRomanPSMT-30"/>
     <use x="50" xlink:href="#TimesNewRomanPSMT-2e"/>
     <use x="75" xlink:href="#TimesNewRomanPSMT-31"/>
     <use x="125" xlink:href="#TimesNewRomanPSMT-33"/>
    </g>
   </g>
   <g id="text_15">
    <!-- 0.97 -->
    <g transform="translate(370.38535 335.947038)scale(0.14 -0.14)">
     <use xlink:href="#TimesNewRomanPSMT-30"/>
     <use x="50" xlink:href="#TimesNewRomanPSMT-2e"/>
     <use x="75" xlink:href="#TimesNewRomanPSMT-39"/>
     <use x="125" xlink:href="#TimesNewRomanPSMT-37"/>
    </g>
   </g>
   <g id="text_16">
    <!-- 0.67 -->
    <g transform="translate(153.757951 170.538308)scale(0.14 -0.14)">
     <use xlink:href="#TimesNewRomanPSMT-30"/>
     <use x="50" xlink:href="#TimesNewRomanPSMT-2e"/>
     <use x="75" xlink:href="#TimesNewRomanPSMT-36"/>
     <use x="125" xlink:href="#TimesNewRomanPSMT-37"/>
    </g>
   </g>
   <g id="text_17">
    <!-- 0.44 -->
    <g transform="translate(248.642572 200.223274)scale(0.14 -0.14)">
     <use xlink:href="#TimesNewRomanPSMT-30"/>
     <use x="50" xlink:href="#TimesNewRomanPSMT-2e"/>
     <use x="75" xlink:href="#TimesNewRomanPSMT-34"/>
     <use x="125" xlink:href="#TimesNewRomanPSMT-34"/>
    </g>
   </g>
   <g id="text_18">
    <!-- 0.32 -->
    <g transform="translate(341.642816 214.719597)scale(0.14 -0.14)">
     <use xlink:href="#TimesNewRomanPSMT-30"/>
     <use x="50" xlink:href="#TimesNewRomanPSMT-2e"/>
     <use x="75" xlink:href="#TimesNewRomanPSMT-33"/>
     <use x="125" xlink:href="#TimesNewRomanPSMT-32"/>
    </g>
   </g>
   <g id="text_19">
    <!-- 0.06 -->
    <g transform="translate(276.819264 284.376461)scale(0.14 -0.14)">
     <use xlink:href="#TimesNewRomanPSMT-30"/>
     <use x="50" xlink:href="#TimesNewRomanPSMT-2e"/>
     <use x="75" xlink:href="#TimesNewRomanPSMT-30"/>
     <use x="125" xlink:href="#TimesNewRomanPSMT-36"/>
    </g>
   </g>
   <g id="text_20">
    <!-- 0.16 -->
    <g transform="translate(250.008635 157.921377)scale(0.14 -0.14)">
     <use xlink:href="#TimesNewRomanPSMT-30"/>
     <use x="50" xlink:href="#TimesNewRomanPSMT-2e"/>
     <use x="75" xlink:href="#TimesNewRomanPSMT-31"/>
     <use x="125" xlink:href="#TimesNewRomanPSMT-36"/>
    </g>
   </g>
   <g id="text_21">
    <!-- 0.08 -->
    <g transform="translate(101.599891 236.670633)scale(0.14 -0.14)">
     <defs>
      <path d="M 1228 2134 
Q 725 2547 579 2797 
Q 434 3047 434 3316 
Q 434 3728 753 4026 
Q 1072 4325 1600 4325 
Q 2113 4325 2425 4047 
Q 2738 3769 2738 3413 
Q 2738 3175 2569 2928 
Q 2400 2681 1866 2347 
Q 2416 1922 2594 1678 
Q 2831 1359 2831 1006 
Q 2831 559 2490 242 
Q 2150 -75 1597 -75 
Q 994 -75 656 303 
Q 388 606 388 966 
Q 388 1247 577 1523 
Q 766 1800 1228 2134 
z
M 1719 2469 
Q 2094 2806 2194 3001 
Q 2294 3197 2294 3444 
Q 2294 3772 2109 3958 
Q 1925 4144 1606 4144 
Q 1288 4144 1088 3959 
Q 888 3775 888 3528 
Q 888 3366 970 3203 
Q 1053 3041 1206 2894 
L 1719 2469 
z
M 1375 2016 
Q 1116 1797 991 1539 
Q 866 1281 866 981 
Q 866 578 1086 336 
Q 1306 94 1647 94 
Q 1984 94 2187 284 
Q 2391 475 2391 747 
Q 2391 972 2272 1150 
Q 2050 1481 1375 2016 
z
" id="TimesNewRomanPSMT-38" transform="scale(0.015625)"/>
     </defs>
     <use xlink:href="#TimesNewRomanPSMT-30"/>
     <use x="50" xlink:href="#TimesNewRomanPSMT-2e"/>
     <use x="75" xlink:href="#TimesNewRomanPSMT-30"/>
     <use x="125" xlink:href="#TimesNewRomanPSMT-38"/>
    </g>
   </g>
   <g id="text_22">
    <!-- 0.67 -->
    <g transform="translate(202.059601 448.405501)scale(0.14 -0.14)">
     <use xlink:href="#TimesNewRomanPSMT-30"/>
     <use x="50" xlink:href="#TimesNewRomanPSMT-2e"/>
     <use x="75" xlink:href="#TimesNewRomanPSMT-36"/>
     <use x="125" xlink:href="#TimesNewRomanPSMT-37"/>
    </g>
   </g>
   <g id="text_23">
    <!-- 0.49 -->
    <g transform="translate(393.939085 174.766934)scale(0.14 -0.14)">
     <use xlink:href="#TimesNewRomanPSMT-30"/>
     <use x="50" xlink:href="#TimesNewRomanPSMT-2e"/>
     <use x="75" xlink:href="#TimesNewRomanPSMT-34"/>
     <use x="125" xlink:href="#TimesNewRomanPSMT-39"/>
    </g>
   </g>
   <g id="text_24">
    <!-- 0.21 -->
    <g transform="translate(563.697748 98.898628)scale(0.14 -0.14)">
     <use xlink:href="#TimesNewRomanPSMT-30"/>
     <use x="50" xlink:href="#TimesNewRomanPSMT-2e"/>
     <use x="75" xlink:href="#TimesNewRomanPSMT-32"/>
     <use x="125" xlink:href="#TimesNewRomanPSMT-31"/>
    </g>
   </g>
   <g id="text_25">
    <!-- 0.47 -->
    <g transform="translate(554.544049 412.634263)scale(0.14 -0.14)">
     <use xlink:href="#TimesNewRomanPSMT-30"/>
     <use x="50" xlink:href="#TimesNewRomanPSMT-2e"/>
     <use x="75" xlink:href="#TimesNewRomanPSMT-34"/>
     <use x="125" xlink:href="#TimesNewRomanPSMT-37"/>
    </g>
   </g>
   <g id="text_26">
    <!-- 0.59 -->
    <g transform="translate(72.575833 174.136928)scale(0.14 -0.14)">
     <use xlink:href="#TimesNewRomanPSMT-30"/>
     <use x="50" xlink:href="#TimesNewRomanPSMT-2e"/>
     <use x="75" xlink:href="#TimesNewRomanPSMT-35"/>
     <use x="125" xlink:href="#TimesNewRomanPSMT-39"/>
    </g>
   </g>
   <g id="text_27">
    <!-- 0.30 -->
    <g transform="translate(452.16291 145.972012)scale(0.14 -0.14)">
     <use xlink:href="#TimesNewRomanPSMT-30"/>
     <use x="50" xlink:href="#TimesNewRomanPSMT-2e"/>
     <use x="75" xlink:href="#TimesNewRomanPSMT-33"/>
     <use x="125" xlink:href="#TimesNewRomanPSMT-30"/>
    </g>
   </g>
   <g id="text_28">
    <!-- 0.11 -->
    <g transform="translate(131.604272 71.603591)scale(0.14 -0.14)">
     <use xlink:href="#TimesNewRomanPSMT-30"/>
     <use x="50" xlink:href="#TimesNewRomanPSMT-2e"/>
     <use x="75" xlink:href="#TimesNewRomanPSMT-31"/>
     <use x="121.25" xlink:href="#TimesNewRomanPSMT-31"/>
    </g>
   </g>
   <g id="text_29">
    <!-- DDTM Total prize: 7.16 -->
    <g transform="translate(193.776875 23.865)scale(0.24 -0.24)">
     <defs>
      <path d="M 109 0 
L 109 116 
L 269 116 
Q 538 116 650 288 
Q 719 391 719 750 
L 719 3488 
Q 719 3884 631 3984 
Q 509 4122 269 4122 
L 109 4122 
L 109 4238 
L 1834 4238 
Q 2784 4238 3279 4022 
Q 3775 3806 4076 3303 
Q 4378 2800 4378 2141 
Q 4378 1256 3841 663 
Q 3238 0 2003 0 
L 109 0 
z
M 1319 306 
Q 1716 219 1984 219 
Q 2709 219 3187 728 
Q 3666 1238 3666 2109 
Q 3666 2988 3187 3494 
Q 2709 4000 1959 4000 
Q 1678 4000 1319 3909 
L 1319 306 
z
" id="TimesNewRomanPSMT-44" transform="scale(0.015625)"/>
      <path d="M 3703 4238 
L 3750 3244 
L 3631 3244 
Q 3597 3506 3538 3619 
Q 3441 3800 3280 3886 
Q 3119 3972 2856 3972 
L 2259 3972 
L 2259 734 
Q 2259 344 2344 247 
Q 2463 116 2709 116 
L 2856 116 
L 2856 0 
L 1059 0 
L 1059 116 
L 1209 116 
Q 1478 116 1591 278 
Q 1659 378 1659 734 
L 1659 3972 
L 1150 3972 
Q 853 3972 728 3928 
Q 566 3869 450 3700 
Q 334 3531 313 3244 
L 194 3244 
L 244 4238 
L 3703 4238 
z
" id="TimesNewRomanPSMT-54" transform="scale(0.015625)"/>
      <path d="M 2619 0 
L 981 3566 
L 981 734 
Q 981 344 1066 247 
Q 1181 116 1431 116 
L 1581 116 
L 1581 0 
L 106 0 
L 106 116 
L 256 116 
Q 525 116 638 278 
Q 706 378 706 734 
L 706 3503 
Q 706 3784 644 3909 
Q 600 4000 483 4061 
Q 366 4122 106 4122 
L 106 4238 
L 1306 4238 
L 2844 922 
L 4356 4238 
L 5556 4238 
L 5556 4122 
L 5409 4122 
Q 5138 4122 5025 3959 
Q 4956 3859 4956 3503 
L 4956 734 
Q 4956 344 5044 247 
Q 5159 116 5409 116 
L 5556 116 
L 5556 0 
L 3756 0 
L 3756 116 
L 3906 116 
Q 4178 116 4288 278 
Q 4356 378 4356 734 
L 4356 3566 
L 2722 0 
L 2619 0 
z
" id="TimesNewRomanPSMT-4d" transform="scale(0.015625)"/>
      <path id="TimesNewRomanPSMT-20" transform="scale(0.015625)"/>
      <path d="M 1600 2947 
Q 2250 2947 2644 2453 
Q 2978 2031 2978 1484 
Q 2978 1100 2793 706 
Q 2609 313 2286 112 
Q 1963 -88 1566 -88 
Q 919 -88 538 428 
Q 216 863 216 1403 
Q 216 1797 411 2186 
Q 606 2575 925 2761 
Q 1244 2947 1600 2947 
z
M 1503 2744 
Q 1338 2744 1170 2645 
Q 1003 2547 900 2300 
Q 797 2053 797 1666 
Q 797 1041 1045 587 
Q 1294 134 1700 134 
Q 2003 134 2200 384 
Q 2397 634 2397 1244 
Q 2397 2006 2069 2444 
Q 1847 2744 1503 2744 
z
" id="TimesNewRomanPSMT-6f" transform="scale(0.015625)"/>
      <path d="M 1031 3803 
L 1031 2863 
L 1700 2863 
L 1700 2644 
L 1031 2644 
L 1031 788 
Q 1031 509 1111 412 
Q 1191 316 1316 316 
Q 1419 316 1516 380 
Q 1613 444 1666 569 
L 1788 569 
Q 1678 263 1478 108 
Q 1278 -47 1066 -47 
Q 922 -47 784 33 
Q 647 113 581 261 
Q 516 409 516 719 
L 516 2644 
L 63 2644 
L 63 2747 
Q 234 2816 414 2980 
Q 594 3144 734 3369 
Q 806 3488 934 3803 
L 1031 3803 
z
" id="TimesNewRomanPSMT-74" transform="scale(0.015625)"/>
      <path d="M 1822 413 
Q 1381 72 1269 19 
Q 1100 -59 909 -59 
Q 613 -59 420 144 
Q 228 347 228 678 
Q 228 888 322 1041 
Q 450 1253 767 1440 
Q 1084 1628 1822 1897 
L 1822 2009 
Q 1822 2438 1686 2597 
Q 1550 2756 1291 2756 
Q 1094 2756 978 2650 
Q 859 2544 859 2406 
L 866 2225 
Q 866 2081 792 2003 
Q 719 1925 600 1925 
Q 484 1925 411 2006 
Q 338 2088 338 2228 
Q 338 2497 613 2722 
Q 888 2947 1384 2947 
Q 1766 2947 2009 2819 
Q 2194 2722 2281 2516 
Q 2338 2381 2338 1966 
L 2338 994 
Q 2338 584 2353 492 
Q 2369 400 2405 369 
Q 2441 338 2488 338 
Q 2538 338 2575 359 
Q 2641 400 2828 588 
L 2828 413 
Q 2478 -56 2159 -56 
Q 2006 -56 1915 50 
Q 1825 156 1822 413 
z
M 1822 616 
L 1822 1706 
Q 1350 1519 1213 1441 
Q 966 1303 859 1153 
Q 753 1003 753 825 
Q 753 600 887 451 
Q 1022 303 1197 303 
Q 1434 303 1822 616 
z
" id="TimesNewRomanPSMT-61" transform="scale(0.015625)"/>
      <path d="M 1184 4444 
L 1184 647 
Q 1184 378 1223 290 
Q 1263 203 1344 158 
Q 1425 113 1647 113 
L 1647 0 
L 244 0 
L 244 113 
Q 441 113 512 153 
Q 584 194 625 287 
Q 666 381 666 647 
L 666 3247 
Q 666 3731 644 3842 
Q 622 3953 573 3993 
Q 525 4034 450 4034 
Q 369 4034 244 3984 
L 191 4094 
L 1044 4444 
L 1184 4444 
z
" id="TimesNewRomanPSMT-6c" transform="scale(0.015625)"/>
      <path d="M -6 2578 
L 875 2934 
L 994 2934 
L 994 2266 
Q 1216 2644 1439 2795 
Q 1663 2947 1909 2947 
Q 2341 2947 2628 2609 
Q 2981 2197 2981 1534 
Q 2981 794 2556 309 
Q 2206 -88 1675 -88 
Q 1444 -88 1275 -22 
Q 1150 25 994 166 
L 994 -706 
Q 994 -1000 1030 -1079 
Q 1066 -1159 1155 -1206 
Q 1244 -1253 1478 -1253 
L 1478 -1369 
L -22 -1369 
L -22 -1253 
L 56 -1253 
Q 228 -1256 350 -1188 
Q 409 -1153 442 -1076 
Q 475 -1000 475 -688 
L 475 2019 
Q 475 2297 450 2372 
Q 425 2447 370 2484 
Q 316 2522 222 2522 
Q 147 2522 31 2478 
L -6 2578 
z
M 994 2081 
L 994 1013 
Q 994 666 1022 556 
Q 1066 375 1236 237 
Q 1406 100 1666 100 
Q 1978 100 2172 344 
Q 2425 663 2425 1241 
Q 2425 1897 2138 2250 
Q 1938 2494 1663 2494 
Q 1513 2494 1366 2419 
Q 1253 2363 994 2081 
z
" id="TimesNewRomanPSMT-70" transform="scale(0.015625)"/>
      <path d="M 1038 2947 
L 1038 2303 
Q 1397 2947 1775 2947 
Q 1947 2947 2059 2842 
Q 2172 2738 2172 2600 
Q 2172 2478 2090 2393 
Q 2009 2309 1897 2309 
Q 1788 2309 1652 2417 
Q 1516 2525 1450 2525 
Q 1394 2525 1328 2463 
Q 1188 2334 1038 2041 
L 1038 669 
Q 1038 431 1097 309 
Q 1138 225 1241 169 
Q 1344 113 1538 113 
L 1538 0 
L 72 0 
L 72 113 
Q 291 113 397 181 
Q 475 231 506 341 
Q 522 394 522 644 
L 522 1753 
Q 522 2253 501 2348 
Q 481 2444 426 2487 
Q 372 2531 291 2531 
Q 194 2531 72 2484 
L 41 2597 
L 906 2947 
L 1038 2947 
z
" id="TimesNewRomanPSMT-72" transform="scale(0.015625)"/>
      <path d="M 928 4444 
Q 1059 4444 1151 4351 
Q 1244 4259 1244 4128 
Q 1244 3997 1151 3903 
Q 1059 3809 928 3809 
Q 797 3809 703 3903 
Q 609 3997 609 4128 
Q 609 4259 701 4351 
Q 794 4444 928 4444 
z
M 1188 2947 
L 1188 647 
Q 1188 378 1227 289 
Q 1266 200 1342 156 
Q 1419 113 1622 113 
L 1622 0 
L 231 0 
L 231 113 
Q 441 113 512 153 
Q 584 194 626 287 
Q 669 381 669 647 
L 669 1750 
Q 669 2216 641 2353 
Q 619 2453 572 2492 
Q 525 2531 444 2531 
Q 356 2531 231 2484 
L 188 2597 
L 1050 2947 
L 1188 2947 
z
" id="TimesNewRomanPSMT-69" transform="scale(0.015625)"/>
      <path d="M 2688 878 
L 2653 0 
L 128 0 
L 128 113 
L 2028 2644 
L 1091 2644 
Q 788 2644 694 2605 
Q 600 2566 541 2456 
Q 456 2300 444 2069 
L 319 2069 
L 338 2863 
L 2738 2863 
L 2738 2747 
L 819 209 
L 1863 209 
Q 2191 209 2308 264 
Q 2425 319 2497 456 
Q 2547 556 2581 878 
L 2688 878 
z
" id="TimesNewRomanPSMT-7a" transform="scale(0.015625)"/>
      <path d="M 681 1784 
Q 678 1147 991 784 
Q 1303 422 1725 422 
Q 2006 422 2214 576 
Q 2422 731 2563 1106 
L 2659 1044 
Q 2594 616 2278 264 
Q 1963 -88 1488 -88 
Q 972 -88 605 314 
Q 238 716 238 1394 
Q 238 2128 614 2539 
Q 991 2950 1559 2950 
Q 2041 2950 2350 2633 
Q 2659 2316 2659 1784 
L 681 1784 
z
M 681 1966 
L 2006 1966 
Q 1991 2241 1941 2353 
Q 1863 2528 1708 2628 
Q 1553 2728 1384 2728 
Q 1125 2728 920 2526 
Q 716 2325 681 1966 
z
" id="TimesNewRomanPSMT-65" transform="scale(0.015625)"/>
      <path d="M 903 2950 
Q 1047 2950 1148 2848 
Q 1250 2747 1250 2603 
Q 1250 2459 1148 2357 
Q 1047 2256 903 2256 
Q 759 2256 657 2357 
Q 556 2459 556 2603 
Q 556 2747 657 2848 
Q 759 2950 903 2950 
z
M 897 609 
Q 1044 609 1145 506 
Q 1247 403 1247 259 
Q 1247 116 1144 14 
Q 1041 -88 897 -88 
Q 753 -88 651 14 
Q 550 116 550 259 
Q 550 403 651 506 
Q 753 609 897 609 
z
" id="TimesNewRomanPSMT-3a" transform="scale(0.015625)"/>
     </defs>
     <use xlink:href="#TimesNewRomanPSMT-44"/>
     <use x="72.216797" xlink:href="#TimesNewRomanPSMT-44"/>
     <use x="144.433594" xlink:href="#TimesNewRomanPSMT-54"/>
     <use x="205.517578" xlink:href="#TimesNewRomanPSMT-4d"/>
     <use x="294.433594" xlink:href="#TimesNewRomanPSMT-20"/>
     <use x="317.683594" xlink:href="#TimesNewRomanPSMT-54"/>
     <use x="371.767578" xlink:href="#TimesNewRomanPSMT-6f"/>
     <use x="421.767578" xlink:href="#TimesNewRomanPSMT-74"/>
     <use x="449.550781" xlink:href="#TimesNewRomanPSMT-61"/>
     <use x="493.935547" xlink:href="#TimesNewRomanPSMT-6c"/>
     <use x="521.71875" xlink:href="#TimesNewRomanPSMT-20"/>
     <use x="546.71875" xlink:href="#TimesNewRomanPSMT-70"/>
     <use x="596.71875" xlink:href="#TimesNewRomanPSMT-72"/>
     <use x="630.019531" xlink:href="#TimesNewRomanPSMT-69"/>
     <use x="657.802734" xlink:href="#TimesNewRomanPSMT-7a"/>
     <use x="702.1875" xlink:href="#TimesNewRomanPSMT-65"/>
     <use x="746.572266" xlink:href="#TimesNewRomanPSMT-3a"/>
     <use x="774.355469" xlink:href="#TimesNewRomanPSMT-20"/>
     <use x="799.355469" xlink:href="#TimesNewRomanPSMT-37"/>
     <use x="849.355469" xlink:href="#TimesNewRomanPSMT-2e"/>
     <use x="874.355469" xlink:href="#TimesNewRomanPSMT-31"/>
     <use x="924.355469" xlink:href="#TimesNewRomanPSMT-36"/>
    </g>
   </g>
   <g id="legend_1">
    <g id="patch_7">
     <path d="M 42.9 456.745 
L 493.7425 456.745 
Q 496.9425 456.745 496.9425 453.545 
L 496.9425 409.9 
Q 496.9425 406.7 493.7425 406.7 
L 42.9 406.7 
Q 39.7 406.7 39.7 409.9 
L 39.7 453.545 
Q 39.7 456.745 42.9 456.745 
z
" style="fill:#ffffff;opacity:0.8;stroke:#cccccc;stroke-linejoin:miter;"/>
    </g>
    <g id="patch_8">
     <path d="M 46.1 424.3 
L 78.1 424.3 
L 78.1 413.1 
L 46.1 413.1 
z
" style="fill:#ccf900;"/>
    </g>
    <g id="text_30">
     <!-- Vehicle 0. Prizes: 3.81, Avail. fuel: 1.11, Re-planned dist: 0.97 -->
     <g transform="translate(90.9 424.3)scale(0.16 -0.16)">
      <defs>
       <path d="M 4544 4238 
L 4544 4122 
Q 4319 4081 4203 3978 
Q 4038 3825 3909 3509 
L 2431 -97 
L 2316 -97 
L 728 3556 
Q 606 3838 556 3900 
Q 478 3997 364 4051 
Q 250 4106 56 4122 
L 56 4238 
L 1788 4238 
L 1788 4122 
Q 1494 4094 1406 4022 
Q 1319 3950 1319 3838 
Q 1319 3681 1463 3350 
L 2541 866 
L 3541 3319 
Q 3688 3681 3688 3822 
Q 3688 3913 3597 3995 
Q 3506 4078 3291 4113 
Q 3275 4116 3238 4122 
L 3238 4238 
L 4544 4238 
z
" id="TimesNewRomanPSMT-56" transform="scale(0.015625)"/>
       <path d="M 1041 4444 
L 1041 2350 
Q 1388 2731 1591 2839 
Q 1794 2947 1997 2947 
Q 2241 2947 2416 2812 
Q 2591 2678 2675 2391 
Q 2734 2191 2734 1659 
L 2734 647 
Q 2734 375 2778 275 
Q 2809 200 2884 156 
Q 2959 113 3159 113 
L 3159 0 
L 1753 0 
L 1753 113 
L 1819 113 
Q 2019 113 2097 173 
Q 2175 234 2206 353 
Q 2216 403 2216 647 
L 2216 1659 
Q 2216 2128 2167 2275 
Q 2119 2422 2012 2495 
Q 1906 2569 1756 2569 
Q 1603 2569 1437 2487 
Q 1272 2406 1041 2159 
L 1041 647 
Q 1041 353 1073 281 
Q 1106 209 1195 161 
Q 1284 113 1503 113 
L 1503 0 
L 84 0 
L 84 113 
Q 275 113 384 172 
Q 447 203 484 290 
Q 522 378 522 647 
L 522 3238 
Q 522 3728 498 3840 
Q 475 3953 426 3993 
Q 378 4034 297 4034 
Q 231 4034 84 3984 
L 41 4094 
L 897 4444 
L 1041 4444 
z
" id="TimesNewRomanPSMT-68" transform="scale(0.015625)"/>
       <path d="M 2631 1088 
Q 2516 522 2178 217 
Q 1841 -88 1431 -88 
Q 944 -88 581 321 
Q 219 731 219 1428 
Q 219 2103 620 2525 
Q 1022 2947 1584 2947 
Q 2006 2947 2278 2723 
Q 2550 2500 2550 2259 
Q 2550 2141 2473 2067 
Q 2397 1994 2259 1994 
Q 2075 1994 1981 2113 
Q 1928 2178 1911 2362 
Q 1894 2547 1784 2644 
Q 1675 2738 1481 2738 
Q 1169 2738 978 2506 
Q 725 2200 725 1697 
Q 725 1184 976 792 
Q 1228 400 1656 400 
Q 1963 400 2206 609 
Q 2378 753 2541 1131 
L 2631 1088 
z
" id="TimesNewRomanPSMT-63" transform="scale(0.015625)"/>
       <path d="M 1313 1984 
L 1313 750 
Q 1313 350 1400 253 
Q 1519 116 1759 116 
L 1922 116 
L 1922 0 
L 106 0 
L 106 116 
L 266 116 
Q 534 116 650 291 
Q 713 388 713 750 
L 713 3488 
Q 713 3888 628 3984 
Q 506 4122 266 4122 
L 106 4122 
L 106 4238 
L 1659 4238 
Q 2228 4238 2556 4120 
Q 2884 4003 3109 3725 
Q 3334 3447 3334 3066 
Q 3334 2547 2992 2222 
Q 2650 1897 2025 1897 
Q 1872 1897 1694 1919 
Q 1516 1941 1313 1984 
z
M 1313 2163 
Q 1478 2131 1606 2115 
Q 1734 2100 1825 2100 
Q 2150 2100 2386 2351 
Q 2622 2603 2622 3003 
Q 2622 3278 2509 3514 
Q 2397 3750 2190 3867 
Q 1984 3984 1722 3984 
Q 1563 3984 1313 3925 
L 1313 2163 
z
" id="TimesNewRomanPSMT-50" transform="scale(0.015625)"/>
       <path d="M 2050 2947 
L 2050 1972 
L 1947 1972 
Q 1828 2431 1642 2597 
Q 1456 2763 1169 2763 
Q 950 2763 815 2647 
Q 681 2531 681 2391 
Q 681 2216 781 2091 
Q 878 1963 1175 1819 
L 1631 1597 
Q 2266 1288 2266 781 
Q 2266 391 1970 151 
Q 1675 -88 1309 -88 
Q 1047 -88 709 6 
Q 606 38 541 38 
Q 469 38 428 -44 
L 325 -44 
L 325 978 
L 428 978 
Q 516 541 762 319 
Q 1009 97 1316 97 
Q 1531 97 1667 223 
Q 1803 350 1803 528 
Q 1803 744 1651 891 
Q 1500 1038 1047 1263 
Q 594 1488 453 1669 
Q 313 1847 313 2119 
Q 313 2472 555 2709 
Q 797 2947 1181 2947 
Q 1350 2947 1591 2875 
Q 1750 2828 1803 2828 
Q 1853 2828 1881 2850 
Q 1909 2872 1947 2947 
L 2050 2947 
z
" id="TimesNewRomanPSMT-73" transform="scale(0.015625)"/>
       <path d="M 344 -1066 
L 344 -928 
Q 666 -822 842 -598 
Q 1019 -375 1019 -125 
Q 1019 -66 991 -25 
Q 969 3 947 3 
Q 913 3 797 -59 
Q 741 -88 678 -88 
Q 525 -88 434 3 
Q 344 94 344 253 
Q 344 406 461 515 
Q 578 625 747 625 
Q 953 625 1114 445 
Q 1275 266 1275 -31 
Q 1275 -353 1051 -629 
Q 828 -906 344 -1066 
z
" id="TimesNewRomanPSMT-2c" transform="scale(0.015625)"/>
       <path d="M 2928 1419 
L 1288 1419 
L 1000 750 
Q 894 503 894 381 
Q 894 284 986 211 
Q 1078 138 1384 116 
L 1384 0 
L 50 0 
L 50 116 
Q 316 163 394 238 
Q 553 388 747 847 
L 2238 4334 
L 2347 4334 
L 3822 809 
Q 4000 384 4145 257 
Q 4291 131 4550 116 
L 4550 0 
L 2878 0 
L 2878 116 
Q 3131 128 3220 200 
Q 3309 272 3309 375 
Q 3309 513 3184 809 
L 2928 1419 
z
M 2841 1650 
L 2122 3363 
L 1384 1650 
L 2841 1650 
z
" id="TimesNewRomanPSMT-41" transform="scale(0.015625)"/>
       <path d="M 53 2863 
L 1400 2863 
L 1400 2747 
L 1313 2747 
Q 1191 2747 1127 2687 
Q 1063 2628 1063 2528 
Q 1063 2419 1128 2269 
L 1794 688 
L 2463 2328 
Q 2534 2503 2534 2594 
Q 2534 2638 2509 2666 
Q 2475 2713 2422 2730 
Q 2369 2747 2206 2747 
L 2206 2863 
L 3141 2863 
L 3141 2747 
Q 2978 2734 2916 2681 
Q 2806 2588 2719 2369 
L 1703 -88 
L 1575 -88 
L 553 2328 
Q 484 2497 421 2570 
Q 359 2644 263 2694 
Q 209 2722 53 2747 
L 53 2863 
z
" id="TimesNewRomanPSMT-76" transform="scale(0.015625)"/>
       <path d="M 1319 2638 
L 1319 756 
Q 1319 356 1406 250 
Q 1522 113 1716 113 
L 1975 113 
L 1975 0 
L 266 0 
L 266 113 
L 394 113 
Q 519 113 622 175 
Q 725 238 764 344 
Q 803 450 803 756 
L 803 2638 
L 247 2638 
L 247 2863 
L 803 2863 
L 803 3050 
Q 803 3478 940 3775 
Q 1078 4072 1361 4255 
Q 1644 4438 1997 4438 
Q 2325 4438 2600 4225 
Q 2781 4084 2781 3909 
Q 2781 3816 2700 3733 
Q 2619 3650 2525 3650 
Q 2453 3650 2373 3701 
Q 2294 3753 2178 3923 
Q 2063 4094 1966 4153 
Q 1869 4213 1750 4213 
Q 1606 4213 1506 4136 
Q 1406 4059 1362 3898 
Q 1319 3738 1319 3069 
L 1319 2863 
L 2056 2863 
L 2056 2638 
L 1319 2638 
z
" id="TimesNewRomanPSMT-66" transform="scale(0.015625)"/>
       <path d="M 2709 2863 
L 2709 1128 
Q 2709 631 2732 520 
Q 2756 409 2807 365 
Q 2859 322 2928 322 
Q 3025 322 3147 375 
L 3191 266 
L 2334 -88 
L 2194 -88 
L 2194 519 
Q 1825 119 1631 15 
Q 1438 -88 1222 -88 
Q 981 -88 804 51 
Q 628 191 559 409 
Q 491 628 491 1028 
L 491 2306 
Q 491 2509 447 2587 
Q 403 2666 317 2708 
Q 231 2750 6 2747 
L 6 2863 
L 1009 2863 
L 1009 947 
Q 1009 547 1148 422 
Q 1288 297 1484 297 
Q 1619 297 1789 381 
Q 1959 466 2194 703 
L 2194 2325 
Q 2194 2569 2105 2655 
Q 2016 2741 1734 2747 
L 1734 2863 
L 2709 2863 
z
" id="TimesNewRomanPSMT-75" transform="scale(0.015625)"/>
       <path d="M 4325 0 
L 3194 0 
L 1759 1981 
Q 1600 1975 1500 1975 
Q 1459 1975 1412 1976 
Q 1366 1978 1316 1981 
L 1316 750 
Q 1316 350 1403 253 
Q 1522 116 1759 116 
L 1925 116 
L 1925 0 
L 109 0 
L 109 116 
L 269 116 
Q 538 116 653 291 
Q 719 388 719 750 
L 719 3488 
Q 719 3888 631 3984 
Q 509 4122 269 4122 
L 109 4122 
L 109 4238 
L 1653 4238 
Q 2328 4238 2648 4139 
Q 2969 4041 3192 3777 
Q 3416 3513 3416 3147 
Q 3416 2756 3161 2468 
Q 2906 2181 2372 2063 
L 3247 847 
Q 3547 428 3762 290 
Q 3978 153 4325 116 
L 4325 0 
z
M 1316 2178 
Q 1375 2178 1419 2176 
Q 1463 2175 1491 2175 
Q 2097 2175 2405 2437 
Q 2713 2700 2713 3106 
Q 2713 3503 2464 3751 
Q 2216 4000 1806 4000 
Q 1625 4000 1316 3941 
L 1316 2178 
z
" id="TimesNewRomanPSMT-52" transform="scale(0.015625)"/>
       <path d="M 259 1672 
L 1875 1672 
L 1875 1200 
L 259 1200 
L 259 1672 
z
" id="TimesNewRomanPSMT-2d" transform="scale(0.015625)"/>
       <path d="M 1034 2341 
Q 1538 2947 1994 2947 
Q 2228 2947 2397 2830 
Q 2566 2713 2666 2444 
Q 2734 2256 2734 1869 
L 2734 647 
Q 2734 375 2778 278 
Q 2813 200 2889 156 
Q 2966 113 3172 113 
L 3172 0 
L 1756 0 
L 1756 113 
L 1816 113 
Q 2016 113 2095 173 
Q 2175 234 2206 353 
Q 2219 400 2219 647 
L 2219 1819 
Q 2219 2209 2117 2386 
Q 2016 2563 1775 2563 
Q 1403 2563 1034 2156 
L 1034 647 
Q 1034 356 1069 288 
Q 1113 197 1189 155 
Q 1266 113 1500 113 
L 1500 0 
L 84 0 
L 84 113 
L 147 113 
Q 366 113 442 223 
Q 519 334 519 647 
L 519 1709 
Q 519 2225 495 2337 
Q 472 2450 423 2490 
Q 375 2531 294 2531 
Q 206 2531 84 2484 
L 38 2597 
L 900 2947 
L 1034 2947 
L 1034 2341 
z
" id="TimesNewRomanPSMT-6e" transform="scale(0.015625)"/>
       <path d="M 2222 322 
Q 2013 103 1813 7 
Q 1613 -88 1381 -88 
Q 913 -88 563 304 
Q 213 697 213 1313 
Q 213 1928 600 2439 
Q 988 2950 1597 2950 
Q 1975 2950 2222 2709 
L 2222 3238 
Q 2222 3728 2198 3840 
Q 2175 3953 2125 3993 
Q 2075 4034 2000 4034 
Q 1919 4034 1784 3984 
L 1744 4094 
L 2597 4444 
L 2738 4444 
L 2738 1134 
Q 2738 631 2761 520 
Q 2784 409 2836 365 
Q 2888 322 2956 322 
Q 3041 322 3181 375 
L 3216 266 
L 2366 -88 
L 2222 -88 
L 2222 322 
z
M 2222 541 
L 2222 2016 
Q 2203 2228 2109 2403 
Q 2016 2578 1861 2667 
Q 1706 2756 1559 2756 
Q 1284 2756 1069 2509 
Q 784 2184 784 1559 
Q 784 928 1059 592 
Q 1334 256 1672 256 
Q 1956 256 2222 541 
z
" id="TimesNewRomanPSMT-64" transform="scale(0.015625)"/>
      </defs>
      <use xlink:href="#TimesNewRomanPSMT-56"/>
      <use x="61.091797" xlink:href="#TimesNewRomanPSMT-65"/>
      <use x="105.476562" xlink:href="#TimesNewRomanPSMT-68"/>
      <use x="155.476562" xlink:href="#TimesNewRomanPSMT-69"/>
      <use x="183.259766" xlink:href="#TimesNewRomanPSMT-63"/>
      <use x="227.644531" xlink:href="#TimesNewRomanPSMT-6c"/>
      <use x="255.427734" xlink:href="#TimesNewRomanPSMT-65"/>
      <use x="299.8125" xlink:href="#TimesNewRomanPSMT-20"/>
      <use x="324.8125" xlink:href="#TimesNewRomanPSMT-30"/>
      <use x="374.8125" xlink:href="#TimesNewRomanPSMT-2e"/>
      <use x="399.8125" xlink:href="#TimesNewRomanPSMT-20"/>
      <use x="424.8125" xlink:href="#TimesNewRomanPSMT-50"/>
      <use x="480.427734" xlink:href="#TimesNewRomanPSMT-72"/>
      <use x="513.728516" xlink:href="#TimesNewRomanPSMT-69"/>
      <use x="541.511719" xlink:href="#TimesNewRomanPSMT-7a"/>
      <use x="585.896484" xlink:href="#TimesNewRomanPSMT-65"/>
      <use x="630.28125" xlink:href="#TimesNewRomanPSMT-73"/>
      <use x="669.197266" xlink:href="#TimesNewRomanPSMT-3a"/>
      <use x="696.980469" xlink:href="#TimesNewRomanPSMT-20"/>
      <use x="721.980469" xlink:href="#TimesNewRomanPSMT-33"/>
      <use x="771.980469" xlink:href="#TimesNewRomanPSMT-2e"/>
      <use x="796.980469" xlink:href="#TimesNewRomanPSMT-38"/>
      <use x="846.980469" xlink:href="#TimesNewRomanPSMT-31"/>
      <use x="896.980469" xlink:href="#TimesNewRomanPSMT-2c"/>
      <use x="921.980469" xlink:href="#TimesNewRomanPSMT-20"/>
      <use x="941.480469" xlink:href="#TimesNewRomanPSMT-41"/>
      <use x="1006.322266" xlink:href="#TimesNewRomanPSMT-76"/>
      <use x="1056.322266" xlink:href="#TimesNewRomanPSMT-61"/>
      <use x="1100.707031" xlink:href="#TimesNewRomanPSMT-69"/>
      <use x="1128.490234" xlink:href="#TimesNewRomanPSMT-6c"/>
      <use x="1156.273438" xlink:href="#TimesNewRomanPSMT-2e"/>
      <use x="1181.273438" xlink:href="#TimesNewRomanPSMT-20"/>
      <use x="1206.273438" xlink:href="#TimesNewRomanPSMT-66"/>
      <use x="1239.574219" xlink:href="#TimesNewRomanPSMT-75"/>
      <use x="1289.574219" xlink:href="#TimesNewRomanPSMT-65"/>
      <use x="1333.958984" xlink:href="#TimesNewRomanPSMT-6c"/>
      <use x="1361.742188" xlink:href="#TimesNewRomanPSMT-3a"/>
      <use x="1389.525391" xlink:href="#TimesNewRomanPSMT-20"/>
      <use x="1414.525391" xlink:href="#TimesNewRomanPSMT-31"/>
      <use x="1464.525391" xlink:href="#TimesNewRomanPSMT-2e"/>
      <use x="1489.525391" xlink:href="#TimesNewRomanPSMT-31"/>
      <use x="1535.775391" xlink:href="#TimesNewRomanPSMT-31"/>
      <use x="1585.775391" xlink:href="#TimesNewRomanPSMT-2c"/>
      <use x="1610.775391" xlink:href="#TimesNewRomanPSMT-20"/>
      <use x="1635.775391" xlink:href="#TimesNewRomanPSMT-52"/>
      <use x="1702.474609" xlink:href="#TimesNewRomanPSMT-65"/>
      <use x="1746.859375" xlink:href="#TimesNewRomanPSMT-2d"/>
      <use x="1780.160156" xlink:href="#TimesNewRomanPSMT-70"/>
      <use x="1830.160156" xlink:href="#TimesNewRomanPSMT-6c"/>
      <use x="1857.943359" xlink:href="#TimesNewRomanPSMT-61"/>
      <use x="1902.328125" xlink:href="#TimesNewRomanPSMT-6e"/>
      <use x="1952.328125" xlink:href="#TimesNewRomanPSMT-6e"/>
      <use x="2002.328125" xlink:href="#TimesNewRomanPSMT-65"/>
      <use x="2046.712891" xlink:href="#TimesNewRomanPSMT-64"/>
      <use x="2096.712891" xlink:href="#TimesNewRomanPSMT-20"/>
      <use x="2121.712891" xlink:href="#TimesNewRomanPSMT-64"/>
      <use x="2171.712891" xlink:href="#TimesNewRomanPSMT-69"/>
      <use x="2199.496094" xlink:href="#TimesNewRomanPSMT-73"/>
      <use x="2238.412109" xlink:href="#TimesNewRomanPSMT-74"/>
      <use x="2266.195312" xlink:href="#TimesNewRomanPSMT-3a"/>
      <use x="2293.978516" xlink:href="#TimesNewRomanPSMT-20"/>
      <use x="2318.978516" xlink:href="#TimesNewRomanPSMT-30"/>
      <use x="2368.978516" xlink:href="#TimesNewRomanPSMT-2e"/>
      <use x="2393.978516" xlink:href="#TimesNewRomanPSMT-39"/>
      <use x="2443.978516" xlink:href="#TimesNewRomanPSMT-37"/>
     </g>
    </g>
    <g id="patch_9">
     <path d="M 46.1 446.9225 
L 78.1 446.9225 
L 78.1 435.7225 
L 46.1 435.7225 
z
" style="fill:#00a4bb;"/>
    </g>
    <g id="text_31">
     <!-- Vehicle 1. Prizes: 3.35, Avail. fuel: 1.70, Re-planned dist: 1.58 -->
     <g transform="translate(90.9 446.9225)scale(0.16 -0.16)">
      <use xlink:href="#TimesNewRomanPSMT-56"/>
      <use x="61.091797" xlink:href="#TimesNewRomanPSMT-65"/>
      <use x="105.476562" xlink:href="#TimesNewRomanPSMT-68"/>
      <use x="155.476562" xlink:href="#TimesNewRomanPSMT-69"/>
      <use x="183.259766" xlink:href="#TimesNewRomanPSMT-63"/>
      <use x="227.644531" xlink:href="#TimesNewRomanPSMT-6c"/>
      <use x="255.427734" xlink:href="#TimesNewRomanPSMT-65"/>
      <use x="299.8125" xlink:href="#TimesNewRomanPSMT-20"/>
      <use x="324.8125" xlink:href="#TimesNewRomanPSMT-31"/>
      <use x="374.8125" xlink:href="#TimesNewRomanPSMT-2e"/>
      <use x="399.8125" xlink:href="#TimesNewRomanPSMT-20"/>
      <use x="424.8125" xlink:href="#TimesNewRomanPSMT-50"/>
      <use x="480.427734" xlink:href="#TimesNewRomanPSMT-72"/>
      <use x="513.728516" xlink:href="#TimesNewRomanPSMT-69"/>
      <use x="541.511719" xlink:href="#TimesNewRomanPSMT-7a"/>
      <use x="585.896484" xlink:href="#TimesNewRomanPSMT-65"/>
      <use x="630.28125" xlink:href="#TimesNewRomanPSMT-73"/>
      <use x="669.197266" xlink:href="#TimesNewRomanPSMT-3a"/>
      <use x="696.980469" xlink:href="#TimesNewRomanPSMT-20"/>
      <use x="721.980469" xlink:href="#TimesNewRomanPSMT-33"/>
      <use x="771.980469" xlink:href="#TimesNewRomanPSMT-2e"/>
      <use x="796.980469" xlink:href="#TimesNewRomanPSMT-33"/>
      <use x="846.980469" xlink:href="#TimesNewRomanPSMT-35"/>
      <use x="896.980469" xlink:href="#TimesNewRomanPSMT-2c"/>
      <use x="921.980469" xlink:href="#TimesNewRomanPSMT-20"/>
      <use x="941.480469" xlink:href="#TimesNewRomanPSMT-41"/>
      <use x="1006.322266" xlink:href="#TimesNewRomanPSMT-76"/>
      <use x="1056.322266" xlink:href="#TimesNewRomanPSMT-61"/>
      <use x="1100.707031" xlink:href="#TimesNewRomanPSMT-69"/>
      <use x="1128.490234" xlink:href="#TimesNewRomanPSMT-6c"/>
      <use x="1156.273438" xlink:href="#TimesNewRomanPSMT-2e"/>
      <use x="1181.273438" xlink:href="#TimesNewRomanPSMT-20"/>
      <use x="1206.273438" xlink:href="#TimesNewRomanPSMT-66"/>
      <use x="1239.574219" xlink:href="#TimesNewRomanPSMT-75"/>
      <use x="1289.574219" xlink:href="#TimesNewRomanPSMT-65"/>
      <use x="1333.958984" xlink:href="#TimesNewRomanPSMT-6c"/>
      <use x="1361.742188" xlink:href="#TimesNewRomanPSMT-3a"/>
      <use x="1389.525391" xlink:href="#TimesNewRomanPSMT-20"/>
      <use x="1414.525391" xlink:href="#TimesNewRomanPSMT-31"/>
      <use x="1464.525391" xlink:href="#TimesNewRomanPSMT-2e"/>
      <use x="1489.525391" xlink:href="#TimesNewRomanPSMT-37"/>
      <use x="1539.525391" xlink:href="#TimesNewRomanPSMT-30"/>
      <use x="1589.525391" xlink:href="#TimesNewRomanPSMT-2c"/>
      <use x="1614.525391" xlink:href="#TimesNewRomanPSMT-20"/>
      <use x="1639.525391" xlink:href="#TimesNewRomanPSMT-52"/>
      <use x="1706.224609" xlink:href="#TimesNewRomanPSMT-65"/>
      <use x="1750.609375" xlink:href="#TimesNewRomanPSMT-2d"/>
      <use x="1783.910156" xlink:href="#TimesNewRomanPSMT-70"/>
      <use x="1833.910156" xlink:href="#TimesNewRomanPSMT-6c"/>
      <use x="1861.693359" xlink:href="#TimesNewRomanPSMT-61"/>
      <use x="1906.078125" xlink:href="#TimesNewRomanPSMT-6e"/>
      <use x="1956.078125" xlink:href="#TimesNewRomanPSMT-6e"/>
      <use x="2006.078125" xlink:href="#TimesNewRomanPSMT-65"/>
      <use x="2050.462891" xlink:href="#TimesNewRomanPSMT-64"/>
      <use x="2100.462891" xlink:href="#TimesNewRomanPSMT-20"/>
      <use x="2125.462891" xlink:href="#TimesNewRomanPSMT-64"/>
      <use x="2175.462891" xlink:href="#TimesNewRomanPSMT-69"/>
      <use x="2203.246094" xlink:href="#TimesNewRomanPSMT-73"/>
      <use x="2242.162109" xlink:href="#TimesNewRomanPSMT-74"/>
      <use x="2269.945312" xlink:href="#TimesNewRomanPSMT-3a"/>
      <use x="2297.728516" xlink:href="#TimesNewRomanPSMT-20"/>
      <use x="2322.728516" xlink:href="#TimesNewRomanPSMT-31"/>
      <use x="2372.728516" xlink:href="#TimesNewRomanPSMT-2e"/>
      <use x="2397.728516" xlink:href="#TimesNewRomanPSMT-35"/>
      <use x="2447.728516" xlink:href="#TimesNewRomanPSMT-38"/>
     </g>
    </g>
   </g>
  </g>
  <g id="axes_2">
   <g id="patch_10">
    <path d="M 701.3 464.745 
L 1259.3 464.745 
L 1259.3 29.865 
L 701.3 29.865 
z
" style="fill:#ffffff;"/>
   </g>
   <g id="Quiver_3">
    <path clip-path="url(#pba05b6a7f6)" d="M 1035.340418 180.767714 
L 1090.557887 269.512849 
L 1093.005773 265.525289 
L 1098.730242 286.608294 
L 1082.345775 272.15797 
L 1087.004554 271.723742 
L 1031.787085 182.978607 
L 1035.340418 180.767714 
" style="fill:#ccf900;"/>
    <path clip-path="url(#pba05b6a7f6)" d="M 1100.098777 288.191223 
L 1050.870727 330.751758 
L 1055.190728 332.549082 
L 1035.255823 341.485648 
L 1046.979515 323.051503 
L 1048.133656 327.585898 
L 1097.361706 285.025364 
L 1100.098777 288.191223 
" style="fill:#ccf900;"/>
    <path clip-path="url(#pba05b6a7f6)" d="M 1036.41826 343.225561 
L 883.75173 445.222097 
L 887.816516 447.539488 
L 866.930075 453.944111 
L 880.841898 437.100008 
L 881.426857 441.742271 
L 1034.093387 339.745735 
L 1036.41826 343.225561 
" style="fill:#ccf900;"/>
    <path clip-path="url(#pba05b6a7f6)" d="M 865.026013 453.076295 
L 931.975332 306.183812 
L 927.299392 306.352241 
L 941.689737 289.915071 
L 938.723763 311.559137 
L 935.783455 307.919444 
L 868.834137 454.811927 
L 865.026013 453.076295 
" style="fill:#ccf900;"/>
    <path clip-path="url(#pba05b6a7f6)" d="M 940.965851 291.87837 
L 831.140591 251.384814 
L 831.656119 256.0353 
L 814.194781 242.90654 
L 835.999435 244.255502 
L 832.588364 247.458215 
L 942.413624 287.951771 
L 940.965851 291.87837 
" style="fill:#ccf900;"/>
    <path clip-path="url(#pba05b6a7f6)" d="M 814.125052 244.283076 
L 812.748515 244.213346 
L 813.985592 247.036149 
L 800.429418 242.209242 
L 814.403971 238.776931 
L 812.887975 241.460274 
L 814.264511 241.530003 
L 814.125052 244.283076 
" style="fill:#ccf900;"/>
    <path clip-path="url(#pba05b6a7f6)" d="M 799.080133 243.808613 
L 750.833434 203.106031 
L 749.734235 207.654057 
L 737.78838 189.363099 
L 757.829943 198.057832 
L 753.532003 199.907289 
L 801.778702 240.609872 
L 799.080133 243.808613 
" style="fill:#ccf900;"/>
   </g>
   <g id="Quiver_4">
    <path clip-path="url(#pba05b6a7f6)" d="M 1082.759855 104.369484 
L 1087.049233 98.89349 
L 1082.464303 97.960112 
L 1100.309564 85.358157 
L 1092.348083 105.702135 
L 1090.343826 101.474164 
L 1086.054448 106.950158 
L 1082.759855 104.369484 
" style="fill:#00a4bb;"/>
    <path clip-path="url(#pba05b6a7f6)" d="M 1102.33824 84.845293 
L 1114.446285 132.739673 
L 1117.990773 129.685269 
L 1117.033384 151.510622 
L 1105.818716 132.762453 
L 1110.388932 133.765401 
L 1098.280888 85.871021 
L 1102.33824 84.845293 
" style="fill:#00a4bb;"/>
    <path clip-path="url(#pba05b6a7f6)" d="M 1117.961 153.386278 
L 1076.618077 173.832654 
L 1080.348965 176.65635 
L 1058.809559 180.305544 
L 1074.783268 165.402415 
L 1074.762845 170.081343 
L 1116.105768 149.634966 
L 1117.961 153.386278 
" style="fill:#00a4bb;"/>
    <path clip-path="url(#pba05b6a7f6)" d="M 1060.079874 181.96833 
L 1022.748677 210.48816 
L 1026.952092 212.543417 
L 1006.51329 220.258207 
L 1019.330204 202.566702 
L 1020.208048 207.162589 
L 1057.539245 178.642758 
L 1060.079874 181.96833 
" style="fill:#00a4bb;"/>
    <path clip-path="url(#pba05b6a7f6)" d="M 1006.191015 222.325741 
L 931.798574 210.729891 
L 933.221558 215.187233 
L 913.513046 205.761884 
L 935.155206 202.782031 
L 932.443123 206.594824 
L 1006.835565 218.190674 
L 1006.191015 222.325741 
" style="fill:#00a4bb;"/>
    <path clip-path="url(#pba05b6a7f6)" d="M 911.421636 205.694346 
L 912.179855 182.215136 
L 907.929497 184.17147 
L 914.879109 163.459987 
L 920.477955 184.576699 
L 916.362674 182.350213 
L 915.604456 205.829422 
L 911.421636 205.694346 
" style="fill:#00a4bb;"/>
    <path clip-path="url(#pba05b6a7f6)" d="M 915.151076 165.534737 
L 837.573147 175.703967 
L 840.191832 179.581502 
L 818.628425 176.076917 
L 838.560031 167.132998 
L 837.029214 171.554466 
L 914.607142 161.385236 
L 915.151076 165.534737 
" style="fill:#00a4bb;"/>
    <path clip-path="url(#pba05b6a7f6)" d="M 818.721089 178.167365 
L 756.352997 180.932001 
L 758.628773 185.020231 
L 737.446307 179.675537 
L 758.072785 172.477548 
L 756.167667 176.751107 
L 818.53576 173.98647 
L 818.721089 178.167365 
" style="fill:#00a4bb;"/>
    <path clip-path="url(#pba05b6a7f6)" d="M 738.415063 179.64133 
L 738.44927 180.610086 
L 740.352575 179.572916 
L 737.78838 189.363099 
L 734.540039 179.778159 
L 736.511758 180.678501 
L 736.477551 179.709745 
L 738.415063 179.64133 
" style="fill:#00a4bb;"/>
   </g>
   <g id="matplotlib.axis_3">
    <g id="xtick_4">
     <g id="line2d_10">
      <g>
       <use style="stroke:#000000;stroke-width:0.8;" x="701.3" xlink:href="#m88371b99c2" y="464.745"/>
      </g>
     </g>
     <g id="text_32">
      <!-- 0.0 -->
      <g transform="translate(692.55 481.46625)scale(0.14 -0.14)">
       <use xlink:href="#TimesNewRomanPSMT-30"/>
       <use x="50" xlink:href="#TimesNewRomanPSMT-2e"/>
       <use x="75" xlink:href="#TimesNewRomanPSMT-30"/>
      </g>
     </g>
    </g>
    <g id="xtick_5">
     <g id="line2d_11">
      <g>
       <use style="stroke:#000000;stroke-width:0.8;" x="980.3" xlink:href="#m88371b99c2" y="464.745"/>
      </g>
     </g>
     <g id="text_33">
      <!-- 0.5 -->
      <g transform="translate(971.55 481.46625)scale(0.14 -0.14)">
       <use xlink:href="#TimesNewRomanPSMT-30"/>
       <use x="50" xlink:href="#TimesNewRomanPSMT-2e"/>
       <use x="75" xlink:href="#TimesNewRomanPSMT-35"/>
      </g>
     </g>
    </g>
    <g id="xtick_6">
     <g id="line2d_12">
      <g>
       <use style="stroke:#000000;stroke-width:0.8;" x="1259.3" xlink:href="#m88371b99c2" y="464.745"/>
      </g>
     </g>
     <g id="text_34">
      <!-- 1.0 -->
      <g transform="translate(1250.55 481.46625)scale(0.14 -0.14)">
       <use xlink:href="#TimesNewRomanPSMT-31"/>
       <use x="50" xlink:href="#TimesNewRomanPSMT-2e"/>
       <use x="75" xlink:href="#TimesNewRomanPSMT-30"/>
      </g>
     </g>
    </g>
   </g>
   <g id="matplotlib.axis_4">
    <g id="ytick_4">
     <g id="line2d_13">
      <g>
       <use style="stroke:#000000;stroke-width:0.8;" x="701.3" xlink:href="#m767e9dca9d" y="464.745"/>
      </g>
     </g>
     <g id="text_35">
      <!-- 0.0 -->
      <g transform="translate(676.8 469.605625)scale(0.14 -0.14)">
       <use xlink:href="#TimesNewRomanPSMT-30"/>
       <use x="50" xlink:href="#TimesNewRomanPSMT-2e"/>
       <use x="75" xlink:href="#TimesNewRomanPSMT-30"/>
      </g>
     </g>
    </g>
    <g id="ytick_5">
     <g id="line2d_14">
      <g>
       <use style="stroke:#000000;stroke-width:0.8;" x="701.3" xlink:href="#m767e9dca9d" y="247.305"/>
      </g>
     </g>
     <g id="text_36">
      <!-- 0.5 -->
      <g transform="translate(676.8 252.165625)scale(0.14 -0.14)">
       <use xlink:href="#TimesNewRomanPSMT-30"/>
       <use x="50" xlink:href="#TimesNewRomanPSMT-2e"/>
       <use x="75" xlink:href="#TimesNewRomanPSMT-35"/>
      </g>
     </g>
    </g>
    <g id="ytick_6">
     <g id="line2d_15">
      <g>
       <use style="stroke:#000000;stroke-width:0.8;" x="701.3" xlink:href="#m767e9dca9d" y="29.865"/>
      </g>
     </g>
     <g id="text_37">
      <!-- 1.0 -->
      <g transform="translate(676.8 34.725625)scale(0.14 -0.14)">
       <use xlink:href="#TimesNewRomanPSMT-31"/>
       <use x="50" xlink:href="#TimesNewRomanPSMT-2e"/>
       <use x="75" xlink:href="#TimesNewRomanPSMT-30"/>
      </g>
     </g>
    </g>
   </g>
   <g id="line2d_16">
    <g clip-path="url(#pba05b6a7f6)">
     <use style="stroke:#000000;stroke-linejoin:miter;" x="737.78838" xlink:href="#mae54c5bead" y="189.363099"/>
    </g>
   </g>
   <g id="line2d_17">
    <g clip-path="url(#pba05b6a7f6)">
     <use style="fill:#0000ff;stroke:#0000ff;stroke-linejoin:miter;" x="1210.92162" xlink:href="#me1a018a47e" y="205.199116"/>
     <use style="fill:#0000ff;stroke:#0000ff;stroke-linejoin:miter;" x="1100.309564" xlink:href="#me1a018a47e" y="85.358157"/>
     <use style="fill:#0000ff;stroke:#0000ff;stroke-linejoin:miter;" x="1098.730242" xlink:href="#me1a018a47e" y="286.608294"/>
     <use style="fill:#0000ff;stroke:#0000ff;stroke-linejoin:miter;" x="748.368991" xlink:href="#me1a018a47e" y="349.849587"/>
     <use style="fill:#0000ff;stroke:#0000ff;stroke-linejoin:miter;" x="814.194781" xlink:href="#me1a018a47e" y="242.90654"/>
     <use style="fill:#0000ff;stroke:#0000ff;stroke-linejoin:miter;" x="782.750887" xlink:href="#me1a018a47e" y="109.232287"/>
     <use style="fill:#0000ff;stroke:#0000ff;stroke-linejoin:miter;" x="1035.255823" xlink:href="#me1a018a47e" y="341.485648"/>
     <use style="fill:#0000ff;stroke:#0000ff;stroke-linejoin:miter;" x="818.628425" xlink:href="#me1a018a47e" y="176.076917"/>
     <use style="fill:#0000ff;stroke:#0000ff;stroke-linejoin:miter;" x="913.513046" xlink:href="#me1a018a47e" y="205.761884"/>
     <use style="fill:#0000ff;stroke:#0000ff;stroke-linejoin:miter;" x="1006.51329" xlink:href="#me1a018a47e" y="220.258207"/>
     <use style="fill:#0000ff;stroke:#0000ff;stroke-linejoin:miter;" x="941.689737" xlink:href="#me1a018a47e" y="289.915071"/>
     <use style="fill:#0000ff;stroke:#0000ff;stroke-linejoin:miter;" x="914.879109" xlink:href="#me1a018a47e" y="163.459987"/>
     <use style="fill:#0000ff;stroke:#0000ff;stroke-linejoin:miter;" x="800.429418" xlink:href="#me1a018a47e" y="242.209242"/>
     <use style="fill:#0000ff;stroke:#0000ff;stroke-linejoin:miter;" x="866.930075" xlink:href="#me1a018a47e" y="453.944111"/>
     <use style="fill:#0000ff;stroke:#0000ff;stroke-linejoin:miter;" x="1058.809559" xlink:href="#me1a018a47e" y="180.305544"/>
     <use style="fill:#0000ff;stroke:#0000ff;stroke-linejoin:miter;" x="1228.568222" xlink:href="#me1a018a47e" y="104.437237"/>
     <use style="fill:#0000ff;stroke:#0000ff;stroke-linejoin:miter;" x="1253.373575" xlink:href="#me1a018a47e" y="418.172873"/>
     <use style="fill:#0000ff;stroke:#0000ff;stroke-linejoin:miter;" x="737.446307" xlink:href="#me1a018a47e" y="179.675537"/>
     <use style="fill:#0000ff;stroke:#0000ff;stroke-linejoin:miter;" x="1117.033384" xlink:href="#me1a018a47e" y="151.510622"/>
     <use style="fill:#0000ff;stroke:#0000ff;stroke-linejoin:miter;" x="796.576051" xlink:href="#me1a018a47e" y="77.142201"/>
    </g>
   </g>
   <g id="line2d_18">
    <g clip-path="url(#pba05b6a7f6)">
     <use style="fill:#ff0000;stroke:#ff0000;stroke-linejoin:miter;" x="1033.563752" xlink:href="#m6177af2e12" y="181.87316"/>
     <use style="fill:#ff0000;stroke:#ff0000;stroke-linejoin:miter;" x="1084.407151" xlink:href="#m6177af2e12" y="105.659821"/>
    </g>
   </g>
   <g id="patch_11">
    <path d="M 701.3 464.745 
L 701.3 29.865 
" style="fill:none;stroke:#000000;stroke-linecap:square;stroke-linejoin:miter;stroke-width:0.8;"/>
   </g>
   <g id="patch_12">
    <path d="M 1259.3 464.745 
L 1259.3 29.865 
" style="fill:none;stroke:#000000;stroke-linecap:square;stroke-linejoin:miter;stroke-width:0.8;"/>
   </g>
   <g id="patch_13">
    <path d="M 701.3 464.745 
L 1259.3 464.745 
" style="fill:none;stroke:#000000;stroke-linecap:square;stroke-linejoin:miter;stroke-width:0.8;"/>
   </g>
   <g id="patch_14">
    <path d="M 701.3 29.865 
L 1259.3 29.865 
" style="fill:none;stroke:#000000;stroke-linecap:square;stroke-linejoin:miter;stroke-width:0.8;"/>
   </g>
   <g id="text_38">
    <!-- 1.70 -->
    <g transform="translate(1038.293278 176.334551)scale(0.14 -0.14)">
     <use xlink:href="#TimesNewRomanPSMT-31"/>
     <use x="50" xlink:href="#TimesNewRomanPSMT-2e"/>
     <use x="75" xlink:href="#TimesNewRomanPSMT-37"/>
     <use x="125" xlink:href="#TimesNewRomanPSMT-30"/>
    </g>
   </g>
   <g id="text_39">
    <!-- 1.11 -->
    <g transform="translate(1089.035372 100.121211)scale(0.14 -0.14)">
     <use xlink:href="#TimesNewRomanPSMT-31"/>
     <use x="50" xlink:href="#TimesNewRomanPSMT-2e"/>
     <use x="75" xlink:href="#TimesNewRomanPSMT-31"/>
     <use x="121.25" xlink:href="#TimesNewRomanPSMT-31"/>
    </g>
   </g>
   <g id="text_40">
    <!-- 0.27 -->
    <g transform="translate(1215.651147 199.660506)scale(0.14 -0.14)">
     <use xlink:href="#TimesNewRomanPSMT-30"/>
     <use x="50" xlink:href="#TimesNewRomanPSMT-2e"/>
     <use x="75" xlink:href="#TimesNewRomanPSMT-32"/>
     <use x="125" xlink:href="#TimesNewRomanPSMT-37"/>
    </g>
   </g>
   <g id="text_41">
    <!-- 1.00 -->
    <g transform="translate(1105.03909 79.819547)scale(0.14 -0.14)">
     <use xlink:href="#TimesNewRomanPSMT-31"/>
     <use x="50" xlink:href="#TimesNewRomanPSMT-2e"/>
     <use x="75" xlink:href="#TimesNewRomanPSMT-30"/>
     <use x="125" xlink:href="#TimesNewRomanPSMT-30"/>
    </g>
   </g>
   <g id="text_42">
    <!-- 0.67 -->
    <g transform="translate(1103.459768 281.069684)scale(0.14 -0.14)">
     <use xlink:href="#TimesNewRomanPSMT-30"/>
     <use x="50" xlink:href="#TimesNewRomanPSMT-2e"/>
     <use x="75" xlink:href="#TimesNewRomanPSMT-36"/>
     <use x="125" xlink:href="#TimesNewRomanPSMT-37"/>
    </g>
   </g>
   <g id="text_43">
    <!-- 0.02 -->
    <g transform="translate(753.098517 344.310977)scale(0.14 -0.14)">
     <use xlink:href="#TimesNewRomanPSMT-30"/>
     <use x="50" xlink:href="#TimesNewRomanPSMT-2e"/>
     <use x="75" xlink:href="#TimesNewRomanPSMT-30"/>
     <use x="125" xlink:href="#TimesNewRomanPSMT-32"/>
    </g>
   </g>
   <g id="text_44">
    <!-- 0.94 -->
    <g transform="translate(818.924308 237.36793)scale(0.14 -0.14)">
     <use xlink:href="#TimesNewRomanPSMT-30"/>
     <use x="50" xlink:href="#TimesNewRomanPSMT-2e"/>
     <use x="75" xlink:href="#TimesNewRomanPSMT-39"/>
     <use x="125" xlink:href="#TimesNewRomanPSMT-34"/>
    </g>
   </g>
   <g id="text_45">
    <!-- 0.13 -->
    <g transform="translate(787.480413 103.693677)scale(0.14 -0.14)">
     <use xlink:href="#TimesNewRomanPSMT-30"/>
     <use x="50" xlink:href="#TimesNewRomanPSMT-2e"/>
     <use x="75" xlink:href="#TimesNewRomanPSMT-31"/>
     <use x="125" xlink:href="#TimesNewRomanPSMT-33"/>
    </g>
   </g>
   <g id="text_46">
    <!-- 0.97 -->
    <g transform="translate(1039.98535 335.947038)scale(0.14 -0.14)">
     <use xlink:href="#TimesNewRomanPSMT-30"/>
     <use x="50" xlink:href="#TimesNewRomanPSMT-2e"/>
     <use x="75" xlink:href="#TimesNewRomanPSMT-39"/>
     <use x="125" xlink:href="#TimesNewRomanPSMT-37"/>
    </g>
   </g>
   <g id="text_47">
    <!-- 0.67 -->
    <g transform="translate(823.357951 170.538308)scale(0.14 -0.14)">
     <use xlink:href="#TimesNewRomanPSMT-30"/>
     <use x="50" xlink:href="#TimesNewRomanPSMT-2e"/>
     <use x="75" xlink:href="#TimesNewRomanPSMT-36"/>
     <use x="125" xlink:href="#TimesNewRomanPSMT-37"/>
    </g>
   </g>
   <g id="text_48">
    <!-- 0.44 -->
    <g transform="translate(918.242572 200.223274)scale(0.14 -0.14)">
     <use xlink:href="#TimesNewRomanPSMT-30"/>
     <use x="50" xlink:href="#TimesNewRomanPSMT-2e"/>
     <use x="75" xlink:href="#TimesNewRomanPSMT-34"/>
     <use x="125" xlink:href="#TimesNewRomanPSMT-34"/>
    </g>
   </g>
   <g id="text_49">
    <!-- 0.32 -->
    <g transform="translate(1011.242816 214.719597)scale(0.14 -0.14)">
     <use xlink:href="#TimesNewRomanPSMT-30"/>
     <use x="50" xlink:href="#TimesNewRomanPSMT-2e"/>
     <use x="75" xlink:href="#TimesNewRomanPSMT-33"/>
     <use x="125" xlink:href="#TimesNewRomanPSMT-32"/>
    </g>
   </g>
   <g id="text_50">
    <!-- 0.06 -->
    <g transform="translate(946.419264 284.376461)scale(0.14 -0.14)">
     <use xlink:href="#TimesNewRomanPSMT-30"/>
     <use x="50" xlink:href="#TimesNewRomanPSMT-2e"/>
     <use x="75" xlink:href="#TimesNewRomanPSMT-30"/>
     <use x="125" xlink:href="#TimesNewRomanPSMT-36"/>
    </g>
   </g>
   <g id="text_51">
    <!-- 0.16 -->
    <g transform="translate(919.608635 157.921377)scale(0.14 -0.14)">
     <use xlink:href="#TimesNewRomanPSMT-30"/>
     <use x="50" xlink:href="#TimesNewRomanPSMT-2e"/>
     <use x="75" xlink:href="#TimesNewRomanPSMT-31"/>
     <use x="125" xlink:href="#TimesNewRomanPSMT-36"/>
    </g>
   </g>
   <g id="text_52">
    <!-- 0.08 -->
    <g transform="translate(771.199891 236.670633)scale(0.14 -0.14)">
     <use xlink:href="#TimesNewRomanPSMT-30"/>
     <use x="50" xlink:href="#TimesNewRomanPSMT-2e"/>
     <use x="75" xlink:href="#TimesNewRomanPSMT-30"/>
     <use x="125" xlink:href="#TimesNewRomanPSMT-38"/>
    </g>
   </g>
   <g id="text_53">
    <!-- 0.67 -->
    <g transform="translate(871.659601 448.405501)scale(0.14 -0.14)">
     <use xlink:href="#TimesNewRomanPSMT-30"/>
     <use x="50" xlink:href="#TimesNewRomanPSMT-2e"/>
     <use x="75" xlink:href="#TimesNewRomanPSMT-36"/>
     <use x="125" xlink:href="#TimesNewRomanPSMT-37"/>
    </g>
   </g>
   <g id="text_54">
    <!-- 0.49 -->
    <g transform="translate(1063.539085 174.766934)scale(0.14 -0.14)">
     <use xlink:href="#TimesNewRomanPSMT-30"/>
     <use x="50" xlink:href="#TimesNewRomanPSMT-2e"/>
     <use x="75" xlink:href="#TimesNewRomanPSMT-34"/>
     <use x="125" xlink:href="#TimesNewRomanPSMT-39"/>
    </g>
   </g>
   <g id="text_55">
    <!-- 0.21 -->
    <g transform="translate(1233.297748 98.898628)scale(0.14 -0.14)">
     <use xlink:href="#TimesNewRomanPSMT-30"/>
     <use x="50" xlink:href="#TimesNewRomanPSMT-2e"/>
     <use x="75" xlink:href="#TimesNewRomanPSMT-32"/>
     <use x="125" xlink:href="#TimesNewRomanPSMT-31"/>
    </g>
   </g>
   <g id="text_56">
    <!-- 0.47 -->
    <g transform="translate(1224.144049 412.634263)scale(0.14 -0.14)">
     <use xlink:href="#TimesNewRomanPSMT-30"/>
     <use x="50" xlink:href="#TimesNewRomanPSMT-2e"/>
     <use x="75" xlink:href="#TimesNewRomanPSMT-34"/>
     <use x="125" xlink:href="#TimesNewRomanPSMT-37"/>
    </g>
   </g>
   <g id="text_57">
    <!-- 0.59 -->
    <g transform="translate(742.175833 174.136928)scale(0.14 -0.14)">
     <use xlink:href="#TimesNewRomanPSMT-30"/>
     <use x="50" xlink:href="#TimesNewRomanPSMT-2e"/>
     <use x="75" xlink:href="#TimesNewRomanPSMT-35"/>
     <use x="125" xlink:href="#TimesNewRomanPSMT-39"/>
    </g>
   </g>
   <g id="text_58">
    <!-- 0.30 -->
    <g transform="translate(1121.76291 145.972012)scale(0.14 -0.14)">
     <use xlink:href="#TimesNewRomanPSMT-30"/>
     <use x="50" xlink:href="#TimesNewRomanPSMT-2e"/>
     <use x="75" xlink:href="#TimesNewRomanPSMT-33"/>
     <use x="125" xlink:href="#TimesNewRomanPSMT-30"/>
    </g>
   </g>
   <g id="text_59">
    <!-- 0.11 -->
    <g transform="translate(801.204272 71.603591)scale(0.14 -0.14)">
     <use xlink:href="#TimesNewRomanPSMT-30"/>
     <use x="50" xlink:href="#TimesNewRomanPSMT-2e"/>
     <use x="75" xlink:href="#TimesNewRomanPSMT-31"/>
     <use x="121.25" xlink:href="#TimesNewRomanPSMT-31"/>
    </g>
   </g>
   <g id="text_60">
    <!-- MILP Total prize: 7.36 -->
    <g transform="translate(870.490625 23.865)scale(0.24 -0.24)">
     <defs>
      <path d="M 1975 116 
L 1975 0 
L 159 0 
L 159 116 
L 309 116 
Q 572 116 691 269 
Q 766 369 766 750 
L 766 3488 
Q 766 3809 725 3913 
Q 694 3991 597 4047 
Q 459 4122 309 4122 
L 159 4122 
L 159 4238 
L 1975 4238 
L 1975 4122 
L 1822 4122 
Q 1563 4122 1444 3969 
Q 1366 3869 1366 3488 
L 1366 750 
Q 1366 428 1406 325 
Q 1438 247 1538 191 
Q 1672 116 1822 116 
L 1975 116 
z
" id="TimesNewRomanPSMT-49" transform="scale(0.015625)"/>
      <path d="M 3669 1172 
L 3772 1150 
L 3409 0 
L 128 0 
L 128 116 
L 288 116 
Q 556 116 672 291 
Q 738 391 738 753 
L 738 3488 
Q 738 3884 650 3984 
Q 528 4122 288 4122 
L 128 4122 
L 128 4238 
L 2047 4238 
L 2047 4122 
Q 1709 4125 1573 4059 
Q 1438 3994 1388 3894 
Q 1338 3794 1338 3416 
L 1338 753 
Q 1338 494 1388 397 
Q 1425 331 1503 300 
Q 1581 269 1991 269 
L 2300 269 
Q 2788 269 2984 341 
Q 3181 413 3343 595 
Q 3506 778 3669 1172 
z
" id="TimesNewRomanPSMT-4c" transform="scale(0.015625)"/>
     </defs>
     <use xlink:href="#TimesNewRomanPSMT-4d"/>
     <use x="88.916016" xlink:href="#TimesNewRomanPSMT-49"/>
     <use x="122.216797" xlink:href="#TimesNewRomanPSMT-4c"/>
     <use x="183.300781" xlink:href="#TimesNewRomanPSMT-50"/>
     <use x="235.166016" xlink:href="#TimesNewRomanPSMT-20"/>
     <use x="258.416016" xlink:href="#TimesNewRomanPSMT-54"/>
     <use x="312.5" xlink:href="#TimesNewRomanPSMT-6f"/>
     <use x="362.5" xlink:href="#TimesNewRomanPSMT-74"/>
     <use x="390.283203" xlink:href="#TimesNewRomanPSMT-61"/>
     <use x="434.667969" xlink:href="#TimesNewRomanPSMT-6c"/>
     <use x="462.451172" xlink:href="#TimesNewRomanPSMT-20"/>
     <use x="487.451172" xlink:href="#TimesNewRomanPSMT-70"/>
     <use x="537.451172" xlink:href="#TimesNewRomanPSMT-72"/>
     <use x="570.751953" xlink:href="#TimesNewRomanPSMT-69"/>
     <use x="598.535156" xlink:href="#TimesNewRomanPSMT-7a"/>
     <use x="642.919922" xlink:href="#TimesNewRomanPSMT-65"/>
     <use x="687.304688" xlink:href="#TimesNewRomanPSMT-3a"/>
     <use x="715.087891" xlink:href="#TimesNewRomanPSMT-20"/>
     <use x="740.087891" xlink:href="#TimesNewRomanPSMT-37"/>
     <use x="790.087891" xlink:href="#TimesNewRomanPSMT-2e"/>
     <use x="815.087891" xlink:href="#TimesNewRomanPSMT-33"/>
     <use x="865.087891" xlink:href="#TimesNewRomanPSMT-36"/>
    </g>
   </g>
   <g id="legend_2">
    <g id="patch_15">
     <path d="M 712.5 456.745 
L 1163.3425 456.745 
Q 1166.5425 456.745 1166.5425 453.545 
L 1166.5425 409.9 
Q 1166.5425 406.7 1163.3425 406.7 
L 712.5 406.7 
Q 709.3 406.7 709.3 409.9 
L 709.3 453.545 
Q 709.3 456.745 712.5 456.745 
z
" style="fill:#ffffff;opacity:0.8;stroke:#cccccc;stroke-linejoin:miter;"/>
    </g>
    <g id="patch_16">
     <path d="M 715.7 424.3 
L 747.7 424.3 
L 747.7 413.1 
L 715.7 413.1 
z
" style="fill:#ccf900;"/>
    </g>
    <g id="text_61">
     <!-- Vehicle 0. Prizes: 3.39, Avail. fuel: 1.70, Re-planned dist: 1.67 -->
     <g transform="translate(760.5 424.3)scale(0.16 -0.16)">
      <use xlink:href="#TimesNewRomanPSMT-56"/>
      <use x="61.091797" xlink:href="#TimesNewRomanPSMT-65"/>
      <use x="105.476562" xlink:href="#TimesNewRomanPSMT-68"/>
      <use x="155.476562" xlink:href="#TimesNewRomanPSMT-69"/>
      <use x="183.259766" xlink:href="#TimesNewRomanPSMT-63"/>
      <use x="227.644531" xlink:href="#TimesNewRomanPSMT-6c"/>
      <use x="255.427734" xlink:href="#TimesNewRomanPSMT-65"/>
      <use x="299.8125" xlink:href="#TimesNewRomanPSMT-20"/>
      <use x="324.8125" xlink:href="#TimesNewRomanPSMT-30"/>
      <use x="374.8125" xlink:href="#TimesNewRomanPSMT-2e"/>
      <use x="399.8125" xlink:href="#TimesNewRomanPSMT-20"/>
      <use x="424.8125" xlink:href="#TimesNewRomanPSMT-50"/>
      <use x="480.427734" xlink:href="#TimesNewRomanPSMT-72"/>
      <use x="513.728516" xlink:href="#TimesNewRomanPSMT-69"/>
      <use x="541.511719" xlink:href="#TimesNewRomanPSMT-7a"/>
      <use x="585.896484" xlink:href="#TimesNewRomanPSMT-65"/>
      <use x="630.28125" xlink:href="#TimesNewRomanPSMT-73"/>
      <use x="669.197266" xlink:href="#TimesNewRomanPSMT-3a"/>
      <use x="696.980469" xlink:href="#TimesNewRomanPSMT-20"/>
      <use x="721.980469" xlink:href="#TimesNewRomanPSMT-33"/>
      <use x="771.980469" xlink:href="#TimesNewRomanPSMT-2e"/>
      <use x="796.980469" xlink:href="#TimesNewRomanPSMT-33"/>
      <use x="846.980469" xlink:href="#TimesNewRomanPSMT-39"/>
      <use x="896.980469" xlink:href="#TimesNewRomanPSMT-2c"/>
      <use x="921.980469" xlink:href="#TimesNewRomanPSMT-20"/>
      <use x="941.480469" xlink:href="#TimesNewRomanPSMT-41"/>
      <use x="1006.322266" xlink:href="#TimesNewRomanPSMT-76"/>
      <use x="1056.322266" xlink:href="#TimesNewRomanPSMT-61"/>
      <use x="1100.707031" xlink:href="#TimesNewRomanPSMT-69"/>
      <use x="1128.490234" xlink:href="#TimesNewRomanPSMT-6c"/>
      <use x="1156.273438" xlink:href="#TimesNewRomanPSMT-2e"/>
      <use x="1181.273438" xlink:href="#TimesNewRomanPSMT-20"/>
      <use x="1206.273438" xlink:href="#TimesNewRomanPSMT-66"/>
      <use x="1239.574219" xlink:href="#TimesNewRomanPSMT-75"/>
      <use x="1289.574219" xlink:href="#TimesNewRomanPSMT-65"/>
      <use x="1333.958984" xlink:href="#TimesNewRomanPSMT-6c"/>
      <use x="1361.742188" xlink:href="#TimesNewRomanPSMT-3a"/>
      <use x="1389.525391" xlink:href="#TimesNewRomanPSMT-20"/>
      <use x="1414.525391" xlink:href="#TimesNewRomanPSMT-31"/>
      <use x="1464.525391" xlink:href="#TimesNewRomanPSMT-2e"/>
      <use x="1489.525391" xlink:href="#TimesNewRomanPSMT-37"/>
      <use x="1539.525391" xlink:href="#TimesNewRomanPSMT-30"/>
      <use x="1589.525391" xlink:href="#TimesNewRomanPSMT-2c"/>
      <use x="1614.525391" xlink:href="#TimesNewRomanPSMT-20"/>
      <use x="1639.525391" xlink:href="#TimesNewRomanPSMT-52"/>
      <use x="1706.224609" xlink:href="#TimesNewRomanPSMT-65"/>
      <use x="1750.609375" xlink:href="#TimesNewRomanPSMT-2d"/>
      <use x="1783.910156" xlink:href="#TimesNewRomanPSMT-70"/>
      <use x="1833.910156" xlink:href="#TimesNewRomanPSMT-6c"/>
      <use x="1861.693359" xlink:href="#TimesNewRomanPSMT-61"/>
      <use x="1906.078125" xlink:href="#TimesNewRomanPSMT-6e"/>
      <use x="1956.078125" xlink:href="#TimesNewRomanPSMT-6e"/>
      <use x="2006.078125" xlink:href="#TimesNewRomanPSMT-65"/>
      <use x="2050.462891" xlink:href="#TimesNewRomanPSMT-64"/>
      <use x="2100.462891" xlink:href="#TimesNewRomanPSMT-20"/>
      <use x="2125.462891" xlink:href="#TimesNewRomanPSMT-64"/>
      <use x="2175.462891" xlink:href="#TimesNewRomanPSMT-69"/>
      <use x="2203.246094" xlink:href="#TimesNewRomanPSMT-73"/>
      <use x="2242.162109" xlink:href="#TimesNewRomanPSMT-74"/>
      <use x="2269.945312" xlink:href="#TimesNewRomanPSMT-3a"/>
      <use x="2297.728516" xlink:href="#TimesNewRomanPSMT-20"/>
      <use x="2322.728516" xlink:href="#TimesNewRomanPSMT-31"/>
      <use x="2372.728516" xlink:href="#TimesNewRomanPSMT-2e"/>
      <use x="2397.728516" xlink:href="#TimesNewRomanPSMT-36"/>
      <use x="2447.728516" xlink:href="#TimesNewRomanPSMT-37"/>
     </g>
    </g>
    <g id="patch_17">
     <path d="M 715.7 446.9225 
L 747.7 446.9225 
L 747.7 435.7225 
L 715.7 435.7225 
z
" style="fill:#00a4bb;"/>
    </g>
    <g id="text_62">
     <!-- Vehicle 1. Prizes: 3.97, Avail. fuel: 1.11, Re-planned dist: 1.05 -->
     <g transform="translate(760.5 446.9225)scale(0.16 -0.16)">
      <use xlink:href="#TimesNewRomanPSMT-56"/>
      <use x="61.091797" xlink:href="#TimesNewRomanPSMT-65"/>
      <use x="105.476562" xlink:href="#TimesNewRomanPSMT-68"/>
      <use x="155.476562" xlink:href="#TimesNewRomanPSMT-69"/>
      <use x="183.259766" xlink:href="#TimesNewRomanPSMT-63"/>
      <use x="227.644531" xlink:href="#TimesNewRomanPSMT-6c"/>
      <use x="255.427734" xlink:href="#TimesNewRomanPSMT-65"/>
      <use x="299.8125" xlink:href="#TimesNewRomanPSMT-20"/>
      <use x="324.8125" xlink:href="#TimesNewRomanPSMT-31"/>
      <use x="374.8125" xlink:href="#TimesNewRomanPSMT-2e"/>
      <use x="399.8125" xlink:href="#TimesNewRomanPSMT-20"/>
      <use x="424.8125" xlink:href="#TimesNewRomanPSMT-50"/>
      <use x="480.427734" xlink:href="#TimesNewRomanPSMT-72"/>
      <use x="513.728516" xlink:href="#TimesNewRomanPSMT-69"/>
      <use x="541.511719" xlink:href="#TimesNewRomanPSMT-7a"/>
      <use x="585.896484" xlink:href="#TimesNewRomanPSMT-65"/>
      <use x="630.28125" xlink:href="#TimesNewRomanPSMT-73"/>
      <use x="669.197266" xlink:href="#TimesNewRomanPSMT-3a"/>
      <use x="696.980469" xlink:href="#TimesNewRomanPSMT-20"/>
      <use x="721.980469" xlink:href="#TimesNewRomanPSMT-33"/>
      <use x="771.980469" xlink:href="#TimesNewRomanPSMT-2e"/>
      <use x="796.980469" xlink:href="#TimesNewRomanPSMT-39"/>
      <use x="846.980469" xlink:href="#TimesNewRomanPSMT-37"/>
      <use x="896.980469" xlink:href="#TimesNewRomanPSMT-2c"/>
      <use x="921.980469" xlink:href="#TimesNewRomanPSMT-20"/>
      <use x="941.480469" xlink:href="#TimesNewRomanPSMT-41"/>
      <use x="1006.322266" xlink:href="#TimesNewRomanPSMT-76"/>
      <use x="1056.322266" xlink:href="#TimesNewRomanPSMT-61"/>
      <use x="1100.707031" xlink:href="#TimesNewRomanPSMT-69"/>
      <use x="1128.490234" xlink:href="#TimesNewRomanPSMT-6c"/>
      <use x="1156.273438" xlink:href="#TimesNewRomanPSMT-2e"/>
      <use x="1181.273438" xlink:href="#TimesNewRomanPSMT-20"/>
      <use x="1206.273438" xlink:href="#TimesNewRomanPSMT-66"/>
      <use x="1239.574219" xlink:href="#TimesNewRomanPSMT-75"/>
      <use x="1289.574219" xlink:href="#TimesNewRomanPSMT-65"/>
      <use x="1333.958984" xlink:href="#TimesNewRomanPSMT-6c"/>
      <use x="1361.742188" xlink:href="#TimesNewRomanPSMT-3a"/>
      <use x="1389.525391" xlink:href="#TimesNewRomanPSMT-20"/>
      <use x="1414.525391" xlink:href="#TimesNewRomanPSMT-31"/>
      <use x="1464.525391" xlink:href="#TimesNewRomanPSMT-2e"/>
      <use x="1489.525391" xlink:href="#TimesNewRomanPSMT-31"/>
      <use x="1535.775391" xlink:href="#TimesNewRomanPSMT-31"/>
      <use x="1585.775391" xlink:href="#TimesNewRomanPSMT-2c"/>
      <use x="1610.775391" xlink:href="#TimesNewRomanPSMT-20"/>
      <use x="1635.775391" xlink:href="#TimesNewRomanPSMT-52"/>
      <use x="1702.474609" xlink:href="#TimesNewRomanPSMT-65"/>
      <use x="1746.859375" xlink:href="#TimesNewRomanPSMT-2d"/>
      <use x="1780.160156" xlink:href="#TimesNewRomanPSMT-70"/>
      <use x="1830.160156" xlink:href="#TimesNewRomanPSMT-6c"/>
      <use x="1857.943359" xlink:href="#TimesNewRomanPSMT-61"/>
      <use x="1902.328125" xlink:href="#TimesNewRomanPSMT-6e"/>
      <use x="1952.328125" xlink:href="#TimesNewRomanPSMT-6e"/>
      <use x="2002.328125" xlink:href="#TimesNewRomanPSMT-65"/>
      <use x="2046.712891" xlink:href="#TimesNewRomanPSMT-64"/>
      <use x="2096.712891" xlink:href="#TimesNewRomanPSMT-20"/>
      <use x="2121.712891" xlink:href="#TimesNewRomanPSMT-64"/>
      <use x="2171.712891" xlink:href="#TimesNewRomanPSMT-69"/>
      <use x="2199.496094" xlink:href="#TimesNewRomanPSMT-73"/>
      <use x="2238.412109" xlink:href="#TimesNewRomanPSMT-74"/>
      <use x="2266.195312" xlink:href="#TimesNewRomanPSMT-3a"/>
      <use x="2293.978516" xlink:href="#TimesNewRomanPSMT-20"/>
      <use x="2318.978516" xlink:href="#TimesNewRomanPSMT-31"/>
      <use x="2368.978516" xlink:href="#TimesNewRomanPSMT-2e"/>
      <use x="2393.978516" xlink:href="#TimesNewRomanPSMT-30"/>
      <use x="2443.978516" xlink:href="#TimesNewRomanPSMT-35"/>
     </g>
    </g>
   </g>
  </g>
 </g>
 <defs>
  <clipPath id="pe7e64c5b89">
   <rect height="434.88" width="558" x="31.7" y="29.865"/>
  </clipPath>
  <clipPath id="pba05b6a7f6">
   <rect height="434.88" width="558" x="701.3" y="29.865"/>
  </clipPath>
 </defs>
</svg>
