<?xml version="1.0" encoding="utf-8" standalone="no"?>
<!DOCTYPE svg PUBLIC "-//W3C//DTD SVG 1.1//EN"
  "http://www.w3.org/Graphics/SVG/1.1/DTD/svg11.dtd">
<svg height="202.604512pt" version="1.1" viewBox="0 0 449.827375 202.604512" width="449.827375pt" xmlns="http://www.w3.org/2000/svg" xmlns:xlink="http://www.w3.org/1999/xlink">
 <metadata>
  <rdf:RDF xmlns:cc="http://creativecommons.org/ns#" xmlns:dc="http://purl.org/dc/elements/1.1/" xmlns:rdf="http://www.w3.org/1999/02/22-rdf-syntax-ns#">
   <cc:Work>
    <dc:type rdf:resource="http://purl.org/dc/dcmitype/StillImage"/>
    <dc:date>2022-07-14T11:04:59.727018</dc:date>
    <dc:format>image/svg+xml</dc:format>
    <dc:creator>
     <cc:Agent>
      <dc:title>Matplotlib v3.4.3, https://matplotlib.org/</dc:title>
     </cc:Agent>
    </dc:creator>
   </cc:Work>
  </rdf:RDF>
 </metadata>
 <defs>
  <style type="text/css">*{stroke-linecap:butt;stroke-linejoin:round;}</style>
 </defs>
 <g id="figure_1">
  <g id="patch_1">
   <path d="M 0 202.604512 
L 449.827375 202.604512 
L 449.827375 0 
L 0 0 
z
" style="fill:#ffffff;"/>
  </g>
  <g id="axes_1">
   <g id="patch_2">
    <path d="M 43.099375 164.939262 
L 119.931683 164.939262 
L 119.931683 44.661882 
L 43.099375 44.661882 
z
" style="fill:#ffffff;"/>
   </g>
   <g id="patch_3">
    <path clip-path="url(#pd0d96da97e)" d="M 46.591753 4374.647543 
L 62.307452 4374.647543 
L 62.307452 80.745096 
L 46.591753 80.745096 
z
" style="fill:#b32417;opacity:0.85;stroke:#b32417;stroke-linejoin:miter;stroke-width:2;"/>
   </g>
   <g id="patch_4">
    <path clip-path="url(#pd0d96da97e)" d="M 63.180546 4374.647543 
L 78.896246 4374.647543 
L 78.896246 74.731227 
L 63.180546 74.731227 
z
" style="fill:url(#h69c9eb1861);"/>
   </g>
   <g id="patch_5">
    <path clip-path="url(#pd0d96da97e)" d="M 84.134812 4374.647543 
L 99.850511 4374.647543 
L 99.850511 114.823687 
L 84.134812 114.823687 
z
" style="fill:#7a003c;opacity:0.85;stroke:#7a003c;stroke-linejoin:miter;stroke-width:2;"/>
   </g>
   <g id="patch_6">
    <path clip-path="url(#pd0d96da97e)" d="M 100.723606 4374.647543 
L 116.439305 4374.647543 
L 116.439305 110.814441 
L 100.723606 110.814441 
z
" style="fill:url(#h06c59afed3);"/>
   </g>
   <g id="matplotlib.axis_1">
    <g id="xtick_1">
     <g id="line2d_1">
      <defs>
       <path d="M 0 0 
L 0 3.5 
" id="mc55e8072cb" style="stroke:#000000;stroke-width:0.8;"/>
      </defs>
      <g>
       <use style="stroke:#000000;stroke-width:0.8;" x="81.515529" xlink:href="#mc55e8072cb" y="164.939262"/>
      </g>
     </g>
     <g id="text_1">
      <!-- MSTOP50 -->
      <g transform="translate(55.614279 180.271762)scale(0.12 -0.12)">
       <defs>
        <path d="M 2619 0 
L 981 3566 
L 981 734 
Q 981 344 1066 247 
Q 1181 116 1431 116 
L 1581 116 
L 1581 0 
L 106 0 
L 106 116 
L 256 116 
Q 525 116 638 278 
Q 706 378 706 734 
L 706 3503 
Q 706 3784 644 3909 
Q 600 4000 483 4061 
Q 366 4122 106 4122 
L 106 4238 
L 1306 4238 
L 2844 922 
L 4356 4238 
L 5556 4238 
L 5556 4122 
L 5409 4122 
Q 5138 4122 5025 3959 
Q 4956 3859 4956 3503 
L 4956 734 
Q 4956 344 5044 247 
Q 5159 116 5409 116 
L 5556 116 
L 5556 0 
L 3756 0 
L 3756 116 
L 3906 116 
Q 4178 116 4288 278 
Q 4356 378 4356 734 
L 4356 3566 
L 2722 0 
L 2619 0 
z
" id="TimesNewRomanPSMT-4d" transform="scale(0.015625)"/>
        <path d="M 2934 4334 
L 2934 2869 
L 2819 2869 
Q 2763 3291 2617 3541 
Q 2472 3791 2203 3937 
Q 1934 4084 1647 4084 
Q 1322 4084 1109 3886 
Q 897 3688 897 3434 
Q 897 3241 1031 3081 
Q 1225 2847 1953 2456 
Q 2547 2138 2764 1967 
Q 2981 1797 3098 1565 
Q 3216 1334 3216 1081 
Q 3216 600 2842 251 
Q 2469 -97 1881 -97 
Q 1697 -97 1534 -69 
Q 1438 -53 1133 45 
Q 828 144 747 144 
Q 669 144 623 97 
Q 578 50 556 -97 
L 441 -97 
L 441 1356 
L 556 1356 
Q 638 900 775 673 
Q 913 447 1195 297 
Q 1478 147 1816 147 
Q 2206 147 2432 353 
Q 2659 559 2659 841 
Q 2659 997 2573 1156 
Q 2488 1316 2306 1453 
Q 2184 1547 1640 1851 
Q 1097 2156 867 2337 
Q 638 2519 519 2737 
Q 400 2956 400 3219 
Q 400 3675 750 4004 
Q 1100 4334 1641 4334 
Q 1978 4334 2356 4169 
Q 2531 4091 2603 4091 
Q 2684 4091 2736 4139 
Q 2788 4188 2819 4334 
L 2934 4334 
z
" id="TimesNewRomanPSMT-53" transform="scale(0.015625)"/>
        <path d="M 3703 4238 
L 3750 3244 
L 3631 3244 
Q 3597 3506 3538 3619 
Q 3441 3800 3280 3886 
Q 3119 3972 2856 3972 
L 2259 3972 
L 2259 734 
Q 2259 344 2344 247 
Q 2463 116 2709 116 
L 2856 116 
L 2856 0 
L 1059 0 
L 1059 116 
L 1209 116 
Q 1478 116 1591 278 
Q 1659 378 1659 734 
L 1659 3972 
L 1150 3972 
Q 853 3972 728 3928 
Q 566 3869 450 3700 
Q 334 3531 313 3244 
L 194 3244 
L 244 4238 
L 3703 4238 
z
" id="TimesNewRomanPSMT-54" transform="scale(0.015625)"/>
        <path d="M 2341 4334 
Q 3166 4334 3770 3707 
Q 4375 3081 4375 2144 
Q 4375 1178 3765 540 
Q 3156 -97 2291 -97 
Q 1416 -97 820 525 
Q 225 1147 225 2134 
Q 225 3144 913 3781 
Q 1509 4334 2341 4334 
z
M 2281 4106 
Q 1713 4106 1369 3684 
Q 941 3159 941 2147 
Q 941 1109 1384 550 
Q 1725 125 2284 125 
Q 2881 125 3270 590 
Q 3659 1056 3659 2059 
Q 3659 3147 3231 3681 
Q 2888 4106 2281 4106 
z
" id="TimesNewRomanPSMT-4f" transform="scale(0.015625)"/>
        <path d="M 1313 1984 
L 1313 750 
Q 1313 350 1400 253 
Q 1519 116 1759 116 
L 1922 116 
L 1922 0 
L 106 0 
L 106 116 
L 266 116 
Q 534 116 650 291 
Q 713 388 713 750 
L 713 3488 
Q 713 3888 628 3984 
Q 506 4122 266 4122 
L 106 4122 
L 106 4238 
L 1659 4238 
Q 2228 4238 2556 4120 
Q 2884 4003 3109 3725 
Q 3334 3447 3334 3066 
Q 3334 2547 2992 2222 
Q 2650 1897 2025 1897 
Q 1872 1897 1694 1919 
Q 1516 1941 1313 1984 
z
M 1313 2163 
Q 1478 2131 1606 2115 
Q 1734 2100 1825 2100 
Q 2150 2100 2386 2351 
Q 2622 2603 2622 3003 
Q 2622 3278 2509 3514 
Q 2397 3750 2190 3867 
Q 1984 3984 1722 3984 
Q 1563 3984 1313 3925 
L 1313 2163 
z
" id="TimesNewRomanPSMT-50" transform="scale(0.015625)"/>
        <path d="M 2778 4238 
L 2534 3706 
L 1259 3706 
L 981 3138 
Q 1809 3016 2294 2522 
Q 2709 2097 2709 1522 
Q 2709 1188 2573 903 
Q 2438 619 2231 419 
Q 2025 219 1772 97 
Q 1413 -75 1034 -75 
Q 653 -75 479 54 
Q 306 184 306 341 
Q 306 428 378 495 
Q 450 563 559 563 
Q 641 563 702 538 
Q 763 513 909 409 
Q 1144 247 1384 247 
Q 1750 247 2026 523 
Q 2303 800 2303 1197 
Q 2303 1581 2056 1914 
Q 1809 2247 1375 2428 
Q 1034 2569 447 2591 
L 1259 4238 
L 2778 4238 
z
" id="TimesNewRomanPSMT-35" transform="scale(0.015625)"/>
        <path d="M 231 2094 
Q 231 2819 450 3342 
Q 669 3866 1031 4122 
Q 1313 4325 1613 4325 
Q 2100 4325 2488 3828 
Q 2972 3213 2972 2159 
Q 2972 1422 2759 906 
Q 2547 391 2217 158 
Q 1888 -75 1581 -75 
Q 975 -75 572 641 
Q 231 1244 231 2094 
z
M 844 2016 
Q 844 1141 1059 588 
Q 1238 122 1591 122 
Q 1759 122 1940 273 
Q 2122 425 2216 781 
Q 2359 1319 2359 2297 
Q 2359 3022 2209 3506 
Q 2097 3866 1919 4016 
Q 1791 4119 1609 4119 
Q 1397 4119 1231 3928 
Q 1006 3669 925 3112 
Q 844 2556 844 2016 
z
" id="TimesNewRomanPSMT-30" transform="scale(0.015625)"/>
       </defs>
       <use xlink:href="#TimesNewRomanPSMT-4d"/>
       <use x="88.916016" xlink:href="#TimesNewRomanPSMT-53"/>
       <use x="144.53125" xlink:href="#TimesNewRomanPSMT-54"/>
       <use x="203.865234" xlink:href="#TimesNewRomanPSMT-4f"/>
       <use x="276.082031" xlink:href="#TimesNewRomanPSMT-50"/>
       <use x="331.697266" xlink:href="#TimesNewRomanPSMT-35"/>
       <use x="381.697266" xlink:href="#TimesNewRomanPSMT-30"/>
      </g>
      <!-- (Unif) -->
      <g transform="translate(66.522091 192.837637)scale(0.12 -0.12)">
       <defs>
        <path d="M 1988 -1253 
L 1988 -1369 
Q 1516 -1131 1200 -813 
Q 750 -359 506 256 
Q 263 872 263 1534 
Q 263 2503 741 3301 
Q 1219 4100 1988 4444 
L 1988 4313 
Q 1603 4100 1356 3731 
Q 1109 3363 987 2797 
Q 866 2231 866 1616 
Q 866 947 969 400 
Q 1050 -31 1165 -292 
Q 1281 -553 1476 -793 
Q 1672 -1034 1988 -1253 
z
" id="TimesNewRomanPSMT-28" transform="scale(0.015625)"/>
        <path d="M 3053 4122 
L 3053 4238 
L 4553 4238 
L 4553 4122 
L 4394 4122 
Q 4144 4122 4009 3913 
Q 3944 3816 3944 3463 
L 3944 1744 
Q 3944 1106 3817 754 
Q 3691 403 3320 151 
Q 2950 -100 2313 -100 
Q 1619 -100 1259 140 
Q 900 381 750 788 
Q 650 1066 650 1831 
L 650 3488 
Q 650 3878 542 4000 
Q 434 4122 194 4122 
L 34 4122 
L 34 4238 
L 1866 4238 
L 1866 4122 
L 1703 4122 
Q 1441 4122 1328 3956 
Q 1250 3844 1250 3488 
L 1250 1641 
Q 1250 1394 1295 1075 
Q 1341 756 1459 578 
Q 1578 400 1801 284 
Q 2025 169 2350 169 
Q 2766 169 3094 350 
Q 3422 531 3542 814 
Q 3663 1097 3663 1772 
L 3663 3488 
Q 3663 3884 3575 3984 
Q 3453 4122 3213 4122 
L 3053 4122 
z
" id="TimesNewRomanPSMT-55" transform="scale(0.015625)"/>
        <path d="M 1034 2341 
Q 1538 2947 1994 2947 
Q 2228 2947 2397 2830 
Q 2566 2713 2666 2444 
Q 2734 2256 2734 1869 
L 2734 647 
Q 2734 375 2778 278 
Q 2813 200 2889 156 
Q 2966 113 3172 113 
L 3172 0 
L 1756 0 
L 1756 113 
L 1816 113 
Q 2016 113 2095 173 
Q 2175 234 2206 353 
Q 2219 400 2219 647 
L 2219 1819 
Q 2219 2209 2117 2386 
Q 2016 2563 1775 2563 
Q 1403 2563 1034 2156 
L 1034 647 
Q 1034 356 1069 288 
Q 1113 197 1189 155 
Q 1266 113 1500 113 
L 1500 0 
L 84 0 
L 84 113 
L 147 113 
Q 366 113 442 223 
Q 519 334 519 647 
L 519 1709 
Q 519 2225 495 2337 
Q 472 2450 423 2490 
Q 375 2531 294 2531 
Q 206 2531 84 2484 
L 38 2597 
L 900 2947 
L 1034 2947 
L 1034 2341 
z
" id="TimesNewRomanPSMT-6e" transform="scale(0.015625)"/>
        <path d="M 928 4444 
Q 1059 4444 1151 4351 
Q 1244 4259 1244 4128 
Q 1244 3997 1151 3903 
Q 1059 3809 928 3809 
Q 797 3809 703 3903 
Q 609 3997 609 4128 
Q 609 4259 701 4351 
Q 794 4444 928 4444 
z
M 1188 2947 
L 1188 647 
Q 1188 378 1227 289 
Q 1266 200 1342 156 
Q 1419 113 1622 113 
L 1622 0 
L 231 0 
L 231 113 
Q 441 113 512 153 
Q 584 194 626 287 
Q 669 381 669 647 
L 669 1750 
Q 669 2216 641 2353 
Q 619 2453 572 2492 
Q 525 2531 444 2531 
Q 356 2531 231 2484 
L 188 2597 
L 1050 2947 
L 1188 2947 
z
" id="TimesNewRomanPSMT-69" transform="scale(0.015625)"/>
        <path d="M 1319 2638 
L 1319 756 
Q 1319 356 1406 250 
Q 1522 113 1716 113 
L 1975 113 
L 1975 0 
L 266 0 
L 266 113 
L 394 113 
Q 519 113 622 175 
Q 725 238 764 344 
Q 803 450 803 756 
L 803 2638 
L 247 2638 
L 247 2863 
L 803 2863 
L 803 3050 
Q 803 3478 940 3775 
Q 1078 4072 1361 4255 
Q 1644 4438 1997 4438 
Q 2325 4438 2600 4225 
Q 2781 4084 2781 3909 
Q 2781 3816 2700 3733 
Q 2619 3650 2525 3650 
Q 2453 3650 2373 3701 
Q 2294 3753 2178 3923 
Q 2063 4094 1966 4153 
Q 1869 4213 1750 4213 
Q 1606 4213 1506 4136 
Q 1406 4059 1362 3898 
Q 1319 3738 1319 3069 
L 1319 2863 
L 2056 2863 
L 2056 2638 
L 1319 2638 
z
" id="TimesNewRomanPSMT-66" transform="scale(0.015625)"/>
        <path d="M 144 4313 
L 144 4444 
Q 619 4209 934 3891 
Q 1381 3434 1625 2820 
Q 1869 2206 1869 1541 
Q 1869 572 1392 -226 
Q 916 -1025 144 -1369 
L 144 -1253 
Q 528 -1038 776 -670 
Q 1025 -303 1145 264 
Q 1266 831 1266 1447 
Q 1266 2113 1163 2663 
Q 1084 3094 967 3353 
Q 850 3613 656 3853 
Q 463 4094 144 4313 
z
" id="TimesNewRomanPSMT-29" transform="scale(0.015625)"/>
       </defs>
       <use xlink:href="#TimesNewRomanPSMT-28"/>
       <use x="33.300781" xlink:href="#TimesNewRomanPSMT-55"/>
       <use x="105.517578" xlink:href="#TimesNewRomanPSMT-6e"/>
       <use x="155.517578" xlink:href="#TimesNewRomanPSMT-69"/>
       <use x="183.300781" xlink:href="#TimesNewRomanPSMT-66"/>
       <use x="216.601562" xlink:href="#TimesNewRomanPSMT-29"/>
      </g>
     </g>
    </g>
   </g>
   <g id="matplotlib.axis_2">
    <g id="ytick_1">
     <g id="line2d_2">
      <defs>
       <path d="M 0 0 
L -3.5 0 
" id="m2b790b8fc1" style="stroke:#000000;stroke-width:0.8;"/>
      </defs>
      <g>
       <use style="stroke:#000000;stroke-width:0.8;" x="43.099375" xlink:href="#m2b790b8fc1" y="164.939262"/>
      </g>
     </g>
     <g id="text_2">
      <!-- 21.0 -->
      <g transform="translate(22.099375 167.716762)scale(0.08 -0.08)">
       <defs>
        <path d="M 2934 816 
L 2638 0 
L 138 0 
L 138 116 
Q 1241 1122 1691 1759 
Q 2141 2397 2141 2925 
Q 2141 3328 1894 3587 
Q 1647 3847 1303 3847 
Q 991 3847 742 3664 
Q 494 3481 375 3128 
L 259 3128 
Q 338 3706 661 4015 
Q 984 4325 1469 4325 
Q 1984 4325 2329 3994 
Q 2675 3663 2675 3213 
Q 2675 2891 2525 2569 
Q 2294 2063 1775 1497 
Q 997 647 803 472 
L 1909 472 
Q 2247 472 2383 497 
Q 2519 522 2628 598 
Q 2738 675 2819 816 
L 2934 816 
z
" id="TimesNewRomanPSMT-32" transform="scale(0.015625)"/>
        <path d="M 750 3822 
L 1781 4325 
L 1884 4325 
L 1884 747 
Q 1884 391 1914 303 
Q 1944 216 2037 169 
Q 2131 122 2419 116 
L 2419 0 
L 825 0 
L 825 116 
Q 1125 122 1212 167 
Q 1300 213 1334 289 
Q 1369 366 1369 747 
L 1369 3034 
Q 1369 3497 1338 3628 
Q 1316 3728 1258 3775 
Q 1200 3822 1119 3822 
Q 1003 3822 797 3725 
L 750 3822 
z
" id="TimesNewRomanPSMT-31" transform="scale(0.015625)"/>
        <path d="M 800 606 
Q 947 606 1047 504 
Q 1147 403 1147 259 
Q 1147 116 1045 14 
Q 944 -88 800 -88 
Q 656 -88 554 14 
Q 453 116 453 259 
Q 453 406 554 506 
Q 656 606 800 606 
z
" id="TimesNewRomanPSMT-2e" transform="scale(0.015625)"/>
       </defs>
       <use xlink:href="#TimesNewRomanPSMT-32"/>
       <use x="50" xlink:href="#TimesNewRomanPSMT-31"/>
       <use x="100" xlink:href="#TimesNewRomanPSMT-2e"/>
       <use x="125" xlink:href="#TimesNewRomanPSMT-30"/>
      </g>
     </g>
    </g>
    <g id="ytick_2">
     <g id="line2d_3">
      <g>
       <use style="stroke:#000000;stroke-width:0.8;" x="43.099375" xlink:href="#m2b790b8fc1" y="124.846802"/>
      </g>
     </g>
     <g id="text_3">
      <!-- 21.2 -->
      <g transform="translate(22.099375 127.624302)scale(0.08 -0.08)">
       <use xlink:href="#TimesNewRomanPSMT-32"/>
       <use x="50" xlink:href="#TimesNewRomanPSMT-31"/>
       <use x="100" xlink:href="#TimesNewRomanPSMT-2e"/>
       <use x="125" xlink:href="#TimesNewRomanPSMT-32"/>
      </g>
     </g>
    </g>
    <g id="ytick_3">
     <g id="line2d_4">
      <g>
       <use style="stroke:#000000;stroke-width:0.8;" x="43.099375" xlink:href="#m2b790b8fc1" y="84.754342"/>
      </g>
     </g>
     <g id="text_4">
      <!-- 21.4 -->
      <g transform="translate(22.099375 87.531842)scale(0.08 -0.08)">
       <defs>
        <path d="M 2978 1563 
L 2978 1119 
L 2409 1119 
L 2409 0 
L 1894 0 
L 1894 1119 
L 100 1119 
L 100 1519 
L 2066 4325 
L 2409 4325 
L 2409 1563 
L 2978 1563 
z
M 1894 1563 
L 1894 3666 
L 406 1563 
L 1894 1563 
z
" id="TimesNewRomanPSMT-34" transform="scale(0.015625)"/>
       </defs>
       <use xlink:href="#TimesNewRomanPSMT-32"/>
       <use x="50" xlink:href="#TimesNewRomanPSMT-31"/>
       <use x="100" xlink:href="#TimesNewRomanPSMT-2e"/>
       <use x="125" xlink:href="#TimesNewRomanPSMT-34"/>
      </g>
     </g>
    </g>
    <g id="ytick_4">
     <g id="line2d_5">
      <g>
       <use style="stroke:#000000;stroke-width:0.8;" x="43.099375" xlink:href="#m2b790b8fc1" y="44.661882"/>
      </g>
     </g>
     <g id="text_5">
      <!-- 21.6 -->
      <g transform="translate(22.099375 47.439382)scale(0.08 -0.08)">
       <defs>
        <path d="M 2869 4325 
L 2869 4209 
Q 2456 4169 2195 4045 
Q 1934 3922 1679 3669 
Q 1425 3416 1258 3105 
Q 1091 2794 978 2366 
Q 1428 2675 1881 2675 
Q 2316 2675 2634 2325 
Q 2953 1975 2953 1425 
Q 2953 894 2631 456 
Q 2244 -75 1606 -75 
Q 1172 -75 869 213 
Q 275 772 275 1663 
Q 275 2231 503 2743 
Q 731 3256 1154 3653 
Q 1578 4050 1965 4187 
Q 2353 4325 2688 4325 
L 2869 4325 
z
M 925 2138 
Q 869 1716 869 1456 
Q 869 1156 980 804 
Q 1091 453 1309 247 
Q 1469 100 1697 100 
Q 1969 100 2183 356 
Q 2397 613 2397 1088 
Q 2397 1622 2184 2012 
Q 1972 2403 1581 2403 
Q 1463 2403 1327 2353 
Q 1191 2303 925 2138 
z
" id="TimesNewRomanPSMT-36" transform="scale(0.015625)"/>
       </defs>
       <use xlink:href="#TimesNewRomanPSMT-32"/>
       <use x="50" xlink:href="#TimesNewRomanPSMT-31"/>
       <use x="100" xlink:href="#TimesNewRomanPSMT-2e"/>
       <use x="125" xlink:href="#TimesNewRomanPSMT-36"/>
      </g>
     </g>
    </g>
    <g id="text_6">
     <!-- Test score -->
     <g transform="translate(15.5325 128.870884)rotate(-90)scale(0.12 -0.12)">
      <defs>
       <path d="M 681 1784 
Q 678 1147 991 784 
Q 1303 422 1725 422 
Q 2006 422 2214 576 
Q 2422 731 2563 1106 
L 2659 1044 
Q 2594 616 2278 264 
Q 1963 -88 1488 -88 
Q 972 -88 605 314 
Q 238 716 238 1394 
Q 238 2128 614 2539 
Q 991 2950 1559 2950 
Q 2041 2950 2350 2633 
Q 2659 2316 2659 1784 
L 681 1784 
z
M 681 1966 
L 2006 1966 
Q 1991 2241 1941 2353 
Q 1863 2528 1708 2628 
Q 1553 2728 1384 2728 
Q 1125 2728 920 2526 
Q 716 2325 681 1966 
z
" id="TimesNewRomanPSMT-65" transform="scale(0.015625)"/>
       <path d="M 2050 2947 
L 2050 1972 
L 1947 1972 
Q 1828 2431 1642 2597 
Q 1456 2763 1169 2763 
Q 950 2763 815 2647 
Q 681 2531 681 2391 
Q 681 2216 781 2091 
Q 878 1963 1175 1819 
L 1631 1597 
Q 2266 1288 2266 781 
Q 2266 391 1970 151 
Q 1675 -88 1309 -88 
Q 1047 -88 709 6 
Q 606 38 541 38 
Q 469 38 428 -44 
L 325 -44 
L 325 978 
L 428 978 
Q 516 541 762 319 
Q 1009 97 1316 97 
Q 1531 97 1667 223 
Q 1803 350 1803 528 
Q 1803 744 1651 891 
Q 1500 1038 1047 1263 
Q 594 1488 453 1669 
Q 313 1847 313 2119 
Q 313 2472 555 2709 
Q 797 2947 1181 2947 
Q 1350 2947 1591 2875 
Q 1750 2828 1803 2828 
Q 1853 2828 1881 2850 
Q 1909 2872 1947 2947 
L 2050 2947 
z
" id="TimesNewRomanPSMT-73" transform="scale(0.015625)"/>
       <path d="M 1031 3803 
L 1031 2863 
L 1700 2863 
L 1700 2644 
L 1031 2644 
L 1031 788 
Q 1031 509 1111 412 
Q 1191 316 1316 316 
Q 1419 316 1516 380 
Q 1613 444 1666 569 
L 1788 569 
Q 1678 263 1478 108 
Q 1278 -47 1066 -47 
Q 922 -47 784 33 
Q 647 113 581 261 
Q 516 409 516 719 
L 516 2644 
L 63 2644 
L 63 2747 
Q 234 2816 414 2980 
Q 594 3144 734 3369 
Q 806 3488 934 3803 
L 1031 3803 
z
" id="TimesNewRomanPSMT-74" transform="scale(0.015625)"/>
       <path id="TimesNewRomanPSMT-20" transform="scale(0.015625)"/>
       <path d="M 2631 1088 
Q 2516 522 2178 217 
Q 1841 -88 1431 -88 
Q 944 -88 581 321 
Q 219 731 219 1428 
Q 219 2103 620 2525 
Q 1022 2947 1584 2947 
Q 2006 2947 2278 2723 
Q 2550 2500 2550 2259 
Q 2550 2141 2473 2067 
Q 2397 1994 2259 1994 
Q 2075 1994 1981 2113 
Q 1928 2178 1911 2362 
Q 1894 2547 1784 2644 
Q 1675 2738 1481 2738 
Q 1169 2738 978 2506 
Q 725 2200 725 1697 
Q 725 1184 976 792 
Q 1228 400 1656 400 
Q 1963 400 2206 609 
Q 2378 753 2541 1131 
L 2631 1088 
z
" id="TimesNewRomanPSMT-63" transform="scale(0.015625)"/>
       <path d="M 1600 2947 
Q 2250 2947 2644 2453 
Q 2978 2031 2978 1484 
Q 2978 1100 2793 706 
Q 2609 313 2286 112 
Q 1963 -88 1566 -88 
Q 919 -88 538 428 
Q 216 863 216 1403 
Q 216 1797 411 2186 
Q 606 2575 925 2761 
Q 1244 2947 1600 2947 
z
M 1503 2744 
Q 1338 2744 1170 2645 
Q 1003 2547 900 2300 
Q 797 2053 797 1666 
Q 797 1041 1045 587 
Q 1294 134 1700 134 
Q 2003 134 2200 384 
Q 2397 634 2397 1244 
Q 2397 2006 2069 2444 
Q 1847 2744 1503 2744 
z
" id="TimesNewRomanPSMT-6f" transform="scale(0.015625)"/>
       <path d="M 1038 2947 
L 1038 2303 
Q 1397 2947 1775 2947 
Q 1947 2947 2059 2842 
Q 2172 2738 2172 2600 
Q 2172 2478 2090 2393 
Q 2009 2309 1897 2309 
Q 1788 2309 1652 2417 
Q 1516 2525 1450 2525 
Q 1394 2525 1328 2463 
Q 1188 2334 1038 2041 
L 1038 669 
Q 1038 431 1097 309 
Q 1138 225 1241 169 
Q 1344 113 1538 113 
L 1538 0 
L 72 0 
L 72 113 
Q 291 113 397 181 
Q 475 231 506 341 
Q 522 394 522 644 
L 522 1753 
Q 522 2253 501 2348 
Q 481 2444 426 2487 
Q 372 2531 291 2531 
Q 194 2531 72 2484 
L 41 2597 
L 906 2947 
L 1038 2947 
z
" id="TimesNewRomanPSMT-72" transform="scale(0.015625)"/>
      </defs>
      <use xlink:href="#TimesNewRomanPSMT-54"/>
      <use x="54.083984" xlink:href="#TimesNewRomanPSMT-65"/>
      <use x="98.46875" xlink:href="#TimesNewRomanPSMT-73"/>
      <use x="137.384766" xlink:href="#TimesNewRomanPSMT-74"/>
      <use x="165.167969" xlink:href="#TimesNewRomanPSMT-20"/>
      <use x="190.167969" xlink:href="#TimesNewRomanPSMT-73"/>
      <use x="229.083984" xlink:href="#TimesNewRomanPSMT-63"/>
      <use x="273.46875" xlink:href="#TimesNewRomanPSMT-6f"/>
      <use x="323.46875" xlink:href="#TimesNewRomanPSMT-72"/>
      <use x="356.769531" xlink:href="#TimesNewRomanPSMT-65"/>
     </g>
    </g>
   </g>
   <g id="patch_7">
    <path d="M 43.099375 164.939262 
L 43.099375 44.661882 
" style="fill:none;stroke:#000000;stroke-linecap:square;stroke-linejoin:miter;stroke-width:0.8;"/>
   </g>
   <g id="patch_8">
    <path d="M 119.931683 164.939262 
L 119.931683 44.661882 
" style="fill:none;stroke:#000000;stroke-linecap:square;stroke-linejoin:miter;stroke-width:0.8;"/>
   </g>
   <g id="patch_9">
    <path d="M 43.099375 164.939262 
L 119.931683 164.939262 
" style="fill:none;stroke:#000000;stroke-linecap:square;stroke-linejoin:miter;stroke-width:0.8;"/>
   </g>
   <g id="patch_10">
    <path d="M 43.099375 44.661882 
L 119.931683 44.661882 
" style="fill:none;stroke:#000000;stroke-linecap:square;stroke-linejoin:miter;stroke-width:0.8;"/>
   </g>
   <g id="text_7">
    <!-- 21.42 -->
    <g transform="translate(46.574602 78.247752)scale(0.07 -0.07)">
     <use xlink:href="#TimesNewRomanPSMT-32"/>
     <use x="50" xlink:href="#TimesNewRomanPSMT-31"/>
     <use x="100" xlink:href="#TimesNewRomanPSMT-2e"/>
     <use x="125" xlink:href="#TimesNewRomanPSMT-34"/>
     <use x="175" xlink:href="#TimesNewRomanPSMT-32"/>
    </g>
   </g>
   <g id="text_8">
    <!-- 21.45 -->
    <g transform="translate(63.163396 72.233883)scale(0.07 -0.07)">
     <use xlink:href="#TimesNewRomanPSMT-32"/>
     <use x="50" xlink:href="#TimesNewRomanPSMT-31"/>
     <use x="100" xlink:href="#TimesNewRomanPSMT-2e"/>
     <use x="125" xlink:href="#TimesNewRomanPSMT-34"/>
     <use x="175" xlink:href="#TimesNewRomanPSMT-35"/>
    </g>
   </g>
   <g id="text_9">
    <!-- 21.25 -->
    <g transform="translate(84.117662 112.326343)scale(0.07 -0.07)">
     <use xlink:href="#TimesNewRomanPSMT-32"/>
     <use x="50" xlink:href="#TimesNewRomanPSMT-31"/>
     <use x="100" xlink:href="#TimesNewRomanPSMT-2e"/>
     <use x="125" xlink:href="#TimesNewRomanPSMT-32"/>
     <use x="175" xlink:href="#TimesNewRomanPSMT-35"/>
    </g>
   </g>
   <g id="text_10">
    <!-- 21.27 -->
    <g transform="translate(100.706455 108.317097)scale(0.07 -0.07)">
     <defs>
      <path d="M 644 4238 
L 2916 4238 
L 2916 4119 
L 1503 -88 
L 1153 -88 
L 2419 3728 
L 1253 3728 
Q 900 3728 750 3644 
Q 488 3500 328 3200 
L 238 3234 
L 644 4238 
z
" id="TimesNewRomanPSMT-37" transform="scale(0.015625)"/>
     </defs>
     <use xlink:href="#TimesNewRomanPSMT-32"/>
     <use x="50" xlink:href="#TimesNewRomanPSMT-31"/>
     <use x="100" xlink:href="#TimesNewRomanPSMT-2e"/>
     <use x="125" xlink:href="#TimesNewRomanPSMT-32"/>
     <use x="175" xlink:href="#TimesNewRomanPSMT-37"/>
    </g>
   </g>
  </g>
  <g id="axes_2">
   <g id="patch_11">
    <path d="M 150.664606 164.939262 
L 227.496913 164.939262 
L 227.496913 44.661882 
L 150.664606 44.661882 
z
" style="fill:#ffffff;"/>
   </g>
   <g id="patch_12">
    <path clip-path="url(#p0a4c7c836f)" d="M 154.156983 5677.652488 
L 169.872683 5677.652488 
L 169.872683 126.851425 
L 154.156983 126.851425 
z
" style="fill:#b32417;opacity:0.85;stroke:#b32417;stroke-linejoin:miter;stroke-width:2;"/>
   </g>
   <g id="patch_13">
    <path clip-path="url(#p0a4c7c836f)" d="M 170.745777 5677.652488 
L 186.461476 5677.652488 
L 186.461476 108.809818 
L 170.745777 108.809818 
z
" style="fill:url(#h69c9eb1861);"/>
   </g>
   <g id="patch_14">
    <path clip-path="url(#p0a4c7c836f)" d="M 191.700043 5677.652488 
L 207.415742 5677.652488 
L 207.415742 92.772834 
L 191.700043 92.772834 
z
" style="fill:#7a003c;opacity:0.85;stroke:#7a003c;stroke-linejoin:miter;stroke-width:2;"/>
   </g>
   <g id="patch_15">
    <path clip-path="url(#p0a4c7c836f)" d="M 208.288837 5677.652488 
L 224.004536 5677.652488 
L 224.004536 68.717358 
L 208.288837 68.717358 
z
" style="fill:url(#h06c59afed3);"/>
   </g>
   <g id="matplotlib.axis_3">
    <g id="xtick_2">
     <g id="line2d_6">
      <g>
       <use style="stroke:#000000;stroke-width:0.8;" x="189.08076" xlink:href="#mc55e8072cb" y="164.939262"/>
      </g>
     </g>
     <g id="text_11">
      <!-- MSTOP70 -->
      <g transform="translate(163.17951 180.271762)scale(0.12 -0.12)">
       <use xlink:href="#TimesNewRomanPSMT-4d"/>
       <use x="88.916016" xlink:href="#TimesNewRomanPSMT-53"/>
       <use x="144.53125" xlink:href="#TimesNewRomanPSMT-54"/>
       <use x="203.865234" xlink:href="#TimesNewRomanPSMT-4f"/>
       <use x="276.082031" xlink:href="#TimesNewRomanPSMT-50"/>
       <use x="331.697266" xlink:href="#TimesNewRomanPSMT-37"/>
       <use x="381.697266" xlink:href="#TimesNewRomanPSMT-30"/>
      </g>
      <!-- (Unif) -->
      <g transform="translate(174.087322 192.837637)scale(0.12 -0.12)">
       <use xlink:href="#TimesNewRomanPSMT-28"/>
       <use x="33.300781" xlink:href="#TimesNewRomanPSMT-55"/>
       <use x="105.517578" xlink:href="#TimesNewRomanPSMT-6e"/>
       <use x="155.517578" xlink:href="#TimesNewRomanPSMT-69"/>
       <use x="183.300781" xlink:href="#TimesNewRomanPSMT-66"/>
       <use x="216.601562" xlink:href="#TimesNewRomanPSMT-29"/>
      </g>
     </g>
    </g>
   </g>
   <g id="matplotlib.axis_4">
    <g id="ytick_5">
     <g id="line2d_7">
      <g>
       <use style="stroke:#000000;stroke-width:0.8;" x="150.664606" xlink:href="#m2b790b8fc1" y="164.939262"/>
      </g>
     </g>
     <g id="text_12">
      <!-- 27.5 -->
      <g transform="translate(129.664606 167.716762)scale(0.08 -0.08)">
       <use xlink:href="#TimesNewRomanPSMT-32"/>
       <use x="50" xlink:href="#TimesNewRomanPSMT-37"/>
       <use x="100" xlink:href="#TimesNewRomanPSMT-2e"/>
       <use x="125" xlink:href="#TimesNewRomanPSMT-35"/>
      </g>
     </g>
    </g>
    <g id="ytick_6">
     <g id="line2d_8">
      <g>
       <use style="stroke:#000000;stroke-width:0.8;" x="150.664606" xlink:href="#m2b790b8fc1" y="124.846802"/>
      </g>
     </g>
     <g id="text_13">
      <!-- 27.7 -->
      <g transform="translate(129.664606 127.624302)scale(0.08 -0.08)">
       <use xlink:href="#TimesNewRomanPSMT-32"/>
       <use x="50" xlink:href="#TimesNewRomanPSMT-37"/>
       <use x="100" xlink:href="#TimesNewRomanPSMT-2e"/>
       <use x="125" xlink:href="#TimesNewRomanPSMT-37"/>
      </g>
     </g>
    </g>
    <g id="ytick_7">
     <g id="line2d_9">
      <g>
       <use style="stroke:#000000;stroke-width:0.8;" x="150.664606" xlink:href="#m2b790b8fc1" y="84.754342"/>
      </g>
     </g>
     <g id="text_14">
      <!-- 27.9 -->
      <g transform="translate(129.664606 87.531842)scale(0.08 -0.08)">
       <defs>
        <path d="M 338 -88 
L 338 28 
Q 744 34 1094 217 
Q 1444 400 1770 856 
Q 2097 1313 2225 1859 
Q 1734 1544 1338 1544 
Q 891 1544 572 1889 
Q 253 2234 253 2806 
Q 253 3363 572 3797 
Q 956 4325 1575 4325 
Q 2097 4325 2469 3894 
Q 2925 3359 2925 2575 
Q 2925 1869 2578 1258 
Q 2231 647 1613 244 
Q 1109 -88 516 -88 
L 338 -88 
z
M 2275 2091 
Q 2331 2497 2331 2741 
Q 2331 3044 2228 3395 
Q 2125 3747 1936 3934 
Q 1747 4122 1506 4122 
Q 1228 4122 1018 3872 
Q 809 3622 809 3128 
Q 809 2469 1088 2097 
Q 1291 1828 1588 1828 
Q 1731 1828 1928 1897 
Q 2125 1966 2275 2091 
z
" id="TimesNewRomanPSMT-39" transform="scale(0.015625)"/>
       </defs>
       <use xlink:href="#TimesNewRomanPSMT-32"/>
       <use x="50" xlink:href="#TimesNewRomanPSMT-37"/>
       <use x="100" xlink:href="#TimesNewRomanPSMT-2e"/>
       <use x="125" xlink:href="#TimesNewRomanPSMT-39"/>
      </g>
     </g>
    </g>
    <g id="ytick_8">
     <g id="line2d_10">
      <g>
       <use style="stroke:#000000;stroke-width:0.8;" x="150.664606" xlink:href="#m2b790b8fc1" y="44.661882"/>
      </g>
     </g>
     <g id="text_15">
      <!-- 28.1 -->
      <g transform="translate(129.664606 47.439382)scale(0.08 -0.08)">
       <defs>
        <path d="M 1228 2134 
Q 725 2547 579 2797 
Q 434 3047 434 3316 
Q 434 3728 753 4026 
Q 1072 4325 1600 4325 
Q 2113 4325 2425 4047 
Q 2738 3769 2738 3413 
Q 2738 3175 2569 2928 
Q 2400 2681 1866 2347 
Q 2416 1922 2594 1678 
Q 2831 1359 2831 1006 
Q 2831 559 2490 242 
Q 2150 -75 1597 -75 
Q 994 -75 656 303 
Q 388 606 388 966 
Q 388 1247 577 1523 
Q 766 1800 1228 2134 
z
M 1719 2469 
Q 2094 2806 2194 3001 
Q 2294 3197 2294 3444 
Q 2294 3772 2109 3958 
Q 1925 4144 1606 4144 
Q 1288 4144 1088 3959 
Q 888 3775 888 3528 
Q 888 3366 970 3203 
Q 1053 3041 1206 2894 
L 1719 2469 
z
M 1375 2016 
Q 1116 1797 991 1539 
Q 866 1281 866 981 
Q 866 578 1086 336 
Q 1306 94 1647 94 
Q 1984 94 2187 284 
Q 2391 475 2391 747 
Q 2391 972 2272 1150 
Q 2050 1481 1375 2016 
z
" id="TimesNewRomanPSMT-38" transform="scale(0.015625)"/>
       </defs>
       <use xlink:href="#TimesNewRomanPSMT-32"/>
       <use x="50" xlink:href="#TimesNewRomanPSMT-38"/>
       <use x="100" xlink:href="#TimesNewRomanPSMT-2e"/>
       <use x="125" xlink:href="#TimesNewRomanPSMT-31"/>
      </g>
     </g>
    </g>
   </g>
   <g id="patch_16">
    <path d="M 150.664606 164.939262 
L 150.664606 44.661882 
" style="fill:none;stroke:#000000;stroke-linecap:square;stroke-linejoin:miter;stroke-width:0.8;"/>
   </g>
   <g id="patch_17">
    <path d="M 227.496913 164.939262 
L 227.496913 44.661882 
" style="fill:none;stroke:#000000;stroke-linecap:square;stroke-linejoin:miter;stroke-width:0.8;"/>
   </g>
   <g id="patch_18">
    <path d="M 150.664606 164.939262 
L 227.496913 164.939262 
" style="fill:none;stroke:#000000;stroke-linecap:square;stroke-linejoin:miter;stroke-width:0.8;"/>
   </g>
   <g id="patch_19">
    <path d="M 150.664606 44.661882 
L 227.496913 44.661882 
" style="fill:none;stroke:#000000;stroke-linecap:square;stroke-linejoin:miter;stroke-width:0.8;"/>
   </g>
   <g id="text_16">
    <!-- 27.69 -->
    <g transform="translate(154.139833 124.354081)scale(0.07 -0.07)">
     <use xlink:href="#TimesNewRomanPSMT-32"/>
     <use x="50" xlink:href="#TimesNewRomanPSMT-37"/>
     <use x="100" xlink:href="#TimesNewRomanPSMT-2e"/>
     <use x="125" xlink:href="#TimesNewRomanPSMT-36"/>
     <use x="175" xlink:href="#TimesNewRomanPSMT-39"/>
    </g>
   </g>
   <g id="text_17">
    <!-- 27.78 -->
    <g transform="translate(170.728627 106.312474)scale(0.07 -0.07)">
     <use xlink:href="#TimesNewRomanPSMT-32"/>
     <use x="50" xlink:href="#TimesNewRomanPSMT-37"/>
     <use x="100" xlink:href="#TimesNewRomanPSMT-2e"/>
     <use x="125" xlink:href="#TimesNewRomanPSMT-37"/>
     <use x="175" xlink:href="#TimesNewRomanPSMT-38"/>
    </g>
   </g>
   <g id="text_18">
    <!-- 27.86 -->
    <g transform="translate(191.682892 90.27549)scale(0.07 -0.07)">
     <use xlink:href="#TimesNewRomanPSMT-32"/>
     <use x="50" xlink:href="#TimesNewRomanPSMT-37"/>
     <use x="100" xlink:href="#TimesNewRomanPSMT-2e"/>
     <use x="125" xlink:href="#TimesNewRomanPSMT-38"/>
     <use x="175" xlink:href="#TimesNewRomanPSMT-36"/>
    </g>
   </g>
   <g id="text_19">
    <!-- 27.98 -->
    <g transform="translate(208.271686 66.220014)scale(0.07 -0.07)">
     <use xlink:href="#TimesNewRomanPSMT-32"/>
     <use x="50" xlink:href="#TimesNewRomanPSMT-37"/>
     <use x="100" xlink:href="#TimesNewRomanPSMT-2e"/>
     <use x="125" xlink:href="#TimesNewRomanPSMT-39"/>
     <use x="175" xlink:href="#TimesNewRomanPSMT-38"/>
    </g>
   </g>
  </g>
  <g id="axes_3">
   <g id="patch_20">
    <path d="M 258.229837 164.939262 
L 335.062144 164.939262 
L 335.062144 44.661882 
L 258.229837 44.661882 
z
" style="fill:#ffffff;"/>
   </g>
   <g id="patch_21">
    <path clip-path="url(#p4229c5d7f9)" d="M 261.722214 8283.662377 
L 277.437913 8283.662377 
L 277.437913 100.791326 
L 261.722214 100.791326 
z
" style="fill:#b32417;opacity:0.85;stroke:#b32417;stroke-linejoin:miter;stroke-width:2;"/>
   </g>
   <g id="patch_22">
    <path clip-path="url(#p4229c5d7f9)" d="M 278.311008 8283.662377 
L 294.026707 8283.662377 
L 294.026707 84.754342 
L 278.311008 84.754342 
z
" style="fill:url(#h69c9eb1861);"/>
   </g>
   <g id="patch_23">
    <path clip-path="url(#p4229c5d7f9)" d="M 299.265274 8283.662377 
L 314.980973 8283.662377 
L 314.980973 140.883786 
L 299.265274 140.883786 
z
" style="fill:#7a003c;opacity:0.85;stroke:#7a003c;stroke-linejoin:miter;stroke-width:2;"/>
   </g>
   <g id="patch_24">
    <path clip-path="url(#p4229c5d7f9)" d="M 315.854067 8283.662377 
L 331.569767 8283.662377 
L 331.569767 138.879163 
L 315.854067 138.879163 
z
" style="fill:url(#h06c59afed3);"/>
   </g>
   <g id="matplotlib.axis_5">
    <g id="xtick_3">
     <g id="line2d_11">
      <g>
       <use style="stroke:#000000;stroke-width:0.8;" x="296.64599" xlink:href="#mc55e8072cb" y="164.939262"/>
      </g>
     </g>
     <g id="text_20">
      <!-- MSTOP50 -->
      <g transform="translate(270.74474 180.271762)scale(0.12 -0.12)">
       <use xlink:href="#TimesNewRomanPSMT-4d"/>
       <use x="88.916016" xlink:href="#TimesNewRomanPSMT-53"/>
       <use x="144.53125" xlink:href="#TimesNewRomanPSMT-54"/>
       <use x="203.865234" xlink:href="#TimesNewRomanPSMT-4f"/>
       <use x="276.082031" xlink:href="#TimesNewRomanPSMT-50"/>
       <use x="331.697266" xlink:href="#TimesNewRomanPSMT-35"/>
       <use x="381.697266" xlink:href="#TimesNewRomanPSMT-30"/>
      </g>
      <!-- (Const) -->
      <g transform="translate(278.64599 192.837637)scale(0.12 -0.12)">
       <defs>
        <path d="M 3853 4334 
L 3950 2894 
L 3853 2894 
Q 3659 3541 3300 3825 
Q 2941 4109 2438 4109 
Q 2016 4109 1675 3895 
Q 1334 3681 1139 3212 
Q 944 2744 944 2047 
Q 944 1472 1128 1050 
Q 1313 628 1683 403 
Q 2053 178 2528 178 
Q 2941 178 3256 354 
Q 3572 531 3950 1056 
L 4047 994 
Q 3728 428 3303 165 
Q 2878 -97 2294 -97 
Q 1241 -97 663 684 
Q 231 1266 231 2053 
Q 231 2688 515 3219 
Q 800 3750 1298 4042 
Q 1797 4334 2388 4334 
Q 2847 4334 3294 4109 
Q 3425 4041 3481 4041 
Q 3566 4041 3628 4100 
Q 3709 4184 3744 4334 
L 3853 4334 
z
" id="TimesNewRomanPSMT-43" transform="scale(0.015625)"/>
       </defs>
       <use xlink:href="#TimesNewRomanPSMT-28"/>
       <use x="33.300781" xlink:href="#TimesNewRomanPSMT-43"/>
       <use x="100" xlink:href="#TimesNewRomanPSMT-6f"/>
       <use x="150" xlink:href="#TimesNewRomanPSMT-6e"/>
       <use x="200" xlink:href="#TimesNewRomanPSMT-73"/>
       <use x="238.916016" xlink:href="#TimesNewRomanPSMT-74"/>
       <use x="266.699219" xlink:href="#TimesNewRomanPSMT-29"/>
      </g>
     </g>
    </g>
   </g>
   <g id="matplotlib.axis_6">
    <g id="ytick_9">
     <g id="line2d_12">
      <g>
       <use style="stroke:#000000;stroke-width:0.8;" x="258.229837" xlink:href="#m2b790b8fc1" y="164.939262"/>
      </g>
     </g>
     <g id="text_21">
      <!-- 40.5 -->
      <g transform="translate(237.229837 167.716762)scale(0.08 -0.08)">
       <use xlink:href="#TimesNewRomanPSMT-34"/>
       <use x="50" xlink:href="#TimesNewRomanPSMT-30"/>
       <use x="100" xlink:href="#TimesNewRomanPSMT-2e"/>
       <use x="125" xlink:href="#TimesNewRomanPSMT-35"/>
      </g>
     </g>
    </g>
    <g id="ytick_10">
     <g id="line2d_13">
      <g>
       <use style="stroke:#000000;stroke-width:0.8;" x="258.229837" xlink:href="#m2b790b8fc1" y="124.846802"/>
      </g>
     </g>
     <g id="text_22">
      <!-- 40.7 -->
      <g transform="translate(237.229837 127.624302)scale(0.08 -0.08)">
       <use xlink:href="#TimesNewRomanPSMT-34"/>
       <use x="50" xlink:href="#TimesNewRomanPSMT-30"/>
       <use x="100" xlink:href="#TimesNewRomanPSMT-2e"/>
       <use x="125" xlink:href="#TimesNewRomanPSMT-37"/>
      </g>
     </g>
    </g>
    <g id="ytick_11">
     <g id="line2d_14">
      <g>
       <use style="stroke:#000000;stroke-width:0.8;" x="258.229837" xlink:href="#m2b790b8fc1" y="84.754342"/>
      </g>
     </g>
     <g id="text_23">
      <!-- 40.9 -->
      <g transform="translate(237.229837 87.531842)scale(0.08 -0.08)">
       <use xlink:href="#TimesNewRomanPSMT-34"/>
       <use x="50" xlink:href="#TimesNewRomanPSMT-30"/>
       <use x="100" xlink:href="#TimesNewRomanPSMT-2e"/>
       <use x="125" xlink:href="#TimesNewRomanPSMT-39"/>
      </g>
     </g>
    </g>
    <g id="ytick_12">
     <g id="line2d_15">
      <g>
       <use style="stroke:#000000;stroke-width:0.8;" x="258.229837" xlink:href="#m2b790b8fc1" y="44.661882"/>
      </g>
     </g>
     <g id="text_24">
      <!-- 41.1 -->
      <g transform="translate(237.229837 47.439382)scale(0.08 -0.08)">
       <use xlink:href="#TimesNewRomanPSMT-34"/>
       <use x="50" xlink:href="#TimesNewRomanPSMT-31"/>
       <use x="100" xlink:href="#TimesNewRomanPSMT-2e"/>
       <use x="125" xlink:href="#TimesNewRomanPSMT-31"/>
      </g>
     </g>
    </g>
   </g>
   <g id="patch_25">
    <path d="M 258.229837 164.939262 
L 258.229837 44.661882 
" style="fill:none;stroke:#000000;stroke-linecap:square;stroke-linejoin:miter;stroke-width:0.8;"/>
   </g>
   <g id="patch_26">
    <path d="M 335.062144 164.939262 
L 335.062144 44.661882 
" style="fill:none;stroke:#000000;stroke-linecap:square;stroke-linejoin:miter;stroke-width:0.8;"/>
   </g>
   <g id="patch_27">
    <path d="M 258.229837 164.939262 
L 335.062144 164.939262 
" style="fill:none;stroke:#000000;stroke-linecap:square;stroke-linejoin:miter;stroke-width:0.8;"/>
   </g>
   <g id="patch_28">
    <path d="M 258.229837 44.661882 
L 335.062144 44.661882 
" style="fill:none;stroke:#000000;stroke-linecap:square;stroke-linejoin:miter;stroke-width:0.8;"/>
   </g>
   <g id="text_25">
    <!-- 40.82 -->
    <g transform="translate(261.705064 98.293982)scale(0.07 -0.07)">
     <use xlink:href="#TimesNewRomanPSMT-34"/>
     <use x="50" xlink:href="#TimesNewRomanPSMT-30"/>
     <use x="100" xlink:href="#TimesNewRomanPSMT-2e"/>
     <use x="125" xlink:href="#TimesNewRomanPSMT-38"/>
     <use x="175" xlink:href="#TimesNewRomanPSMT-32"/>
    </g>
   </g>
   <g id="text_26">
    <!-- 40.90 -->
    <g transform="translate(278.293858 82.256998)scale(0.07 -0.07)">
     <use xlink:href="#TimesNewRomanPSMT-34"/>
     <use x="50" xlink:href="#TimesNewRomanPSMT-30"/>
     <use x="100" xlink:href="#TimesNewRomanPSMT-2e"/>
     <use x="125" xlink:href="#TimesNewRomanPSMT-39"/>
     <use x="175" xlink:href="#TimesNewRomanPSMT-30"/>
    </g>
   </g>
   <g id="text_27">
    <!-- 40.62 -->
    <g transform="translate(299.248123 138.386442)scale(0.07 -0.07)">
     <use xlink:href="#TimesNewRomanPSMT-34"/>
     <use x="50" xlink:href="#TimesNewRomanPSMT-30"/>
     <use x="100" xlink:href="#TimesNewRomanPSMT-2e"/>
     <use x="125" xlink:href="#TimesNewRomanPSMT-36"/>
     <use x="175" xlink:href="#TimesNewRomanPSMT-32"/>
    </g>
   </g>
   <g id="text_28">
    <!-- 40.63 -->
    <g transform="translate(315.836917 136.381819)scale(0.07 -0.07)">
     <defs>
      <path d="M 325 3431 
Q 506 3859 782 4092 
Q 1059 4325 1472 4325 
Q 1981 4325 2253 3994 
Q 2459 3747 2459 3466 
Q 2459 3003 1878 2509 
Q 2269 2356 2469 2072 
Q 2669 1788 2669 1403 
Q 2669 853 2319 450 
Q 1863 -75 997 -75 
Q 569 -75 414 31 
Q 259 138 259 259 
Q 259 350 332 419 
Q 406 488 509 488 
Q 588 488 669 463 
Q 722 447 909 348 
Q 1097 250 1169 231 
Q 1284 197 1416 197 
Q 1734 197 1970 444 
Q 2206 691 2206 1028 
Q 2206 1275 2097 1509 
Q 2016 1684 1919 1775 
Q 1784 1900 1550 2001 
Q 1316 2103 1072 2103 
L 972 2103 
L 972 2197 
Q 1219 2228 1467 2375 
Q 1716 2522 1828 2728 
Q 1941 2934 1941 3181 
Q 1941 3503 1739 3701 
Q 1538 3900 1238 3900 
Q 753 3900 428 3381 
L 325 3431 
z
" id="TimesNewRomanPSMT-33" transform="scale(0.015625)"/>
     </defs>
     <use xlink:href="#TimesNewRomanPSMT-34"/>
     <use x="50" xlink:href="#TimesNewRomanPSMT-30"/>
     <use x="100" xlink:href="#TimesNewRomanPSMT-2e"/>
     <use x="125" xlink:href="#TimesNewRomanPSMT-36"/>
     <use x="175" xlink:href="#TimesNewRomanPSMT-33"/>
    </g>
   </g>
  </g>
  <g id="axes_4">
   <g id="patch_29">
    <path d="M 365.795067 164.939262 
L 442.627375 164.939262 
L 442.627375 44.661882 
L 365.795067 44.661882 
z
" style="fill:#ffffff;"/>
   </g>
   <g id="patch_30">
    <path clip-path="url(#p232f7d7751)" d="M 369.287445 7060.842352 
L 385.003144 7060.842352 
L 385.003144 124.846802 
L 369.287445 124.846802 
z
" style="fill:#b32417;opacity:0.85;stroke:#b32417;stroke-linejoin:miter;stroke-width:2;"/>
   </g>
   <g id="patch_31">
    <path clip-path="url(#p232f7d7751)" d="M 385.876239 7060.842352 
L 401.591938 7060.842352 
L 401.591938 135.538124 
L 385.876239 135.538124 
z
" style="fill:url(#h69c9eb1861);"/>
   </g>
   <g id="patch_32">
    <path clip-path="url(#p232f7d7751)" d="M 406.830504 7060.842352 
L 422.546204 7060.842352 
L 422.546204 106.136987 
L 406.830504 106.136987 
z
" style="fill:#7a003c;opacity:0.85;stroke:#7a003c;stroke-linejoin:miter;stroke-width:2;"/>
   </g>
   <g id="patch_33">
    <path clip-path="url(#p232f7d7751)" d="M 423.419298 7060.842352 
L 439.134997 7060.842352 
L 439.134997 76.73585 
L 423.419298 76.73585 
z
" style="fill:url(#h06c59afed3);"/>
   </g>
   <g id="matplotlib.axis_7">
    <g id="xtick_4">
     <g id="line2d_16">
      <g>
       <use style="stroke:#000000;stroke-width:0.8;" x="404.211221" xlink:href="#mc55e8072cb" y="164.939262"/>
      </g>
     </g>
     <g id="text_29">
      <!-- MSTOP70 -->
      <g transform="translate(378.309971 180.271762)scale(0.12 -0.12)">
       <use xlink:href="#TimesNewRomanPSMT-4d"/>
       <use x="88.916016" xlink:href="#TimesNewRomanPSMT-53"/>
       <use x="144.53125" xlink:href="#TimesNewRomanPSMT-54"/>
       <use x="203.865234" xlink:href="#TimesNewRomanPSMT-4f"/>
       <use x="276.082031" xlink:href="#TimesNewRomanPSMT-50"/>
       <use x="331.697266" xlink:href="#TimesNewRomanPSMT-37"/>
       <use x="381.697266" xlink:href="#TimesNewRomanPSMT-30"/>
      </g>
      <!-- (Const) -->
      <g transform="translate(386.211221 192.837637)scale(0.12 -0.12)">
       <use xlink:href="#TimesNewRomanPSMT-28"/>
       <use x="33.300781" xlink:href="#TimesNewRomanPSMT-43"/>
       <use x="100" xlink:href="#TimesNewRomanPSMT-6f"/>
       <use x="150" xlink:href="#TimesNewRomanPSMT-6e"/>
       <use x="200" xlink:href="#TimesNewRomanPSMT-73"/>
       <use x="238.916016" xlink:href="#TimesNewRomanPSMT-74"/>
       <use x="266.699219" xlink:href="#TimesNewRomanPSMT-29"/>
      </g>
     </g>
    </g>
   </g>
   <g id="matplotlib.axis_8">
    <g id="ytick_13">
     <g id="line2d_17">
      <g>
       <use style="stroke:#000000;stroke-width:0.8;" x="365.795067" xlink:href="#m2b790b8fc1" y="164.939262"/>
      </g>
     </g>
     <g id="text_30">
      <!-- 51.6 -->
      <g transform="translate(344.795067 167.716762)scale(0.08 -0.08)">
       <use xlink:href="#TimesNewRomanPSMT-35"/>
       <use x="50" xlink:href="#TimesNewRomanPSMT-31"/>
       <use x="100" xlink:href="#TimesNewRomanPSMT-2e"/>
       <use x="125" xlink:href="#TimesNewRomanPSMT-36"/>
      </g>
     </g>
    </g>
    <g id="ytick_14">
     <g id="line2d_18">
      <g>
       <use style="stroke:#000000;stroke-width:0.8;" x="365.795067" xlink:href="#m2b790b8fc1" y="124.846802"/>
      </g>
     </g>
     <g id="text_31">
      <!-- 51.9 -->
      <g transform="translate(344.795067 127.624302)scale(0.08 -0.08)">
       <use xlink:href="#TimesNewRomanPSMT-35"/>
       <use x="50" xlink:href="#TimesNewRomanPSMT-31"/>
       <use x="100" xlink:href="#TimesNewRomanPSMT-2e"/>
       <use x="125" xlink:href="#TimesNewRomanPSMT-39"/>
      </g>
     </g>
    </g>
    <g id="ytick_15">
     <g id="line2d_19">
      <g>
       <use style="stroke:#000000;stroke-width:0.8;" x="365.795067" xlink:href="#m2b790b8fc1" y="84.754342"/>
      </g>
     </g>
     <g id="text_32">
      <!-- 52.2 -->
      <g transform="translate(344.795067 87.531842)scale(0.08 -0.08)">
       <use xlink:href="#TimesNewRomanPSMT-35"/>
       <use x="50" xlink:href="#TimesNewRomanPSMT-32"/>
       <use x="100" xlink:href="#TimesNewRomanPSMT-2e"/>
       <use x="125" xlink:href="#TimesNewRomanPSMT-32"/>
      </g>
     </g>
    </g>
    <g id="ytick_16">
     <g id="line2d_20">
      <g>
       <use style="stroke:#000000;stroke-width:0.8;" x="365.795067" xlink:href="#m2b790b8fc1" y="44.661882"/>
      </g>
     </g>
     <g id="text_33">
      <!-- 52.5 -->
      <g transform="translate(344.795067 47.439382)scale(0.08 -0.08)">
       <use xlink:href="#TimesNewRomanPSMT-35"/>
       <use x="50" xlink:href="#TimesNewRomanPSMT-32"/>
       <use x="100" xlink:href="#TimesNewRomanPSMT-2e"/>
       <use x="125" xlink:href="#TimesNewRomanPSMT-35"/>
      </g>
     </g>
    </g>
   </g>
   <g id="patch_34">
    <path d="M 365.795067 164.939262 
L 365.795067 44.661882 
" style="fill:none;stroke:#000000;stroke-linecap:square;stroke-linejoin:miter;stroke-width:0.8;"/>
   </g>
   <g id="patch_35">
    <path d="M 442.627375 164.939262 
L 442.627375 44.661882 
" style="fill:none;stroke:#000000;stroke-linecap:square;stroke-linejoin:miter;stroke-width:0.8;"/>
   </g>
   <g id="patch_36">
    <path d="M 365.795067 164.939262 
L 442.627375 164.939262 
" style="fill:none;stroke:#000000;stroke-linecap:square;stroke-linejoin:miter;stroke-width:0.8;"/>
   </g>
   <g id="patch_37">
    <path d="M 365.795067 44.661882 
L 442.627375 44.661882 
" style="fill:none;stroke:#000000;stroke-linecap:square;stroke-linejoin:miter;stroke-width:0.8;"/>
   </g>
   <g id="text_34">
    <!-- 51.90 -->
    <g transform="translate(369.270295 122.349458)scale(0.07 -0.07)">
     <use xlink:href="#TimesNewRomanPSMT-35"/>
     <use x="50" xlink:href="#TimesNewRomanPSMT-31"/>
     <use x="100" xlink:href="#TimesNewRomanPSMT-2e"/>
     <use x="125" xlink:href="#TimesNewRomanPSMT-39"/>
     <use x="175" xlink:href="#TimesNewRomanPSMT-30"/>
    </g>
   </g>
   <g id="text_35">
    <!-- 51.82 -->
    <g transform="translate(385.859088 133.040781)scale(0.07 -0.07)">
     <use xlink:href="#TimesNewRomanPSMT-35"/>
     <use x="50" xlink:href="#TimesNewRomanPSMT-31"/>
     <use x="100" xlink:href="#TimesNewRomanPSMT-2e"/>
     <use x="125" xlink:href="#TimesNewRomanPSMT-38"/>
     <use x="175" xlink:href="#TimesNewRomanPSMT-32"/>
    </g>
   </g>
   <g id="text_36">
    <!-- 52.04 -->
    <g transform="translate(406.813354 103.639643)scale(0.07 -0.07)">
     <use xlink:href="#TimesNewRomanPSMT-35"/>
     <use x="50" xlink:href="#TimesNewRomanPSMT-32"/>
     <use x="100" xlink:href="#TimesNewRomanPSMT-2e"/>
     <use x="125" xlink:href="#TimesNewRomanPSMT-30"/>
     <use x="175" xlink:href="#TimesNewRomanPSMT-34"/>
    </g>
   </g>
   <g id="text_37">
    <!-- 52.26 -->
    <g transform="translate(423.402148 74.238506)scale(0.07 -0.07)">
     <use xlink:href="#TimesNewRomanPSMT-35"/>
     <use x="50" xlink:href="#TimesNewRomanPSMT-32"/>
     <use x="100" xlink:href="#TimesNewRomanPSMT-2e"/>
     <use x="125" xlink:href="#TimesNewRomanPSMT-32"/>
     <use x="175" xlink:href="#TimesNewRomanPSMT-36"/>
    </g>
   </g>
   <g id="legend_1">
    <g id="patch_38">
     <path d="M 77.624625 34.012812 
L 408.102125 34.012812 
Q 409.702125 34.012812 409.702125 32.412812 
L 409.702125 8.8 
Q 409.702125 7.2 408.102125 7.2 
L 77.624625 7.2 
Q 76.024625 7.2 76.024625 8.8 
L 76.024625 32.412812 
Q 76.024625 34.012812 77.624625 34.012812 
z
" style="fill:#ffffff;opacity:0.8;stroke:#cccccc;stroke-linejoin:miter;"/>
    </g>
    <g id="text_38">
     <!-- DDTM train environment: Uniformly distributed prizes -->
     <g transform="translate(131.63525 17.34375)scale(0.1 -0.1)">
      <defs>
       <path d="M 109 0 
L 109 116 
L 269 116 
Q 538 116 650 288 
Q 719 391 719 750 
L 719 3488 
Q 719 3884 631 3984 
Q 509 4122 269 4122 
L 109 4122 
L 109 4238 
L 1834 4238 
Q 2784 4238 3279 4022 
Q 3775 3806 4076 3303 
Q 4378 2800 4378 2141 
Q 4378 1256 3841 663 
Q 3238 0 2003 0 
L 109 0 
z
M 1319 306 
Q 1716 219 1984 219 
Q 2709 219 3187 728 
Q 3666 1238 3666 2109 
Q 3666 2988 3187 3494 
Q 2709 4000 1959 4000 
Q 1678 4000 1319 3909 
L 1319 306 
z
" id="TimesNewRomanPSMT-44" transform="scale(0.015625)"/>
       <path d="M 1822 413 
Q 1381 72 1269 19 
Q 1100 -59 909 -59 
Q 613 -59 420 144 
Q 228 347 228 678 
Q 228 888 322 1041 
Q 450 1253 767 1440 
Q 1084 1628 1822 1897 
L 1822 2009 
Q 1822 2438 1686 2597 
Q 1550 2756 1291 2756 
Q 1094 2756 978 2650 
Q 859 2544 859 2406 
L 866 2225 
Q 866 2081 792 2003 
Q 719 1925 600 1925 
Q 484 1925 411 2006 
Q 338 2088 338 2228 
Q 338 2497 613 2722 
Q 888 2947 1384 2947 
Q 1766 2947 2009 2819 
Q 2194 2722 2281 2516 
Q 2338 2381 2338 1966 
L 2338 994 
Q 2338 584 2353 492 
Q 2369 400 2405 369 
Q 2441 338 2488 338 
Q 2538 338 2575 359 
Q 2641 400 2828 588 
L 2828 413 
Q 2478 -56 2159 -56 
Q 2006 -56 1915 50 
Q 1825 156 1822 413 
z
M 1822 616 
L 1822 1706 
Q 1350 1519 1213 1441 
Q 966 1303 859 1153 
Q 753 1003 753 825 
Q 753 600 887 451 
Q 1022 303 1197 303 
Q 1434 303 1822 616 
z
" id="TimesNewRomanPSMT-61" transform="scale(0.015625)"/>
       <path d="M 53 2863 
L 1400 2863 
L 1400 2747 
L 1313 2747 
Q 1191 2747 1127 2687 
Q 1063 2628 1063 2528 
Q 1063 2419 1128 2269 
L 1794 688 
L 2463 2328 
Q 2534 2503 2534 2594 
Q 2534 2638 2509 2666 
Q 2475 2713 2422 2730 
Q 2369 2747 2206 2747 
L 2206 2863 
L 3141 2863 
L 3141 2747 
Q 2978 2734 2916 2681 
Q 2806 2588 2719 2369 
L 1703 -88 
L 1575 -88 
L 553 2328 
Q 484 2497 421 2570 
Q 359 2644 263 2694 
Q 209 2722 53 2747 
L 53 2863 
z
" id="TimesNewRomanPSMT-76" transform="scale(0.015625)"/>
       <path d="M 1050 2338 
Q 1363 2650 1419 2697 
Q 1559 2816 1721 2881 
Q 1884 2947 2044 2947 
Q 2313 2947 2506 2790 
Q 2700 2634 2766 2338 
Q 3088 2713 3309 2830 
Q 3531 2947 3766 2947 
Q 3994 2947 4170 2830 
Q 4347 2713 4450 2447 
Q 4519 2266 4519 1878 
L 4519 647 
Q 4519 378 4559 278 
Q 4591 209 4675 161 
Q 4759 113 4950 113 
L 4950 0 
L 3538 0 
L 3538 113 
L 3597 113 
Q 3781 113 3884 184 
Q 3956 234 3988 344 
Q 4000 397 4000 647 
L 4000 1878 
Q 4000 2228 3916 2372 
Q 3794 2572 3525 2572 
Q 3359 2572 3192 2489 
Q 3025 2406 2788 2181 
L 2781 2147 
L 2788 2013 
L 2788 647 
Q 2788 353 2820 281 
Q 2853 209 2943 161 
Q 3034 113 3253 113 
L 3253 0 
L 1806 0 
L 1806 113 
Q 2044 113 2133 169 
Q 2222 225 2256 338 
Q 2272 391 2272 647 
L 2272 1878 
Q 2272 2228 2169 2381 
Q 2031 2581 1784 2581 
Q 1616 2581 1450 2491 
Q 1191 2353 1050 2181 
L 1050 647 
Q 1050 366 1089 281 
Q 1128 197 1204 155 
Q 1281 113 1516 113 
L 1516 0 
L 100 0 
L 100 113 
Q 297 113 375 155 
Q 453 197 493 289 
Q 534 381 534 647 
L 534 1741 
Q 534 2213 506 2350 
Q 484 2453 437 2492 
Q 391 2531 309 2531 
Q 222 2531 100 2484 
L 53 2597 
L 916 2947 
L 1050 2947 
L 1050 2338 
z
" id="TimesNewRomanPSMT-6d" transform="scale(0.015625)"/>
       <path d="M 903 2950 
Q 1047 2950 1148 2848 
Q 1250 2747 1250 2603 
Q 1250 2459 1148 2357 
Q 1047 2256 903 2256 
Q 759 2256 657 2357 
Q 556 2459 556 2603 
Q 556 2747 657 2848 
Q 759 2950 903 2950 
z
M 897 609 
Q 1044 609 1145 506 
Q 1247 403 1247 259 
Q 1247 116 1144 14 
Q 1041 -88 897 -88 
Q 753 -88 651 14 
Q 550 116 550 259 
Q 550 403 651 506 
Q 753 609 897 609 
z
" id="TimesNewRomanPSMT-3a" transform="scale(0.015625)"/>
       <path d="M 1184 4444 
L 1184 647 
Q 1184 378 1223 290 
Q 1263 203 1344 158 
Q 1425 113 1647 113 
L 1647 0 
L 244 0 
L 244 113 
Q 441 113 512 153 
Q 584 194 625 287 
Q 666 381 666 647 
L 666 3247 
Q 666 3731 644 3842 
Q 622 3953 573 3993 
Q 525 4034 450 4034 
Q 369 4034 244 3984 
L 191 4094 
L 1044 4444 
L 1184 4444 
z
" id="TimesNewRomanPSMT-6c" transform="scale(0.015625)"/>
       <path d="M 38 2863 
L 1372 2863 
L 1372 2747 
L 1306 2747 
Q 1166 2747 1095 2686 
Q 1025 2625 1025 2534 
Q 1025 2413 1128 2197 
L 1825 753 
L 2466 2334 
Q 2519 2463 2519 2588 
Q 2519 2644 2497 2672 
Q 2472 2706 2419 2726 
Q 2366 2747 2231 2747 
L 2231 2863 
L 3163 2863 
L 3163 2747 
Q 3047 2734 2984 2696 
Q 2922 2659 2847 2556 
Q 2819 2513 2741 2316 
L 1575 -541 
Q 1406 -956 1132 -1168 
Q 859 -1381 606 -1381 
Q 422 -1381 303 -1275 
Q 184 -1169 184 -1031 
Q 184 -900 270 -820 
Q 356 -741 506 -741 
Q 609 -741 788 -809 
Q 913 -856 944 -856 
Q 1038 -856 1148 -759 
Q 1259 -663 1372 -384 
L 1575 113 
L 547 2272 
Q 500 2369 397 2513 
Q 319 2622 269 2659 
Q 197 2709 38 2747 
L 38 2863 
z
" id="TimesNewRomanPSMT-79" transform="scale(0.015625)"/>
       <path d="M 2222 322 
Q 2013 103 1813 7 
Q 1613 -88 1381 -88 
Q 913 -88 563 304 
Q 213 697 213 1313 
Q 213 1928 600 2439 
Q 988 2950 1597 2950 
Q 1975 2950 2222 2709 
L 2222 3238 
Q 2222 3728 2198 3840 
Q 2175 3953 2125 3993 
Q 2075 4034 2000 4034 
Q 1919 4034 1784 3984 
L 1744 4094 
L 2597 4444 
L 2738 4444 
L 2738 1134 
Q 2738 631 2761 520 
Q 2784 409 2836 365 
Q 2888 322 2956 322 
Q 3041 322 3181 375 
L 3216 266 
L 2366 -88 
L 2222 -88 
L 2222 322 
z
M 2222 541 
L 2222 2016 
Q 2203 2228 2109 2403 
Q 2016 2578 1861 2667 
Q 1706 2756 1559 2756 
Q 1284 2756 1069 2509 
Q 784 2184 784 1559 
Q 784 928 1059 592 
Q 1334 256 1672 256 
Q 1956 256 2222 541 
z
" id="TimesNewRomanPSMT-64" transform="scale(0.015625)"/>
       <path d="M 984 2369 
Q 1400 2947 1881 2947 
Q 2322 2947 2650 2570 
Q 2978 2194 2978 1541 
Q 2978 778 2472 313 
Q 2038 -88 1503 -88 
Q 1253 -88 995 3 
Q 738 94 469 275 
L 469 3241 
Q 469 3728 445 3840 
Q 422 3953 372 3993 
Q 322 4034 247 4034 
Q 159 4034 28 3984 
L -16 4094 
L 844 4444 
L 984 4444 
L 984 2369 
z
M 984 2169 
L 984 456 
Q 1144 300 1314 220 
Q 1484 141 1663 141 
Q 1947 141 2192 453 
Q 2438 766 2438 1363 
Q 2438 1913 2192 2208 
Q 1947 2503 1634 2503 
Q 1469 2503 1303 2419 
Q 1178 2356 984 2169 
z
" id="TimesNewRomanPSMT-62" transform="scale(0.015625)"/>
       <path d="M 2709 2863 
L 2709 1128 
Q 2709 631 2732 520 
Q 2756 409 2807 365 
Q 2859 322 2928 322 
Q 3025 322 3147 375 
L 3191 266 
L 2334 -88 
L 2194 -88 
L 2194 519 
Q 1825 119 1631 15 
Q 1438 -88 1222 -88 
Q 981 -88 804 51 
Q 628 191 559 409 
Q 491 628 491 1028 
L 491 2306 
Q 491 2509 447 2587 
Q 403 2666 317 2708 
Q 231 2750 6 2747 
L 6 2863 
L 1009 2863 
L 1009 947 
Q 1009 547 1148 422 
Q 1288 297 1484 297 
Q 1619 297 1789 381 
Q 1959 466 2194 703 
L 2194 2325 
Q 2194 2569 2105 2655 
Q 2016 2741 1734 2747 
L 1734 2863 
L 2709 2863 
z
" id="TimesNewRomanPSMT-75" transform="scale(0.015625)"/>
       <path d="M -6 2578 
L 875 2934 
L 994 2934 
L 994 2266 
Q 1216 2644 1439 2795 
Q 1663 2947 1909 2947 
Q 2341 2947 2628 2609 
Q 2981 2197 2981 1534 
Q 2981 794 2556 309 
Q 2206 -88 1675 -88 
Q 1444 -88 1275 -22 
Q 1150 25 994 166 
L 994 -706 
Q 994 -1000 1030 -1079 
Q 1066 -1159 1155 -1206 
Q 1244 -1253 1478 -1253 
L 1478 -1369 
L -22 -1369 
L -22 -1253 
L 56 -1253 
Q 228 -1256 350 -1188 
Q 409 -1153 442 -1076 
Q 475 -1000 475 -688 
L 475 2019 
Q 475 2297 450 2372 
Q 425 2447 370 2484 
Q 316 2522 222 2522 
Q 147 2522 31 2478 
L -6 2578 
z
M 994 2081 
L 994 1013 
Q 994 666 1022 556 
Q 1066 375 1236 237 
Q 1406 100 1666 100 
Q 1978 100 2172 344 
Q 2425 663 2425 1241 
Q 2425 1897 2138 2250 
Q 1938 2494 1663 2494 
Q 1513 2494 1366 2419 
Q 1253 2363 994 2081 
z
" id="TimesNewRomanPSMT-70" transform="scale(0.015625)"/>
       <path d="M 2688 878 
L 2653 0 
L 128 0 
L 128 113 
L 2028 2644 
L 1091 2644 
Q 788 2644 694 2605 
Q 600 2566 541 2456 
Q 456 2300 444 2069 
L 319 2069 
L 338 2863 
L 2738 2863 
L 2738 2747 
L 819 209 
L 1863 209 
Q 2191 209 2308 264 
Q 2425 319 2497 456 
Q 2547 556 2581 878 
L 2688 878 
z
" id="TimesNewRomanPSMT-7a" transform="scale(0.015625)"/>
      </defs>
      <use xlink:href="#TimesNewRomanPSMT-44"/>
      <use x="72.216797" xlink:href="#TimesNewRomanPSMT-44"/>
      <use x="144.433594" xlink:href="#TimesNewRomanPSMT-54"/>
      <use x="205.517578" xlink:href="#TimesNewRomanPSMT-4d"/>
      <use x="294.433594" xlink:href="#TimesNewRomanPSMT-20"/>
      <use x="319.433594" xlink:href="#TimesNewRomanPSMT-74"/>
      <use x="347.216797" xlink:href="#TimesNewRomanPSMT-72"/>
      <use x="380.517578" xlink:href="#TimesNewRomanPSMT-61"/>
      <use x="424.902344" xlink:href="#TimesNewRomanPSMT-69"/>
      <use x="452.685547" xlink:href="#TimesNewRomanPSMT-6e"/>
      <use x="502.685547" xlink:href="#TimesNewRomanPSMT-20"/>
      <use x="527.685547" xlink:href="#TimesNewRomanPSMT-65"/>
      <use x="572.070312" xlink:href="#TimesNewRomanPSMT-6e"/>
      <use x="622.070312" xlink:href="#TimesNewRomanPSMT-76"/>
      <use x="672.070312" xlink:href="#TimesNewRomanPSMT-69"/>
      <use x="699.853516" xlink:href="#TimesNewRomanPSMT-72"/>
      <use x="733.154297" xlink:href="#TimesNewRomanPSMT-6f"/>
      <use x="783.154297" xlink:href="#TimesNewRomanPSMT-6e"/>
      <use x="833.154297" xlink:href="#TimesNewRomanPSMT-6d"/>
      <use x="910.9375" xlink:href="#TimesNewRomanPSMT-65"/>
      <use x="955.322266" xlink:href="#TimesNewRomanPSMT-6e"/>
      <use x="1005.322266" xlink:href="#TimesNewRomanPSMT-74"/>
      <use x="1033.105469" xlink:href="#TimesNewRomanPSMT-3a"/>
      <use x="1060.888672" xlink:href="#TimesNewRomanPSMT-20"/>
      <use x="1085.888672" xlink:href="#TimesNewRomanPSMT-55"/>
      <use x="1158.105469" xlink:href="#TimesNewRomanPSMT-6e"/>
      <use x="1208.105469" xlink:href="#TimesNewRomanPSMT-69"/>
      <use x="1235.888672" xlink:href="#TimesNewRomanPSMT-66"/>
      <use x="1269.189453" xlink:href="#TimesNewRomanPSMT-6f"/>
      <use x="1319.189453" xlink:href="#TimesNewRomanPSMT-72"/>
      <use x="1352.490234" xlink:href="#TimesNewRomanPSMT-6d"/>
      <use x="1430.273438" xlink:href="#TimesNewRomanPSMT-6c"/>
      <use x="1458.056641" xlink:href="#TimesNewRomanPSMT-79"/>
      <use x="1508.056641" xlink:href="#TimesNewRomanPSMT-20"/>
      <use x="1533.056641" xlink:href="#TimesNewRomanPSMT-64"/>
      <use x="1583.056641" xlink:href="#TimesNewRomanPSMT-69"/>
      <use x="1610.839844" xlink:href="#TimesNewRomanPSMT-73"/>
      <use x="1649.755859" xlink:href="#TimesNewRomanPSMT-74"/>
      <use x="1677.539062" xlink:href="#TimesNewRomanPSMT-72"/>
      <use x="1710.839844" xlink:href="#TimesNewRomanPSMT-69"/>
      <use x="1738.623047" xlink:href="#TimesNewRomanPSMT-62"/>
      <use x="1788.623047" xlink:href="#TimesNewRomanPSMT-75"/>
      <use x="1838.623047" xlink:href="#TimesNewRomanPSMT-74"/>
      <use x="1866.40625" xlink:href="#TimesNewRomanPSMT-65"/>
      <use x="1910.791016" xlink:href="#TimesNewRomanPSMT-64"/>
      <use x="1960.791016" xlink:href="#TimesNewRomanPSMT-20"/>
      <use x="1985.791016" xlink:href="#TimesNewRomanPSMT-70"/>
      <use x="2035.791016" xlink:href="#TimesNewRomanPSMT-72"/>
      <use x="2069.091797" xlink:href="#TimesNewRomanPSMT-69"/>
      <use x="2096.875" xlink:href="#TimesNewRomanPSMT-7a"/>
      <use x="2141.259766" xlink:href="#TimesNewRomanPSMT-65"/>
      <use x="2185.644531" xlink:href="#TimesNewRomanPSMT-73"/>
     </g>
    </g>
    <g id="patch_39">
     <path d="M 79.224625 29.101562 
L 95.224625 29.101562 
L 95.224625 23.501562 
L 79.224625 23.501562 
z
" style="fill:#b32417;opacity:0.85;stroke:#b32417;stroke-linejoin:miter;stroke-width:2;"/>
    </g>
    <g id="text_39">
     <!-- MSTOP50 (B) -->
     <g transform="translate(101.624625 29.101562)scale(0.08 -0.08)">
      <defs>
       <path d="M 2956 2163 
Q 3397 2069 3616 1863 
Q 3919 1575 3919 1159 
Q 3919 844 3719 555 
Q 3519 266 3170 133 
Q 2822 0 2106 0 
L 106 0 
L 106 116 
L 266 116 
Q 531 116 647 284 
Q 719 394 719 750 
L 719 3488 
Q 719 3881 628 3984 
Q 506 4122 266 4122 
L 106 4122 
L 106 4238 
L 1938 4238 
Q 2450 4238 2759 4163 
Q 3228 4050 3475 3764 
Q 3722 3478 3722 3106 
Q 3722 2788 3528 2536 
Q 3334 2284 2956 2163 
z
M 1319 2331 
Q 1434 2309 1582 2298 
Q 1731 2288 1909 2288 
Q 2366 2288 2595 2386 
Q 2825 2484 2947 2687 
Q 3069 2891 3069 3131 
Q 3069 3503 2766 3765 
Q 2463 4028 1881 4028 
Q 1569 4028 1319 3959 
L 1319 2331 
z
M 1319 306 
Q 1681 222 2034 222 
Q 2600 222 2897 476 
Q 3194 731 3194 1106 
Q 3194 1353 3059 1581 
Q 2925 1809 2622 1940 
Q 2319 2072 1872 2072 
Q 1678 2072 1540 2065 
Q 1403 2059 1319 2044 
L 1319 306 
z
" id="TimesNewRomanPSMT-42" transform="scale(0.015625)"/>
      </defs>
      <use xlink:href="#TimesNewRomanPSMT-4d"/>
      <use x="88.916016" xlink:href="#TimesNewRomanPSMT-53"/>
      <use x="144.53125" xlink:href="#TimesNewRomanPSMT-54"/>
      <use x="203.865234" xlink:href="#TimesNewRomanPSMT-4f"/>
      <use x="276.082031" xlink:href="#TimesNewRomanPSMT-50"/>
      <use x="331.697266" xlink:href="#TimesNewRomanPSMT-35"/>
      <use x="381.697266" xlink:href="#TimesNewRomanPSMT-30"/>
      <use x="431.697266" xlink:href="#TimesNewRomanPSMT-20"/>
      <use x="456.697266" xlink:href="#TimesNewRomanPSMT-28"/>
      <use x="489.998047" xlink:href="#TimesNewRomanPSMT-42"/>
      <use x="556.697266" xlink:href="#TimesNewRomanPSMT-29"/>
     </g>
    </g>
    <g id="patch_40">
     <path d="M 164.823375 29.101562 
L 180.823375 29.101562 
L 180.823375 23.501562 
L 164.823375 23.501562 
z
" style="fill:url(#h69c9eb1861);"/>
    </g>
    <g id="text_40">
     <!-- MSTOP50 (D) -->
     <g transform="translate(187.223375 29.101562)scale(0.08 -0.08)">
      <use xlink:href="#TimesNewRomanPSMT-4d"/>
      <use x="88.916016" xlink:href="#TimesNewRomanPSMT-53"/>
      <use x="144.53125" xlink:href="#TimesNewRomanPSMT-54"/>
      <use x="203.865234" xlink:href="#TimesNewRomanPSMT-4f"/>
      <use x="276.082031" xlink:href="#TimesNewRomanPSMT-50"/>
      <use x="331.697266" xlink:href="#TimesNewRomanPSMT-35"/>
      <use x="381.697266" xlink:href="#TimesNewRomanPSMT-30"/>
      <use x="431.697266" xlink:href="#TimesNewRomanPSMT-20"/>
      <use x="456.697266" xlink:href="#TimesNewRomanPSMT-28"/>
      <use x="489.998047" xlink:href="#TimesNewRomanPSMT-44"/>
      <use x="562.214844" xlink:href="#TimesNewRomanPSMT-29"/>
     </g>
    </g>
    <g id="patch_41">
     <path d="M 250.863375 29.101562 
L 266.863375 29.101562 
L 266.863375 23.501562 
L 250.863375 23.501562 
z
" style="fill:#7a003c;opacity:0.85;stroke:#7a003c;stroke-linejoin:miter;stroke-width:2;"/>
    </g>
    <g id="text_41">
     <!-- MSTOP70 (B) -->
     <g transform="translate(273.263375 29.101562)scale(0.08 -0.08)">
      <use xlink:href="#TimesNewRomanPSMT-4d"/>
      <use x="88.916016" xlink:href="#TimesNewRomanPSMT-53"/>
      <use x="144.53125" xlink:href="#TimesNewRomanPSMT-54"/>
      <use x="203.865234" xlink:href="#TimesNewRomanPSMT-4f"/>
      <use x="276.082031" xlink:href="#TimesNewRomanPSMT-50"/>
      <use x="331.697266" xlink:href="#TimesNewRomanPSMT-37"/>
      <use x="381.697266" xlink:href="#TimesNewRomanPSMT-30"/>
      <use x="431.697266" xlink:href="#TimesNewRomanPSMT-20"/>
      <use x="456.697266" xlink:href="#TimesNewRomanPSMT-28"/>
      <use x="489.998047" xlink:href="#TimesNewRomanPSMT-42"/>
      <use x="556.697266" xlink:href="#TimesNewRomanPSMT-29"/>
     </g>
    </g>
    <g id="patch_42">
     <path d="M 336.462125 29.101562 
L 352.462125 29.101562 
L 352.462125 23.501562 
L 336.462125 23.501562 
z
" style="fill:url(#h06c59afed3);"/>
    </g>
    <g id="text_42">
     <!-- MSTOP70 (D) -->
     <g transform="translate(358.862125 29.101562)scale(0.08 -0.08)">
      <use xlink:href="#TimesNewRomanPSMT-4d"/>
      <use x="88.916016" xlink:href="#TimesNewRomanPSMT-53"/>
      <use x="144.53125" xlink:href="#TimesNewRomanPSMT-54"/>
      <use x="203.865234" xlink:href="#TimesNewRomanPSMT-4f"/>
      <use x="276.082031" xlink:href="#TimesNewRomanPSMT-50"/>
      <use x="331.697266" xlink:href="#TimesNewRomanPSMT-37"/>
      <use x="381.697266" xlink:href="#TimesNewRomanPSMT-30"/>
      <use x="431.697266" xlink:href="#TimesNewRomanPSMT-20"/>
      <use x="456.697266" xlink:href="#TimesNewRomanPSMT-28"/>
      <use x="489.998047" xlink:href="#TimesNewRomanPSMT-44"/>
      <use x="562.214844" xlink:href="#TimesNewRomanPSMT-29"/>
     </g>
    </g>
   </g>
  </g>
 </g>
 <defs>
  <clipPath id="pd0d96da97e">
   <rect height="120.277379" width="76.832308" x="43.099375" y="44.661882"/>
  </clipPath>
  <clipPath id="p0a4c7c836f">
   <rect height="120.277379" width="76.832308" x="150.664606" y="44.661882"/>
  </clipPath>
  <clipPath id="p4229c5d7f9">
   <rect height="120.277379" width="76.832308" x="258.229837" y="44.661882"/>
  </clipPath>
  <clipPath id="p232f7d7751">
   <rect height="120.277379" width="76.832308" x="365.795067" y="44.661882"/>
  </clipPath>
 </defs>
 <defs>
  <pattern height="72" id="h69c9eb1861" patternUnits="userSpaceOnUse" width="72" x="0" y="0">
   <rect fill="#f39920" height="73" width="73" x="0" y="0"/>
   <path d="M -36 36 
L 36 -36 
M -30 42 
L 42 -30 
M -24 48 
L 48 -24 
M -18 54 
L 54 -18 
M -12 60 
L 60 -12 
M -6 66 
L 66 -6 
M 0 72 
L 72 0 
M 6 78 
L 78 6 
M 12 84 
L 84 12 
M 18 90 
L 90 18 
M 24 96 
L 96 24 
M 30 102 
L 102 30 
M 36 108 
L 108 36 
" style="fill:#696969;stroke:#696969;stroke-linecap:butt;stroke-linejoin:miter;stroke-width:2.0;"/>
  </pattern>
  <pattern height="72" id="h06c59afed3" patternUnits="userSpaceOnUse" width="72" x="0" y="0">
   <rect fill="#f0607c" height="73" width="73" x="0" y="0"/>
   <path d="M -36 36 
L 36 -36 
M -30 42 
L 42 -30 
M -24 48 
L 48 -24 
M -18 54 
L 54 -18 
M -12 60 
L 60 -12 
M -6 66 
L 66 -6 
M 0 72 
L 72 0 
M 6 78 
L 78 6 
M 12 84 
L 84 12 
M 18 90 
L 90 18 
M 24 96 
L 96 24 
M 30 102 
L 102 30 
M 36 108 
L 108 36 
" style="fill:#696969;stroke:#696969;stroke-linecap:butt;stroke-linejoin:miter;stroke-width:2.0;"/>
  </pattern>
 </defs>
</svg>
